<?xml version="1.0" encoding="utf-8"?>
<!-- Generator: Adobe Illustrator 24.0.2, SVG Export Plug-In . SVG Version: 6.00 Build 0)  -->
<svg version="1.1" id="Layer_1" xmlns="http://www.w3.org/2000/svg" xmlns:xlink="http://www.w3.org/1999/xlink" x="0px" y="0px"
	 viewBox="0 0 875.38 327.69" style="enable-background:new 0 0 875.38 327.69;" xml:space="preserve">
<style type="text/css">
	.st0{fill:#EFB156;}
	.st1{fill:#3E3E3F;}
	.st2{fill:#F9C8C9;}
	.st3{fill:#FAD7D7;}
	.st4{fill:#EF7A18;}
	.st5{fill:#F3903A;}
	.st6{fill:#9E9FA0;}
	.st7{fill:#AB688B;}
	.st8{fill:#F6B5B5;}
	.st9{fill:#EB5858;}
	.st10{fill:#F29292;}
	.st11{fill:#FFFFFF;}
	.st12{fill:#686867;}
	.st13{fill:#3B6D72;}
	.st14{fill:none;}
	.st15{fill:none;stroke:#3B6D72;stroke-miterlimit:10;}
	.st16{fill:#EFB156;stroke:#DD9F30;stroke-miterlimit:10;}
	.st17{fill:#676766;}
	.st18{fill:none;stroke:#000000;stroke-miterlimit:10;}
	.st19{stroke:#000000;stroke-miterlimit:10;}
</style>
<circle id="XMLID_30_" class="st0" cx="296.79" cy="71.58" r="31.56"/>
<path id="XMLID_29_" class="st1" d="M312.91,83.62c-0.39-0.78-0.97-1.36-1.75-1.75l-8.54-2.33v-3.4l-2.91,2.33
	c-0.29,0.39-0.78,0.58-1.26,0.58h-1.65h-1.55c-0.49,0-0.97-0.19-1.26-0.58l-2.91-2.33v3.4l-8.54,2.33
	c-0.78,0.29-1.36,0.97-1.75,1.75l-2.33,6.31h18.35h18.35L312.91,83.62z"/>
<path id="XMLID_28_" class="st2" d="M306.6,67.12c0-0.68-0.58-1.26-1.17-1.26c-0.58,0-0.58,0.68-0.58,0.68v-0.68
	c0-5.15-0.58-8.64-8.06-8.64s-8.06,3.4-8.06,8.64v4.56l2.33,5.73l2.91,2.33c0.29,0.39,0.78,0.58,1.26,0.58h1.55h1.55
	c0.49,0,0.97-0.19,1.26-0.58l2.91-2.33l1.84-4.56C306.02,71.48,306.6,68.96,306.6,67.12z"/>
<path id="XMLID_27_" class="st3" d="M288.73,65.85v0.68c0,0,0-0.68-0.58-0.68c-0.58,0-1.07,0.58-1.07,1.26
	c0,1.84,0.58,4.37,2.14,4.47l1.84,4.56l2.91,2.33c0.29,0.39,0.78,0.58,1.26,0.58h1.55V57.21C289.32,57.21,288.83,60.71,288.73,65.85
	z"/>
<path id="XMLID_26_" class="st4" d="M304.95,60.9c1.55-2.23,1.55-4.85,1.55-4.85h-9.71h-3.88c-1.46,0-2.91,0.58-3.88,1.75
	c-0.97,1.07-1.46,2.62-1.26,4.08l1.65,10l1.75,4.27l2.91,2.33c0.29,0.39,0.78,0.58,1.26,0.58h1.46h1.55c0.49,0,0.97-0.19,1.26-0.58
	l2.91-2.33l1.75-4.27l1.36-9.52c0.1-0.39,0-0.87-0.29-1.17C305.24,61.1,305.14,61,304.95,60.9z M304.27,65.85l-1.17,5.73l0,0
	l-1.75,3.4h-0.58L300,72.75c-0.19-0.68-0.87-1.17-1.65-1.17h-1.55h-1.65c-0.78,0-1.36,0.49-1.65,1.17l-0.78,2.23h-0.58l-1.65-3.4
	l0,0l-1.17-5.73v-5.15c0,0,0,3.11,7.48,3.4c0.39,0,0.78,0,1.17,0c3.11,0,5.05-1.07,6.31-2.33V65.85z"/>
<path id="XMLID_25_" class="st5" d="M289.32,71.87l1.75,4.27l2.91,2.33c0.29,0.39,0.78,0.58,1.26,0.58h1.55v-7.48h-1.65
	c-0.78,0-1.36,0.49-1.65,1.17l-0.78,2.23h-0.58l-1.65-3.4l0,0l-1.17-5.73v-5.15c0,0,0,3.11,7.48,3.4v-8.06h-3.88
	c-1.46,0-2.91,0.58-3.88,1.75c-0.97,1.07-1.46,2.62-1.26,4.08"/>
<path id="XMLID_24_" class="st3" d="M294.56,73.33h4.56c0,0,0,1.75-2.33,1.75S294.56,73.33,294.56,73.33z"/>
<path id="XMLID_23_" class="st1" d="M300.58,64.49c-1.36,0-2.82,0.97-2.82,0.97h-0.97h-0.97c0,0-1.36-0.97-2.82-0.97
	c-2.33,0-3.69,0.97-3.69,0.97v0.49h0.49c0,2.82,0.97,4.18,3.4,4.18c2.43,0,2.91-2.33,2.91-3.01c0-0.68,0.68-0.78,0.68-0.78
	s0.68,0.1,0.68,0.78c0,0.68,0.49,3.01,2.91,3.01c2.43,0,3.4-1.36,3.4-4.18h0.49v-0.49C304.27,65.37,302.91,64.49,300.58,64.49z"/>
<path id="XMLID_22_" class="st6" d="M293.1,65.37c-1.26,0-2.33,0.58-2.33,1.84c0,0.49,0.19,0.97,0.49,1.36l3.01-3.01
	C293.88,65.46,293.49,65.37,293.1,65.37z"/>
<path id="XMLID_3_" class="st6" d="M300.58,65.37c-1.26,0-2.33,0.58-2.33,1.84c0,0.49,0.19,0.97,0.49,1.36l3.01-3.01
	C301.45,65.46,300.97,65.37,300.58,65.37z"/>
<circle id="XMLID_44_" class="st7" cx="52.35" cy="71.39" r="32.5"/>
<path id="XMLID_43_" class="st8" d="M71.26,90.3l-2.12-5.52c-0.53-1.37-1.65-2.41-3.05-2.83l-7.82-1.87v-4.89
	c-1.68,2.6-3.97,3.82-5.91,4.47c-1.94-0.65-4.23-1.87-5.91-4.46v6.23c0,0,1.18,2.36,5.91,2.36v6.5H71.26z"/>
<path id="XMLID_42_" class="st1" d="M58.26,80.09l2.95,0.7V70.67c-0.34,0.34-0.76,0.58-1.29,0.68c-0.41,1.54-0.99,2.81-1.67,3.85
	V80.09z"/>
<path id="XMLID_41_" class="st2" d="M46.44,75.21v4.88l-7.82,1.87c-1.4,0.42-2.53,1.47-3.05,2.83l-2.12,5.52h18.91V79.67
	C50.42,79.02,48.12,77.8,46.44,75.21z"/>
<path id="XMLID_40_" class="st2" d="M61.23,65.49L61.23,65.49c-0.9,0.25-5.18-0.86-5.33-9.59c-0.97-0.29-2.14-0.45-3.55-0.45
	c-7.67,0-8.26,4.71-8.27,10.03c0,9.93,4.73,13.01,8.27,14.19c2.72-0.91,6.13-2.94,7.58-8.32c1.96-0.34,2.47-2.73,2.47-4.55
	C62.4,66.15,61.82,65.5,61.23,65.49z"/>
<path id="XMLID_39_" class="st9" d="M69.14,84.78c-0.35-0.9-0.96-1.65-1.73-2.19c-1.45,2.71-7.9,4.75-15.65,4.75
	c-7.12,0-13.16-1.73-15.21-4.12c-0.42,0.44-0.76,0.97-0.99,1.55l-2.12,5.52h18.91h18.91L69.14,84.78z"/>
<path id="XMLID_38_" class="st3" d="M52.35,55.44c-7.67,0-8.26,4.71-8.27,10.03c0,9.93,4.73,13.01,8.27,14.19V55.44z"/>
<path id="XMLID_37_" class="st1" d="M50.58,66.67c0-0.65-0.53-1.18-1.18-1.18h0l0,0.04c0,0.65-0.53,1.18-1.18,1.18
	c0.02,0.64,0.54,1.15,1.18,1.15C50.05,67.85,50.58,67.32,50.58,66.67z"/>
<path id="XMLID_36_" class="st1" d="M56.49,66.67c0-0.65-0.53-1.18-1.18-1.18h0l0,0.04c0,0.65-0.53,1.18-1.18,1.18
	c0.02,0.64,0.54,1.15,1.18,1.15C55.96,67.85,56.49,67.32,56.49,66.67z"/>
<path id="XMLID_35_" class="st10" d="M49.4,73.17h5.91c0,0,0,1.77-2.95,1.77C49.4,74.94,49.4,73.17,49.4,73.17z"/>
<path id="XMLID_34_" class="st1" d="M41.72,61.94v27.18c0,0,6.5-3.55,6.5-14.35v-9.28c0-9.45,8.27-4.73,7.68-10.05
	C55.9,50.71,41.72,53.07,41.72,61.94z"/>
<path id="XMLID_33_" class="st1" d="M55.9,55.48c0.01,9.12,4.41,10.27,5.33,10.02c0-1.92,1.26-10.03-5.29-10.06L55.9,55.48z"/>
<path id="XMLID_32_" class="st11" d="M60.83,71.98l0.9,2.18c0.15,0.37,0.07,0.79-0.21,1.06c-0.38,0.38-1,0.38-1.38,0
	c-0.28-0.28-0.36-0.7-0.21-1.06L60.83,71.98z"/>
<g>
	<path class="st12" d="M31.66,26.98l-0.97-2.74H25.4l-0.97,2.74h-1.38l4.45-12.1h1.09l4.44,12.1H31.66z M28.07,16.73l-2.28,6.39
		h4.52L28.07,16.73z"/>
	<path class="st12" d="M38.02,27.08c-2.11,0-3.71-1.43-3.71-4.28c0-2.86,1.6-4.28,3.71-4.28c1.16,0,1.89,0.31,2.75,1.24l-0.83,0.78
		c-0.63-0.7-1.12-0.94-1.92-0.94c-0.82,0-1.5,0.32-1.94,0.95c-0.39,0.54-0.54,1.19-0.54,2.24c0,1.05,0.15,1.7,0.54,2.24
		c0.44,0.63,1.12,0.95,1.94,0.95c0.8,0,1.29-0.25,1.92-0.95l0.83,0.8C39.9,26.77,39.17,27.08,38.02,27.08z"/>
	<path class="st12" d="M46.09,27.08c-2.11,0-3.71-1.43-3.71-4.28c0-2.86,1.6-4.28,3.71-4.28c1.16,0,1.89,0.31,2.75,1.24l-0.83,0.78
		c-0.63-0.7-1.12-0.94-1.92-0.94c-0.82,0-1.5,0.32-1.94,0.95c-0.39,0.54-0.54,1.19-0.54,2.24c0,1.05,0.15,1.7,0.54,2.24
		c0.44,0.63,1.12,0.95,1.94,0.95c0.8,0,1.29-0.25,1.92-0.95l0.83,0.8C47.98,26.77,47.25,27.08,46.09,27.08z"/>
	<path class="st12" d="M56.29,26.13c-0.58,0.58-1.38,0.95-2.4,0.95c-1.02,0-1.82-0.37-2.4-0.95c-0.85-0.87-1.02-2.04-1.02-3.33
		s0.17-2.46,1.02-3.33c0.58-0.58,1.38-0.95,2.4-0.95c1.02,0,1.82,0.37,2.4,0.95c0.85,0.87,1.02,2.04,1.02,3.33
		S57.14,25.26,56.29,26.13z M55.42,20.21c-0.39-0.39-0.93-0.61-1.53-0.61c-0.59,0-1.12,0.22-1.51,0.61
		c-0.61,0.61-0.68,1.65-0.68,2.58s0.07,1.97,0.68,2.58c0.39,0.39,0.92,0.61,1.51,0.61c0.6,0,1.14-0.22,1.53-0.61
		c0.61-0.61,0.66-1.65,0.66-2.58S56.04,20.83,55.42,20.21z"/>
	<path class="st12" d="M65.22,26.98v-0.94c-0.6,0.68-1.43,1.04-2.36,1.04c-0.9,0-1.65-0.27-2.16-0.78c-0.6-0.58-0.85-1.38-0.85-2.35
		v-5.34h1.22v5.15c0,1.48,0.78,2.23,2.04,2.23c1.26,0,2.09-0.77,2.09-2.23v-5.15h1.22v8.36H65.22z"/>
	<path class="st12" d="M74.84,26.98v-5.15c0-1.48-0.8-2.23-2.06-2.23s-2.07,0.77-2.07,2.23v5.15h-1.22v-8.36h1.22v0.92
		c0.59-0.68,1.41-1.02,2.35-1.02c0.9,0,1.63,0.27,2.14,0.78c0.6,0.58,0.87,1.36,0.87,2.33v5.35H74.84z"/>
	<path class="st12" d="M81.38,26.98c-1.43,0-2.14-1-2.14-2.24V19.6h-1.05v-0.93h1.05v-2.62h1.22v2.62h1.79v0.93h-1.79v5.1
		c0,0.77,0.36,1.22,1.14,1.22h0.65v1.05H81.38z"/>
</g>
<g>
	<path class="st12" d="M271.93,25.96c-0.73,0.73-1.8,1.12-3.06,1.12h-4.15v-12.1h4.15c1.26,0,2.33,0.39,3.06,1.12
		c1.26,1.26,1.19,3.11,1.19,4.79C273.12,22.58,273.19,24.7,271.93,25.96z M271.03,17.02c-0.63-0.65-1.44-0.88-2.38-0.88h-2.63v9.79
		h2.63c0.94,0,1.75-0.24,2.38-0.88c0.83-0.87,0.8-2.67,0.8-4.15C271.83,19.41,271.87,17.88,271.03,17.02z"/>
	<path class="st12" d="M276.71,23.22c0,1.84,0.87,2.89,2.47,2.89c0.97,0,1.53-0.29,2.19-0.95l0.83,0.73
		c-0.85,0.85-1.63,1.29-3.06,1.29c-2.21,0-3.66-1.33-3.66-4.28c0-2.7,1.31-4.28,3.43-4.28c2.16,0,3.43,1.56,3.43,4.05v0.56H276.71z
		 M280.88,20.91c-0.32-0.76-1.07-1.26-1.96-1.26c-0.88,0-1.63,0.49-1.95,1.26c-0.19,0.46-0.22,0.71-0.25,1.39h4.42
		C281.1,21.62,281.06,21.37,280.88,20.91z"/>
	<path class="st12" d="M287.05,27.08c-1.46,0-2.12-0.95-2.12-2.23v-9.88h1.22v9.83c0,0.82,0.27,1.22,1.12,1.22h0.66v1.05H287.05z"/>
	<path class="st12" d="M290.35,23.22c0,1.84,0.87,2.89,2.46,2.89c0.97,0,1.53-0.29,2.19-0.95l0.83,0.73
		c-0.85,0.85-1.63,1.29-3.06,1.29c-2.21,0-3.66-1.33-3.66-4.28c0-2.7,1.31-4.28,3.43-4.28c2.16,0,3.43,1.56,3.43,4.05v0.56H290.35z
		 M294.51,20.91c-0.32-0.76-1.07-1.26-1.96-1.26c-0.88,0-1.63,0.49-1.95,1.26c-0.19,0.46-0.22,0.71-0.25,1.39h4.42
		C294.73,21.62,294.7,21.37,294.51,20.91z"/>
	<path class="st12" d="M301.28,30.92c-1.26,0-1.96-0.32-2.84-1.12l0.8-0.78c0.61,0.54,1.04,0.83,2.01,0.83
		c1.61,0,2.29-1.14,2.29-2.57v-1.31c-0.68,0.87-1.45,1.09-2.35,1.09c-0.85,0-1.58-0.31-2.02-0.75c-0.83-0.83-1.02-2.12-1.02-3.48
		s0.19-2.65,1.02-3.48c0.44-0.44,1.19-0.73,2.04-0.73c0.92,0,1.67,0.2,2.35,1.09v-0.99h1.21v8.62
		C304.76,29.41,303.47,30.92,301.28,30.92z M301.46,19.7c-1.82,0-2.09,1.56-2.09,3.13s0.27,3.13,2.09,3.13s2.07-1.56,2.07-3.13
		S303.28,19.7,301.46,19.7z"/>
	<path class="st12" d="M312.56,27.08v-0.8c-0.68,0.68-1.29,0.9-2.41,0.9c-1.16,0-1.83-0.22-2.36-0.77c-0.41-0.41-0.63-1.04-0.63-1.7
		c0-1.46,1.02-2.41,2.89-2.41h2.52v-0.8c0-1.22-0.61-1.84-2.14-1.84c-1.07,0-1.62,0.25-2.11,0.95l-0.83-0.76
		c0.75-0.97,1.6-1.24,2.96-1.24c2.24,0,3.35,0.97,3.35,2.79v5.68H312.56z M312.56,23.22h-2.35c-1.26,0-1.87,0.51-1.87,1.48
		c0,0.97,0.6,1.43,1.92,1.43c0.71,0,1.34-0.05,1.87-0.56c0.29-0.27,0.42-0.75,0.42-1.44V23.22z"/>
	<path class="st12" d="M319.11,27.08c-1.43,0-2.14-1-2.14-2.24V19.7h-1.05v-0.93h1.05v-2.62h1.22v2.62h1.79v0.93h-1.79v5.1
		c0,0.77,0.36,1.22,1.14,1.22h0.65v1.05H319.11z"/>
	<path class="st12" d="M323.03,23.22c0,1.84,0.87,2.89,2.46,2.89c0.97,0,1.53-0.29,2.19-0.95l0.83,0.73
		c-0.85,0.85-1.63,1.29-3.06,1.29c-2.21,0-3.65-1.33-3.65-4.28c0-2.7,1.31-4.28,3.43-4.28c2.16,0,3.43,1.56,3.43,4.05v0.56H323.03z
		 M327.2,20.91c-0.32-0.76-1.07-1.26-1.96-1.26s-1.63,0.49-1.96,1.26c-0.19,0.46-0.22,0.71-0.25,1.39h4.42
		C327.42,21.62,327.39,21.37,327.2,20.91z"/>
</g>
<rect x="20.08" y="130.27" class="st13" width="100.09" height="24.67"/>
<g>
	<rect x="24.25" y="135.92" class="st14" width="89.26" height="14.35"/>
	<path class="st11" d="M59.95,148.02v-10.74l-2.26,1.99v-1.39l2.26-1.95h1.22v12.1H59.95z"/>
	<path class="st11" d="M68.88,148.12c-1.89,0-3.31-1.33-3.31-3.33v-5.64c0-2.01,1.43-3.33,3.31-3.33s3.31,1.33,3.31,3.33v5.64
		C72.19,146.8,70.76,148.12,68.88,148.12z M70.97,139.22c0-1.33-0.75-2.31-2.09-2.31s-2.09,0.99-2.09,2.31v5.51
		c0,1.33,0.75,2.31,2.09,2.31s2.09-0.99,2.09-2.31V139.22z"/>
	<path class="st11" d="M77.75,148.12c-1.89,0-3.31-1.33-3.31-3.33v-5.64c0-2.01,1.43-3.33,3.31-3.33s3.31,1.33,3.31,3.33v5.64
		C81.06,146.8,79.64,148.12,77.75,148.12z M79.84,139.22c0-1.33-0.75-2.31-2.09-2.31s-2.09,0.99-2.09,2.31v5.51
		c0,1.33,0.75,2.31,2.09,2.31s2.09-0.99,2.09-2.31V139.22z"/>
</g>
<rect x="262.98" y="128.27" class="st13" width="100.09" height="24.67"/>
<g>
	<rect x="267.14" y="133.92" class="st14" width="89.26" height="14.35"/>
	<path class="st11" d="M301.03,140.03l-2.97,6h-1.27l2.72-5.44c-0.37,0.17-0.82,0.25-1.29,0.25c-1.89,0-3.13-1.44-3.13-3.43
		c0-2.06,1.29-3.59,3.35-3.59s3.37,1.39,3.37,3.49C301.79,138.17,301.54,139.01,301.03,140.03z M298.43,134.91
		c-1.29,0-2.13,0.97-2.13,2.45c0,1.34,0.73,2.45,2.13,2.45c1.29,0,2.14-0.95,2.14-2.45C300.57,135.88,299.72,134.91,298.43,134.91z"
		/>
	<path class="st11" d="M307.33,146.13c-1.89,0-3.31-1.33-3.31-3.33v-5.64c0-2.01,1.43-3.33,3.31-3.33s3.31,1.33,3.31,3.33v5.64
		C310.65,144.8,309.22,146.13,307.33,146.13z M309.42,137.22c0-1.33-0.75-2.31-2.09-2.31s-2.09,0.99-2.09,2.31v5.51
		c0,1.33,0.75,2.31,2.09,2.31s2.09-0.99,2.09-2.31V137.22z"/>
	<path class="st11" d="M316.21,146.13c-1.89,0-3.31-1.33-3.31-3.33v-5.64c0-2.01,1.43-3.33,3.31-3.33s3.31,1.33,3.31,3.33v5.64
		C319.52,144.8,318.09,146.13,316.21,146.13z M318.3,137.22c0-1.33-0.75-2.31-2.09-2.31s-2.09,0.99-2.09,2.31v5.51
		c0,1.33,0.75,2.31,2.09,2.31s2.09-0.99,2.09-2.31V137.22z"/>
	<path class="st11" d="M325.08,146.13c-1.89,0-3.31-1.33-3.31-3.33v-5.64c0-2.01,1.43-3.33,3.31-3.33s3.31,1.33,3.31,3.33v5.64
		C328.4,144.8,326.97,146.13,325.08,146.13z M327.17,137.22c0-1.33-0.75-2.31-2.09-2.31s-2.09,0.99-2.09,2.31v5.51
		c0,1.33,0.75,2.31,2.09,2.31s2.09-0.99,2.09-2.31V137.22z"/>
</g>
<line class="st15" x1="46.35" y1="194.94" x2="46.35" y2="234.95"/>
<rect x="261.73" y="251.69" class="st13" width="100.09" height="24.67"/>
<g>
	<rect x="264.89" y="257.34" class="st14" width="89.26" height="14.35"/>
	<path class="st11" d="M298.78,263.45l-2.97,6h-1.28l2.72-5.44c-0.37,0.17-0.82,0.25-1.29,0.25c-1.89,0-3.13-1.44-3.13-3.43
		c0-2.06,1.29-3.59,3.35-3.59c2.06,0,3.37,1.39,3.37,3.49C299.54,261.59,299.29,262.43,298.78,263.45z M296.18,258.33
		c-1.29,0-2.12,0.97-2.12,2.45c0,1.34,0.73,2.45,2.12,2.45c1.29,0,2.14-0.95,2.14-2.45C298.32,259.3,297.47,258.33,296.18,258.33z"
		/>
	<path class="st11" d="M305.03,269.45V258.7l-2.26,1.99v-1.39l2.26-1.95h1.22v12.1H305.03z"/>
	<path class="st11" d="M313.96,269.55c-1.89,0-3.31-1.33-3.31-3.33v-5.64c0-2.01,1.43-3.33,3.31-3.33s3.31,1.33,3.31,3.33v5.64
		C317.27,268.22,315.84,269.55,313.96,269.55z M316.05,260.64c0-1.33-0.75-2.31-2.09-2.31s-2.09,0.99-2.09,2.31v5.51
		c0,1.33,0.75,2.31,2.09,2.31s2.09-0.99,2.09-2.31V260.64z"/>
	<path class="st11" d="M322.83,269.55c-1.89,0-3.31-1.33-3.31-3.33v-5.64c0-2.01,1.43-3.33,3.31-3.33s3.31,1.33,3.31,3.33v5.64
		C326.15,268.22,324.72,269.55,322.83,269.55z M324.92,260.64c0-1.33-0.75-2.31-2.09-2.31s-2.09,0.99-2.09,2.31v5.51
		c0,1.33,0.75,2.31,2.09,2.31s2.09-0.99,2.09-2.31V260.64z"/>
</g>
<g>
	<g>
		<line class="st15" x1="46.35" y1="220.64" x2="283.74" y2="220.64"/>
		<g>
			<path class="st13" d="M289.77,220.64c-2.84,1.05-6.36,2.85-8.55,4.76l1.72-4.76l-1.72-4.75
				C283.41,217.79,286.93,219.59,289.77,220.64z"/>
		</g>
	</g>
</g>
<line class="st15" x1="290.27" y1="152.94" x2="290.27" y2="235.04"/>
<line class="st16" x1="422.13" y1="72.26" x2="423.21" y2="189.18"/>
<g>
	<path class="st17" d="M146.11,214.15c-0.6,0.6-1.48,0.92-2.52,0.92h-3.42v-9.97h3.42c1.04,0,1.92,0.32,2.52,0.92
		c1.04,1.04,0.98,2.56,0.98,3.95S147.15,213.11,146.11,214.15z M145.37,206.78c-0.52-0.53-1.19-0.73-1.96-0.73h-2.17v8.07h2.17
		c0.77,0,1.44-0.2,1.96-0.73c0.69-0.71,0.66-2.2,0.66-3.42S146.06,207.5,145.37,206.78z"/>
	<path class="st17" d="M149.6,215.08v-9.97h6.19v0.95h-5.13v3.52h4.37v0.95h-4.37v3.6h5.13v0.95H149.6z"/>
	<path class="st17" d="M158,215.08v-9.97h1.06v9.02h5.1v0.95H158z"/>
	<path class="st17" d="M166.02,215.08v-9.97h6.19v0.95h-5.13v3.52h4.37v0.95h-4.37v3.6h5.13v0.95H166.02z"/>
	<path class="st17" d="M180.19,214.01c-0.7,0.76-1.64,1.15-2.66,1.15c-0.98,0-1.88-0.36-2.55-1.04c-0.94-0.94-0.94-1.92-0.94-4.03
		s0-3.1,0.94-4.03c0.67-0.67,1.56-1.04,2.55-1.04c1.91,0,3.19,1.23,3.49,2.98h-1.06c-0.28-1.26-1.18-2.03-2.42-2.03
		c-0.66,0-1.29,0.27-1.72,0.71c-0.63,0.64-0.7,1.32-0.7,3.4c0,2.09,0.07,2.77,0.7,3.42c0.43,0.45,1.06,0.7,1.72,0.7
		c0.73,0,1.43-0.29,1.89-0.85c0.41-0.49,0.56-1.04,0.56-1.81v-0.76h-2.45v-0.94h3.52v1.58
		C181.04,212.58,180.81,213.35,180.19,214.01z"/>
	<path class="st17" d="M189.19,215.08l-0.8-2.25h-4.36l-0.8,2.25h-1.13l3.67-9.97h0.9l3.66,9.97H189.19z M186.24,206.63l-1.88,5.27
		h3.73L186.24,206.63z"/>
	<path class="st17" d="M194.02,206.06v9.02h-1.06v-9.02h-2.89v-0.95h6.84v0.95H194.02z"/>
	<path class="st17" d="M198.76,215.08v-9.97h6.19v0.95h-5.13v3.52h4.37v0.95h-4.37v3.6h5.13v0.95H198.76z"/>
	<path class="st17" d="M209.73,215.16c-1.5,0-2.48-0.38-3.42-1.32l0.73-0.73c0.83,0.83,1.6,1.09,2.72,1.09
		c1.46,0,2.35-0.69,2.35-1.85c0-0.52-0.15-0.97-0.48-1.25s-0.57-0.36-1.3-0.48l-1.16-0.18c-0.78-0.13-1.4-0.38-1.83-0.76
		c-0.5-0.45-0.76-1.06-0.76-1.86c0-1.69,1.22-2.82,3.19-2.82c1.27,0,2.11,0.32,2.97,1.09l-0.69,0.69c-0.62-0.56-1.27-0.85-2.33-0.85
		c-1.33,0-2.1,0.74-2.1,1.85c0,0.49,0.14,0.88,0.45,1.15c0.31,0.27,0.83,0.46,1.34,0.55l1.09,0.17c0.94,0.14,1.4,0.34,1.82,0.7
		c0.55,0.46,0.84,1.15,0.84,1.98C213.17,214.08,211.8,215.16,209.73,215.16z"/>
	<path class="st17" d="M221.81,206.06v9.02h-1.06v-9.02h-2.89v-0.95h6.84v0.95H221.81z"/>
	<path class="st17" d="M231.93,214.12c-0.67,0.67-1.56,1.04-2.55,1.04c-0.99,0-1.88-0.36-2.55-1.04c-0.94-0.94-0.94-1.92-0.94-4.03
		s0-3.1,0.94-4.03c0.67-0.67,1.56-1.04,2.55-1.04c0.99,0,1.88,0.36,2.55,1.04c0.94,0.94,0.94,1.92,0.94,4.03
		S232.87,213.19,231.93,214.12z M231.11,206.69c-0.43-0.45-1.06-0.71-1.72-0.71c-0.66,0-1.29,0.27-1.72,0.71
		c-0.63,0.64-0.7,1.32-0.7,3.4c0,2.09,0.07,2.76,0.7,3.4c0.43,0.45,1.06,0.71,1.72,0.71c0.66,0,1.29-0.27,1.72-0.71
		c0.63-0.64,0.7-1.32,0.7-3.4C231.81,208,231.74,207.33,231.11,206.69z"/>
</g>
<rect x="262.98" y="112.79" width="55.71" height="16.14"/>
<g>
	<path class="st11" d="M276.64,126c-1.28,0-2.12-0.32-2.93-1.13l0.62-0.62c0.71,0.71,1.37,0.94,2.33,0.94
		c1.25,0,2.01-0.59,2.01-1.58c0-0.44-0.13-0.83-0.41-1.07c-0.28-0.24-0.49-0.31-1.12-0.41l-1-0.16c-0.67-0.11-1.2-0.32-1.57-0.65
		c-0.43-0.38-0.65-0.91-0.65-1.59c0-1.45,1.04-2.41,2.73-2.41c1.09,0,1.81,0.28,2.54,0.94l-0.59,0.59
		c-0.53-0.48-1.09-0.73-1.99-0.73c-1.14,0-1.8,0.64-1.8,1.58c0,0.42,0.12,0.75,0.38,0.98c0.26,0.23,0.71,0.4,1.15,0.47l0.94,0.14
		c0.8,0.12,1.2,0.29,1.56,0.6c0.47,0.4,0.72,0.98,0.72,1.69C279.59,125.08,278.41,126,276.64,126z"/>
	<path class="st11" d="M284.01,118.21v7.72h-0.91v-7.72h-2.47v-0.82h5.85v0.82H284.01z"/>
	<path class="st11" d="M292.33,125.93l-0.68-1.93h-3.73l-0.68,1.93h-0.97l3.14-8.54h0.77l3.13,8.54H292.33z M289.8,118.7l-1.61,4.51
		h3.19L289.8,118.7z"/>
	<path class="st11" d="M300,125.93l-2.6-4.55l-1.8,2.16v2.39h-0.91v-8.54h0.91v4.91l3.98-4.91h1.12l-2.69,3.3l3.07,5.24H300z"/>
	<path class="st11" d="M302.49,125.93v-8.54h5.3v0.82h-4.39v3.01h3.74v0.82h-3.74v3.08h4.39v0.82H302.49z"/>
</g>
<rect x="20.08" y="114.34" width="77.01" height="16.14"/>
<g>
	<path class="st11" d="M36.87,127.48h-3.32v-8.54h3.21c1.49,0,2.52,0.85,2.52,2.28c0,0.9-0.54,1.61-1.26,1.87
		c0.82,0.3,1.39,1.01,1.39,2.03C39.41,126.66,38.38,127.48,36.87,127.48z M36.69,119.75h-2.23v2.96h2.23c0.95,0,1.68-0.47,1.68-1.49
		C38.36,120.21,37.63,119.75,36.69,119.75z M36.78,123.53h-2.33v3.13h2.33c1.06,0,1.71-0.61,1.71-1.57
		C38.5,124.13,37.84,123.53,36.78,123.53z"/>
	<path class="st11" d="M46.54,127.48l-0.68-1.93h-3.73l-0.68,1.93h-0.97l3.14-8.54h0.77l3.13,8.54H46.54z M44.01,120.24l-1.61,4.51
		h3.19L44.01,120.24z"/>
	<path class="st11" d="M48.89,127.48v-8.54h0.91v7.72h4.37v0.82H48.89z"/>
	<path class="st11" d="M60.74,127.48l-0.68-1.93h-3.73l-0.68,1.93h-0.97l3.14-8.54h0.77l3.13,8.54H60.74z M58.21,120.24l-1.61,4.51
		h3.19L58.21,120.24z"/>
	<path class="st11" d="M68.54,127.48l-4.53-6.85v6.85H63.1v-8.54h0.86l4.53,6.82v-6.82h0.91v8.54H68.54z"/>
	<path class="st11" d="M74.55,127.55c-0.84,0-1.61-0.31-2.18-0.89c-0.8-0.8-0.8-1.64-0.8-3.45c0-1.81,0-2.65,0.8-3.45
		c0.58-0.58,1.34-0.89,2.18-0.89c1.54,0,2.67,0.94,2.96,2.54h-0.94c-0.23-1.04-0.96-1.73-2.03-1.73c-0.56,0-1.1,0.22-1.48,0.6
		c-0.54,0.55-0.6,1.14-0.6,2.93s0.06,2.38,0.6,2.93c0.37,0.38,0.91,0.6,1.48,0.6c1.07,0,1.82-0.68,2.05-1.73h0.91
		C77.23,126.61,76.07,127.55,74.55,127.55z"/>
	<path class="st11" d="M79.53,127.48v-8.54h5.3v0.82h-4.39v3.01h3.74v0.82h-3.74v3.08h4.39v0.82H79.53z"/>
</g>
<rect x="261.73" y="235.04" width="55.71" height="16.14"/>
<g>
	<path class="st11" d="M275.39,248.25c-1.28,0-2.12-0.32-2.93-1.13l0.62-0.62c0.71,0.71,1.37,0.94,2.33,0.94
		c1.25,0,2.01-0.59,2.01-1.58c0-0.44-0.13-0.83-0.41-1.07c-0.28-0.24-0.49-0.31-1.12-0.41l-1-0.16c-0.67-0.11-1.2-0.32-1.57-0.65
		c-0.43-0.38-0.65-0.91-0.65-1.59c0-1.45,1.04-2.41,2.73-2.41c1.09,0,1.81,0.28,2.54,0.94l-0.59,0.59
		c-0.53-0.48-1.09-0.73-1.99-0.73c-1.14,0-1.8,0.64-1.8,1.58c0,0.42,0.12,0.75,0.38,0.98c0.26,0.23,0.71,0.4,1.15,0.47l0.94,0.14
		c0.8,0.12,1.2,0.29,1.56,0.6c0.47,0.4,0.72,0.98,0.72,1.69C278.34,247.32,277.16,248.25,275.39,248.25z"/>
	<path class="st11" d="M282.76,240.45v7.72h-0.91v-7.72h-2.47v-0.82h5.85v0.82H282.76z"/>
	<path class="st11" d="M291.08,248.18l-0.68-1.93h-3.73l-0.68,1.93h-0.97l3.14-8.54h0.77l3.13,8.54H291.08z M288.55,240.94
		l-1.61,4.51h3.19L288.55,240.94z"/>
	<path class="st11" d="M298.75,248.18l-2.6-4.55l-1.8,2.16v2.39h-0.91v-8.54h0.91v4.91l3.98-4.91h1.12l-2.69,3.3l3.07,5.24H298.75z"
		/>
	<path class="st11" d="M301.24,248.18v-8.54h5.3v0.82h-4.39v3.01h3.74v0.82h-3.74v3.08h4.39v0.82H301.24z"/>
</g>
<circle id="XMLID_55_" class="st0" cx="512.65" cy="71.84" r="31.56"/>
<path id="XMLID_53_" class="st2" d="M522.45,67.37c0-0.68-0.58-1.26-1.17-1.26c-0.58,0-0.58,0.68-0.58,0.68v-0.68
	c0-5.15-0.58-8.64-8.06-8.64s-8.06,3.4-8.06,8.64v4.56l2.33,5.73l2.91,2.33c0.29,0.39,0.78,0.58,1.26,0.58h1.55h1.55
	c0.49,0,0.97-0.19,1.26-0.58l2.91-2.33l1.84-4.56C521.87,71.74,522.45,69.22,522.45,67.37z"/>
<path id="XMLID_52_" class="st3" d="M504.59,66.11v0.68c0,0,0-0.68-0.58-0.68c-0.58,0-1.07,0.58-1.07,1.26
	c0,1.84,0.58,4.37,2.14,4.47l1.84,4.56l2.91,2.33c0.29,0.39,0.78,0.58,1.26,0.58h1.55V57.47C505.17,57.47,504.69,60.96,504.59,66.11
	z"/>
<path id="XMLID_51_" class="st4" d="M520.8,61.16c1.55-2.23,1.55-4.85,1.55-4.85h-9.71h-3.88c-1.46,0-2.91,0.58-3.88,1.75
	c-0.97,1.07-1.46,2.62-1.26,4.08l1.65,10l1.75,4.27l2.91,2.33c0.29,0.39,0.78,0.58,1.26,0.58h1.46h1.55c0.49,0,0.97-0.19,1.26-0.58
	l2.91-2.33l1.75-4.27l1.36-9.52c0.1-0.39,0-0.87-0.29-1.17C521.1,61.35,521,61.25,520.8,61.16z M520.12,66.11l-1.17,5.73l0,0
	l-1.75,3.4h-0.58L515.85,73c-0.19-0.68-0.87-1.17-1.65-1.17h-1.55H511c-0.78,0-1.36,0.49-1.65,1.17l-0.78,2.23h-0.58l-1.65-3.4l0,0
	l-1.17-5.73v-5.15c0,0,0,3.11,7.48,3.4c0.39,0,0.78,0,1.17,0c3.11,0,5.05-1.07,6.31-2.33V66.11z"/>
<path id="XMLID_50_" class="st5" d="M505.17,72.13l1.75,4.27l2.91,2.33c0.29,0.39,0.78,0.58,1.26,0.58h1.55v-7.48H511
	c-0.78,0-1.36,0.49-1.65,1.17l-0.78,2.23h-0.58l-1.65-3.4l0,0l-1.17-5.73v-5.15c0,0,0,3.11,7.48,3.4V56.3h-3.88
	c-1.46,0-2.91,0.58-3.88,1.75c-0.97,1.07-1.46,2.62-1.26,4.08"/>
<path id="XMLID_49_" class="st3" d="M510.41,73.59h4.56c0,0,0,1.75-2.33,1.75C510.32,75.33,510.41,73.59,510.41,73.59z"/>
<g>
	<path class="st12" d="M495.55,29.53h-4.71v-12.1h4.55c2.11,0,3.57,1.21,3.57,3.23c0,1.27-0.77,2.28-1.79,2.65
		c1.16,0.42,1.97,1.43,1.97,2.87C499.15,28.37,497.69,29.53,495.55,29.53z M495.3,18.58h-3.16v4.2h3.16c1.34,0,2.38-0.66,2.38-2.11
		S496.64,18.58,495.3,18.58z M495.43,23.93h-3.3v4.44h3.3c1.5,0,2.43-0.87,2.43-2.23S496.93,23.93,495.43,23.93z"/>
	<path class="st12" d="M506.72,29.53v-0.8c-0.68,0.68-1.29,0.9-2.41,0.9c-1.16,0-1.83-0.22-2.36-0.77c-0.41-0.41-0.63-1.04-0.63-1.7
		c0-1.46,1.02-2.41,2.89-2.41h2.52v-0.8c0-1.22-0.61-1.84-2.14-1.84c-1.07,0-1.62,0.25-2.11,0.95l-0.83-0.76
		c0.75-0.97,1.6-1.24,2.96-1.24c2.24,0,3.35,0.97,3.35,2.79v5.68H506.72z M506.72,25.67h-2.35c-1.26,0-1.87,0.51-1.87,1.48
		c0,0.97,0.6,1.43,1.92,1.43c0.71,0,1.34-0.05,1.87-0.56c0.29-0.27,0.42-0.75,0.42-1.44V25.67z"/>
	<path class="st12" d="M516.43,29.53l-2.65-4.28l-1.63,1.87v2.41h-1.22v-12.1h1.22v8.09l3.77-4.35h1.53l-2.84,3.2l3.33,5.17H516.43z
		"/>
	<path class="st12" d="M520.46,25.67c0,1.84,0.87,2.89,2.46,2.89c0.97,0,1.53-0.29,2.19-0.95l0.83,0.73
		c-0.85,0.85-1.63,1.29-3.06,1.29c-2.21,0-3.65-1.33-3.65-4.28c0-2.7,1.31-4.28,3.43-4.28c2.16,0,3.43,1.56,3.43,4.05v0.56H520.46z
		 M524.62,23.35c-0.32-0.76-1.07-1.26-1.96-1.26s-1.63,0.49-1.96,1.26c-0.19,0.46-0.22,0.71-0.25,1.39h4.42
		C524.84,24.07,524.81,23.81,524.62,23.35z"/>
	<path class="st12" d="M533.38,22.76c-0.46-0.46-0.8-0.61-1.45-0.61c-1.22,0-2.01,0.97-2.01,2.24v5.13h-1.22v-8.36h1.22v1.02
		c0.46-0.7,1.38-1.12,2.35-1.12c0.8,0,1.41,0.19,2.01,0.78L533.38,22.76z"/>
</g>
<circle id="XMLID_56_" class="st0" cx="512.97" cy="186.25" r="31.56"/>
<path id="XMLID_54_" class="st2" d="M522.77,181.78c0-0.68-0.58-1.26-1.17-1.26s-0.58,0.68-0.58,0.68v-0.68
	c0-5.15-0.58-8.64-8.06-8.64c-7.48,0-8.06,3.4-8.06,8.64v4.56l2.33,5.73l2.91,2.33c0.29,0.39,0.78,0.58,1.26,0.58h1.55h1.55
	c0.49,0,0.97-0.19,1.26-0.58l2.91-2.33l1.84-4.56C522.19,186.15,522.77,183.63,522.77,181.78z"/>
<path id="XMLID_48_" class="st3" d="M504.91,180.52v0.68c0,0,0-0.68-0.58-0.68c-0.58,0-1.07,0.58-1.07,1.26
	c0,1.84,0.58,4.37,2.14,4.47l1.84,4.56l2.91,2.33c0.29,0.39,0.78,0.58,1.26,0.58h1.55v-21.85
	C505.49,171.88,505,175.37,504.91,180.52z"/>
<path id="XMLID_47_" class="st4" d="M521.12,175.57c1.55-2.23,1.55-4.85,1.55-4.85h-9.71h-3.88c-1.46,0-2.91,0.58-3.88,1.75
	c-0.97,1.07-1.46,2.62-1.26,4.08l1.65,10l1.75,4.27l2.91,2.33c0.29,0.39,0.78,0.58,1.26,0.58h1.46h1.55c0.49,0,0.97-0.19,1.26-0.58
	l2.91-2.33l1.75-4.27l1.36-9.52c0.1-0.39,0-0.87-0.29-1.17C521.41,175.76,521.32,175.66,521.12,175.57z M520.44,180.52l-1.17,5.73
	l0,0l-1.75,3.4h-0.58l-0.78-2.23c-0.19-0.68-0.87-1.17-1.65-1.17h-1.55h-1.65c-0.78,0-1.36,0.49-1.65,1.17l-0.78,2.23h-0.58
	l-1.65-3.4l0,0l-1.17-5.73v-5.15c0,0,0,3.11,7.48,3.4c0.39,0,0.78,0,1.17,0c3.11,0,5.05-1.07,6.31-2.33V180.52z"/>
<path id="XMLID_46_" class="st5" d="M505.49,186.54l1.75,4.27l2.91,2.33c0.29,0.39,0.78,0.58,1.26,0.58h1.55v-7.48h-1.65
	c-0.78,0-1.36,0.49-1.65,1.17l-0.78,2.23h-0.58l-1.65-3.4l0,0l-1.17-5.73v-5.15c0,0,0,3.11,7.48,3.4v-8.06h-3.88
	c-1.46,0-2.91,0.58-3.88,1.75c-0.97,1.07-1.46,2.62-1.26,4.08"/>
<path id="XMLID_45_" class="st3" d="M515.27,186.06h4.56c0,0,0,1.75-2.33,1.75C515.17,187.81,515.27,186.06,515.27,186.06z"/>
<g>
	<path class="st12" d="M483.16,143.94v-12.1h7.51v1.16h-6.22v4.27h5.3v1.16h-5.3v4.37h6.22v1.16H483.16z"/>
	<path class="st12" d="M498.49,143.94v-5.15c0-1.48-0.8-2.23-2.06-2.23s-2.07,0.77-2.07,2.23v5.15h-1.22v-8.36h1.22v0.92
		c0.59-0.68,1.41-1.02,2.35-1.02c0.9,0,1.63,0.27,2.14,0.78c0.59,0.58,0.87,1.36,0.87,2.33v5.35H498.49z"/>
	<path class="st12" d="M507.69,143.94v-1c-0.68,0.88-1.46,1.1-2.38,1.1c-0.85,0-1.6-0.29-2.04-0.73c-0.85-0.85-1.02-2.24-1.02-3.55
		s0.17-2.7,1.02-3.55c0.44-0.44,1.19-0.73,2.04-0.73c0.92,0,1.68,0.2,2.36,1.07v-4.71h1.22v12.1H507.69z M505.58,136.56
		c-1.82,0-2.11,1.56-2.11,3.2s0.29,3.2,2.11,3.2c1.82,0,2.09-1.56,2.09-3.2S507.4,136.56,505.58,136.56z"/>
	<path class="st12" d="M517.33,143.08c-0.58,0.58-1.38,0.95-2.4,0.95s-1.82-0.37-2.4-0.95c-0.85-0.87-1.02-2.04-1.02-3.33
		s0.17-2.46,1.02-3.33c0.58-0.58,1.38-0.95,2.4-0.95s1.82,0.37,2.4,0.95c0.85,0.87,1.02,2.04,1.02,3.33S518.18,142.22,517.33,143.08
		z M516.46,137.17c-0.39-0.39-0.93-0.61-1.53-0.61s-1.12,0.22-1.51,0.61c-0.61,0.61-0.68,1.65-0.68,2.58c0,0.93,0.07,1.97,0.68,2.58
		c0.39,0.39,0.92,0.61,1.51,0.61s1.14-0.22,1.53-0.61c0.61-0.61,0.66-1.65,0.66-2.58C517.13,138.82,517.07,137.78,516.46,137.17z"/>
	<path class="st12" d="M525.64,137.17c-0.46-0.46-0.8-0.61-1.45-0.61c-1.22,0-2.01,0.97-2.01,2.24v5.13h-1.22v-8.36h1.22v1.02
		c0.46-0.7,1.38-1.12,2.35-1.12c0.8,0,1.41,0.19,2.01,0.78L525.64,137.17z"/>
	<path class="st12" d="M530.59,144.04c-1.41,0-2.52-0.32-3.43-1.21l0.82-0.82c0.66,0.7,1.56,0.97,2.6,0.97
		c1.38,0,2.23-0.49,2.23-1.48c0-0.73-0.42-1.14-1.39-1.22l-1.38-0.12c-1.63-0.14-2.5-0.87-2.5-2.24c0-1.53,1.29-2.45,3.08-2.45
		c1.19,0,2.26,0.29,3.01,0.9l-0.8,0.8c-0.6-0.46-1.36-0.66-2.23-0.66c-1.22,0-1.87,0.53-1.87,1.38c0,0.71,0.41,1.14,1.46,1.22
		l1.34,0.12c1.46,0.14,2.46,0.7,2.46,2.26C533.99,143.1,532.61,144.04,530.59,144.04z"/>
	<path class="st12" d="M537.15,140.08c0,1.83,0.87,2.89,2.46,2.89c0.97,0,1.53-0.29,2.19-0.95l0.83,0.73
		c-0.85,0.85-1.63,1.29-3.06,1.29c-2.21,0-3.66-1.33-3.66-4.28c0-2.7,1.31-4.28,3.43-4.28c2.16,0,3.43,1.56,3.43,4.05v0.56H537.15z
		 M541.32,137.76c-0.32-0.76-1.07-1.26-1.96-1.26c-0.88,0-1.63,0.49-1.95,1.26c-0.19,0.46-0.22,0.71-0.25,1.39h4.42
		C541.54,138.48,541.5,138.22,541.32,137.76z"/>
	<path class="st12" d="M550.07,137.17c-0.46-0.46-0.8-0.61-1.44-0.61c-1.22,0-2.01,0.97-2.01,2.24v5.13h-1.22v-8.36h1.22v1.02
		c0.46-0.7,1.38-1.12,2.35-1.12c0.8,0,1.41,0.19,2.01,0.78L550.07,137.17z"/>
</g>
<line class="st16" x1="328.68" y1="73.17" x2="481.09" y2="71.84"/>
<g>
	<path class="st17" d="M406.07,64.49l-0.68-1.93h-3.73l-0.68,1.93H400l3.14-8.54h0.77l3.13,8.54H406.07z M403.54,57.26l-1.61,4.51
		h3.19L403.54,57.26z"/>
	<path class="st17" d="M410.97,64.57c-0.84,0-1.61-0.31-2.18-0.89c-0.8-0.8-0.8-1.64-0.8-3.45c0-1.81,0-2.65,0.8-3.45
		c0.58-0.58,1.34-0.89,2.18-0.89c1.54,0,2.67,0.94,2.96,2.54h-0.94c-0.23-1.04-0.96-1.73-2.03-1.73c-0.56,0-1.1,0.22-1.47,0.6
		c-0.54,0.55-0.6,1.14-0.6,2.93s0.06,2.38,0.6,2.93c0.37,0.38,0.91,0.6,1.47,0.6c1.07,0,1.82-0.68,2.05-1.73h0.91
		C413.65,63.63,412.49,64.57,410.97,64.57z"/>
	<path class="st17" d="M418.22,56.77v7.72h-0.91v-7.72h-2.47v-0.82h5.85v0.82H418.22z"/>
	<path class="st17" d="M424.48,64.57c-1.28,0-2.12-0.32-2.93-1.13l0.62-0.62c0.71,0.71,1.37,0.94,2.33,0.94
		c1.25,0,2.01-0.59,2.01-1.58c0-0.44-0.13-0.83-0.41-1.07c-0.28-0.24-0.49-0.31-1.12-0.41l-1-0.16c-0.67-0.11-1.2-0.32-1.57-0.65
		c-0.43-0.38-0.65-0.91-0.65-1.59c0-1.45,1.04-2.41,2.74-2.41c1.09,0,1.81,0.28,2.54,0.94l-0.59,0.59
		c-0.53-0.48-1.09-0.73-1.99-0.73c-1.14,0-1.8,0.64-1.8,1.58c0,0.42,0.12,0.75,0.38,0.98c0.26,0.23,0.71,0.4,1.15,0.47l0.94,0.14
		c0.8,0.12,1.2,0.29,1.56,0.6c0.47,0.4,0.72,0.98,0.72,1.69C427.43,63.64,426.25,64.57,424.48,64.57z"/>
	<path class="st17" d="M437.31,64.49l-0.68-1.93h-3.73l-0.68,1.93h-0.97l3.14-8.54h0.77l3.13,8.54H437.31z M434.78,57.26l-1.61,4.51
		h3.19L434.78,57.26z"/>
	<path class="st17" d="M441.86,64.57c-1.28,0-2.12-0.32-2.93-1.13l0.62-0.62c0.71,0.71,1.37,0.94,2.33,0.94
		c1.25,0,2.01-0.59,2.01-1.58c0-0.44-0.13-0.83-0.41-1.07c-0.28-0.24-0.49-0.31-1.12-0.41l-1-0.16c-0.67-0.11-1.2-0.32-1.57-0.65
		c-0.43-0.38-0.65-0.91-0.65-1.59c0-1.45,1.04-2.41,2.74-2.41c1.09,0,1.81,0.28,2.54,0.94l-0.59,0.59
		c-0.53-0.48-1.09-0.73-1.99-0.73c-1.14,0-1.8,0.64-1.8,1.58c0,0.42,0.12,0.75,0.38,0.98c0.26,0.23,0.71,0.4,1.15,0.47l0.94,0.14
		c0.8,0.12,1.2,0.29,1.56,0.6c0.47,0.4,0.72,0.98,0.72,1.69C444.81,63.64,443.63,64.57,441.86,64.57z"/>
</g>
<rect x="20.08" y="170.22" class="st13" width="100.09" height="24.67"/>
<g>
	<rect x="24.25" y="175.87" class="st14" width="89.26" height="14.35"/>
	<path class="st11" d="M59.95,187.97v-10.74l-2.26,1.99v-1.39l2.26-1.95h1.22v12.1H59.95z"/>
	<path class="st11" d="M68.88,188.07c-1.89,0-3.31-1.33-3.31-3.33v-5.64c0-2.01,1.43-3.33,3.31-3.33s3.31,1.33,3.31,3.33v5.64
		C72.19,186.75,70.76,188.07,68.88,188.07z M70.97,179.16c0-1.33-0.75-2.31-2.09-2.31s-2.09,0.99-2.09,2.31v5.51
		c0,1.33,0.75,2.31,2.09,2.31s2.09-0.99,2.09-2.31V179.16z"/>
	<path class="st11" d="M77.75,188.07c-1.89,0-3.31-1.33-3.31-3.33v-5.64c0-2.01,1.43-3.33,3.31-3.33s3.31,1.33,3.31,3.33v5.64
		C81.06,186.75,79.64,188.07,77.75,188.07z M79.84,179.16c0-1.33-0.75-2.31-2.09-2.31s-2.09,0.99-2.09,2.31v5.51
		c0,1.33,0.75,2.31,2.09,2.31s2.09-0.99,2.09-2.31V179.16z"/>
</g>
<rect x="20.08" y="154.73" width="55.71" height="16.14"/>
<g>
	<path class="st11" d="M33.75,167.95c-1.28,0-2.12-0.32-2.93-1.13l0.62-0.62c0.71,0.71,1.37,0.94,2.33,0.94
		c1.25,0,2.01-0.59,2.01-1.58c0-0.44-0.13-0.83-0.41-1.07c-0.28-0.24-0.49-0.31-1.12-0.41l-1-0.16c-0.67-0.11-1.2-0.32-1.57-0.65
		c-0.43-0.38-0.65-0.91-0.65-1.59c0-1.45,1.04-2.41,2.73-2.41c1.09,0,1.81,0.28,2.54,0.94l-0.59,0.59
		c-0.53-0.48-1.09-0.73-1.99-0.73c-1.14,0-1.8,0.64-1.8,1.58c0,0.42,0.12,0.75,0.38,0.98c0.26,0.23,0.71,0.4,1.15,0.47l0.94,0.14
		c0.8,0.12,1.2,0.29,1.56,0.6c0.47,0.4,0.72,0.98,0.72,1.69C36.7,167.02,35.52,167.95,33.75,167.95z"/>
	<path class="st11" d="M41.11,160.15v7.72H40.2v-7.72h-2.47v-0.82h5.85v0.82H41.11z"/>
	<path class="st11" d="M49.44,167.87l-0.68-1.93h-3.73l-0.68,1.93h-0.97l3.14-8.54h0.77l3.13,8.54H49.44z M46.91,160.64l-1.61,4.51
		h3.19L46.91,160.64z"/>
	<path class="st11" d="M57.11,167.87l-2.6-4.55l-1.8,2.16v2.39h-0.91v-8.54h0.91v4.91l3.98-4.91h1.12l-2.69,3.3l3.07,5.24H57.11z"/>
	<path class="st11" d="M59.59,167.87v-8.54h5.3v0.82h-4.39v3.01h3.74v0.82h-3.74v3.08h4.39v0.82H59.59z"/>
</g>
<rect x="18.83" y="250.89" class="st13" width="100.09" height="24.67"/>
<g>
	<rect x="23" y="256.54" class="st14" width="89.26" height="14.35"/>
	<path class="st11" d="M58.7,268.64V257.9l-2.26,1.99v-1.39l2.26-1.95h1.22v12.1H58.7z"/>
	<path class="st11" d="M67.63,268.74c-1.89,0-3.31-1.33-3.31-3.33v-5.64c0-2.01,1.43-3.33,3.31-3.33s3.31,1.33,3.31,3.33v5.64
		C70.94,267.42,69.51,268.74,67.63,268.74z M69.72,259.84c0-1.33-0.75-2.31-2.09-2.31s-2.09,0.99-2.09,2.31v5.51
		c0,1.33,0.75,2.31,2.09,2.31s2.09-0.99,2.09-2.31V259.84z"/>
	<path class="st11" d="M76.5,268.74c-1.89,0-3.31-1.33-3.31-3.33v-5.64c0-2.01,1.43-3.33,3.31-3.33s3.31,1.33,3.31,3.33v5.64
		C79.81,267.42,78.39,268.74,76.5,268.74z M78.59,259.84c0-1.33-0.75-2.31-2.09-2.31s-2.09,0.99-2.09,2.31v5.51
		c0,1.33,0.75,2.31,2.09,2.31s2.09-0.99,2.09-2.31V259.84z"/>
</g>
<rect x="18.83" y="234.95" width="77.01" height="16.14"/>
<g>
	<path class="st11" d="M35.62,248.09h-3.32v-8.54h3.21c1.49,0,2.52,0.85,2.52,2.28c0,0.9-0.54,1.61-1.26,1.87
		c0.82,0.3,1.39,1.01,1.39,2.03C38.16,247.28,37.13,248.09,35.62,248.09z M35.44,240.37H33.2v2.96h2.23c0.95,0,1.68-0.47,1.68-1.49
		C37.11,240.82,36.38,240.37,35.44,240.37z M35.53,244.15H33.2v3.13h2.33c1.06,0,1.71-0.61,1.71-1.57
		C37.25,244.75,36.59,244.15,35.53,244.15z"/>
	<path class="st11" d="M45.29,248.09l-0.68-1.93h-3.73l-0.68,1.93h-0.97l3.14-8.54h0.77l3.13,8.54H45.29z M42.76,240.86l-1.61,4.51
		h3.19L42.76,240.86z"/>
	<path class="st11" d="M47.64,248.09v-8.54h0.91v7.72h4.37v0.82H47.64z"/>
	<path class="st11" d="M59.49,248.09l-0.68-1.93h-3.73l-0.68,1.93h-0.97l3.14-8.54h0.77l3.13,8.54H59.49z M56.96,240.86l-1.61,4.51
		h3.19L56.96,240.86z"/>
	<path class="st11" d="M67.29,248.09l-4.53-6.85v6.85h-0.91v-8.54h0.86l4.53,6.82v-6.82h0.91v8.54H67.29z"/>
	<path class="st11" d="M73.3,248.16c-0.84,0-1.61-0.31-2.18-0.89c-0.8-0.8-0.8-1.64-0.8-3.45c0-1.81,0-2.65,0.8-3.45
		c0.58-0.58,1.34-0.89,2.18-0.89c1.54,0,2.67,0.94,2.96,2.54h-0.94c-0.23-1.04-0.96-1.73-2.03-1.73c-0.56,0-1.1,0.22-1.48,0.6
		c-0.54,0.55-0.6,1.14-0.6,2.93s0.06,2.38,0.6,2.93c0.37,0.38,0.91,0.6,1.48,0.6c1.07,0,1.82-0.68,2.05-1.73h0.91
		C75.98,247.23,74.82,248.16,73.3,248.16z"/>
	<path class="st11" d="M78.28,248.09v-8.54h5.3v0.82h-4.39v3.01h3.74v0.82h-3.74v3.08h4.39v0.82H78.28z"/>
</g>
<rect x="18.83" y="290.83" class="st13" width="100.09" height="24.67"/>
<g>
	<rect x="23" y="296.48" class="st14" width="89.26" height="14.35"/>
	<path class="st11" d="M67.63,308.69c-1.89,0-3.31-1.33-3.31-3.33v-5.64c0-2.01,1.43-3.33,3.31-3.33s3.31,1.33,3.31,3.33v5.64
		C70.94,307.36,69.51,308.69,67.63,308.69z M69.72,299.78c0-1.33-0.75-2.31-2.09-2.31s-2.09,0.99-2.09,2.31v5.51
		c0,1.33,0.75,2.31,2.09,2.31s2.09-0.99,2.09-2.31V299.78z"/>
</g>
<rect x="18.83" y="275.35" width="55.71" height="16.14"/>
<g>
	<path class="st11" d="M32.5,288.56c-1.28,0-2.12-0.32-2.93-1.13l0.62-0.62c0.71,0.71,1.37,0.94,2.33,0.94
		c1.25,0,2.01-0.59,2.01-1.58c0-0.44-0.13-0.83-0.41-1.07c-0.28-0.24-0.49-0.31-1.12-0.41l-1-0.16c-0.67-0.11-1.2-0.32-1.57-0.65
		c-0.43-0.38-0.65-0.91-0.65-1.59c0-1.45,1.04-2.41,2.73-2.41c1.09,0,1.81,0.28,2.54,0.94l-0.59,0.59
		c-0.53-0.48-1.09-0.73-1.99-0.73c-1.14,0-1.8,0.64-1.8,1.58c0,0.42,0.12,0.75,0.38,0.98c0.26,0.23,0.71,0.4,1.15,0.47l0.94,0.14
		c0.8,0.12,1.2,0.29,1.56,0.6c0.47,0.4,0.72,0.98,0.72,1.69C35.45,287.64,34.27,288.56,32.5,288.56z"/>
	<path class="st11" d="M39.86,280.77v7.72h-0.91v-7.72h-2.47v-0.82h5.85v0.82H39.86z"/>
	<path class="st11" d="M48.19,288.49l-0.68-1.93h-3.73l-0.68,1.93h-0.97l3.14-8.54h0.77l3.13,8.54H48.19z M45.66,281.26l-1.61,4.51
		h3.19L45.66,281.26z"/>
	<path class="st11" d="M55.86,288.49l-2.6-4.55l-1.8,2.16v2.39h-0.91v-8.54h0.91v4.91l3.98-4.91h1.12l-2.69,3.3l3.07,5.24H55.86z"/>
	<path class="st11" d="M58.34,288.49v-8.54h5.3v0.82h-4.39v3.01H63v0.82h-3.74v3.08h4.39v0.82H58.34z"/>
</g>
<g>
	<path class="st12" d="M590.89,73.77c-0.84,0-1.61-0.31-2.18-0.89c-0.8-0.8-0.8-1.64-0.8-3.45c0-1.81,0-2.65,0.8-3.45
		c0.58-0.58,1.34-0.89,2.18-0.89c1.54,0,2.67,0.94,2.96,2.54h-0.94c-0.23-1.04-0.96-1.73-2.03-1.73c-0.56,0-1.1,0.22-1.48,0.6
		c-0.54,0.55-0.6,1.14-0.6,2.93s0.06,2.38,0.6,2.93c0.37,0.38,0.91,0.6,1.48,0.6c1.07,0,1.82-0.68,2.05-1.73h0.91
		C593.57,72.84,592.41,73.77,590.89,73.77z"/>
	<path class="st12" d="M599.5,73.1c-0.41,0.41-0.97,0.67-1.69,0.67c-0.72,0-1.28-0.26-1.69-0.67c-0.6-0.61-0.72-1.44-0.72-2.35
		c0-0.91,0.12-1.74,0.72-2.35c0.41-0.41,0.97-0.67,1.69-0.67c0.72,0,1.28,0.26,1.69,0.67c0.6,0.61,0.72,1.44,0.72,2.35
		C600.22,71.66,600.1,72.49,599.5,73.1z M598.89,68.93c-0.28-0.28-0.66-0.43-1.08-0.43s-0.79,0.16-1.07,0.43
		c-0.43,0.43-0.48,1.16-0.48,1.82c0,0.66,0.05,1.39,0.48,1.82c0.28,0.28,0.65,0.43,1.07,0.43s0.8-0.16,1.08-0.43
		c0.43-0.43,0.47-1.16,0.47-1.82C599.36,70.09,599.32,69.36,598.89,68.93z"/>
	<path class="st12" d="M603.55,73.7c-1.03,0-1.5-0.67-1.5-1.57v-6.97h0.86v6.93c0,0.58,0.19,0.86,0.79,0.86h0.47v0.74H603.55z"/>
	<path class="st12" d="M607.11,73.7c-1.03,0-1.5-0.67-1.5-1.57v-6.97h0.86v6.93c0,0.58,0.19,0.86,0.79,0.86h0.47v0.74H607.11z"/>
	<path class="st12" d="M609.44,70.98c0,1.3,0.61,2.04,1.74,2.04c0.68,0,1.08-0.2,1.55-0.67l0.59,0.52c-0.6,0.6-1.15,0.91-2.16,0.91
		c-1.56,0-2.58-0.94-2.58-3.02c0-1.91,0.92-3.02,2.42-3.02c1.52,0,2.42,1.1,2.42,2.85v0.4H609.44z M612.38,69.35
		c-0.23-0.54-0.76-0.89-1.38-0.89s-1.15,0.35-1.38,0.89c-0.13,0.32-0.16,0.5-0.18,0.98h3.12C612.54,69.85,612.51,69.67,612.38,69.35
		z"/>
	<path class="st12" d="M617.55,73.77c-1.49,0-2.61-1.01-2.61-3.02s1.13-3.02,2.61-3.02c0.82,0,1.33,0.22,1.94,0.88l-0.59,0.55
		c-0.44-0.49-0.79-0.66-1.36-0.66c-0.58,0-1.06,0.23-1.37,0.67c-0.28,0.38-0.38,0.84-0.38,1.58c0,0.74,0.11,1.2,0.38,1.58
		c0.31,0.44,0.79,0.67,1.37,0.67c0.56,0,0.91-0.18,1.36-0.67l0.59,0.56C618.88,73.56,618.37,73.77,617.55,73.77z"/>
	<path class="st12" d="M622.8,73.7c-1.01,0-1.51-0.71-1.51-1.58v-3.62h-0.74v-0.66h0.74v-1.85h0.86v1.85h1.26v0.66h-1.26v3.6
		c0,0.54,0.25,0.86,0.8,0.86h0.46v0.74H622.8z"/>
	<path class="st12" d="M629.77,73.7c-1.01,0-1.51-0.71-1.51-1.58v-3.62h-0.74v-0.66h0.74v-1.85h0.86v1.85h1.26v0.66h-1.26v3.6
		c0,0.54,0.25,0.86,0.8,0.86h0.46v0.74H629.77z"/>
	<path class="st12" d="M635.4,68.93c-0.32-0.32-0.56-0.43-1.02-0.43c-0.86,0-1.42,0.68-1.42,1.58v3.62h-0.86v-5.9h0.86v0.72
		c0.32-0.49,0.97-0.79,1.66-0.79c0.56,0,1,0.13,1.42,0.55L635.4,68.93z"/>
	<path class="st12" d="M640.38,73.7v-0.56c-0.48,0.48-0.91,0.64-1.7,0.64c-0.82,0-1.3-0.16-1.67-0.54c-0.29-0.29-0.44-0.73-0.44-1.2
		c0-1.03,0.72-1.7,2.04-1.7h1.78v-0.56c0-0.86-0.43-1.3-1.51-1.3c-0.76,0-1.14,0.18-1.49,0.67l-0.59-0.54
		c0.53-0.68,1.13-0.88,2.09-0.88c1.58,0,2.36,0.68,2.36,1.97v4.01H640.38z M640.38,70.98h-1.66c-0.89,0-1.32,0.36-1.32,1.04
		s0.42,1.01,1.36,1.01c0.5,0,0.95-0.04,1.32-0.4c0.2-0.19,0.3-0.53,0.3-1.02V70.98z"/>
	<path class="st12" d="M647.12,73.7v-3.63c0-1.04-0.56-1.57-1.45-1.57s-1.46,0.54-1.46,1.57v3.63h-0.86v-5.9h0.86v0.65
		c0.42-0.48,1-0.72,1.66-0.72c0.63,0,1.15,0.19,1.51,0.55c0.42,0.41,0.61,0.96,0.61,1.64v3.78H647.12z"/>
	<path class="st12" d="M651.94,73.77c-1,0-1.78-0.23-2.42-0.85l0.58-0.58c0.47,0.49,1.1,0.68,1.84,0.68c0.97,0,1.57-0.35,1.57-1.04
		c0-0.52-0.3-0.8-0.98-0.86l-0.97-0.08c-1.15-0.1-1.76-0.61-1.76-1.58c0-1.08,0.91-1.73,2.17-1.73c0.84,0,1.6,0.2,2.12,0.64
		l-0.56,0.56c-0.42-0.32-0.96-0.47-1.57-0.47c-0.86,0-1.32,0.37-1.32,0.97c0,0.5,0.29,0.8,1.03,0.86l0.95,0.08
		c1.03,0.1,1.74,0.49,1.74,1.59C654.34,73.11,653.37,73.77,651.94,73.77z"/>
	<path class="st12" d="M659.38,73.7v-0.56c-0.48,0.48-0.91,0.64-1.7,0.64c-0.82,0-1.3-0.16-1.67-0.54c-0.29-0.29-0.44-0.73-0.44-1.2
		c0-1.03,0.72-1.7,2.04-1.7h1.78v-0.56c0-0.86-0.43-1.3-1.51-1.3c-0.76,0-1.14,0.18-1.49,0.67l-0.59-0.54
		c0.53-0.68,1.13-0.88,2.09-0.88c1.58,0,2.36,0.68,2.36,1.97v4.01H659.38z M659.38,70.98h-1.66c-0.89,0-1.32,0.36-1.32,1.04
		s0.42,1.01,1.36,1.01c0.5,0,0.95-0.04,1.32-0.4c0.2-0.19,0.3-0.53,0.3-1.02V70.98z"/>
	<path class="st12" d="M664.64,73.77c-1.49,0-2.62-1.01-2.62-3.02s1.13-3.02,2.62-3.02c0.82,0,1.33,0.22,1.94,0.88l-0.59,0.55
		c-0.44-0.49-0.79-0.66-1.36-0.66c-0.58,0-1.05,0.23-1.37,0.67c-0.28,0.38-0.38,0.84-0.38,1.58c0,0.74,0.11,1.2,0.38,1.58
		c0.31,0.44,0.79,0.67,1.37,0.67c0.56,0,0.91-0.18,1.36-0.67l0.59,0.56C665.97,73.56,665.45,73.77,664.64,73.77z"/>
	<path class="st12" d="M669.88,73.7c-1.01,0-1.51-0.71-1.51-1.58v-3.62h-0.74v-0.66h0.74v-1.85h0.86v1.85h1.26v0.66h-1.26v3.6
		c0,0.54,0.25,0.86,0.8,0.86h0.46v0.74H669.88z"/>
	<path class="st12" d="M672.16,66.12v-0.97h0.97v0.97H672.16z M672.21,73.7v-5.9h0.86v5.9H672.21z"/>
	<path class="st12" d="M679.04,73.1c-0.41,0.41-0.97,0.67-1.69,0.67c-0.72,0-1.29-0.26-1.69-0.67c-0.6-0.61-0.72-1.44-0.72-2.35
		c0-0.91,0.12-1.74,0.72-2.35c0.41-0.41,0.97-0.67,1.69-0.67c0.72,0,1.28,0.26,1.69,0.67c0.6,0.61,0.72,1.44,0.72,2.35
		C679.76,71.66,679.64,72.49,679.04,73.1z M678.43,68.93c-0.28-0.28-0.66-0.43-1.08-0.43c-0.42,0-0.79,0.16-1.07,0.43
		c-0.43,0.43-0.48,1.16-0.48,1.82c0,0.66,0.05,1.39,0.48,1.82c0.28,0.28,0.65,0.43,1.07,0.43c0.42,0,0.8-0.16,1.08-0.43
		c0.43-0.43,0.47-1.16,0.47-1.82C678.9,70.09,678.86,69.36,678.43,68.93z"/>
	<path class="st12" d="M685.39,73.7v-3.63c0-1.04-0.56-1.57-1.45-1.57c-0.89,0-1.46,0.54-1.46,1.57v3.63h-0.87v-5.9h0.87v0.65
		c0.42-0.48,0.99-0.72,1.65-0.72c0.63,0,1.15,0.19,1.51,0.55c0.42,0.41,0.61,0.96,0.61,1.64v3.78H685.39z"/>
	<path class="st12" d="M690.21,73.77c-0.99,0-1.78-0.23-2.42-0.85l0.58-0.58c0.47,0.49,1.1,0.68,1.83,0.68
		c0.97,0,1.57-0.35,1.57-1.04c0-0.52-0.3-0.8-0.98-0.86l-0.97-0.08c-1.15-0.1-1.76-0.61-1.76-1.58c0-1.08,0.91-1.73,2.17-1.73
		c0.84,0,1.6,0.2,2.12,0.64l-0.56,0.56c-0.42-0.32-0.96-0.47-1.57-0.47c-0.86,0-1.32,0.37-1.32,0.97c0,0.5,0.29,0.8,1.03,0.86
		l0.95,0.08c1.03,0.1,1.74,0.49,1.74,1.59C692.61,73.11,691.64,73.77,690.21,73.77z"/>
	<path class="st12" d="M699.19,76.41c-0.89,0-1.38-0.23-2-0.79l0.56-0.55c0.43,0.38,0.73,0.59,1.42,0.59c1.14,0,1.62-0.8,1.62-1.81
		v-0.92c-0.48,0.61-1.02,0.77-1.66,0.77c-0.6,0-1.12-0.22-1.43-0.53c-0.59-0.59-0.72-1.5-0.72-2.46c0-0.96,0.13-1.87,0.72-2.46
		c0.31-0.31,0.84-0.52,1.44-0.52c0.65,0,1.17,0.14,1.65,0.77v-0.7h0.85v6.08C701.65,75.34,700.74,76.41,699.19,76.41z M699.32,68.49
		c-1.28,0-1.48,1.1-1.48,2.21s0.19,2.21,1.48,2.21s1.46-1.1,1.46-2.21S700.6,68.49,699.32,68.49z"/>
	<path class="st12" d="M707.6,73.1c-0.41,0.41-0.97,0.67-1.69,0.67c-0.72,0-1.29-0.26-1.69-0.67c-0.6-0.61-0.72-1.44-0.72-2.35
		c0-0.91,0.12-1.74,0.72-2.35c0.41-0.41,0.97-0.67,1.69-0.67c0.72,0,1.28,0.26,1.69,0.67c0.6,0.61,0.72,1.44,0.72,2.35
		C708.32,71.66,708.2,72.49,707.6,73.1z M706.99,68.93c-0.28-0.28-0.66-0.43-1.08-0.43c-0.42,0-0.79,0.16-1.07,0.43
		c-0.43,0.43-0.48,1.16-0.48,1.82c0,0.66,0.05,1.39,0.48,1.82c0.28,0.28,0.65,0.43,1.07,0.43c0.42,0,0.8-0.16,1.08-0.43
		c0.43-0.43,0.47-1.16,0.47-1.82C707.46,70.09,707.42,69.36,706.99,68.93z"/>
	<path class="st12" d="M712.03,73.77c-0.99,0-1.78-0.23-2.42-0.85l0.58-0.58c0.47,0.49,1.1,0.68,1.83,0.68
		c0.97,0,1.57-0.35,1.57-1.04c0-0.52-0.3-0.8-0.98-0.86l-0.97-0.08c-1.15-0.1-1.76-0.61-1.76-1.58c0-1.08,0.91-1.73,2.17-1.73
		c0.84,0,1.6,0.2,2.12,0.64l-0.56,0.56c-0.42-0.32-0.96-0.47-1.57-0.47c-0.86,0-1.32,0.37-1.32,0.97c0,0.5,0.29,0.8,1.03,0.86
		l0.95,0.08c1.03,0.1,1.74,0.49,1.74,1.59C714.43,73.11,713.46,73.77,712.03,73.77z"/>
	<path class="st12" d="M717.79,73.77c-1,0-1.78-0.23-2.42-0.85l0.58-0.58c0.47,0.49,1.1,0.68,1.84,0.68c0.97,0,1.57-0.35,1.57-1.04
		c0-0.52-0.3-0.8-0.98-0.86l-0.97-0.08c-1.15-0.1-1.76-0.61-1.76-1.58c0-1.08,0.91-1.73,2.17-1.73c0.84,0,1.6,0.2,2.12,0.64
		l-0.56,0.56c-0.42-0.32-0.96-0.47-1.57-0.47c-0.86,0-1.32,0.37-1.32,0.97c0,0.5,0.29,0.8,1.03,0.86l0.95,0.08
		c1.03,0.1,1.74,0.49,1.74,1.59C720.19,73.11,719.22,73.77,717.79,73.77z"/>
	<path class="st12" d="M721.83,66.12v-0.97h0.97v0.97H721.83z M721.88,73.7v-5.9h0.87v5.9H721.88z"/>
	<path class="st12" d="M728.89,73.26c-0.31,0.31-0.84,0.52-1.44,0.52c-0.65,0-1.19-0.16-1.67-0.77v3.33h-0.86V67.8h0.86v0.7
		c0.48-0.62,1.02-0.77,1.67-0.77c0.6,0,1.13,0.2,1.44,0.52c0.6,0.6,0.72,1.58,0.72,2.51C729.61,71.67,729.49,72.66,728.89,73.26z
		 M727.27,68.49c-1.28,0-1.49,1.1-1.49,2.25s0.2,2.25,1.49,2.25c1.29,0,1.48-1.1,1.48-2.25S728.55,68.49,727.27,68.49z"/>
	<path class="st12" d="M732,70.98c0,1.3,0.61,2.04,1.74,2.04c0.68,0,1.08-0.2,1.55-0.67l0.59,0.52c-0.6,0.6-1.15,0.91-2.16,0.91
		c-1.56,0-2.58-0.94-2.58-3.02c0-1.91,0.92-3.02,2.42-3.02c1.52,0,2.42,1.1,2.42,2.85v0.4H732z M734.94,69.35
		c-0.23-0.54-0.76-0.89-1.38-0.89s-1.15,0.35-1.38,0.89c-0.13,0.32-0.16,0.5-0.18,0.98h3.12C735.09,69.85,735.07,69.67,734.94,69.35
		z"/>
	<path class="st12" d="M741.34,73.7v-0.71c-0.48,0.62-1.03,0.78-1.68,0.78c-0.6,0-1.13-0.2-1.44-0.52c-0.6-0.6-0.72-1.58-0.72-2.51
		c0-0.92,0.12-1.91,0.72-2.51c0.31-0.31,0.84-0.52,1.44-0.52c0.65,0,1.19,0.14,1.67,0.76v-3.32h0.86v8.54H741.34z M739.86,68.49
		c-1.28,0-1.49,1.1-1.49,2.25s0.21,2.25,1.49,2.25s1.47-1.1,1.47-2.25S741.14,68.49,739.86,68.49z"/>
	<path class="st12" d="M747.3,66.12v-0.97h0.97v0.97H747.3z M747.35,73.7v-5.9h0.87v5.9H747.35z"/>
	<path class="st12" d="M754.16,73.7v-3.63c0-1.04-0.56-1.57-1.45-1.57c-0.89,0-1.46,0.54-1.46,1.57v3.63h-0.86v-5.9h0.86v0.65
		c0.42-0.48,1-0.72,1.65-0.72c0.64,0,1.15,0.19,1.51,0.55c0.42,0.41,0.61,0.96,0.61,1.64v3.78H754.16z"/>
	<path class="st12" d="M761.77,73.7c-1.01,0-1.51-0.71-1.51-1.58v-3.62h-0.74v-0.66h0.74v-1.85h0.86v1.85h1.26v0.66h-1.26v3.6
		c0,0.54,0.25,0.86,0.8,0.86h0.46v0.74H761.77z"/>
	<path class="st12" d="M767.88,73.7v-3.65c0-1.03-0.55-1.56-1.44-1.56c-0.89,0-1.47,0.54-1.47,1.56v3.65h-0.87v-8.54h0.87v3.29
		c0.43-0.49,0.99-0.72,1.65-0.72c1.33,0,2.12,0.85,2.12,2.18v3.79H767.88z"/>
	<path class="st12" d="M771.38,70.98c0,1.3,0.61,2.04,1.74,2.04c0.68,0,1.08-0.2,1.55-0.67l0.59,0.52c-0.6,0.6-1.15,0.91-2.16,0.91
		c-1.56,0-2.58-0.94-2.58-3.02c0-1.91,0.92-3.02,2.42-3.02c1.52,0,2.42,1.1,2.42,2.85v0.4H771.38z M774.32,69.35
		c-0.23-0.54-0.76-0.89-1.38-0.89s-1.15,0.35-1.38,0.89c-0.13,0.32-0.16,0.5-0.18,0.98h3.12C774.48,69.85,774.45,69.67,774.32,69.35
		z"/>
	<path class="st12" d="M783.53,70.19h-2.27v3.51h-0.91v-8.54h3.18c1.56,0,2.64,0.97,2.64,2.51S785.08,70.19,783.53,70.19z
		 M783.44,65.98h-2.18v3.39h2.18c1.07,0,1.81-0.58,1.81-1.7C785.25,66.54,784.51,65.98,783.44,65.98z"/>
	<path class="st12" d="M787.49,73.7v-0.77l3.37-4.28c0.32-0.42,0.48-0.79,0.48-1.26c0-0.92-0.55-1.54-1.49-1.54
		c-0.79,0-1.49,0.44-1.49,1.55h-0.87c0-1.34,0.92-2.31,2.35-2.31c1.4,0,2.35,0.9,2.35,2.3c0,0.68-0.22,1.13-0.68,1.73l-2.99,3.81
		h3.67v0.77H787.49z"/>
	<path class="st12" d="M797.35,70.19h-2.27v3.51h-0.91v-8.54h3.18c1.56,0,2.64,0.97,2.64,2.51S798.91,70.19,797.35,70.19z
		 M797.27,65.98h-2.18v3.39h2.18c1.07,0,1.81-0.58,1.81-1.7C799.08,66.54,798.33,65.98,797.27,65.98z"/>
	<path class="st12" d="M808.34,73.7v-3.63c0-1.04-0.56-1.57-1.45-1.57c-0.89,0-1.46,0.54-1.46,1.57v3.63h-0.86v-5.9h0.86v0.65
		c0.42-0.48,1-0.72,1.65-0.72c0.64,0,1.15,0.19,1.51,0.55c0.42,0.41,0.61,0.96,0.61,1.64v3.78H808.34z"/>
	<path class="st12" d="M811.85,70.98c0,1.3,0.61,2.04,1.74,2.04c0.68,0,1.08-0.2,1.55-0.67l0.59,0.52c-0.6,0.6-1.15,0.91-2.16,0.91
		c-1.56,0-2.58-0.94-2.58-3.02c0-1.91,0.92-3.02,2.42-3.02c1.52,0,2.42,1.1,2.42,2.85v0.4H811.85z M814.79,69.35
		c-0.23-0.54-0.76-0.89-1.38-0.89c-0.63,0-1.15,0.35-1.38,0.89c-0.13,0.32-0.15,0.5-0.18,0.98h3.12
		C814.94,69.85,814.92,69.67,814.79,69.35z"/>
	<path class="st12" d="M819.32,73.7c-1.01,0-1.51-0.71-1.51-1.58v-3.62h-0.74v-0.66h0.74v-1.85h0.86v1.85h1.26v0.66h-1.26v3.6
		c0,0.54,0.25,0.86,0.8,0.86h0.46v0.74H819.32z"/>
	<path class="st12" d="M827.26,73.7h-0.8l-1.55-4.58l-1.54,4.58h-0.8l-1.87-5.9h0.94l1.36,4.74l1.55-4.74h0.74l1.56,4.74l1.34-4.74
		h0.94L827.26,73.7z"/>
	<path class="st12" d="M834.07,73.1c-0.41,0.41-0.97,0.67-1.69,0.67s-1.28-0.26-1.69-0.67c-0.6-0.61-0.72-1.44-0.72-2.35
		c0-0.91,0.12-1.74,0.72-2.35c0.41-0.41,0.97-0.67,1.69-0.67s1.28,0.26,1.69,0.67c0.6,0.61,0.72,1.44,0.72,2.35
		C834.79,71.66,834.67,72.49,834.07,73.1z M833.46,68.93c-0.28-0.28-0.66-0.43-1.08-0.43s-0.79,0.16-1.07,0.43
		c-0.43,0.43-0.48,1.16-0.48,1.82c0,0.66,0.05,1.39,0.48,1.82c0.28,0.28,0.65,0.43,1.07,0.43s0.8-0.16,1.08-0.43
		c0.43-0.43,0.47-1.16,0.47-1.82C833.92,70.09,833.89,69.36,833.46,68.93z"/>
	<path class="st12" d="M839.94,68.93c-0.32-0.32-0.56-0.43-1.02-0.43c-0.86,0-1.42,0.68-1.42,1.58v3.62h-0.86v-5.9h0.86v0.72
		c0.32-0.49,0.97-0.79,1.65-0.79c0.56,0,1,0.13,1.42,0.55L839.94,68.93z"/>
	<path class="st12" d="M845.58,73.7l-1.87-3.02L842.56,72v1.7h-0.87v-8.54h0.87v5.71l2.66-3.07h1.08l-2,2.25l2.35,3.65H845.58z"/>
	<path class="st12" d="M848.1,73.7v-1.13h1.13v1.13H848.1z"/>
	<path class="st12" d="M593.2,88.1l-0.68-1.93h-3.73l-0.68,1.93h-0.97l3.14-8.54h0.77l3.13,8.54H593.2z M590.67,80.87l-1.61,4.51
		h3.19L590.67,80.87z"/>
	<path class="st12" d="M597.26,88.17c-1,0-1.77-0.23-2.42-0.85l0.58-0.58c0.47,0.49,1.1,0.68,1.83,0.68c0.97,0,1.57-0.35,1.57-1.04
		c0-0.52-0.3-0.8-0.98-0.86l-0.97-0.08c-1.15-0.1-1.76-0.61-1.76-1.58c0-1.08,0.91-1.73,2.17-1.73c0.84,0,1.6,0.2,2.12,0.64
		l-0.56,0.56c-0.42-0.32-0.96-0.47-1.57-0.47c-0.86,0-1.32,0.37-1.32,0.97c0,0.5,0.29,0.8,1.03,0.86l0.95,0.08
		c1.03,0.1,1.74,0.49,1.74,1.59C599.66,87.51,598.69,88.17,597.26,88.17z"/>
	<path class="st12" d="M603.02,88.17c-1,0-1.77-0.23-2.42-0.85l0.58-0.58c0.47,0.49,1.1,0.68,1.83,0.68c0.97,0,1.57-0.35,1.57-1.04
		c0-0.52-0.3-0.8-0.98-0.86l-0.97-0.08c-1.15-0.1-1.76-0.61-1.76-1.58c0-1.08,0.91-1.73,2.17-1.73c0.84,0,1.6,0.2,2.12,0.64
		l-0.56,0.56c-0.42-0.32-0.96-0.47-1.57-0.47c-0.86,0-1.32,0.37-1.32,0.97c0,0.5,0.29,0.8,1.03,0.86l0.95,0.08
		c1.03,0.1,1.74,0.49,1.74,1.59C605.42,87.51,604.45,88.17,603.02,88.17z"/>
	<path class="st12" d="M607.65,85.38c0,1.3,0.61,2.04,1.74,2.04c0.68,0,1.08-0.2,1.55-0.67l0.59,0.52c-0.6,0.6-1.15,0.91-2.16,0.91
		c-1.56,0-2.58-0.94-2.58-3.02c0-1.91,0.92-3.02,2.42-3.02c1.52,0,2.42,1.1,2.42,2.85v0.4H607.65z M610.59,83.75
		c-0.23-0.54-0.76-0.89-1.38-0.89c-0.62,0-1.15,0.35-1.38,0.89c-0.13,0.32-0.16,0.5-0.18,0.98h3.12
		C610.75,84.25,610.72,84.07,610.59,83.75z"/>
	<path class="st12" d="M621.05,88.1v-3.63c0-1.04-0.56-1.57-1.45-1.57c-0.86,0-1.48,0.54-1.48,1.48v3.73h-0.86v-3.63
		c0-1.04-0.56-1.57-1.45-1.57c-0.89,0-1.47,0.54-1.47,1.57v3.63h-0.86v-5.9h0.86v0.65c0.42-0.48,1.01-0.72,1.67-0.72
		c0.82,0,1.45,0.34,1.81,0.98c0.46-0.65,1.12-0.98,1.94-0.98c0.64,0,1.16,0.2,1.52,0.55c0.42,0.41,0.64,0.96,0.64,1.64v3.78H621.05z
		"/>
	<path class="st12" d="M627.99,87.66c-0.31,0.31-0.84,0.52-1.44,0.52c-0.65,0-1.19-0.16-1.67-0.78v0.71h-0.86v-8.54h0.86v3.32
		c0.48-0.61,1.02-0.76,1.67-0.76c0.6,0,1.13,0.2,1.44,0.52c0.6,0.6,0.72,1.58,0.72,2.51C628.71,86.07,628.59,87.06,627.99,87.66z
		 M626.37,82.89c-1.28,0-1.49,1.1-1.49,2.25s0.2,2.25,1.49,2.25s1.47-1.1,1.47-2.25S627.66,82.89,626.37,82.89z"/>
	<path class="st12" d="M632.04,88.1c-1.03,0-1.5-0.67-1.5-1.57v-6.97h0.86v6.93c0,0.58,0.19,0.86,0.79,0.86h0.47v0.74H632.04z"/>
	<path class="st12" d="M634.36,85.38c0,1.3,0.61,2.04,1.74,2.04c0.68,0,1.08-0.2,1.55-0.67l0.59,0.52c-0.6,0.6-1.15,0.91-2.16,0.91
		c-1.56,0-2.58-0.94-2.58-3.02c0-1.91,0.92-3.02,2.42-3.02c1.52,0,2.42,1.1,2.42,2.85v0.4H634.36z M637.3,83.75
		c-0.23-0.54-0.76-0.89-1.38-0.89c-0.62,0-1.15,0.35-1.38,0.89c-0.13,0.32-0.16,0.5-0.18,0.98h3.12
		C637.46,84.25,637.44,84.07,637.3,83.75z"/>
	<path class="st12" d="M644.83,88.1c-1.01,0-1.51-0.71-1.51-1.58v-3.62h-0.74v-0.66h0.74v-1.85h0.86v1.85h1.26v0.66h-1.26v3.6
		c0,0.54,0.25,0.86,0.8,0.86h0.46v0.74H644.83z"/>
	<path class="st12" d="M650.85,87.5c-0.41,0.41-0.97,0.67-1.69,0.67c-0.72,0-1.28-0.26-1.69-0.67c-0.6-0.61-0.72-1.44-0.72-2.35
		c0-0.91,0.12-1.74,0.72-2.35c0.41-0.41,0.97-0.67,1.69-0.67c0.72,0,1.28,0.26,1.69,0.67c0.6,0.61,0.72,1.44,0.72,2.35
		C651.57,86.06,651.45,86.89,650.85,87.5z M650.24,83.33c-0.28-0.28-0.66-0.43-1.08-0.43s-0.79,0.16-1.07,0.43
		c-0.43,0.43-0.48,1.16-0.48,1.82c0,0.66,0.05,1.39,0.48,1.82c0.28,0.28,0.65,0.43,1.07,0.43s0.8-0.16,1.08-0.43
		c0.43-0.43,0.47-1.16,0.47-1.82C650.71,84.49,650.67,83.76,650.24,83.33z"/>
	<path class="st12" d="M660.38,87.66c-0.31,0.31-0.84,0.52-1.44,0.52c-0.65,0-1.19-0.16-1.67-0.77v3.33h-0.86V82.2h0.86v0.7
		c0.48-0.62,1.02-0.77,1.67-0.77c0.6,0,1.13,0.2,1.44,0.52c0.6,0.6,0.72,1.58,0.72,2.51C661.1,86.07,660.98,87.06,660.38,87.66z
		 M658.76,82.89c-1.28,0-1.49,1.1-1.49,2.25s0.2,2.25,1.49,2.25s1.48-1.1,1.48-2.25S660.04,82.89,658.76,82.89z"/>
	<path class="st12" d="M666.25,83.33c-0.32-0.32-0.56-0.43-1.02-0.43c-0.86,0-1.42,0.68-1.42,1.58v3.62h-0.86v-5.9h0.86v0.72
		c0.32-0.49,0.97-0.79,1.66-0.79c0.56,0,0.99,0.13,1.41,0.55L666.25,83.33z"/>
	<path class="st12" d="M671.38,87.5c-0.41,0.41-0.97,0.67-1.69,0.67s-1.28-0.26-1.69-0.67c-0.6-0.61-0.72-1.44-0.72-2.35
		c0-0.91,0.12-1.74,0.72-2.35c0.41-0.41,0.97-0.67,1.69-0.67s1.28,0.26,1.69,0.67c0.6,0.61,0.72,1.44,0.72,2.35
		C672.1,86.06,671.98,86.89,671.38,87.5z M670.77,83.33c-0.28-0.28-0.66-0.43-1.08-0.43s-0.79,0.16-1.07,0.43
		c-0.43,0.43-0.48,1.16-0.48,1.82c0,0.66,0.05,1.39,0.48,1.82c0.28,0.28,0.65,0.43,1.07,0.43s0.8-0.16,1.08-0.43
		c0.43-0.43,0.47-1.16,0.47-1.82C671.24,84.49,671.2,83.76,670.77,83.33z"/>
	<path class="st12" d="M677.48,88.1v-0.71c-0.48,0.62-1.03,0.78-1.68,0.78c-0.6,0-1.13-0.2-1.44-0.52c-0.6-0.6-0.72-1.58-0.72-2.51
		c0-0.92,0.12-1.91,0.72-2.51c0.31-0.31,0.84-0.52,1.44-0.52c0.65,0,1.19,0.14,1.67,0.76v-3.32h0.86v8.54H677.48z M675.99,82.89
		c-1.28,0-1.49,1.1-1.49,2.25s0.2,2.25,1.49,2.25s1.47-1.1,1.47-2.25S677.27,82.89,675.99,82.89z"/>
	<path class="st12" d="M684.22,88.1v-0.66c-0.42,0.48-1.01,0.73-1.67,0.73c-0.64,0-1.16-0.19-1.52-0.55
		c-0.42-0.41-0.6-0.97-0.6-1.66V82.2h0.86v3.63c0,1.04,0.55,1.57,1.44,1.57c0.89,0,1.47-0.54,1.47-1.57V82.2h0.86v5.9H684.22z"/>
	<path class="st12" d="M689.53,88.17c-1.49,0-2.61-1.01-2.61-3.02s1.13-3.02,2.61-3.02c0.82,0,1.33,0.22,1.94,0.88l-0.59,0.55
		c-0.44-0.49-0.79-0.66-1.36-0.66c-0.57,0-1.05,0.23-1.37,0.67c-0.28,0.38-0.38,0.84-0.38,1.58c0,0.74,0.11,1.2,0.38,1.58
		c0.31,0.44,0.79,0.67,1.37,0.67c0.56,0,0.91-0.18,1.36-0.67l0.59,0.56C690.86,87.96,690.34,88.17,689.53,88.17z"/>
	<path class="st12" d="M693.48,85.38c0,1.3,0.61,2.04,1.74,2.04c0.68,0,1.08-0.2,1.55-0.67l0.59,0.52c-0.6,0.6-1.15,0.91-2.16,0.91
		c-1.56,0-2.58-0.94-2.58-3.02c0-1.91,0.92-3.02,2.42-3.02c1.52,0,2.42,1.1,2.42,2.85v0.4H693.48z M696.41,83.75
		c-0.23-0.54-0.76-0.89-1.38-0.89c-0.63,0-1.15,0.35-1.38,0.89c-0.13,0.32-0.15,0.5-0.18,0.98h3.12
		C696.57,84.25,696.55,84.07,696.41,83.75z"/>
	<path class="st12" d="M705.63,88.1v-0.56c-0.48,0.48-0.91,0.64-1.7,0.64c-0.82,0-1.3-0.16-1.67-0.54c-0.29-0.29-0.44-0.73-0.44-1.2
		c0-1.03,0.72-1.7,2.04-1.7h1.78v-0.56c0-0.86-0.43-1.3-1.51-1.3c-0.76,0-1.14,0.18-1.49,0.67L702.05,83
		c0.53-0.68,1.13-0.88,2.09-0.88c1.58,0,2.36,0.68,2.36,1.97v4.01H705.63z M705.63,85.38h-1.66c-0.89,0-1.32,0.36-1.32,1.04
		s0.42,1.01,1.36,1.01c0.5,0,0.95-0.04,1.32-0.4c0.21-0.19,0.3-0.53,0.3-1.02V85.38z"/>
	<path class="st12" d="M712.37,88.1v-3.63c0-1.04-0.56-1.57-1.45-1.57c-0.89,0-1.46,0.54-1.46,1.57v3.63h-0.86v-5.9h0.86v0.65
		c0.42-0.48,1-0.72,1.65-0.72c0.64,0,1.15,0.19,1.51,0.55c0.42,0.41,0.61,0.96,0.61,1.64v3.78H712.37z"/>
	<path class="st12" d="M718.87,88.1v-0.71c-0.48,0.62-1.03,0.78-1.68,0.78c-0.6,0-1.13-0.2-1.44-0.52c-0.6-0.6-0.72-1.58-0.72-2.51
		c0-0.92,0.12-1.91,0.72-2.51c0.31-0.31,0.84-0.52,1.44-0.52c0.65,0,1.19,0.14,1.67,0.76v-3.32h0.86v8.54H718.87z M717.38,82.89
		c-1.28,0-1.49,1.1-1.49,2.25s0.21,2.25,1.49,2.25s1.47-1.1,1.47-2.25S718.66,82.89,717.38,82.89z"/>
	<path class="st12" d="M728.84,87.66c-0.31,0.31-0.84,0.52-1.44,0.52c-0.65,0-1.19-0.16-1.67-0.77v3.33h-0.87V82.2h0.87v0.7
		c0.48-0.62,1.02-0.77,1.67-0.77c0.6,0,1.13,0.2,1.44,0.52c0.6,0.6,0.72,1.58,0.72,2.51C729.56,86.07,729.44,87.06,728.84,87.66z
		 M727.22,82.89c-1.28,0-1.49,1.1-1.49,2.25s0.2,2.25,1.49,2.25s1.47-1.1,1.47-2.25S728.5,82.89,727.22,82.89z"/>
	<path class="st12" d="M735.14,88.1v-0.66c-0.42,0.48-1.01,0.73-1.67,0.73c-0.63,0-1.16-0.19-1.52-0.55
		c-0.42-0.41-0.6-0.97-0.6-1.66V82.2h0.86v3.63c0,1.04,0.55,1.57,1.44,1.57c0.89,0,1.48-0.54,1.48-1.57V82.2h0.86v5.9H735.14z"/>
	<path class="st12" d="M742.12,87.66c-0.31,0.31-0.84,0.52-1.44,0.52c-0.65,0-1.19-0.16-1.67-0.78v0.71h-0.86v-8.54h0.86v3.32
		c0.48-0.61,1.02-0.76,1.67-0.76c0.6,0,1.13,0.2,1.44,0.52c0.6,0.6,0.72,1.58,0.72,2.51C742.84,86.07,742.72,87.06,742.12,87.66z
		 M740.5,82.89c-1.28,0-1.49,1.1-1.49,2.25s0.2,2.25,1.49,2.25c1.29,0,1.48-1.1,1.48-2.25S741.79,82.89,740.5,82.89z"/>
	<path class="st12" d="M746.17,88.1c-1.03,0-1.5-0.67-1.5-1.57v-6.97h0.86v6.93c0,0.58,0.19,0.86,0.79,0.86h0.47v0.74H746.17z"/>
	<path class="st12" d="M748.21,80.52v-0.97h0.97v0.97H748.21z M748.26,88.1v-5.9h0.87v5.9H748.26z"/>
	<path class="st12" d="M753.15,88.17c-1,0-1.78-0.23-2.42-0.85l0.58-0.58c0.47,0.49,1.1,0.68,1.84,0.68c0.97,0,1.57-0.35,1.57-1.04
		c0-0.52-0.3-0.8-0.98-0.86l-0.97-0.08c-1.15-0.1-1.76-0.61-1.76-1.58c0-1.08,0.91-1.73,2.17-1.73c0.84,0,1.6,0.2,2.12,0.64
		l-0.56,0.56c-0.42-0.32-0.96-0.47-1.57-0.47c-0.86,0-1.32,0.37-1.32,0.97c0,0.5,0.29,0.8,1.03,0.86l0.95,0.08
		c1.03,0.1,1.74,0.49,1.74,1.59C755.55,87.51,754.58,88.17,753.15,88.17z"/>
	<path class="st12" d="M761.02,88.1v-3.65c0-1.03-0.55-1.56-1.44-1.56c-0.89,0-1.47,0.54-1.47,1.56v3.65h-0.87v-8.54h0.87v3.29
		c0.43-0.49,0.99-0.72,1.65-0.72c1.33,0,2.12,0.85,2.12,2.18v3.79H761.02z"/>
	<path class="st12" d="M770.95,87.66c-0.31,0.31-0.84,0.52-1.44,0.52c-0.65,0-1.19-0.16-1.67-0.78v0.71h-0.87v-8.54h0.87v3.32
		c0.48-0.61,1.02-0.76,1.67-0.76c0.6,0,1.13,0.2,1.44,0.52c0.6,0.6,0.72,1.58,0.72,2.51C771.67,86.07,771.55,87.06,770.95,87.66z
		 M769.33,82.89c-1.28,0-1.49,1.1-1.49,2.25s0.2,2.25,1.49,2.25s1.47-1.1,1.47-2.25S770.61,82.89,769.33,82.89z"/>
	<path class="st12" d="M774.99,88.1c-1.03,0-1.5-0.67-1.5-1.57v-6.97h0.86v6.93c0,0.58,0.19,0.86,0.79,0.86h0.47v0.74H774.99z"/>
	<path class="st12" d="M780.63,87.5c-0.41,0.41-0.97,0.67-1.69,0.67s-1.28-0.26-1.69-0.67c-0.6-0.61-0.72-1.44-0.72-2.35
		c0-0.91,0.12-1.74,0.72-2.35c0.41-0.41,0.97-0.67,1.69-0.67s1.28,0.26,1.69,0.67c0.6,0.61,0.72,1.44,0.72,2.35
		C781.35,86.06,781.23,86.89,780.63,87.5z M780.02,83.33c-0.28-0.28-0.66-0.43-1.08-0.43s-0.79,0.16-1.07,0.43
		c-0.43,0.43-0.48,1.16-0.48,1.82c0,0.66,0.05,1.39,0.48,1.82c0.28,0.28,0.65,0.43,1.07,0.43s0.8-0.16,1.08-0.43
		c0.43-0.43,0.47-1.16,0.47-1.82C780.49,84.49,780.45,83.76,780.02,83.33z"/>
	<path class="st12" d="M785.49,88.17c-1.49,0-2.62-1.01-2.62-3.02s1.13-3.02,2.62-3.02c0.81,0,1.33,0.22,1.94,0.88l-0.59,0.55
		c-0.45-0.49-0.79-0.66-1.36-0.66c-0.58,0-1.06,0.23-1.37,0.67c-0.28,0.38-0.38,0.84-0.38,1.58c0,0.74,0.11,1.2,0.38,1.58
		c0.31,0.44,0.79,0.67,1.37,0.67c0.56,0,0.91-0.18,1.36-0.67l0.59,0.56C786.82,87.96,786.31,88.17,785.49,88.17z"/>
	<path class="st12" d="M792.97,88.1l-1.87-3.02l-1.15,1.32v1.7h-0.87v-8.54h0.87v5.71l2.66-3.07h1.08l-2,2.25l2.35,3.65H792.97z"/>
	<path class="st12" d="M797.37,88.17c-0.99,0-1.78-0.23-2.42-0.85l0.58-0.58c0.47,0.49,1.1,0.68,1.83,0.68
		c0.97,0,1.57-0.35,1.57-1.04c0-0.52-0.3-0.8-0.98-0.86l-0.97-0.08c-1.15-0.1-1.76-0.61-1.76-1.58c0-1.08,0.91-1.73,2.17-1.73
		c0.84,0,1.6,0.2,2.12,0.64l-0.56,0.56c-0.42-0.32-0.96-0.47-1.57-0.47c-0.86,0-1.32,0.37-1.32,0.97c0,0.5,0.29,0.8,1.03,0.86
		l0.95,0.08c1.03,0.1,1.74,0.49,1.74,1.59C799.77,87.51,798.8,88.17,797.37,88.17z"/>
	<path class="st12" d="M801.44,88.1v-1.13h1.13v1.13H801.44z"/>
	<path class="st12" d="M593.13,102.5l-1.94-3.79h-2.05v3.79h-0.91v-8.54h3.28c1.49,0,2.53,0.9,2.53,2.37c0,1.25-0.75,2.06-1.86,2.29
		l2.03,3.87H593.13z M591.42,94.77h-2.28v3.13h2.28c0.99,0,1.7-0.52,1.7-1.56C593.12,95.3,592.41,94.77,591.42,94.77z"/>
	<path class="st12" d="M596.48,99.78c0,1.3,0.61,2.04,1.74,2.04c0.68,0,1.08-0.2,1.55-0.67l0.59,0.52c-0.6,0.6-1.15,0.91-2.16,0.91
		c-1.56,0-2.58-0.94-2.58-3.02c0-1.91,0.92-3.02,2.42-3.02c1.52,0,2.42,1.1,2.42,2.85v0.4H596.48z M599.42,98.14
		c-0.23-0.54-0.76-0.89-1.38-0.89s-1.15,0.35-1.38,0.89c-0.13,0.32-0.16,0.5-0.18,0.98h3.12C599.58,98.65,599.55,98.47,599.42,98.14
		z"/>
	<path class="st12" d="M607.85,102.5h-0.8l-1.55-4.58l-1.54,4.58h-0.8l-1.87-5.9h0.94l1.36,4.74l1.55-4.74h0.74l1.56,4.74l1.34-4.74
		h0.94L607.85,102.5z"/>
	<path class="st12" d="M614.28,102.5v-0.56c-0.48,0.48-0.91,0.64-1.7,0.64c-0.82,0-1.29-0.16-1.67-0.54
		c-0.29-0.29-0.44-0.73-0.44-1.2c0-1.03,0.72-1.7,2.04-1.7h1.78v-0.56c0-0.86-0.43-1.3-1.51-1.3c-0.76,0-1.14,0.18-1.49,0.67
		l-0.59-0.54c0.53-0.68,1.13-0.88,2.09-0.88c1.58,0,2.36,0.68,2.36,1.97v4.01H614.28z M614.28,99.78h-1.66
		c-0.89,0-1.32,0.36-1.32,1.04s0.42,1.01,1.36,1.01c0.5,0,0.95-0.04,1.32-0.4c0.21-0.19,0.3-0.53,0.3-1.02V99.78z"/>
	<path class="st12" d="M620.54,97.73c-0.32-0.32-0.56-0.43-1.02-0.43c-0.86,0-1.42,0.68-1.42,1.58v3.62h-0.86v-5.9h0.86v0.72
		c0.32-0.49,0.97-0.79,1.66-0.79c0.56,0,1,0.13,1.42,0.55L620.54,97.73z"/>
	<path class="st12" d="M625.41,102.5v-0.71c-0.48,0.62-1.03,0.78-1.68,0.78c-0.6,0-1.13-0.2-1.44-0.52c-0.6-0.6-0.72-1.58-0.72-2.51
		c0-0.92,0.12-1.91,0.72-2.51c0.31-0.31,0.84-0.52,1.44-0.52c0.65,0,1.19,0.14,1.67,0.76v-3.32h0.86v8.54H625.41z M623.92,97.29
		c-1.28,0-1.49,1.1-1.49,2.25s0.2,2.25,1.49,2.25s1.47-1.1,1.47-2.25S625.21,97.29,623.92,97.29z"/>
	<path class="st12" d="M628.97,99.78c0,1.3,0.61,2.04,1.74,2.04c0.68,0,1.08-0.2,1.55-0.67l0.59,0.52c-0.6,0.6-1.15,0.91-2.16,0.91
		c-1.56,0-2.58-0.94-2.58-3.02c0-1.91,0.92-3.02,2.42-3.02c1.52,0,2.42,1.1,2.42,2.85v0.4H628.97z M631.9,98.14
		c-0.23-0.54-0.76-0.89-1.38-0.89c-0.62,0-1.15,0.35-1.38,0.89c-0.13,0.32-0.16,0.5-0.18,0.98h3.12
		C632.06,98.65,632.04,98.47,631.9,98.14z"/>
	<path class="st12" d="M638.31,102.5v-0.71c-0.48,0.62-1.03,0.78-1.68,0.78c-0.6,0-1.13-0.2-1.44-0.52c-0.6-0.6-0.72-1.58-0.72-2.51
		c0-0.92,0.12-1.91,0.72-2.51c0.31-0.31,0.84-0.52,1.44-0.52c0.65,0,1.19,0.14,1.67,0.76v-3.32h0.86v8.54H638.31z M636.82,97.29
		c-1.28,0-1.49,1.1-1.49,2.25s0.21,2.25,1.49,2.25s1.47-1.1,1.47-2.25S638.11,97.29,636.82,97.29z"/>
	<path class="st12" d="M645.37,97.29v5.21h-0.86v-5.21h-0.76v-0.66h0.76v-1.12c0-0.88,0.49-1.58,1.5-1.58h0.62v0.74h-0.47
		c-0.55,0-0.79,0.32-0.79,0.86v1.09h1.26v0.66H645.37z"/>
	<path class="st12" d="M651.64,101.9c-0.41,0.41-0.97,0.67-1.69,0.67c-0.72,0-1.28-0.26-1.69-0.67c-0.6-0.61-0.72-1.44-0.72-2.35
		c0-0.91,0.12-1.74,0.72-2.35c0.41-0.41,0.97-0.67,1.69-0.67c0.72,0,1.28,0.26,1.69,0.67c0.6,0.61,0.72,1.44,0.72,2.35
		C652.36,100.46,652.24,101.29,651.64,101.9z M651.03,97.73c-0.28-0.28-0.66-0.43-1.08-0.43s-0.79,0.16-1.07,0.43
		c-0.43,0.43-0.48,1.16-0.48,1.82c0,0.66,0.05,1.39,0.48,1.82c0.28,0.28,0.65,0.43,1.07,0.43s0.8-0.16,1.08-0.43
		c0.43-0.43,0.47-1.16,0.47-1.82C651.5,98.89,651.46,98.16,651.03,97.73z"/>
	<path class="st12" d="M657.51,97.73c-0.32-0.32-0.56-0.43-1.02-0.43c-0.86,0-1.42,0.68-1.42,1.58v3.62h-0.86v-5.9h0.86v0.72
		c0.32-0.49,0.97-0.79,1.66-0.79c0.56,0,1,0.13,1.42,0.55L657.51,97.73z"/>
	<path class="st12" d="M666.22,102.06c-0.31,0.31-0.84,0.52-1.44,0.52c-0.65,0-1.19-0.16-1.67-0.78v0.71h-0.86v-8.54h0.86v3.32
		c0.48-0.61,1.02-0.76,1.67-0.76c0.6,0,1.13,0.2,1.44,0.52c0.6,0.6,0.72,1.58,0.72,2.51C666.94,100.47,666.82,101.46,666.22,102.06z
		 M664.6,97.29c-1.28,0-1.49,1.1-1.49,2.25s0.21,2.25,1.49,2.25s1.47-1.1,1.47-2.25S665.89,97.29,664.6,97.29z"/>
	<path class="st12" d="M672.14,102.5v-0.56c-0.48,0.48-0.91,0.64-1.7,0.64c-0.82,0-1.29-0.16-1.67-0.54
		c-0.29-0.29-0.44-0.73-0.44-1.2c0-1.03,0.72-1.7,2.04-1.7h1.78v-0.56c0-0.86-0.43-1.3-1.51-1.3c-0.76,0-1.14,0.18-1.49,0.67
		l-0.59-0.54c0.53-0.68,1.13-0.88,2.09-0.88c1.58,0,2.36,0.68,2.36,1.97v4.01H672.14z M672.14,99.78h-1.66
		c-0.89,0-1.32,0.36-1.32,1.04s0.42,1.01,1.36,1.01c0.5,0,0.95-0.04,1.32-0.4c0.21-0.19,0.3-0.53,0.3-1.02V99.78z"/>
	<path class="st12" d="M678.99,102.5l-1.87-3.02l-1.15,1.32v1.7h-0.87v-8.54h0.87v5.71l2.66-3.07h1.08l-2,2.25l2.35,3.65H678.99z"/>
	<path class="st12" d="M681.49,94.92v-0.97h0.97v0.97H681.49z M681.54,102.5v-5.9h0.87v5.9H681.54z"/>
	<path class="st12" d="M688.35,102.5v-3.63c0-1.04-0.56-1.57-1.45-1.57c-0.89,0-1.46,0.54-1.46,1.57v3.63h-0.87v-5.9h0.87v0.65
		c0.42-0.48,0.99-0.72,1.65-0.72c0.63,0,1.15,0.19,1.51,0.55c0.42,0.41,0.61,0.96,0.61,1.64v3.78H688.35z"/>
	<path class="st12" d="M693.21,105.21c-0.89,0-1.38-0.23-2-0.79l0.56-0.55c0.43,0.38,0.73,0.59,1.41,0.59c1.14,0,1.62-0.8,1.62-1.81
		v-0.92c-0.48,0.61-1.02,0.77-1.65,0.77c-0.6,0-1.12-0.22-1.43-0.53c-0.59-0.59-0.72-1.5-0.72-2.46c0-0.96,0.13-1.87,0.72-2.46
		c0.31-0.31,0.84-0.52,1.44-0.52c0.65,0,1.18,0.14,1.65,0.77v-0.7h0.85v6.08C695.67,104.14,694.76,105.21,693.21,105.21z
		 M693.34,97.29c-1.28,0-1.47,1.1-1.47,2.21s0.19,2.21,1.47,2.21s1.46-1.1,1.46-2.21S694.63,97.29,693.34,97.29z"/>
	<path class="st12" d="M697.81,102.5v-1.13h1.13v1.13H697.81z"/>
</g>
<rect x="577.87" y="57.88" class="st18" width="281.36" height="52.45"/>
<rect x="577.87" y="40.11" class="st19" width="281.36" height="17.77"/>
<g>
	<path class="st11" d="M591.78,53.44h-3.32V44.9h3.21c1.49,0,2.52,0.85,2.52,2.28c0,0.9-0.54,1.61-1.26,1.87
		c0.82,0.3,1.39,1.01,1.39,2.03C594.33,52.63,593.3,53.44,591.78,53.44z M591.6,45.72h-2.23v2.96h2.23c0.95,0,1.68-0.47,1.68-1.49
		C593.28,46.18,592.55,45.72,591.6,45.72z M591.7,49.5h-2.33v3.13h2.33c1.06,0,1.71-0.61,1.71-1.57
		C593.41,50.1,592.76,49.5,591.7,49.5z"/>
	<path class="st11" d="M601.45,53.44l-0.68-1.93h-3.73l-0.68,1.93h-0.97l3.14-8.54h0.77l3.13,8.54H601.45z M598.92,46.21l-1.61,4.51
		h3.19L598.92,46.21z"/>
	<path class="st11" d="M609.12,53.44l-2.6-4.55l-1.8,2.16v2.39h-0.91V44.9h0.91v4.91l3.98-4.91h1.12l-2.69,3.3l3.07,5.24H609.12z"/>
	<path class="st11" d="M611.61,53.44V44.9h5.3v0.82h-4.39v3.01h3.74v0.82h-3.74v3.08h4.39v0.82H611.61z"/>
	<path class="st11" d="M623.71,53.44l-1.94-3.79h-2.05v3.79h-0.91V44.9h3.27c1.49,0,2.53,0.9,2.53,2.37c0,1.25-0.75,2.06-1.86,2.29
		l2.03,3.87H623.71z M622,45.72h-2.28v3.13H622c1,0,1.7-0.52,1.7-1.56C623.7,46.25,622.99,45.72,622,45.72z"/>
</g>
<g>
	<path class="st12" d="M590.89,192.72c-0.84,0-1.61-0.31-2.18-0.89c-0.8-0.8-0.8-1.64-0.8-3.45c0-1.81,0-2.65,0.8-3.45
		c0.58-0.58,1.34-0.89,2.18-0.89c1.54,0,2.67,0.94,2.96,2.54h-0.94c-0.23-1.04-0.96-1.73-2.03-1.73c-0.56,0-1.1,0.22-1.48,0.6
		c-0.54,0.55-0.6,1.14-0.6,2.93s0.06,2.38,0.6,2.93c0.37,0.38,0.91,0.6,1.48,0.6c1.07,0,1.82-0.68,2.05-1.73h0.91
		C593.57,191.78,592.41,192.72,590.89,192.72z"/>
	<path class="st12" d="M599.5,192.05c-0.41,0.41-0.97,0.67-1.69,0.67s-1.28-0.26-1.69-0.67c-0.6-0.61-0.72-1.44-0.72-2.35
		c0-0.91,0.12-1.74,0.72-2.35c0.41-0.41,0.97-0.67,1.69-0.67s1.28,0.26,1.69,0.67c0.6,0.61,0.72,1.44,0.72,2.35
		C600.22,190.61,600.1,191.44,599.5,192.05z M598.89,187.87c-0.28-0.28-0.66-0.43-1.08-0.43s-0.79,0.16-1.07,0.43
		c-0.43,0.43-0.48,1.16-0.48,1.82c0,0.66,0.05,1.39,0.48,1.82c0.28,0.28,0.65,0.43,1.07,0.43s0.8-0.16,1.08-0.43
		c0.43-0.43,0.47-1.16,0.47-1.82C599.36,189.04,599.32,188.3,598.89,187.87z"/>
	<path class="st12" d="M605.85,192.65v-3.63c0-1.04-0.56-1.57-1.45-1.57s-1.46,0.54-1.46,1.57v3.63h-0.86v-5.9h0.86v0.65
		c0.42-0.48,1-0.72,1.66-0.72c0.64,0,1.15,0.19,1.51,0.55c0.42,0.41,0.61,0.96,0.61,1.64v3.78H605.85z"/>
	<path class="st12" d="M610.47,192.65c-1.01,0-1.51-0.71-1.51-1.58v-3.62h-0.74v-0.66h0.74v-1.85h0.86v1.85h1.26v0.66h-1.26v3.6
		c0,0.54,0.25,0.86,0.8,0.86h0.46v0.74H610.47z"/>
	<path class="st12" d="M616.1,187.87c-0.32-0.32-0.56-0.43-1.02-0.43c-0.86,0-1.42,0.68-1.42,1.58v3.62h-0.86v-5.9h0.86v0.72
		c0.32-0.49,0.97-0.79,1.66-0.79c0.56,0,1,0.13,1.42,0.55L616.1,187.87z"/>
	<path class="st12" d="M617.81,185.07v-0.97h0.97v0.97H617.81z M617.85,192.65v-5.9h0.86v5.9H617.85z"/>
	<path class="st12" d="M624.86,192.2c-0.31,0.31-0.84,0.52-1.44,0.52c-0.65,0-1.19-0.16-1.67-0.78v0.71h-0.86v-8.54h0.86v3.32
		c0.48-0.61,1.02-0.76,1.67-0.76c0.6,0,1.13,0.2,1.44,0.52c0.6,0.6,0.72,1.58,0.72,2.51C625.58,190.62,625.46,191.6,624.86,192.2z
		 M623.24,187.44c-1.28,0-1.49,1.1-1.49,2.25s0.2,2.25,1.49,2.25s1.47-1.1,1.47-2.25S624.52,187.44,623.24,187.44z"/>
	<path class="st12" d="M631.16,192.65v-0.66c-0.42,0.48-1.01,0.73-1.67,0.73c-0.64,0-1.16-0.19-1.52-0.55
		c-0.42-0.41-0.6-0.97-0.6-1.66v-3.77h0.86v3.63c0,1.04,0.55,1.57,1.44,1.57s1.48-0.54,1.48-1.57v-3.63h0.86v5.9H631.16z"/>
	<path class="st12" d="M635.83,192.65c-1.01,0-1.51-0.71-1.51-1.58v-3.62h-0.74v-0.66h0.74v-1.85h0.86v1.85h1.26v0.66h-1.26v3.6
		c0,0.54,0.25,0.86,0.8,0.86h0.46v0.74H635.83z"/>
	<path class="st12" d="M638.6,189.92c0,1.3,0.61,2.04,1.74,2.04c0.68,0,1.08-0.2,1.55-0.67l0.59,0.52c-0.6,0.6-1.15,0.91-2.16,0.91
		c-1.56,0-2.58-0.94-2.58-3.02c0-1.91,0.92-3.02,2.42-3.02c1.52,0,2.42,1.1,2.42,2.85v0.4H638.6z M641.54,188.29
		c-0.23-0.54-0.76-0.89-1.38-0.89c-0.62,0-1.15,0.35-1.38,0.89c-0.13,0.32-0.16,0.5-0.18,0.98h3.12
		C641.7,188.8,641.67,188.62,641.54,188.29z"/>
	<path class="st12" d="M646.28,192.72c-1,0-1.77-0.23-2.42-0.85l0.58-0.58c0.47,0.49,1.1,0.68,1.83,0.68c0.97,0,1.57-0.35,1.57-1.04
		c0-0.52-0.3-0.8-0.98-0.86l-0.97-0.08c-1.15-0.1-1.76-0.61-1.76-1.58c0-1.08,0.91-1.73,2.17-1.73c0.84,0,1.6,0.2,2.12,0.64
		l-0.56,0.56c-0.42-0.32-0.96-0.47-1.57-0.47c-0.86,0-1.32,0.37-1.32,0.97c0,0.5,0.29,0.8,1.03,0.86l0.95,0.08
		c1.03,0.1,1.74,0.49,1.74,1.59C648.68,192.06,647.71,192.72,646.28,192.72z"/>
	<path class="st12" d="M657.15,192.05c-0.41,0.41-0.97,0.67-1.69,0.67s-1.28-0.26-1.69-0.67c-0.6-0.61-0.72-1.44-0.72-2.35
		c0-0.91,0.12-1.74,0.72-2.35c0.41-0.41,0.97-0.67,1.69-0.67s1.28,0.26,1.69,0.67c0.6,0.61,0.72,1.44,0.72,2.35
		C657.87,190.61,657.75,191.44,657.15,192.05z M656.54,187.87c-0.28-0.28-0.66-0.43-1.08-0.43s-0.79,0.16-1.07,0.43
		c-0.43,0.43-0.48,1.16-0.48,1.82c0,0.66,0.05,1.39,0.48,1.82c0.28,0.28,0.65,0.43,1.07,0.43s0.8-0.16,1.08-0.43
		c0.43-0.43,0.47-1.16,0.47-1.82C657.01,189.04,656.97,188.3,656.54,187.87z"/>
	<path class="st12" d="M663.5,192.65v-3.63c0-1.04-0.56-1.57-1.45-1.57s-1.46,0.54-1.46,1.57v3.63h-0.86v-5.9h0.86v0.65
		c0.42-0.48,1-0.72,1.66-0.72c0.64,0,1.15,0.19,1.51,0.55c0.42,0.41,0.61,0.96,0.61,1.64v3.78H663.5z"/>
	<path class="st12" d="M672.8,192.65v-0.56c-0.48,0.48-0.91,0.64-1.7,0.64c-0.82,0-1.29-0.16-1.67-0.54
		c-0.29-0.29-0.44-0.73-0.44-1.2c0-1.03,0.72-1.7,2.04-1.7h1.78v-0.56c0-0.86-0.43-1.3-1.51-1.3c-0.76,0-1.14,0.18-1.49,0.67
		l-0.59-0.54c0.53-0.68,1.13-0.88,2.09-0.88c1.58,0,2.36,0.68,2.36,1.97v4.01H672.8z M672.8,189.92h-1.66
		c-0.89,0-1.32,0.36-1.32,1.04s0.42,1.01,1.36,1.01c0.5,0,0.95-0.04,1.32-0.4c0.2-0.19,0.3-0.53,0.3-1.02V189.92z"/>
	<path class="st12" d="M677.66,195.36c-0.89,0-1.38-0.23-2-0.79l0.56-0.55c0.43,0.38,0.73,0.59,1.42,0.59c1.14,0,1.62-0.8,1.62-1.81
		v-0.92c-0.48,0.61-1.02,0.77-1.66,0.77c-0.6,0-1.12-0.22-1.43-0.53c-0.59-0.59-0.72-1.5-0.72-2.46c0-0.96,0.13-1.87,0.72-2.46
		c0.31-0.31,0.84-0.52,1.44-0.52c0.65,0,1.17,0.14,1.65,0.77v-0.7h0.85v6.08C680.12,194.29,679.21,195.36,677.66,195.36z
		 M677.79,187.44c-1.28,0-1.48,1.1-1.48,2.21s0.19,2.21,1.48,2.21s1.46-1.1,1.46-2.21S679.07,187.44,677.79,187.44z"/>
	<path class="st12" d="M685.58,187.87c-0.32-0.32-0.56-0.43-1.02-0.43c-0.86,0-1.42,0.68-1.42,1.58v3.62h-0.86v-5.9h0.86v0.72
		c0.32-0.49,0.97-0.79,1.65-0.79c0.56,0,1,0.13,1.42,0.55L685.58,187.87z"/>
	<path class="st12" d="M687.46,189.92c0,1.3,0.61,2.04,1.74,2.04c0.68,0,1.08-0.2,1.55-0.67l0.59,0.52c-0.6,0.6-1.15,0.91-2.16,0.91
		c-1.56,0-2.58-0.94-2.58-3.02c0-1.91,0.92-3.02,2.42-3.02c1.52,0,2.42,1.1,2.42,2.85v0.4H687.46z M690.4,188.29
		c-0.23-0.54-0.76-0.89-1.38-0.89c-0.62,0-1.15,0.35-1.38,0.89c-0.13,0.32-0.16,0.5-0.18,0.98h3.12
		C690.56,188.8,690.53,188.62,690.4,188.29z"/>
	<path class="st12" d="M693.82,189.92c0,1.3,0.61,2.04,1.74,2.04c0.68,0,1.08-0.2,1.55-0.67l0.59,0.52c-0.6,0.6-1.15,0.91-2.16,0.91
		c-1.56,0-2.58-0.94-2.58-3.02c0-1.91,0.92-3.02,2.42-3.02c1.52,0,2.42,1.1,2.42,2.85v0.4H693.82z M696.76,188.29
		c-0.23-0.54-0.76-0.89-1.38-0.89c-0.62,0-1.15,0.35-1.38,0.89c-0.13,0.32-0.16,0.5-0.18,0.98h3.12
		C696.92,188.8,696.89,188.62,696.76,188.29z"/>
	<path class="st12" d="M699.6,185.07v-0.97h0.97v0.97H699.6z M699.64,192.65v-5.9h0.86v5.9H699.64z"/>
	<path class="st12" d="M706.46,192.65v-3.63c0-1.04-0.56-1.57-1.45-1.57s-1.46,0.54-1.46,1.57v3.63h-0.86v-5.9h0.86v0.65
		c0.42-0.48,1-0.72,1.65-0.72c0.64,0,1.15,0.19,1.51,0.55c0.42,0.41,0.61,0.96,0.61,1.64v3.78H706.46z"/>
	<path class="st12" d="M711.32,195.36c-0.89,0-1.38-0.23-2-0.79l0.56-0.55c0.43,0.38,0.73,0.59,1.42,0.59c1.14,0,1.62-0.8,1.62-1.81
		v-0.92c-0.48,0.61-1.02,0.77-1.66,0.77c-0.6,0-1.12-0.22-1.43-0.53c-0.59-0.59-0.72-1.5-0.72-2.46c0-0.96,0.13-1.87,0.72-2.46
		c0.31-0.31,0.84-0.52,1.44-0.52c0.65,0,1.17,0.14,1.65,0.77v-0.7h0.85v6.08C713.78,194.29,712.87,195.36,711.32,195.36z
		 M711.45,187.44c-1.28,0-1.48,1.1-1.48,2.21s0.19,2.21,1.48,2.21s1.46-1.1,1.46-2.21S712.74,187.44,711.45,187.44z"/>
	<path class="st12" d="M722.72,192.05c-0.41,0.41-0.97,0.67-1.69,0.67c-0.72,0-1.28-0.26-1.69-0.67c-0.6-0.61-0.72-1.44-0.72-2.35
		c0-0.91,0.12-1.74,0.72-2.35c0.41-0.41,0.97-0.67,1.69-0.67c0.72,0,1.28,0.26,1.69,0.67c0.6,0.61,0.72,1.44,0.72,2.35
		C723.44,190.61,723.32,191.44,722.72,192.05z M722.11,187.87c-0.28-0.28-0.66-0.43-1.08-0.43c-0.42,0-0.79,0.16-1.07,0.43
		c-0.43,0.43-0.48,1.16-0.48,1.82c0,0.66,0.05,1.39,0.48,1.82c0.28,0.28,0.65,0.43,1.07,0.43c0.42,0,0.8-0.16,1.08-0.43
		c0.43-0.43,0.47-1.16,0.47-1.82C722.57,189.04,722.54,188.3,722.11,187.87z"/>
	<path class="st12" d="M729.07,192.65v-3.63c0-1.04-0.56-1.57-1.45-1.57s-1.46,0.54-1.46,1.57v3.63h-0.86v-5.9h0.86v0.65
		c0.42-0.48,1-0.72,1.65-0.72c0.64,0,1.15,0.19,1.51,0.55c0.42,0.41,0.61,0.96,0.61,1.64v3.78H729.07z"/>
	<path class="st12" d="M736.68,192.65c-1.01,0-1.51-0.71-1.51-1.58v-3.62h-0.74v-0.66h0.74v-1.85h0.86v1.85h1.26v0.66h-1.26v3.6
		c0,0.54,0.25,0.86,0.8,0.86h0.46v0.74H736.68z"/>
	<path class="st12" d="M742.78,192.65V189c0-1.03-0.55-1.56-1.44-1.56s-1.47,0.54-1.47,1.56v3.65H739v-8.54h0.86v3.29
		c0.43-0.49,1-0.72,1.65-0.72c1.33,0,2.12,0.85,2.12,2.18v3.79H742.78z"/>
	<path class="st12" d="M746.29,189.92c0,1.3,0.61,2.04,1.74,2.04c0.68,0,1.08-0.2,1.55-0.67l0.59,0.52c-0.6,0.6-1.15,0.91-2.16,0.91
		c-1.56,0-2.58-0.94-2.58-3.02c0-1.91,0.92-3.02,2.42-3.02c1.52,0,2.42,1.1,2.42,2.85v0.4H746.29z M749.23,188.29
		c-0.23-0.54-0.76-0.89-1.38-0.89c-0.62,0-1.15,0.35-1.38,0.89c-0.13,0.32-0.16,0.5-0.18,0.98h3.12
		C749.38,188.8,749.36,188.62,749.23,188.29z"/>
	<path class="st12" d="M759.07,192.2c-0.31,0.31-0.84,0.52-1.44,0.52c-0.65,0-1.19-0.16-1.67-0.78v0.71h-0.86v-8.54h0.86v3.32
		c0.48-0.61,1.02-0.76,1.67-0.76c0.6,0,1.13,0.2,1.44,0.52c0.6,0.6,0.72,1.58,0.72,2.51C759.79,190.62,759.67,191.6,759.07,192.2z
		 M757.45,187.44c-1.28,0-1.49,1.1-1.49,2.25s0.2,2.25,1.49,2.25c1.28,0,1.48-1.1,1.48-2.25S758.73,187.44,757.45,187.44z"/>
	<path class="st12" d="M762.18,189.92c0,1.3,0.61,2.04,1.74,2.04c0.68,0,1.08-0.2,1.55-0.67l0.59,0.52c-0.6,0.6-1.15,0.91-2.16,0.91
		c-1.56,0-2.58-0.94-2.58-3.02c0-1.91,0.92-3.02,2.42-3.02c1.52,0,2.42,1.1,2.42,2.85v0.4H762.18z M765.12,188.29
		c-0.23-0.54-0.76-0.89-1.38-0.89c-0.62,0-1.15,0.35-1.38,0.89c-0.13,0.32-0.16,0.5-0.18,0.98h3.12
		C765.27,188.8,765.25,188.62,765.12,188.29z"/>
	<path class="st12" d="M769.86,192.72c-1,0-1.78-0.23-2.42-0.85l0.58-0.58c0.47,0.49,1.1,0.68,1.83,0.68c0.97,0,1.57-0.35,1.57-1.04
		c0-0.52-0.3-0.8-0.98-0.86l-0.97-0.08c-1.15-0.1-1.76-0.61-1.76-1.58c0-1.08,0.91-1.73,2.17-1.73c0.84,0,1.6,0.2,2.12,0.64
		l-0.56,0.56c-0.42-0.32-0.96-0.47-1.57-0.47c-0.86,0-1.32,0.37-1.32,0.97c0,0.5,0.29,0.8,1.03,0.86l0.95,0.08
		c1.03,0.1,1.74,0.49,1.74,1.59C772.26,192.06,771.28,192.72,769.86,192.72z"/>
	<path class="st12" d="M775.49,192.65c-1.01,0-1.51-0.71-1.51-1.58v-3.62h-0.74v-0.66h0.74v-1.85h0.86v1.85h1.26v0.66h-1.26v3.6
		c0,0.54,0.25,0.86,0.8,0.86h0.46v0.74H775.49z"/>
	<path class="st12" d="M784.77,192.2c-0.31,0.31-0.84,0.52-1.44,0.52c-0.65,0-1.19-0.16-1.67-0.78v0.71h-0.86v-8.54h0.86v3.32
		c0.48-0.61,1.02-0.76,1.67-0.76c0.6,0,1.13,0.2,1.44,0.52c0.6,0.6,0.72,1.58,0.72,2.51C785.49,190.62,785.37,191.6,784.77,192.2z
		 M783.15,187.44c-1.28,0-1.49,1.1-1.49,2.25s0.2,2.25,1.49,2.25c1.28,0,1.48-1.1,1.48-2.25S784.44,187.44,783.15,187.44z"/>
	<path class="st12" d="M788.82,192.65c-1.03,0-1.5-0.67-1.5-1.57v-6.97h0.86v6.93c0,0.58,0.19,0.86,0.79,0.86h0.47v0.74H788.82z"/>
	<path class="st12" d="M794.46,192.05c-0.41,0.41-0.97,0.67-1.69,0.67c-0.72,0-1.28-0.26-1.69-0.67c-0.6-0.61-0.72-1.44-0.72-2.35
		c0-0.91,0.12-1.74,0.72-2.35c0.41-0.41,0.97-0.67,1.69-0.67c0.72,0,1.28,0.26,1.69,0.67c0.6,0.61,0.72,1.44,0.72,2.35
		C795.18,190.61,795.06,191.44,794.46,192.05z M793.85,187.87c-0.28-0.28-0.66-0.43-1.08-0.43c-0.42,0-0.79,0.16-1.07,0.43
		c-0.43,0.43-0.48,1.16-0.48,1.82c0,0.66,0.05,1.39,0.48,1.82c0.28,0.28,0.65,0.43,1.07,0.43c0.42,0,0.8-0.16,1.08-0.43
		c0.43-0.43,0.47-1.16,0.47-1.82C794.31,189.04,794.28,188.3,793.85,187.87z"/>
	<path class="st12" d="M799.32,192.72c-1.49,0-2.61-1.01-2.61-3.02s1.13-3.02,2.61-3.02c0.82,0,1.33,0.22,1.94,0.88l-0.59,0.55
		c-0.44-0.49-0.79-0.66-1.36-0.66c-0.58,0-1.06,0.23-1.37,0.67c-0.28,0.38-0.38,0.84-0.38,1.58c0,0.74,0.11,1.2,0.38,1.58
		c0.31,0.44,0.79,0.67,1.37,0.67c0.56,0,0.91-0.18,1.36-0.67l0.59,0.56C800.65,192.5,800.13,192.72,799.32,192.72z"/>
	<path class="st12" d="M806.79,192.65l-1.87-3.02l-1.15,1.32v1.7h-0.86v-8.54h0.86v5.71l2.66-3.07h1.08l-2,2.25l2.35,3.65H806.79z"
		/>
	<path class="st12" d="M811.2,192.72c-1,0-1.78-0.23-2.42-0.85l0.58-0.58c0.47,0.49,1.1,0.68,1.83,0.68c0.97,0,1.57-0.35,1.57-1.04
		c0-0.52-0.3-0.8-0.98-0.86l-0.97-0.08c-1.15-0.1-1.76-0.61-1.76-1.58c0-1.08,0.91-1.73,2.17-1.73c0.84,0,1.6,0.2,2.12,0.64
		l-0.56,0.56c-0.42-0.32-0.96-0.47-1.57-0.47c-0.86,0-1.32,0.37-1.32,0.97c0,0.5,0.29,0.8,1.03,0.86l0.95,0.08
		c1.03,0.1,1.74,0.49,1.74,1.59C813.6,192.06,812.62,192.72,811.2,192.72z"/>
	<path class="st12" d="M815.27,192.65v-1.13h1.13v1.13H815.27z"/>
	<path class="st12" d="M593.13,207.05l-1.94-3.79h-2.05v3.79h-0.91v-8.54h3.27c1.49,0,2.53,0.9,2.53,2.37
		c0,1.25-0.75,2.06-1.86,2.29l2.03,3.87H593.13z M591.42,199.32h-2.28v3.13h2.28c1,0,1.7-0.52,1.7-1.56
		C593.12,199.85,592.41,199.32,591.42,199.32z"/>
	<path class="st12" d="M596.48,204.32c0,1.3,0.61,2.04,1.74,2.04c0.68,0,1.08-0.2,1.55-0.67l0.59,0.52c-0.6,0.6-1.15,0.91-2.16,0.91
		c-1.56,0-2.58-0.94-2.58-3.02c0-1.91,0.92-3.02,2.42-3.02c1.52,0,2.42,1.1,2.42,2.85v0.4H596.48z M599.42,202.69
		c-0.23-0.54-0.76-0.89-1.38-0.89c-0.62,0-1.15,0.35-1.38,0.89c-0.13,0.32-0.16,0.5-0.18,0.98h3.12
		C599.58,203.2,599.55,203.02,599.42,202.69z"/>
	<path class="st12" d="M607.85,207.05h-0.8l-1.55-4.58l-1.54,4.58h-0.8l-1.87-5.9h0.94l1.36,4.74l1.55-4.74h0.74l1.56,4.74
		l1.34-4.74h0.94L607.85,207.05z"/>
	<path class="st12" d="M614.28,207.05v-0.56c-0.48,0.48-0.91,0.64-1.7,0.64c-0.82,0-1.3-0.16-1.67-0.54
		c-0.29-0.29-0.44-0.73-0.44-1.2c0-1.03,0.72-1.7,2.04-1.7h1.78v-0.56c0-0.86-0.43-1.3-1.51-1.3c-0.76,0-1.14,0.18-1.49,0.67
		l-0.59-0.54c0.53-0.68,1.13-0.88,2.09-0.88c1.58,0,2.36,0.68,2.36,1.97v4.01H614.28z M614.28,204.32h-1.66
		c-0.89,0-1.32,0.36-1.32,1.04s0.42,1.01,1.36,1.01c0.5,0,0.95-0.04,1.32-0.4c0.2-0.19,0.3-0.53,0.3-1.02V204.32z"/>
	<path class="st12" d="M620.54,202.27c-0.32-0.32-0.56-0.43-1.02-0.43c-0.86,0-1.42,0.68-1.42,1.58v3.62h-0.86v-5.9h0.86v0.72
		c0.32-0.49,0.97-0.79,1.66-0.79c0.56,0,1,0.13,1.42,0.55L620.54,202.27z"/>
	<path class="st12" d="M625.41,207.05v-0.71c-0.48,0.62-1.03,0.78-1.68,0.78c-0.6,0-1.13-0.2-1.44-0.52
		c-0.6-0.6-0.72-1.58-0.72-2.51c0-0.92,0.12-1.91,0.72-2.51c0.31-0.31,0.84-0.52,1.44-0.52c0.65,0,1.19,0.14,1.67,0.76v-3.32h0.86
		v8.54H625.41z M623.92,201.84c-1.28,0-1.49,1.1-1.49,2.25s0.2,2.25,1.49,2.25s1.47-1.1,1.47-2.25S625.21,201.84,623.92,201.84z"/>
	<path class="st12" d="M628.97,204.32c0,1.3,0.61,2.04,1.74,2.04c0.68,0,1.08-0.2,1.55-0.67l0.59,0.52c-0.6,0.6-1.15,0.91-2.16,0.91
		c-1.56,0-2.58-0.94-2.58-3.02c0-1.91,0.92-3.02,2.42-3.02c1.52,0,2.42,1.1,2.42,2.85v0.4H628.97z M631.9,202.69
		c-0.23-0.54-0.76-0.89-1.38-0.89c-0.62,0-1.15,0.35-1.38,0.89c-0.13,0.32-0.16,0.5-0.18,0.98h3.12
		C632.06,203.2,632.04,203.02,631.9,202.69z"/>
	<path class="st12" d="M638.31,207.05v-0.71c-0.48,0.62-1.03,0.78-1.68,0.78c-0.6,0-1.13-0.2-1.44-0.52
		c-0.6-0.6-0.72-1.58-0.72-2.51c0-0.92,0.12-1.91,0.72-2.51c0.31-0.31,0.84-0.52,1.44-0.52c0.65,0,1.19,0.14,1.67,0.76v-3.32h0.86
		v8.54H638.31z M636.82,201.84c-1.28,0-1.49,1.1-1.49,2.25s0.2,2.25,1.49,2.25s1.48-1.1,1.48-2.25S638.11,201.84,636.82,201.84z"/>
	<path class="st12" d="M645.37,201.84v5.21h-0.86v-5.21h-0.76v-0.66h0.76v-1.12c0-0.88,0.49-1.58,1.5-1.58h0.62v0.74h-0.47
		c-0.55,0-0.79,0.32-0.79,0.86v1.09h1.26v0.66H645.37z"/>
	<path class="st12" d="M651.64,206.45c-0.41,0.41-0.97,0.67-1.69,0.67s-1.28-0.26-1.69-0.67c-0.6-0.61-0.72-1.44-0.72-2.35
		c0-0.91,0.12-1.74,0.72-2.35c0.41-0.41,0.97-0.67,1.69-0.67s1.28,0.26,1.69,0.67c0.6,0.61,0.72,1.44,0.72,2.35
		C652.36,205.01,652.24,205.84,651.64,206.45z M651.03,202.27c-0.28-0.28-0.66-0.43-1.08-0.43s-0.79,0.16-1.07,0.43
		c-0.43,0.43-0.48,1.16-0.48,1.82c0,0.66,0.05,1.39,0.48,1.82c0.28,0.28,0.65,0.43,1.07,0.43s0.8-0.16,1.08-0.43
		c0.43-0.43,0.47-1.16,0.47-1.82C651.5,203.44,651.46,202.7,651.03,202.27z"/>
	<path class="st12" d="M657.51,202.27c-0.32-0.32-0.56-0.43-1.02-0.43c-0.86,0-1.42,0.68-1.42,1.58v3.62h-0.86v-5.9h0.86v0.72
		c0.32-0.49,0.97-0.79,1.66-0.79c0.56,0,1,0.13,1.42,0.55L657.51,202.27z"/>
	<path class="st12" d="M662.79,204.32c0,1.3,0.61,2.04,1.74,2.04c0.68,0,1.08-0.2,1.55-0.67l0.59,0.52c-0.6,0.6-1.15,0.91-2.16,0.91
		c-1.56,0-2.58-0.94-2.58-3.02c0-1.91,0.92-3.02,2.42-3.02c1.52,0,2.42,1.1,2.42,2.85v0.4H662.79z M665.73,202.69
		c-0.23-0.54-0.76-0.89-1.38-0.89c-0.62,0-1.15,0.35-1.38,0.89c-0.13,0.32-0.16,0.5-0.18,0.98h3.12
		C665.89,203.2,665.86,203.02,665.73,202.69z"/>
	<path class="st12" d="M672.39,207.05v-3.63c0-1.04-0.56-1.57-1.45-1.57s-1.46,0.54-1.46,1.57v3.63h-0.86v-5.9h0.86v0.65
		c0.42-0.48,1-0.72,1.66-0.72c0.64,0,1.15,0.19,1.51,0.55c0.42,0.41,0.61,0.96,0.61,1.64v3.78H672.39z"/>
	<path class="st12" d="M678.88,207.05v-0.71c-0.48,0.62-1.03,0.78-1.68,0.78c-0.6,0-1.13-0.2-1.44-0.52
		c-0.6-0.6-0.72-1.58-0.72-2.51c0-0.92,0.12-1.91,0.72-2.51c0.31-0.31,0.84-0.52,1.44-0.52c0.65,0,1.19,0.14,1.67,0.76v-3.32h0.86
		v8.54H678.88z M677.4,201.84c-1.28,0-1.49,1.1-1.49,2.25s0.2,2.25,1.49,2.25s1.48-1.1,1.48-2.25S678.68,201.84,677.4,201.84z"/>
	<path class="st12" d="M685.69,206.45c-0.41,0.41-0.97,0.67-1.69,0.67c-0.72,0-1.28-0.26-1.69-0.67c-0.6-0.61-0.72-1.44-0.72-2.35
		c0-0.91,0.12-1.74,0.72-2.35c0.41-0.41,0.97-0.67,1.69-0.67c0.72,0,1.28,0.26,1.69,0.67c0.6,0.61,0.72,1.44,0.72,2.35
		C686.41,205.01,686.28,205.84,685.69,206.45z M685.07,202.27c-0.28-0.28-0.66-0.43-1.08-0.43c-0.42,0-0.79,0.16-1.07,0.43
		c-0.43,0.43-0.48,1.16-0.48,1.82c0,0.66,0.05,1.39,0.48,1.82c0.28,0.28,0.65,0.43,1.07,0.43c0.42,0,0.8-0.16,1.08-0.43
		c0.43-0.43,0.47-1.16,0.47-1.82C685.54,203.44,685.51,202.7,685.07,202.27z"/>
	<path class="st12" d="M691.56,202.27c-0.32-0.32-0.56-0.43-1.02-0.43c-0.86,0-1.42,0.68-1.42,1.58v3.62h-0.86v-5.9h0.86v0.72
		c0.32-0.49,0.97-0.79,1.65-0.79c0.56,0,1,0.13,1.42,0.55L691.56,202.27z"/>
	<path class="st12" d="M695.05,207.12c-1,0-1.78-0.23-2.42-0.85l0.58-0.58c0.47,0.49,1.1,0.68,1.83,0.68c0.97,0,1.57-0.35,1.57-1.04
		c0-0.52-0.3-0.8-0.98-0.86l-0.97-0.08c-1.15-0.1-1.76-0.61-1.76-1.58c0-1.08,0.91-1.73,2.17-1.73c0.84,0,1.6,0.2,2.12,0.64
		l-0.56,0.56c-0.42-0.32-0.96-0.47-1.57-0.47c-0.86,0-1.32,0.37-1.32,0.97c0,0.5,0.29,0.8,1.03,0.86l0.95,0.08
		c1.03,0.1,1.74,0.49,1.74,1.59C697.45,206.46,696.47,207.12,695.05,207.12z"/>
	<path class="st12" d="M699.09,199.47v-0.97h0.97v0.97H699.09z M699.14,207.05v-5.9H700v5.9H699.14z"/>
	<path class="st12" d="M705.95,207.05v-3.63c0-1.04-0.56-1.57-1.45-1.57s-1.46,0.54-1.46,1.57v3.63h-0.86v-5.9h0.86v0.65
		c0.42-0.48,1-0.72,1.65-0.72c0.64,0,1.15,0.19,1.51,0.55c0.42,0.41,0.61,0.96,0.61,1.64v3.78H705.95z"/>
	<path class="st12" d="M710.82,209.76c-0.89,0-1.38-0.23-2-0.79l0.56-0.55c0.43,0.38,0.73,0.59,1.42,0.59c1.14,0,1.62-0.8,1.62-1.81
		v-0.92c-0.48,0.61-1.02,0.77-1.66,0.77c-0.6,0-1.12-0.22-1.43-0.53c-0.59-0.59-0.72-1.5-0.72-2.46c0-0.96,0.13-1.87,0.72-2.46
		c0.31-0.31,0.84-0.52,1.44-0.52c0.65,0,1.17,0.14,1.65,0.77v-0.7h0.85v6.08C713.27,208.69,712.36,209.76,710.82,209.76z
		 M710.95,201.84c-1.28,0-1.48,1.1-1.48,2.21s0.19,2.21,1.48,2.21s1.46-1.1,1.46-2.21S712.23,201.84,710.95,201.84z"/>
	<path class="st12" d="M715.41,207.05v-1.13h1.13v1.13H715.41z"/>
</g>
<rect x="577.87" y="176.83" class="st18" width="281.36" height="38.86"/>
<rect x="577.87" y="159.06" class="st19" width="281.36" height="17.77"/>
<g>
	<path class="st11" d="M588.46,172.39v-8.54h5.3v0.82h-4.39v3.01h3.74v0.82h-3.74v3.08h4.39v0.82H588.46z"/>
	<path class="st11" d="M601.11,172.39l-4.53-6.85v6.85h-0.91v-8.54h0.86l4.53,6.82v-6.82h0.91v8.54H601.11z"/>
	<path class="st11" d="M609.53,171.6c-0.52,0.52-1.27,0.79-2.16,0.79h-2.93v-8.54h2.93c0.89,0,1.64,0.28,2.16,0.79
		c0.89,0.89,0.84,2.2,0.84,3.38C610.37,169.21,610.42,170.71,609.53,171.6z M608.9,165.29c-0.44-0.46-1.02-0.62-1.68-0.62h-1.86
		v6.91h1.86c0.66,0,1.24-0.17,1.68-0.62c0.59-0.61,0.56-1.88,0.56-2.93C609.46,166.98,609.48,165.9,608.9,165.29z"/>
	<path class="st11" d="M617.37,171.57c-0.58,0.58-1.33,0.89-2.18,0.89s-1.61-0.31-2.18-0.89c-0.8-0.8-0.8-1.64-0.8-3.45
		c0-1.81,0-2.65,0.8-3.45c0.58-0.58,1.33-0.89,2.18-0.89s1.61,0.31,2.18,0.89c0.8,0.8,0.8,1.64,0.8,3.45
		C618.17,169.93,618.17,170.77,617.37,171.57z M616.66,165.21c-0.37-0.38-0.91-0.61-1.48-0.61s-1.1,0.23-1.47,0.61
		c-0.54,0.55-0.6,1.13-0.6,2.91s0.06,2.36,0.6,2.91c0.37,0.38,0.91,0.61,1.47,0.61s1.1-0.23,1.48-0.61c0.54-0.55,0.6-1.13,0.6-2.91
		S617.2,165.76,616.66,165.21z"/>
	<path class="st11" d="M625.23,172.39l-1.94-3.79h-2.05v3.79h-0.91v-8.54h3.27c1.49,0,2.53,0.9,2.53,2.37
		c0,1.25-0.76,2.06-1.86,2.29l2.03,3.87H625.23z M623.51,164.67h-2.28v3.13h2.28c1,0,1.7-0.52,1.7-1.56
		C625.21,165.19,624.51,164.67,623.51,164.67z"/>
	<path class="st11" d="M630.39,172.46c-1.28,0-2.12-0.32-2.93-1.13l0.62-0.62c0.71,0.71,1.37,0.94,2.33,0.94
		c1.25,0,2.01-0.59,2.01-1.58c0-0.44-0.13-0.83-0.41-1.07c-0.28-0.24-0.49-0.31-1.12-0.41l-1-0.16c-0.67-0.11-1.2-0.32-1.57-0.65
		c-0.43-0.38-0.65-0.91-0.65-1.59c0-1.45,1.04-2.41,2.73-2.41c1.09,0,1.81,0.28,2.54,0.94l-0.59,0.59
		c-0.53-0.48-1.09-0.73-1.99-0.73c-1.14,0-1.8,0.64-1.8,1.58c0,0.42,0.12,0.75,0.38,0.98c0.26,0.23,0.71,0.4,1.15,0.47l0.94,0.14
		c0.8,0.12,1.2,0.29,1.56,0.6c0.47,0.4,0.72,0.98,0.72,1.69C633.34,171.54,632.16,172.46,630.39,172.46z"/>
	<path class="st11" d="M635.25,172.39v-8.54h5.3v0.82h-4.39v3.01h3.74v0.82h-3.74v3.08h4.39v0.82H635.25z"/>
	<path class="st11" d="M647.35,172.39l-1.94-3.79h-2.05v3.79h-0.91v-8.54h3.27c1.49,0,2.53,0.9,2.53,2.37
		c0,1.25-0.76,2.06-1.86,2.29l2.03,3.87H647.35z M645.64,164.67h-2.28v3.13h2.28c1,0,1.7-0.52,1.7-1.56
		C647.34,165.19,646.63,164.67,645.64,164.67z"/>
</g>
<line class="st16" x1="423.21" y1="189.18" x2="481.25" y2="188.33"/>
<g>
</g>
</svg>
