<?xml version="1.0" encoding="utf-8"?>
<!-- Generator: Adobe Illustrator 24.0.2, SVG Export Plug-In . SVG Version: 6.00 Build 0)  -->
<svg version="1.1" id="Layer_1" xmlns="http://www.w3.org/2000/svg" xmlns:xlink="http://www.w3.org/1999/xlink" x="0px" y="0px"
	 viewBox="0 0 675.5 436" style="enable-background:new 0 0 675.5 436;" xml:space="preserve">
<style type="text/css">
	.st0{fill:none;stroke:#C4C4C4;stroke-miterlimit:10;}
	.st1{fill:#507291;}
	.st2{fill:none;stroke:#507291;stroke-miterlimit:10;}
	.st3{fill:#676766;stroke:#686867;stroke-miterlimit:10;}
	.st4{fill:#FFFFFF;}
	.st5{fill:none;stroke:#686867;stroke-miterlimit:10;}
	.st6{fill:#686867;}
	.st7{fill:#507291;stroke:#507291;stroke-miterlimit:10;}
	.st8{fill:none;stroke:#507291;stroke-miterlimit:10;stroke-dasharray:2.0141,2.0141;}
	.st9{fill:#AB688B;}
	.st10{fill:#F6B5B5;}
	.st11{fill:#3E3E3F;}
	.st12{fill:#F9C8C9;}
	.st13{fill:#EB5858;}
	.st14{fill:#FAD7D7;}
	.st15{fill:#F29292;}
	.st16{fill:#EFB156;}
	.st17{fill:#EF7A18;}
	.st18{fill:#F3903A;}
	.st19{fill:#9E9FA0;}
	.st20{fill:#010202;}
	.st21{fill:none;}
	.st22{fill:#6C832A;}
	.st23{fill:none;stroke:#507291;stroke-miterlimit:10;stroke-dasharray:1.911,1.911;}
	.st24{fill:#5B4A76;}
	.st25{fill:none;stroke:#4A494A;stroke-miterlimit:10;}
	.st26{fill:#4A494A;}
	.st27{fill:none;stroke:#212F3A;stroke-miterlimit:10;}
	.st28{fill:#727272;stroke:#212F3A;stroke-miterlimit:10;}
	.st29{fill:none;stroke:#507291;stroke-miterlimit:10;stroke-dasharray:1.9841,1.9841;}
	.st30{fill:none;stroke:#507291;stroke-miterlimit:10;stroke-dasharray:1.9849,1.9849;}
	.st31{fill:none;stroke:#507291;stroke-miterlimit:10;stroke-dasharray:2.0156,2.0156;}
	.st32{fill:none;stroke:#507291;stroke-miterlimit:10;stroke-dasharray:2.0663,2.0663;}
	.st33{fill:none;stroke:#507291;stroke-miterlimit:10;stroke-dasharray:1.8307,1.8307;}
	.st34{fill:none;stroke:#507291;stroke-miterlimit:10;stroke-dasharray:2,2;}
	.st35{fill:#3B6D72;}
</style>
<line class="st0" x1="80.37" y1="8" x2="80.37" y2="91.16"/>
<line class="st0" x1="372.52" y1="7.91" x2="372.52" y2="91.07"/>
<line class="st0" x1="328.84" y1="7.91" x2="328.84" y2="91.07"/>
<g>
	<rect x="381.76" y="38.56" class="st1" width="17.85" height="17.85"/>
</g>
<g>
	<line class="st1" x1="400.53" y1="47.49" x2="422.13" y2="47.49"/>
	<g>
		<line class="st2" x1="404.15" y1="47.49" x2="422.13" y2="47.49"/>
		<g>
			<path class="st1" d="M400.53,47.49c1.7,0.63,3.82,1.71,5.13,2.85l-1.03-2.85l1.03-2.85C404.35,45.78,402.23,46.86,400.53,47.49z"
				/>
		</g>
	</g>
</g>
<rect x="13.2" y="72.86" class="st3" width="46.13" height="17.77"/>
<g>
	<path class="st4" d="M22.1,86.31c-0.84,0-1.61-0.31-2.18-0.89c-0.8-0.8-0.8-1.64-0.8-3.45c0-1.81,0-2.65,0.8-3.45
		c0.58-0.58,1.34-0.89,2.18-0.89c1.54,0,2.67,0.94,2.96,2.54h-0.94c-0.23-1.04-0.96-1.73-2.03-1.73c-0.56,0-1.1,0.22-1.48,0.6
		c-0.54,0.55-0.6,1.14-0.6,2.93s0.06,2.38,0.6,2.93c0.37,0.38,0.91,0.6,1.48,0.6c1.07,0,1.82-0.68,2.05-1.73h0.91
		C24.79,85.38,23.62,86.31,22.1,86.31z"/>
	<path class="st4" d="M29.28,82.71v3.53h-0.91v-3.53l-2.54-5.01h0.98l2.01,4.09l1.99-4.09h0.98L29.28,82.71z"/>
	<path class="st4" d="M35.67,86.31c-0.84,0-1.61-0.31-2.18-0.89c-0.8-0.8-0.8-1.64-0.8-3.45c0-1.81,0-2.65,0.8-3.45
		c0.58-0.58,1.34-0.89,2.18-0.89c1.54,0,2.67,0.94,2.96,2.54H37.7c-0.23-1.04-0.96-1.73-2.03-1.73c-0.56,0-1.1,0.22-1.48,0.6
		c-0.54,0.55-0.6,1.14-0.6,2.93s0.06,2.38,0.6,2.93c0.37,0.38,0.91,0.6,1.48,0.6c1.07,0,1.82-0.68,2.05-1.73h0.91
		C38.36,85.38,37.2,86.31,35.67,86.31z"/>
	<path class="st4" d="M40.65,86.24V77.7h0.91v7.72h4.37v0.82H40.65z"/>
	<path class="st4" d="M47.53,86.24V77.7h5.3v0.82h-4.39v3.01h3.74v0.82h-3.74v3.08h4.39v0.82H47.53z"/>
</g>
<g>
	<g>
		<line class="st5" x1="13.2" y1="90.63" x2="603.42" y2="91.18"/>
		<g>
			<path class="st6" d="M609.45,91.19c-2.84,1.05-6.37,2.85-8.55,4.75l1.72-4.75l-1.72-4.76C603.09,88.33,606.62,90.13,609.45,91.19
				z"/>
		</g>
	</g>
</g>
<line class="st0" x1="580.81" y1="8" x2="580.81" y2="91.16"/>
<g>
	<path class="st6" d="M483.68,101.77h0.97l0.08,0.94c0.09-0.13,0.2-0.25,0.31-0.37s0.23-0.21,0.35-0.29
		c0.19-0.13,0.39-0.22,0.61-0.29s0.45-0.1,0.7-0.11c0.33,0,0.63,0.05,0.91,0.14s0.5,0.24,0.69,0.44s0.34,0.45,0.44,0.76
		s0.16,0.67,0.16,1.09v4.03h-1.08v-4c0-0.28-0.03-0.52-0.09-0.71s-0.15-0.35-0.28-0.47c-0.13-0.12-0.28-0.21-0.45-0.26
		s-0.38-0.08-0.61-0.08c-0.2,0-0.38,0.03-0.56,0.08s-0.33,0.13-0.47,0.23c-0.12,0.09-0.23,0.19-0.33,0.3s-0.19,0.24-0.26,0.38v4.55
		h-1.08V101.77z"/>
</g>
<g>
	<line class="st1" x1="440.9" y1="47.49" x2="462.5" y2="47.49"/>
	<g>
		<line class="st2" x1="444.52" y1="47.49" x2="462.5" y2="47.49"/>
		<g>
			<path class="st1" d="M440.9,47.49c1.7,0.63,3.82,1.71,5.13,2.85L445,47.49l1.03-2.85C444.72,45.78,442.6,46.86,440.9,47.49z"/>
		</g>
	</g>
</g>
<g>
	<line class="st1" x1="481.27" y1="47.49" x2="502.87" y2="47.49"/>
	<g>
		<line class="st2" x1="484.89" y1="47.49" x2="502.87" y2="47.49"/>
		<g>
			<path class="st1" d="M481.27,47.49c1.7,0.63,3.82,1.71,5.13,2.85l-1.03-2.85l1.03-2.85C485.09,45.78,482.97,46.86,481.27,47.49z"
				/>
		</g>
	</g>
</g>
<g>
	<line class="st1" x1="529.64" y1="47.49" x2="551.24" y2="47.49"/>
	<g>
		<line class="st2" x1="533.26" y1="47.49" x2="551.24" y2="47.49"/>
		<g>
			<path class="st1" d="M529.64,47.49c1.7,0.63,3.82,1.71,5.13,2.85l-1.03-2.85l1.03-2.85C533.46,45.78,531.34,46.86,529.64,47.49z"
				/>
		</g>
	</g>
</g>
<g>
	<line class="st1" x1="319.79" y1="47.49" x2="341.39" y2="47.49"/>
	<g>
		<line class="st2" x1="323.41" y1="47.49" x2="341.39" y2="47.49"/>
		<g>
			<path class="st1" d="M319.79,47.49c1.7,0.63,3.82,1.71,5.13,2.85l-1.03-2.85l1.03-2.85C323.61,45.78,321.49,46.86,319.79,47.49z"
				/>
		</g>
	</g>
</g>
<g>
	<line class="st1" x1="360.16" y1="47.49" x2="381.76" y2="47.49"/>
	<g>
		<line class="st2" x1="363.78" y1="47.49" x2="381.76" y2="47.49"/>
		<g>
			<path class="st1" d="M360.16,47.49c1.7,0.63,3.82,1.71,5.13,2.85l-1.03-2.85l1.03-2.85C363.98,45.78,361.86,46.86,360.16,47.49z"
				/>
		</g>
	</g>
</g>
<g>
	<rect x="551.24" y="38.56" class="st1" width="17.85" height="17.85"/>
</g>
<g>
	<line class="st1" x1="190.5" y1="47.49" x2="212.1" y2="47.49"/>
	<g>
		<line class="st2" x1="194.12" y1="47.49" x2="212.1" y2="47.49"/>
		<g>
			<path class="st1" d="M190.5,47.49c1.7,0.63,3.82,1.71,5.13,2.85l-1.03-2.85l1.03-2.85C194.31,45.78,192.2,46.86,190.5,47.49z"/>
		</g>
	</g>
</g>
<g>
	<rect x="212.1" y="38.56" class="st1" width="17.85" height="17.85"/>
</g>
<g>
	<line class="st1" x1="230.87" y1="47.49" x2="252.47" y2="47.49"/>
	<g>
		<line class="st2" x1="234.49" y1="47.49" x2="252.47" y2="47.49"/>
		<g>
			<path class="st1" d="M230.87,47.49c1.7,0.63,3.82,1.71,5.13,2.85l-1.03-2.85l1.03-2.85C234.68,45.78,232.57,46.86,230.87,47.49z"
				/>
		</g>
	</g>
</g>
<g>
	<line class="st1" x1="279.24" y1="47.49" x2="300.83" y2="47.49"/>
	<g>
		<line class="st2" x1="282.86" y1="47.49" x2="300.83" y2="47.49"/>
		<g>
			<path class="st1" d="M279.24,47.49c1.7,0.63,3.82,1.71,5.13,2.85l-1.03-2.85l1.03-2.85C283.05,45.78,280.94,46.86,279.24,47.49z"
				/>
		</g>
	</g>
</g>
<g>
	<path class="st1" d="M261.71,47.82V46.5h1.32v1.32H261.71z"/>
	<path class="st1" d="M265.49,47.82V46.5h1.32v1.32H265.49z"/>
	<path class="st1" d="M269.27,47.82V46.5h1.32v1.32H269.27z"/>
</g>
<g>
	<line class="st1" x1="150.13" y1="47.49" x2="171.73" y2="47.49"/>
	<g>
		<line class="st2" x1="153.75" y1="47.49" x2="171.73" y2="47.49"/>
		<g>
			<path class="st1" d="M150.13,47.49c1.7,0.63,3.82,1.71,5.13,2.85l-1.03-2.85l1.03-2.85C153.94,45.78,151.83,46.86,150.13,47.49z"
				/>
		</g>
	</g>
</g>
<g>
	<line class="st1" x1="69.57" y1="47.49" x2="91.17" y2="47.49"/>
	<g>
		<line class="st2" x1="73.19" y1="47.49" x2="91.17" y2="47.49"/>
		<g>
			<path class="st1" d="M69.57,47.49c1.7,0.63,3.82,1.71,5.13,2.85l-1.03-2.85l1.03-2.85C73.39,45.78,71.28,46.86,69.57,47.49z"/>
		</g>
	</g>
</g>
<g>
	<rect x="91.17" y="38.56" class="st1" width="17.85" height="17.85"/>
</g>
<g>
	<line class="st1" x1="109.94" y1="47.49" x2="131.54" y2="47.49"/>
	<g>
		<line class="st2" x1="113.56" y1="47.49" x2="131.54" y2="47.49"/>
		<g>
			<path class="st1" d="M109.94,47.49c1.7,0.63,3.82,1.71,5.13,2.85l-1.03-2.85l1.03-2.85C113.76,45.78,111.65,46.86,109.94,47.49z"
				/>
		</g>
	</g>
</g>
<g>
	<path class="st6" d="M117.22,101.77h0.97l0.08,0.94c0.09-0.13,0.2-0.25,0.31-0.37s0.23-0.21,0.35-0.29
		c0.19-0.13,0.39-0.22,0.61-0.29s0.45-0.1,0.7-0.11c0.33,0,0.63,0.05,0.91,0.14s0.5,0.24,0.69,0.44s0.34,0.45,0.44,0.76
		s0.16,0.67,0.16,1.09v4.03h-1.08v-4c0-0.28-0.03-0.52-0.09-0.71s-0.15-0.35-0.28-0.47c-0.13-0.12-0.28-0.21-0.45-0.26
		s-0.38-0.08-0.61-0.08c-0.2,0-0.38,0.03-0.56,0.08s-0.33,0.13-0.47,0.23c-0.12,0.09-0.23,0.19-0.33,0.3s-0.19,0.24-0.26,0.38v4.55
		h-1.08V101.77z"/>
	<path class="st6" d="M131.03,104.29v-0.88h6.36v0.88H131.03z"/>
	<path class="st6" d="M148.45,108.11v-7.15l-2.23,0.85v-0.99l3.23-1.24h0.09v8.53H148.45z"/>
	<path class="st6" d="M159.84,104.29v-0.88h6.36v0.88H159.84z"/>
	<path class="st6" d="M176.01,108.11h-1.08v-8.53h2.77c0.38,0.01,0.75,0.07,1.09,0.18s0.64,0.28,0.9,0.49s0.46,0.48,0.61,0.8
		s0.23,0.68,0.23,1.09s-0.08,0.77-0.23,1.09s-0.35,0.58-0.61,0.79s-0.56,0.38-0.9,0.49s-0.7,0.17-1.09,0.18h-1.68V108.11z
		 M177.69,103.79c0.25,0,0.48-0.04,0.69-0.12s0.39-0.18,0.55-0.33s0.28-0.31,0.37-0.51s0.13-0.43,0.13-0.69s-0.04-0.49-0.13-0.7
		s-0.21-0.38-0.36-0.53c-0.16-0.14-0.34-0.26-0.55-0.33s-0.44-0.12-0.69-0.12h-1.68v3.33H177.69z"/>
	<path class="st6" d="M183.15,104.63v3.48h-1.08v-8.53h2.5c0.4,0.01,0.77,0.06,1.13,0.17s0.66,0.26,0.93,0.47
		c0.26,0.21,0.47,0.48,0.62,0.79s0.23,0.69,0.23,1.12c0,0.28-0.04,0.53-0.12,0.76s-0.19,0.44-0.33,0.63s-0.31,0.35-0.5,0.5
		s-0.41,0.27-0.64,0.37l1.81,3.64l-0.01,0.07h-1.14l-1.68-3.48H183.15z M184.6,103.74c0.24,0,0.47-0.04,0.69-0.11
		s0.4-0.18,0.57-0.31c0.16-0.14,0.29-0.3,0.38-0.5s0.14-0.42,0.14-0.68c0-0.27-0.04-0.51-0.13-0.72s-0.21-0.38-0.38-0.52
		c-0.16-0.14-0.35-0.24-0.57-0.31s-0.46-0.11-0.72-0.11h-1.42v3.27H184.6z"/>
	<path class="st6" d="M190.36,104.16v3.02h4.15v0.92h-5.24v-8.53h5.19v0.93h-4.1v2.74h3.56v0.92H190.36z"/>
	<path class="st6" d="M200.72,105.29c-0.12-0.18-0.27-0.33-0.46-0.46c-0.19-0.12-0.39-0.22-0.62-0.3s-0.44-0.16-0.65-0.22
		c-0.3-0.1-0.61-0.22-0.92-0.35s-0.59-0.31-0.85-0.5c-0.26-0.2-0.47-0.43-0.63-0.71s-0.24-0.59-0.24-0.96s0.08-0.7,0.24-0.98
		s0.37-0.53,0.64-0.73s0.56-0.35,0.89-0.45s0.67-0.16,1-0.16c0.37,0,0.73,0.06,1.07,0.18s0.65,0.3,0.91,0.52s0.48,0.49,0.64,0.81
		s0.24,0.67,0.25,1.06h-1.11c-0.03-0.25-0.09-0.47-0.18-0.67s-0.21-0.37-0.36-0.52s-0.33-0.26-0.53-0.34s-0.44-0.12-0.69-0.12
		c-0.21,0-0.41,0.03-0.61,0.09s-0.37,0.15-0.52,0.26c-0.16,0.12-0.28,0.26-0.37,0.43s-0.14,0.37-0.14,0.6
		c0,0.25,0.07,0.45,0.19,0.62s0.28,0.31,0.46,0.43c0.18,0.12,0.38,0.21,0.6,0.29s0.42,0.15,0.61,0.21c0.32,0.1,0.63,0.22,0.95,0.35
		s0.61,0.32,0.87,0.53c0.26,0.2,0.47,0.44,0.62,0.73s0.24,0.62,0.24,1c0,0.38-0.08,0.72-0.25,1s-0.39,0.52-0.66,0.71
		c-0.27,0.19-0.57,0.33-0.91,0.43s-0.68,0.14-1.02,0.14c-0.41,0-0.81-0.07-1.2-0.21s-0.73-0.33-1.02-0.59
		c-0.26-0.22-0.46-0.48-0.61-0.78s-0.23-0.63-0.24-1h1.11c0.04,0.27,0.11,0.5,0.22,0.71s0.25,0.38,0.42,0.52
		c0.17,0.14,0.37,0.25,0.59,0.33s0.47,0.11,0.74,0.11c0.21,0,0.42-0.03,0.62-0.08s0.39-0.14,0.55-0.25
		c0.16-0.11,0.29-0.25,0.39-0.42s0.15-0.37,0.15-0.61C200.9,105.69,200.84,105.47,200.72,105.29z"/>
	<path class="st6" d="M204.76,104.16v3.02h4.15v0.92h-5.24v-8.53h5.19v0.93h-4.1v2.74h3.56v0.92H204.76z"/>
	<path class="st6" d="M211.95,104.63v3.48h-1.08v-8.53h2.5c0.4,0.01,0.77,0.06,1.13,0.17s0.66,0.26,0.93,0.47
		c0.26,0.21,0.47,0.48,0.62,0.79s0.23,0.69,0.23,1.12c0,0.28-0.04,0.53-0.12,0.76s-0.19,0.44-0.33,0.63s-0.31,0.35-0.5,0.5
		s-0.41,0.27-0.64,0.37l1.81,3.64l-0.01,0.07h-1.14l-1.68-3.48H211.95z M213.41,103.74c0.24,0,0.47-0.04,0.69-0.11
		s0.4-0.18,0.57-0.31c0.16-0.14,0.29-0.3,0.38-0.5s0.14-0.42,0.14-0.68c0-0.27-0.04-0.51-0.13-0.72s-0.21-0.38-0.38-0.52
		c-0.16-0.14-0.35-0.24-0.57-0.31s-0.46-0.11-0.72-0.11h-1.42v3.27H213.41z"/>
	<path class="st6" d="M217.43,99.58h1.16l1.88,6.37l0.12,0.42l0.13-0.43l1.89-6.36h1.15l-2.69,8.53h-0.94L217.43,99.58z"/>
	<path class="st6" d="M226.37,104.16v3.02h4.15v0.92h-5.24v-8.53h5.19v0.93h-4.1v2.74h3.56v0.92H226.37z"/>
	<path class="st6" d="M232.33,99.58h1.97c0.33,0,0.65,0.04,0.94,0.1s0.57,0.16,0.82,0.27c0.35,0.16,0.66,0.37,0.92,0.63
		s0.48,0.56,0.64,0.9c0.14,0.29,0.25,0.61,0.33,0.95s0.12,0.71,0.12,1.1v0.63c0,0.38-0.04,0.73-0.11,1.07s-0.18,0.64-0.31,0.93
		c-0.14,0.29-0.32,0.56-0.53,0.8s-0.46,0.44-0.72,0.61c-0.28,0.18-0.6,0.31-0.95,0.4s-0.74,0.14-1.15,0.15h-1.97V99.58z
		 M233.43,107.22h0.87c0.31,0,0.6-0.04,0.85-0.12s0.48-0.18,0.68-0.32c0.21-0.14,0.39-0.31,0.55-0.52s0.28-0.43,0.37-0.69
		c0.08-0.21,0.14-0.43,0.18-0.67s0.06-0.49,0.06-0.75v-0.64c0-0.27-0.03-0.52-0.07-0.76s-0.1-0.47-0.18-0.68
		c-0.11-0.27-0.25-0.52-0.42-0.74s-0.4-0.4-0.65-0.54c-0.18-0.1-0.39-0.18-0.62-0.24s-0.47-0.09-0.74-0.09h-0.87V107.22z"/>
	<path class="st6" d="M239.53,108.99v-0.88h5.37v0.88H239.53z"/>
	<path class="st6" d="M252.06,106.63c-0.15,0.33-0.35,0.61-0.59,0.85c-0.25,0.24-0.54,0.42-0.87,0.55s-0.71,0.2-1.12,0.2
		c-0.35,0-0.67-0.05-0.96-0.15s-0.54-0.24-0.76-0.41c-0.23-0.18-0.42-0.38-0.58-0.62s-0.3-0.5-0.4-0.78
		c-0.11-0.28-0.19-0.58-0.24-0.88s-0.08-0.62-0.08-0.94v-1.19c0-0.32,0.03-0.63,0.08-0.94s0.13-0.6,0.24-0.88
		c0.11-0.28,0.24-0.54,0.4-0.78s0.36-0.45,0.58-0.62c0.22-0.18,0.48-0.31,0.76-0.41s0.61-0.15,0.96-0.15c0.43,0,0.81,0.07,1.14,0.2
		s0.63,0.32,0.87,0.55c0.24,0.24,0.44,0.53,0.58,0.87s0.24,0.71,0.29,1.11h-1.08c-0.04-0.26-0.1-0.5-0.18-0.72s-0.2-0.42-0.35-0.59
		s-0.32-0.3-0.53-0.4s-0.46-0.14-0.74-0.14c-0.26,0-0.49,0.04-0.68,0.13s-0.37,0.2-0.51,0.34c-0.14,0.14-0.26,0.31-0.36,0.5
		s-0.17,0.39-0.23,0.61s-0.1,0.43-0.13,0.66s-0.04,0.44-0.04,0.65v1.2c0,0.21,0.01,0.43,0.04,0.65s0.07,0.44,0.13,0.66
		c0.06,0.22,0.13,0.42,0.23,0.62s0.21,0.36,0.36,0.5c0.14,0.15,0.31,0.26,0.51,0.35s0.42,0.13,0.69,0.13c0.29,0,0.53-0.04,0.74-0.13
		s0.39-0.22,0.53-0.38c0.14-0.16,0.26-0.35,0.35-0.57s0.15-0.46,0.18-0.72h1.08C252.31,105.93,252.21,106.3,252.06,106.63z"/>
	<path class="st6" d="M258.5,99.58h1.23l-2.65,5.35l-0.02,3.18h-1.01l-0.02-3.18l-2.65-5.35h1.24l1.94,4.28L258.5,99.58z"/>
	<path class="st6" d="M266.46,106.63c-0.15,0.33-0.35,0.61-0.59,0.85c-0.25,0.24-0.54,0.42-0.87,0.55s-0.71,0.2-1.12,0.2
		c-0.35,0-0.67-0.05-0.96-0.15s-0.54-0.24-0.76-0.41c-0.23-0.18-0.42-0.38-0.58-0.62s-0.3-0.5-0.4-0.78
		c-0.11-0.28-0.19-0.58-0.24-0.88s-0.08-0.62-0.08-0.94v-1.19c0-0.32,0.03-0.63,0.08-0.94s0.13-0.6,0.24-0.88
		c0.11-0.28,0.24-0.54,0.4-0.78s0.36-0.45,0.58-0.62c0.22-0.18,0.48-0.31,0.76-0.41s0.61-0.15,0.96-0.15c0.43,0,0.81,0.07,1.14,0.2
		s0.63,0.32,0.87,0.55c0.24,0.24,0.44,0.53,0.58,0.87s0.24,0.71,0.29,1.11h-1.08c-0.04-0.26-0.1-0.5-0.18-0.72s-0.2-0.42-0.35-0.59
		s-0.32-0.3-0.53-0.4s-0.46-0.14-0.74-0.14c-0.26,0-0.49,0.04-0.68,0.13s-0.37,0.2-0.51,0.34c-0.14,0.14-0.26,0.31-0.36,0.5
		s-0.17,0.39-0.23,0.61s-0.1,0.43-0.13,0.66s-0.04,0.44-0.04,0.65v1.2c0,0.21,0.01,0.43,0.04,0.65s0.07,0.44,0.13,0.66
		c0.06,0.22,0.13,0.42,0.23,0.62s0.21,0.36,0.36,0.5c0.14,0.15,0.31,0.26,0.51,0.35s0.42,0.13,0.69,0.13c0.29,0,0.53-0.04,0.74-0.13
		s0.39-0.22,0.53-0.38c0.14-0.16,0.26-0.35,0.35-0.57s0.15-0.46,0.18-0.72h1.08C266.72,105.93,266.61,106.3,266.46,106.63z"/>
	<path class="st6" d="M273.84,107.19v0.92h-5.26v-8.53h1.08v7.61H273.84z"/>
	<path class="st6" d="M276.77,104.16v3.02h4.15v0.92h-5.24v-8.53h5.19v0.93h-4.1v2.74h3.56v0.92H276.77z"/>
	<path class="st6" d="M287.13,105.29c-0.12-0.18-0.27-0.33-0.46-0.46c-0.19-0.12-0.39-0.22-0.62-0.3s-0.44-0.16-0.65-0.22
		c-0.3-0.1-0.61-0.22-0.92-0.35s-0.59-0.31-0.85-0.5c-0.26-0.2-0.47-0.43-0.63-0.71s-0.24-0.59-0.24-0.96s0.08-0.7,0.24-0.98
		s0.37-0.53,0.64-0.73s0.56-0.35,0.89-0.45s0.67-0.16,1-0.16c0.37,0,0.73,0.06,1.07,0.18s0.65,0.3,0.91,0.52s0.48,0.49,0.64,0.81
		s0.24,0.67,0.25,1.06h-1.11c-0.03-0.25-0.09-0.47-0.18-0.67s-0.21-0.37-0.36-0.52s-0.33-0.26-0.53-0.34s-0.44-0.12-0.69-0.12
		c-0.21,0-0.41,0.03-0.61,0.09s-0.37,0.15-0.52,0.26c-0.16,0.12-0.28,0.26-0.37,0.43s-0.14,0.37-0.14,0.6
		c0,0.25,0.07,0.45,0.19,0.62s0.28,0.31,0.46,0.43c0.18,0.12,0.38,0.21,0.6,0.29s0.42,0.15,0.61,0.21c0.32,0.1,0.63,0.22,0.95,0.35
		s0.61,0.32,0.87,0.53c0.26,0.2,0.47,0.44,0.62,0.73s0.24,0.62,0.24,1c0,0.38-0.08,0.72-0.25,1s-0.39,0.52-0.66,0.71
		c-0.27,0.19-0.57,0.33-0.91,0.43s-0.68,0.14-1.02,0.14c-0.41,0-0.81-0.07-1.2-0.21s-0.73-0.33-1.02-0.59
		c-0.26-0.22-0.46-0.48-0.61-0.78s-0.23-0.63-0.24-1h1.11c0.04,0.27,0.11,0.5,0.22,0.71s0.25,0.38,0.42,0.52
		c0.17,0.14,0.37,0.25,0.59,0.33s0.47,0.11,0.74,0.11c0.21,0,0.42-0.03,0.62-0.08s0.39-0.14,0.55-0.25
		c0.16-0.11,0.29-0.25,0.39-0.42s0.15-0.37,0.15-0.61C287.31,105.69,287.25,105.47,287.13,105.29z"/>
</g>
<rect x="107.28" y="317.02" class="st2" width="175.86" height="106.98"/>
<rect x="107.28" y="297.58" class="st7" width="175.86" height="19.86"/>
<g>
	<path class="st4" d="M120.29,311.02h-3.32v-8.54h3.21c1.49,0,2.52,0.85,2.52,2.28c0,0.9-0.54,1.61-1.26,1.87
		c0.82,0.3,1.39,1.01,1.39,2.03C122.83,310.21,121.8,311.02,120.29,311.02z M120.11,303.3h-2.23v2.96h2.23
		c0.95,0,1.68-0.47,1.68-1.49C121.79,303.75,121.05,303.3,120.11,303.3z M120.2,307.07h-2.33v3.13h2.33c1.06,0,1.71-0.61,1.71-1.57
		C121.92,307.67,121.26,307.07,120.2,307.07z"/>
	<path class="st4" d="M129.96,311.02l-0.68-1.93h-3.73l-0.68,1.93h-0.97l3.14-8.54h0.77l3.13,8.54H129.96z M127.43,303.79
		l-1.61,4.51h3.19L127.43,303.79z"/>
	<path class="st4" d="M137.63,311.02l-2.6-4.55l-1.8,2.16v2.39h-0.91v-8.54h0.91v4.91l3.98-4.91h1.12l-2.69,3.3l3.07,5.24H137.63z"
		/>
	<path class="st4" d="M140.11,311.02v-8.54h0.91v8.54H140.11z"/>
	<path class="st4" d="M148.94,311.02l-4.53-6.85v6.85h-0.91v-8.54h0.86l4.53,6.82v-6.82h0.91v8.54H148.94z"/>
	<path class="st4" d="M157.22,310.11c-0.6,0.65-1.4,0.98-2.28,0.98c-0.84,0-1.61-0.31-2.18-0.89c-0.8-0.8-0.8-1.64-0.8-3.45
		c0-1.81,0-2.65,0.8-3.45c0.58-0.58,1.33-0.89,2.18-0.89c1.63,0,2.73,1.06,2.99,2.55h-0.91c-0.24-1.08-1.01-1.74-2.07-1.74
		c-0.56,0-1.1,0.23-1.48,0.61c-0.54,0.55-0.6,1.13-0.6,2.91s0.06,2.38,0.6,2.93c0.37,0.38,0.91,0.6,1.48,0.6
		c0.62,0,1.22-0.25,1.62-0.73c0.35-0.42,0.48-0.89,0.48-1.55v-0.65h-2.1v-0.8h3.01v1.36C157.95,308.89,157.75,309.54,157.22,310.11z
		"/>
	<path class="st4" d="M167.97,311.02l-1.94-3.79h-2.05v3.79h-0.91v-8.54h3.27c1.49,0,2.53,0.9,2.53,2.37c0,1.25-0.76,2.06-1.86,2.29
		l2.03,3.87H167.97z M166.26,303.3h-2.28v3.13h2.28c1,0,1.7-0.52,1.7-1.56C167.96,303.82,167.25,303.3,166.26,303.3z"/>
	<path class="st4" d="M170.94,311.02v-8.54h0.91v8.54H170.94z"/>
	<path class="st4" d="M179.27,310.11c-0.6,0.65-1.4,0.98-2.28,0.98c-0.84,0-1.61-0.31-2.18-0.89c-0.8-0.8-0.8-1.64-0.8-3.45
		c0-1.81,0-2.65,0.8-3.45c0.58-0.58,1.33-0.89,2.18-0.89c1.63,0,2.73,1.06,2.99,2.55h-0.91c-0.24-1.08-1.01-1.74-2.07-1.74
		c-0.56,0-1.1,0.23-1.48,0.61c-0.54,0.55-0.6,1.13-0.6,2.91s0.06,2.38,0.6,2.93c0.37,0.38,0.91,0.6,1.48,0.6
		c0.62,0,1.22-0.25,1.62-0.73c0.35-0.42,0.48-0.89,0.48-1.55v-0.65h-2.1v-0.8H180v1.36C180,308.89,179.79,309.54,179.27,310.11z"/>
	<path class="st4" d="M187.09,311.02v-3.9h-4.05v3.9h-0.91v-8.54h0.91v3.83h4.05v-3.83H188v8.54H187.09z"/>
	<path class="st4" d="M192.98,303.3v7.72h-0.91v-7.72h-2.47v-0.82h5.85v0.82H192.98z"/>
	<path class="st4" d="M199.25,311.09c-1.28,0-2.12-0.32-2.93-1.13l0.62-0.62c0.71,0.71,1.37,0.94,2.33,0.94
		c1.25,0,2.01-0.59,2.01-1.58c0-0.44-0.13-0.83-0.41-1.07c-0.28-0.24-0.49-0.31-1.12-0.41l-1-0.16c-0.67-0.11-1.2-0.32-1.57-0.65
		c-0.43-0.38-0.65-0.91-0.65-1.59c0-1.45,1.04-2.41,2.73-2.41c1.09,0,1.81,0.28,2.54,0.94l-0.59,0.59
		c-0.53-0.48-1.09-0.73-1.99-0.73c-1.14,0-1.8,0.64-1.8,1.58c0,0.42,0.12,0.75,0.38,0.98c0.26,0.23,0.71,0.4,1.15,0.47l0.94,0.14
		c0.8,0.12,1.2,0.29,1.56,0.6c0.47,0.4,0.72,0.98,0.72,1.69C202.2,310.17,201.02,311.09,199.25,311.09z"/>
</g>
<rect x="13.2" y="149.33" class="st2" width="119" height="74.26"/>
<rect x="13.2" y="131.93" class="st7" width="119" height="17.77"/>
<g>
	<path class="st4" d="M25.09,145.45c-1.28,0-2.12-0.32-2.93-1.13l0.62-0.62c0.71,0.71,1.37,0.94,2.33,0.94
		c1.25,0,2.01-0.59,2.01-1.58c0-0.44-0.13-0.83-0.41-1.07c-0.28-0.24-0.49-0.31-1.12-0.41l-1-0.16c-0.67-0.11-1.2-0.32-1.57-0.65
		c-0.43-0.38-0.65-0.91-0.65-1.59c0-1.45,1.04-2.41,2.73-2.41c1.09,0,1.81,0.28,2.54,0.94l-0.59,0.59
		c-0.53-0.48-1.09-0.73-1.99-0.73c-1.14,0-1.8,0.64-1.8,1.58c0,0.42,0.12,0.75,0.38,0.98c0.26,0.23,0.71,0.4,1.15,0.47l0.94,0.14
		c0.8,0.12,1.2,0.29,1.56,0.6c0.47,0.4,0.72,0.98,0.72,1.69C28.04,144.52,26.86,145.45,25.09,145.45z"/>
	<path class="st4" d="M32.45,137.65v7.72h-0.91v-7.72h-2.47v-0.82h5.85v0.82H32.45z"/>
	<path class="st4" d="M40.78,145.37l-0.68-1.93h-3.73l-0.68,1.93h-0.97l3.14-8.54h0.77l3.13,8.54H40.78z M38.25,138.14l-1.61,4.51
		h3.19L38.25,138.14z"/>
	<path class="st4" d="M48.45,145.37l-2.6-4.55l-1.8,2.16v2.39h-0.91v-8.54h0.91v4.91l3.98-4.91h1.12l-2.69,3.3l3.07,5.24H48.45z"/>
	<path class="st4" d="M50.94,145.37v-8.54h5.3v0.82h-4.39v3.01h3.74v0.82h-3.74v3.08h4.39v0.82H50.94z"/>
	<path class="st4" d="M63.32,145.45c-1.28,0-2.12-0.32-2.93-1.13l0.62-0.62c0.71,0.71,1.37,0.94,2.33,0.94
		c1.25,0,2.01-0.59,2.01-1.58c0-0.44-0.13-0.83-0.41-1.07c-0.28-0.24-0.49-0.31-1.12-0.41l-1-0.16c-0.67-0.11-1.2-0.32-1.57-0.65
		c-0.43-0.38-0.65-0.91-0.65-1.59c0-1.45,1.04-2.41,2.73-2.41c1.09,0,1.81,0.28,2.54,0.94l-0.59,0.59
		c-0.53-0.48-1.09-0.73-1.99-0.73c-1.14,0-1.8,0.64-1.8,1.58c0,0.42,0.12,0.75,0.38,0.98c0.26,0.23,0.71,0.4,1.15,0.47l0.94,0.14
		c0.8,0.12,1.2,0.29,1.56,0.6c0.47,0.4,0.72,0.98,0.72,1.69C66.27,144.52,65.09,145.45,63.32,145.45z"/>
	<path class="st4" d="M73.62,145.37l-4.53-6.85v6.85h-0.91v-8.54h0.86l4.53,6.82v-6.82h0.91v8.54H73.62z"/>
	<path class="st4" d="M81.94,145.37l-0.68-1.93h-3.73l-0.68,1.93h-0.97l3.14-8.54h0.77l3.13,8.54H81.94z M79.41,138.14l-1.61,4.51
		h3.19L79.41,138.14z"/>
	<path class="st4" d="M87.47,141.86h-2.27v3.51h-0.91v-8.54h3.18c1.56,0,2.64,0.97,2.64,2.51S89.03,141.86,87.47,141.86z
		 M87.39,137.65h-2.18v3.39h2.18c1.07,0,1.81-0.58,1.81-1.7C89.2,138.21,88.46,137.65,87.39,137.65z"/>
	<path class="st4" d="M94.05,145.45c-1.28,0-2.12-0.32-2.93-1.13l0.62-0.62c0.71,0.71,1.37,0.94,2.33,0.94
		c1.25,0,2.02-0.59,2.02-1.58c0-0.44-0.13-0.83-0.41-1.07c-0.28-0.24-0.49-0.31-1.12-0.41l-1-0.16c-0.67-0.11-1.2-0.32-1.57-0.65
		c-0.43-0.38-0.65-0.91-0.65-1.59c0-1.45,1.04-2.41,2.73-2.41c1.09,0,1.81,0.28,2.54,0.94l-0.59,0.59
		c-0.53-0.48-1.09-0.73-1.99-0.73c-1.14,0-1.8,0.64-1.8,1.58c0,0.42,0.12,0.75,0.38,0.98c0.26,0.23,0.71,0.4,1.15,0.47l0.94,0.14
		c0.8,0.12,1.2,0.29,1.56,0.6c0.47,0.4,0.72,0.98,0.72,1.69C97,144.52,95.82,145.45,94.05,145.45z"/>
	<path class="st4" d="M103.88,145.37v-3.9h-4.05v3.9h-0.91v-8.54h0.91v3.83h4.05v-3.83h0.91v8.54H103.88z"/>
	<path class="st4" d="M112.11,144.56c-0.58,0.58-1.33,0.89-2.18,0.89c-0.85,0-1.61-0.31-2.18-0.89c-0.8-0.8-0.8-1.64-0.8-3.45
		c0-1.81,0-2.65,0.8-3.45c0.58-0.58,1.33-0.89,2.18-0.89c0.85,0,1.61,0.31,2.18,0.89c0.8,0.8,0.8,1.64,0.8,3.45
		C112.91,142.92,112.91,143.75,112.11,144.56z M111.4,138.19c-0.37-0.38-0.91-0.61-1.48-0.61c-0.56,0-1.1,0.23-1.47,0.61
		c-0.54,0.55-0.6,1.13-0.6,2.91s0.06,2.36,0.6,2.91c0.37,0.38,0.91,0.61,1.47,0.61c0.56,0,1.1-0.23,1.48-0.61
		c0.54-0.55,0.6-1.13,0.6-2.91S111.94,138.74,111.4,138.19z"/>
	<path class="st4" d="M117.33,137.65v7.72h-0.91v-7.72h-2.47v-0.82h5.85v0.82H117.33z"/>
</g>
<g>
	<g>
		<line class="st2" x1="100.1" y1="56.5" x2="100.1" y2="57.5"/>
		<line class="st8" x1="100.1" y1="59.51" x2="100.1" y2="122.96"/>
		<line class="st2" x1="100.1" y1="123.96" x2="100.1" y2="124.96"/>
		<g>
			<path class="st1" d="M100.1,131c-1.05-2.84-2.85-6.36-4.76-8.55l4.76,1.72l4.75-1.72C102.95,124.64,101.15,128.16,100.1,131z"/>
		</g>
	</g>
</g>
<circle id="XMLID_44_" class="st9" cx="35.91" cy="170.65" r="12.57"/>
<path id="XMLID_43_" class="st10" d="M43.23,177.97l-0.82-2.13c-0.2-0.53-0.64-0.93-1.18-1.1l-3.03-0.72v-1.89
	c-0.65,1-1.53,1.48-2.29,1.73c-0.75-0.25-1.64-0.72-2.29-1.72v2.41c0,0,0.46,0.91,2.29,0.91v2.51H43.23z"/>
<path id="XMLID_42_" class="st11" d="M38.2,174.01l1.14,0.27v-3.91c-0.13,0.13-0.29,0.23-0.5,0.26c-0.16,0.6-0.38,1.08-0.64,1.49
	V174.01z"/>
<path id="XMLID_41_" class="st12" d="M33.63,172.13v1.89l-3.03,0.72c-0.54,0.16-0.98,0.57-1.18,1.1l-0.82,2.13h7.31v-4.11
	C35.16,173.6,34.28,173.13,33.63,172.13z"/>
<path id="XMLID_40_" class="st12" d="M39.35,168.37L39.35,168.37c-0.35,0.1-2-0.33-2.06-3.71c-0.38-0.11-0.83-0.18-1.37-0.18
	c-2.97,0-3.2,1.82-3.2,3.88c0,3.84,1.83,5.03,3.2,5.49c1.05-0.35,2.37-1.14,2.93-3.22c0.76-0.13,0.95-1.05,0.95-1.76
	C39.8,168.62,39.57,168.37,39.35,168.37z"/>
<path id="XMLID_39_" class="st13" d="M42.41,175.83c-0.13-0.35-0.37-0.64-0.67-0.85c-0.56,1.05-3.06,1.84-6.05,1.84
	c-2.76,0-5.09-0.67-5.88-1.59c-0.16,0.17-0.3,0.37-0.38,0.6l-0.82,2.13h7.31h7.31L42.41,175.83z"/>
<path id="XMLID_38_" class="st14" d="M35.91,164.48c-2.97,0-3.2,1.82-3.2,3.88c0,3.84,1.83,5.03,3.2,5.49V164.48z"/>
<path id="XMLID_37_" class="st11" d="M35.23,168.82c0-0.25-0.2-0.46-0.46-0.46h0l0,0.01c0,0.25-0.2,0.46-0.46,0.46
	c0.01,0.25,0.21,0.44,0.46,0.44C35.02,169.28,35.23,169.08,35.23,168.82z"/>
<path id="XMLID_36_" class="st11" d="M37.51,168.82c0-0.25-0.2-0.46-0.46-0.46h0l0,0.01c0,0.25-0.2,0.46-0.46,0.46
	c0.01,0.25,0.21,0.44,0.46,0.44C37.31,169.28,37.51,169.08,37.51,168.82z"/>
<path id="XMLID_35_" class="st15" d="M34.77,171.34h2.29c0,0,0,0.69-1.14,0.69C34.77,172.02,34.77,171.34,34.77,171.34z"/>
<path id="XMLID_34_" class="st11" d="M31.8,166.99v10.51c0,0,2.51-1.37,2.51-5.55v-3.59c0-3.65,3.2-1.83,2.97-3.89
	C37.28,162.65,31.8,163.57,31.8,166.99z"/>
<path id="XMLID_33_" class="st11" d="M37.28,164.5c0.01,3.53,1.71,3.97,2.06,3.87c0-0.74,0.49-3.88-2.05-3.89L37.28,164.5z"/>
<path id="XMLID_32_" class="st4" d="M39.19,170.88l0.35,0.84c0.06,0.14,0.03,0.3-0.08,0.41c-0.15,0.15-0.39,0.15-0.53,0
	c-0.11-0.11-0.14-0.27-0.08-0.41L39.19,170.88z"/>
<circle id="XMLID_30_" class="st16" cx="35.91" cy="204.17" r="12.57"/>
<path id="XMLID_29_" class="st11" d="M42.33,208.96c-0.15-0.31-0.39-0.54-0.7-0.7l-3.4-0.93v-1.35l-1.16,0.93
	c-0.12,0.15-0.31,0.23-0.5,0.23h-0.66h-0.62c-0.19,0-0.39-0.08-0.5-0.23l-1.16-0.93v1.35l-3.4,0.93c-0.31,0.12-0.54,0.39-0.7,0.7
	l-0.93,2.51h7.31h7.31L42.33,208.96z"/>
<path id="XMLID_28_" class="st12" d="M39.82,202.39c0-0.27-0.23-0.5-0.46-0.5c-0.23,0-0.23,0.27-0.23,0.27v-0.27
	c0-2.05-0.23-3.44-3.21-3.44s-3.21,1.35-3.21,3.44v1.82l0.93,2.28l1.16,0.93c0.12,0.15,0.31,0.23,0.5,0.23h0.62h0.62
	c0.19,0,0.39-0.08,0.5-0.23l1.16-0.93l0.73-1.82C39.59,204.13,39.82,203.12,39.82,202.39z"/>
<path id="XMLID_27_" class="st14" d="M32.7,201.89v0.27c0,0,0-0.27-0.23-0.27s-0.43,0.23-0.43,0.5c0,0.73,0.23,1.74,0.85,1.78
	l0.73,1.82l1.16,0.93c0.12,0.15,0.31,0.23,0.5,0.23h0.62v-8.7C32.94,198.44,32.74,199.84,32.7,201.89z"/>
<path id="XMLID_26_" class="st17" d="M39.16,199.91c0.62-0.89,0.62-1.93,0.62-1.93h-3.87h-1.55c-0.58,0-1.16,0.23-1.55,0.7
	c-0.39,0.43-0.58,1.04-0.5,1.62l0.66,3.98l0.7,1.7l1.16,0.93c0.12,0.15,0.31,0.23,0.5,0.23h0.58h0.62c0.19,0,0.39-0.08,0.5-0.23
	l1.16-0.93l0.7-1.7l0.54-3.79c0.04-0.15,0-0.35-0.12-0.46C39.28,199.99,39.24,199.95,39.16,199.91z M38.89,201.89l-0.46,2.28l0,0
	l-0.7,1.35H37.5l-0.31-0.89c-0.08-0.27-0.35-0.46-0.66-0.46h-0.62h-0.66c-0.31,0-0.54,0.19-0.66,0.46l-0.31,0.89h-0.23l-0.66-1.35
	l0,0l-0.46-2.28v-2.05c0,0,0,1.24,2.98,1.35c0.15,0,0.31,0,0.46,0c1.24,0,2.01-0.43,2.51-0.93V201.89z"/>
<path id="XMLID_25_" class="st18" d="M32.94,204.28l0.7,1.7l1.16,0.93c0.12,0.15,0.31,0.23,0.5,0.23h0.62v-2.98h-0.66
	c-0.31,0-0.54,0.19-0.66,0.46l-0.31,0.89h-0.23l-0.66-1.35l0,0l-0.46-2.28v-2.05c0,0,0,1.24,2.98,1.35v-3.21h-1.55
	c-0.58,0-1.16,0.23-1.55,0.7c-0.39,0.43-0.58,1.04-0.5,1.62"/>
<path id="XMLID_24_" class="st14" d="M35.02,204.86h1.82c0,0,0,0.7-0.93,0.7S35.02,204.86,35.02,204.86z"/>
<path id="XMLID_23_" class="st11" d="M37.42,201.35c-0.54,0-1.12,0.39-1.12,0.39h-0.39h-0.39c0,0-0.54-0.39-1.12-0.39
	c-0.93,0-1.47,0.39-1.47,0.39v0.19h0.19c0,1.12,0.39,1.66,1.35,1.66s1.16-0.93,1.16-1.2c0-0.27,0.27-0.31,0.27-0.31
	s0.27,0.04,0.27,0.31c0,0.27,0.19,1.2,1.16,1.2c0.97,0,1.35-0.54,1.35-1.66h0.19v-0.19C38.89,201.69,38.35,201.35,37.42,201.35z"/>
<path id="XMLID_22_" class="st19" d="M34.44,201.69c-0.5,0-0.93,0.23-0.93,0.73c0,0.19,0.08,0.39,0.19,0.54l1.2-1.2
	C34.75,201.73,34.6,201.69,34.44,201.69z"/>
<path id="XMLID_3_" class="st19" d="M37.42,201.69c-0.5,0-0.93,0.23-0.93,0.73c0,0.19,0.08,0.39,0.19,0.54l1.2-1.2
	C37.77,201.73,37.58,201.69,37.42,201.69z"/>
<rect x="59.93" y="170.72" class="st20" width="53.27" height="13.13"/>
<g>
	<rect x="62.15" y="173.72" class="st21" width="47.51" height="7.64"/>
	<path class="st4" d="M71.77,179.14v1.02h-0.64v-1.02h-2.57v-0.59l2.33-4.83h0.7l-2.33,4.83h1.87v-1.83h0.64v1.83h0.79v0.59H71.77z"
		/>
	<path class="st4" d="M75.28,180.22c-1,0-1.76-0.71-1.76-1.77v-3c0-1.07,0.76-1.77,1.76-1.77s1.76,0.71,1.76,1.77v3
		C77.04,179.51,76.28,180.22,75.28,180.22z M76.39,175.48c0-0.71-0.4-1.23-1.11-1.23s-1.11,0.53-1.11,1.23v2.93
		c0,0.71,0.4,1.23,1.11,1.23s1.11-0.53,1.11-1.23V175.48z"/>
	<path class="st4" d="M78.44,181.47v-2.1h0.8v1.38L78.44,181.47z"/>
	<path class="st4" d="M82.39,180.22c-1,0-1.76-0.71-1.76-1.77v-3c0-1.07,0.76-1.77,1.76-1.77s1.76,0.71,1.76,1.77v3
		C84.15,179.51,83.4,180.22,82.39,180.22z M83.5,175.48c0-0.71-0.4-1.23-1.11-1.23s-1.11,0.53-1.11,1.23v2.93
		c0,0.71,0.4,1.23,1.11,1.23s1.11-0.53,1.11-1.23V175.48z"/>
	<path class="st4" d="M87.11,180.22c-1,0-1.76-0.71-1.76-1.77v-3c0-1.07,0.76-1.77,1.76-1.77s1.76,0.71,1.76,1.77v3
		C88.88,179.51,88.12,180.22,87.11,180.22z M88.23,175.48c0-0.71-0.4-1.23-1.11-1.23S86,174.77,86,175.48v2.93
		c0,0.71,0.4,1.23,1.11,1.23s1.11-0.53,1.11-1.23V175.48z"/>
	<path class="st4" d="M91.84,180.22c-1,0-1.76-0.71-1.76-1.77v-3c0-1.07,0.76-1.77,1.76-1.77s1.76,0.71,1.76,1.77v3
		C93.6,179.51,92.84,180.22,91.84,180.22z M92.95,175.48c0-0.71-0.4-1.23-1.11-1.23s-1.11,0.53-1.11,1.23v2.93
		c0,0.71,0.4,1.23,1.11,1.23s1.11-0.53,1.11-1.23V175.48z"/>
	<path class="st4" d="M98.51,180.16c-0.76,0-1.14-0.53-1.14-1.19v-2.73h-0.56v-0.5h0.56v-1.39h0.65v1.39h0.95v0.5h-0.95v2.71
		c0,0.41,0.19,0.65,0.61,0.65h0.34v0.56H98.51z"/>
	<path class="st4" d="M99.91,180.16v-0.56l2.48-3.31h-2.34v-0.58h3.09v0.55l-2.49,3.32h2.49v0.58H99.91z"/>
</g>
<g>
	<path class="st1" d="M176.74,47.49v-1.32h1.32v1.32H176.74z"/>
	<path class="st1" d="M180.52,47.49v-1.32h1.32v1.32H180.52z"/>
	<path class="st1" d="M184.3,47.49v-1.32h1.32v1.32H184.3z"/>
</g>
<g>
	<path class="st1" d="M135.24,47.49v-1.32h1.32v1.32H135.24z"/>
	<path class="st1" d="M139.02,47.49v-1.32h1.32v1.32H139.02z"/>
	<path class="st1" d="M142.8,47.49v-1.32h1.32v1.32H142.8z"/>
</g>
<g>
	<path class="st22" d="M512.56,48.49v-1.32h1.32v1.32H512.56z"/>
	<path class="st22" d="M516.34,48.49v-1.32h1.32v1.32H516.34z"/>
	<path class="st22" d="M520.12,48.49v-1.32h1.32v1.32H520.12z"/>
</g>
<g>
	<path class="st1" d="M347.06,48.49v-1.32h1.32v1.32H347.06z"/>
	<path class="st1" d="M350.84,48.49v-1.32h1.32v1.32H350.84z"/>
	<path class="st1" d="M354.62,48.49v-1.32h1.32v1.32H354.62z"/>
</g>
<g>
	<rect x="300.39" y="38.56" class="st1" width="17.85" height="17.85"/>
</g>
<rect x="166.09" y="149.13" class="st2" width="177.91" height="74.26"/>
<rect x="166.09" y="131.72" class="st7" width="177.91" height="17.77"/>
<g>
	<path class="st4" d="M178.96,141.65h-2.27v3.51h-0.91v-8.54h3.18c1.56,0,2.64,0.97,2.64,2.51S180.52,141.65,178.96,141.65z
		 M178.87,137.44h-2.18v3.39h2.18c1.07,0,1.81-0.58,1.81-1.7C180.68,138.01,179.94,137.44,178.87,137.44z"/>
	<path class="st4" d="M188.25,145.17l-1.94-3.79h-2.05v3.79h-0.91v-8.54h3.27c1.49,0,2.53,0.9,2.53,2.37c0,1.25-0.76,2.06-1.86,2.29
		l2.03,3.87H188.25z M186.53,137.44h-2.28v3.13h2.28c1,0,1.7-0.52,1.7-1.56C188.23,137.97,187.53,137.44,186.53,137.44z"/>
	<path class="st4" d="M196.06,144.35c-0.58,0.58-1.33,0.89-2.18,0.89s-1.61-0.31-2.18-0.89c-0.8-0.8-0.8-1.64-0.8-3.45
		c0-1.81,0-2.65,0.8-3.45c0.58-0.58,1.33-0.89,2.18-0.89s1.61,0.31,2.18,0.89c0.8,0.8,0.8,1.64,0.8,3.45
		C196.86,142.71,196.86,143.55,196.06,144.35z M195.35,137.98c-0.37-0.38-0.91-0.61-1.47-0.61c-0.56,0-1.1,0.23-1.48,0.61
		c-0.54,0.55-0.6,1.13-0.6,2.91s0.06,2.36,0.6,2.91c0.37,0.38,0.91,0.61,1.48,0.61c0.56,0,1.1-0.23,1.47-0.61
		c0.54-0.55,0.6-1.13,0.6-2.91S195.89,138.54,195.35,137.98z"/>
	<path class="st4" d="M202.33,145.17h-3.32v-8.54h3.21c1.49,0,2.52,0.85,2.52,2.28c0,0.9-0.54,1.61-1.26,1.87
		c0.82,0.3,1.39,1.01,1.39,2.03C204.88,144.35,203.84,145.17,202.33,145.17z M202.15,137.44h-2.23v2.96h2.23
		c0.95,0,1.68-0.47,1.68-1.49C203.83,137.9,203.1,137.44,202.15,137.44z M202.25,141.22h-2.33v3.13h2.33c1.06,0,1.71-0.61,1.71-1.57
		C203.96,141.82,203.3,141.22,202.25,141.22z"/>
	<path class="st4" d="M212,145.17l-0.68-1.93h-3.73l-0.68,1.93h-0.97l3.14-8.54h0.77l3.13,8.54H212z M209.47,137.94l-1.61,4.51h3.19
		L209.47,137.94z"/>
	<path class="st4" d="M217.68,145.17h-3.32v-8.54h3.21c1.49,0,2.52,0.85,2.52,2.28c0,0.9-0.54,1.61-1.26,1.87
		c0.82,0.3,1.39,1.01,1.39,2.03C220.22,144.35,219.19,145.17,217.68,145.17z M217.5,137.44h-2.23v2.96h2.23
		c0.95,0,1.68-0.47,1.68-1.49C219.18,137.9,218.45,137.44,217.5,137.44z M217.6,141.22h-2.33v3.13h2.33c1.05,0,1.71-0.61,1.71-1.57
		C219.31,141.82,218.65,141.22,217.6,141.22z"/>
	<path class="st4" d="M222.38,145.17v-8.54h0.91v8.54H222.38z"/>
	<path class="st4" d="M225.76,145.17v-8.54h0.91v7.72h4.37v0.82H225.76z"/>
	<path class="st4" d="M232.63,145.17v-8.54h0.91v8.54H232.63z"/>
	<path class="st4" d="M238.21,145.24c-1.28,0-2.12-0.32-2.93-1.13l0.62-0.62c0.71,0.71,1.37,0.94,2.33,0.94
		c1.25,0,2.01-0.59,2.01-1.58c0-0.44-0.13-0.83-0.41-1.07c-0.28-0.24-0.49-0.31-1.12-0.41l-1-0.16c-0.67-0.11-1.2-0.32-1.57-0.65
		c-0.43-0.38-0.65-0.91-0.65-1.59c0-1.45,1.04-2.41,2.74-2.41c1.09,0,1.81,0.28,2.54,0.94l-0.59,0.59
		c-0.53-0.48-1.09-0.73-1.99-0.73c-1.14,0-1.8,0.64-1.8,1.58c0,0.42,0.12,0.75,0.38,0.98c0.26,0.23,0.71,0.4,1.15,0.47l0.94,0.14
		c0.8,0.12,1.2,0.29,1.56,0.6c0.47,0.4,0.72,0.98,0.72,1.69C241.16,144.32,239.99,145.24,238.21,145.24z"/>
	<path class="st4" d="M245.58,137.44v7.72h-0.91v-7.72h-2.47v-0.82h5.85v0.82H245.58z"/>
	<path class="st4" d="M251.96,141.64v3.53h-0.91v-3.53l-2.54-5.01h0.98l2.01,4.09l1.99-4.09h0.98L251.96,141.64z"/>
	<path class="st4" d="M263.89,144.38c-0.52,0.52-1.27,0.79-2.16,0.79h-2.93v-8.54h2.93c0.89,0,1.64,0.28,2.16,0.79
		c0.89,0.89,0.84,2.2,0.84,3.38C264.73,141.99,264.78,143.49,263.89,144.38z M263.26,138.07c-0.44-0.46-1.02-0.62-1.68-0.62h-1.86
		v6.91h1.86c0.66,0,1.24-0.17,1.68-0.62c0.59-0.61,0.56-1.88,0.56-2.93C263.82,139.76,263.84,138.68,263.26,138.07z"/>
	<path class="st4" d="M266.88,145.17v-8.54h0.91v8.54H266.88z"/>
	<path class="st4" d="M272.46,145.24c-1.28,0-2.12-0.32-2.93-1.13l0.62-0.62c0.71,0.71,1.37,0.94,2.33,0.94
		c1.25,0,2.01-0.59,2.01-1.58c0-0.44-0.13-0.83-0.41-1.07c-0.28-0.24-0.49-0.31-1.12-0.41l-1-0.16c-0.67-0.11-1.2-0.32-1.57-0.65
		c-0.43-0.38-0.65-0.91-0.65-1.59c0-1.45,1.04-2.41,2.73-2.41c1.09,0,1.81,0.28,2.54,0.94l-0.59,0.59
		c-0.53-0.48-1.09-0.73-1.99-0.73c-1.14,0-1.8,0.64-1.8,1.58c0,0.42,0.12,0.75,0.38,0.98c0.26,0.23,0.71,0.4,1.15,0.47l0.94,0.14
		c0.8,0.12,1.2,0.29,1.56,0.6c0.47,0.4,0.72,0.98,0.72,1.69C275.41,144.32,274.24,145.24,272.46,145.24z"/>
	<path class="st4" d="M279.83,137.44v7.72h-0.91v-7.72h-2.47v-0.82h5.85v0.82H279.83z"/>
	<path class="st4" d="M288.8,145.17l-1.94-3.79h-2.05v3.79h-0.91v-8.54h3.27c1.49,0,2.53,0.9,2.53,2.37c0,1.25-0.76,2.06-1.86,2.29
		l2.03,3.87H288.8z M287.09,137.44h-2.28v3.13h2.28c1,0,1.7-0.52,1.7-1.56C288.79,137.97,288.08,137.44,287.09,137.44z"/>
	<path class="st4" d="M291.77,145.17v-8.54h0.91v8.54H291.77z"/>
	<path class="st4" d="M298.48,145.17h-3.32v-8.54h3.21c1.49,0,2.52,0.85,2.52,2.28c0,0.9-0.54,1.61-1.26,1.87
		c0.82,0.3,1.39,1.01,1.39,2.03C301.02,144.35,299.99,145.17,298.48,145.17z M298.3,137.44h-2.23v2.96h2.23
		c0.95,0,1.68-0.47,1.68-1.49C299.98,137.9,299.24,137.44,298.3,137.44z M298.39,141.22h-2.33v3.13h2.33c1.06,0,1.71-0.61,1.71-1.57
		C300.11,141.82,299.45,141.22,298.39,141.22z"/>
	<path class="st4" d="M306.02,145.24c-1.73,0-2.97-1.19-2.97-2.89v-5.72h0.91v5.65c0,1.3,0.82,2.15,2.06,2.15s2.08-0.85,2.08-2.15
		v-5.65h0.91v5.72C309.01,144.05,307.75,145.24,306.02,145.24z"/>
	<path class="st4" d="M313.87,137.44v7.72h-0.91v-7.72h-2.47v-0.82h5.85v0.82H313.87z"/>
	<path class="st4" d="M317.94,145.17v-8.54h0.91v8.54H317.94z"/>
	<path class="st4" d="M326.17,144.35c-0.58,0.58-1.33,0.89-2.18,0.89s-1.61-0.31-2.18-0.89c-0.8-0.8-0.8-1.64-0.8-3.45
		c0-1.81,0-2.65,0.8-3.45c0.58-0.58,1.33-0.89,2.18-0.89s1.61,0.31,2.18,0.89c0.8,0.8,0.8,1.64,0.8,3.45
		C326.97,142.71,326.97,143.55,326.17,144.35z M325.46,137.98c-0.37-0.38-0.91-0.61-1.48-0.61c-0.56,0-1.1,0.23-1.47,0.61
		c-0.54,0.55-0.6,1.13-0.6,2.91s0.06,2.36,0.6,2.91c0.37,0.38,0.91,0.61,1.47,0.61c0.56,0,1.1-0.23,1.48-0.61
		c0.54-0.55,0.6-1.13,0.6-2.91S326,138.54,325.46,137.98z"/>
	<path class="st4" d="M334.57,145.17l-4.53-6.85v6.85h-0.91v-8.54h0.86l4.53,6.82v-6.82h0.91v8.54H334.57z"/>
</g>
<g>
	<g>
		<line class="st2" x1="133.69" y1="166" x2="134.69" y2="166"/>
		<line class="st23" x1="136.6" y1="166" x2="158.57" y2="166"/>
		<line class="st2" x1="159.53" y1="166" x2="160.53" y2="166"/>
		<g>
			<path class="st1" d="M166.57,166c-2.84,1.05-6.36,2.85-8.55,4.76l1.72-4.76l-1.72-4.75C160.2,163.15,163.73,164.95,166.57,166z"
				/>
		</g>
	</g>
</g>
<rect x="186.46" y="198.78" class="st24" width="6.55" height="10.86"/>
<rect x="199.67" y="170.28" class="st24" width="6.55" height="39.36"/>
<rect x="212.82" y="182.95" class="st24" width="6.55" height="26.69"/>
<rect x="226.03" y="175.45" class="st24" width="6.55" height="34.19"/>
<rect x="239.49" y="201.45" class="st24" width="6.55" height="8.19"/>
<rect x="252.69" y="170.28" class="st24" width="6.55" height="39.36"/>
<rect x="265.85" y="192.54" class="st24" width="6.55" height="17.1"/>
<rect x="279.05" y="175.45" class="st24" width="6.55" height="34.19"/>
<rect x="292.26" y="187.45" class="st24" width="6.55" height="22.19"/>
<g>
	<g>
		<line class="st25" x1="178.86" y1="210.11" x2="322.88" y2="210.11"/>
		<g>
			<path class="st26" d="M327.11,210.11c-1.99,0.74-4.45,2-5.98,3.33l1.2-3.33l-1.2-3.33C322.65,208.12,325.12,209.38,327.11,210.11
				z"/>
		</g>
	</g>
</g>
<g>
	<g>
		<line class="st25" x1="178.86" y1="210.11" x2="178.86" y2="163.34"/>
		<g>
			<path class="st26" d="M178.86,159.11c0.74,1.99,2,4.45,3.33,5.98l-3.33-1.2l-3.33,1.2C176.86,163.57,178.12,161.1,178.86,159.11z
				"/>
		</g>
	</g>
</g>
<rect x="115.44" y="342.9" class="st27" width="50.69" height="71.6"/>
<rect x="115.44" y="323.45" class="st28" width="102.73" height="19.86"/>
<g>
	<path class="st4" d="M127.32,336.97c-1.28,0-2.12-0.32-2.93-1.13l0.62-0.62c0.71,0.71,1.37,0.94,2.33,0.94
		c1.25,0,2.01-0.59,2.01-1.58c0-0.44-0.13-0.83-0.41-1.07c-0.28-0.24-0.49-0.31-1.12-0.41l-1-0.16c-0.67-0.11-1.2-0.32-1.57-0.65
		c-0.43-0.38-0.65-0.91-0.65-1.59c0-1.45,1.04-2.41,2.73-2.41c1.09,0,1.81,0.28,2.54,0.94l-0.59,0.59
		c-0.53-0.48-1.09-0.73-1.99-0.73c-1.14,0-1.8,0.64-1.8,1.58c0,0.42,0.12,0.75,0.38,0.98c0.26,0.23,0.71,0.4,1.15,0.47l0.94,0.14
		c0.8,0.12,1.2,0.29,1.56,0.6c0.47,0.4,0.72,0.98,0.72,1.69C130.27,336.05,129.1,336.97,127.32,336.97z"/>
	<path class="st4" d="M132.19,336.9v-8.54h0.91v7.72h4.37v0.82H132.19z"/>
	<path class="st4" d="M143.47,336.08c-0.58,0.58-1.33,0.89-2.18,0.89s-1.61-0.31-2.18-0.89c-0.8-0.8-0.8-1.64-0.8-3.45
		c0-1.81,0-2.65,0.8-3.45c0.58-0.58,1.33-0.89,2.18-0.89s1.61,0.31,2.18,0.89c0.8,0.8,0.8,1.64,0.8,3.45
		C144.28,334.44,144.28,335.28,143.47,336.08z M142.77,329.71c-0.37-0.38-0.91-0.61-1.48-0.61c-0.56,0-1.1,0.23-1.48,0.61
		c-0.54,0.55-0.6,1.13-0.6,2.91s0.06,2.36,0.6,2.91c0.37,0.38,0.91,0.61,1.48,0.61c0.56,0,1.1-0.23,1.48-0.61
		c0.54-0.55,0.6-1.13,0.6-2.91S143.31,330.26,142.77,329.71z"/>
	<path class="st4" d="M148.7,329.17v7.72h-0.91v-7.72h-2.47v-0.82h5.85v0.82H148.7z"/>
</g>
<rect x="166.23" y="323.45" class="st28" width="109.77" height="19.86"/>
<g>
	<path class="st4" d="M191.69,336.11c-0.52,0.52-1.27,0.79-2.16,0.79h-2.93v-8.54h2.93c0.89,0,1.64,0.28,2.16,0.79
		c0.89,0.89,0.84,2.2,0.84,3.38C192.53,333.72,192.58,335.22,191.69,336.11z M191.05,329.8c-0.44-0.46-1.02-0.62-1.68-0.62h-1.86
		v6.91h1.86c0.66,0,1.24-0.17,1.68-0.62c0.59-0.61,0.56-1.88,0.56-2.93C191.62,331.49,191.64,330.41,191.05,329.8z"/>
	<path class="st4" d="M194.68,336.9v-8.54h5.3v0.82h-4.39v3.01h3.74V333h-3.74v3.08h4.39v0.82H194.68z"/>
	<path class="st4" d="M201.88,336.9v-8.54h0.91v7.72h4.37v0.82H201.88z"/>
	<path class="st4" d="M208.76,336.9v-8.54h5.3v0.82h-4.39v3.01h3.74V333h-3.74v3.08h4.39v0.82H208.76z"/>
	<path class="st4" d="M220.9,335.99c-0.6,0.65-1.4,0.98-2.28,0.98c-0.84,0-1.61-0.31-2.18-0.89c-0.8-0.8-0.8-1.64-0.8-3.45
		c0-1.81,0-2.65,0.8-3.45c0.58-0.58,1.33-0.89,2.18-0.89c1.63,0,2.73,1.06,2.99,2.55h-0.91c-0.24-1.08-1.01-1.74-2.07-1.74
		c-0.56,0-1.1,0.23-1.48,0.61c-0.54,0.55-0.6,1.13-0.6,2.91s0.06,2.38,0.6,2.93c0.37,0.38,0.91,0.6,1.48,0.6
		c0.62,0,1.22-0.25,1.62-0.73c0.35-0.42,0.48-0.89,0.48-1.55v-0.65h-2.1v-0.8h3.01v1.36C221.63,334.76,221.42,335.42,220.9,335.99z"
		/>
	<path class="st4" d="M228.61,336.9l-0.68-1.93h-3.73l-0.68,1.93h-0.97l3.14-8.54h0.77l3.13,8.54H228.61z M226.08,329.67l-1.61,4.51
		h3.19L226.08,329.67z"/>
	<path class="st4" d="M232.75,329.17v7.72h-0.91v-7.72h-2.47v-0.82h5.85v0.82H232.75z"/>
	<path class="st4" d="M236.82,336.9v-8.54h5.3v0.82h-4.39v3.01h3.74V333h-3.74v3.08h4.39v0.82H236.82z"/>
</g>
<rect x="166.23" y="343.24" class="st27" width="109.77" height="71.26"/>
<g>
	<path class="st6" d="M135.32,358.91l-0.47,2.4h-0.84l0.47-2.4h-1.4v-0.8h1.55l0.4-2.07h-1.51v-0.81h1.67l0.48-2.44h0.84l-0.48,2.44
		h1.55l0.48-2.44h0.84l-0.48,2.44h1.2v0.81h-1.36l-0.4,2.07h1.32v0.8h-1.48l-0.47,2.4h-0.84l0.47-2.4H135.32z M137.02,358.11
		l0.4-2.07h-1.55l-0.4,2.07H137.02z"/>
	<path class="st6" d="M146.11,359.49c-0.13,0.42-0.3,0.77-0.54,1.06c-0.23,0.29-0.52,0.51-0.86,0.66s-0.73,0.22-1.17,0.22
		c-0.43,0-0.82-0.07-1.17-0.22s-0.63-0.37-0.87-0.66c-0.24-0.29-0.42-0.64-0.54-1.06s-0.19-0.9-0.19-1.44v-2
		c0-0.54,0.06-1.02,0.19-1.44s0.31-0.77,0.54-1.06c0.23-0.29,0.52-0.51,0.86-0.66s0.73-0.23,1.16-0.23c0.44,0,0.83,0.08,1.17,0.23
		s0.63,0.37,0.87,0.66c0.23,0.29,0.41,0.64,0.54,1.06s0.19,0.9,0.19,1.44v2C146.3,358.59,146.23,359.07,146.11,359.49z
		 M145.18,355.28c-0.03-0.28-0.09-0.53-0.17-0.75s-0.19-0.4-0.33-0.54c-0.13-0.15-0.3-0.26-0.49-0.33s-0.42-0.11-0.67-0.11
		c-0.26,0-0.49,0.04-0.68,0.12s-0.36,0.2-0.5,0.35c-0.16,0.19-0.29,0.44-0.37,0.74s-0.12,0.65-0.12,1.05v1.43c0,0.1,0,0.2,0,0.29
		s0,0.2,0,0.3L145.18,355.28z M145.21,357.07c0-0.06,0-0.17,0-0.34s0-0.3,0-0.41l-3.32,2.54c0.04,0.29,0.1,0.54,0.19,0.75
		s0.21,0.4,0.35,0.54c0.13,0.13,0.29,0.23,0.48,0.3s0.4,0.1,0.63,0.1c0.25,0,0.46-0.04,0.66-0.11s0.35-0.18,0.49-0.32
		c0.18-0.19,0.31-0.44,0.4-0.75s0.13-0.67,0.13-1.09V357.07z"/>
	<path class="st6" d="M135.32,373.31l-0.47,2.4h-0.84l0.47-2.4h-1.4v-0.8h1.55l0.4-2.07h-1.51v-0.81h1.67l0.48-2.44h0.84l-0.48,2.44
		h1.55l0.48-2.44h0.84l-0.48,2.44h1.2v0.81h-1.36l-0.4,2.07h1.32v0.8h-1.48l-0.47,2.4h-0.84l0.47-2.4H135.32z M137.02,372.51
		l0.4-2.07h-1.55l-0.4,2.07H137.02z"/>
	<path class="st6" d="M143.37,375.71v-7.15l-2.23,0.85v-0.99l3.23-1.24h0.09v8.53H143.37z"/>
	<path class="st6" d="M135.32,387.71l-0.47,2.4h-0.84l0.47-2.4h-1.4v-0.8h1.55l0.4-2.07h-1.51v-0.81h1.67l0.48-2.44h0.84l-0.48,2.44
		h1.55l0.48-2.44h0.84l-0.48,2.44h1.2v0.81h-1.36l-0.4,2.07h1.32v0.8h-1.48l-0.47,2.4h-0.84l0.47-2.4H135.32z M137.02,386.91
		l0.4-2.07h-1.55l-0.4,2.07H137.02z"/>
	<path class="st6" d="M140.58,390.11v-0.78l2.79-3.11c0.25-0.28,0.46-0.52,0.63-0.74s0.3-0.41,0.4-0.6c0.1-0.18,0.17-0.35,0.22-0.51
		s0.06-0.33,0.06-0.5c0-0.21-0.03-0.41-0.1-0.59s-0.17-0.35-0.3-0.48c-0.13-0.14-0.29-0.25-0.48-0.33s-0.4-0.12-0.63-0.12
		c-0.29,0-0.53,0.04-0.74,0.12s-0.38,0.2-0.52,0.35c-0.14,0.15-0.25,0.34-0.31,0.55s-0.1,0.46-0.1,0.72h-1.09
		c0-0.36,0.06-0.7,0.19-1.02s0.31-0.6,0.54-0.83c0.23-0.24,0.52-0.43,0.86-0.57s0.73-0.21,1.17-0.21c0.4,0,0.76,0.06,1.09,0.18
		s0.59,0.28,0.82,0.5s0.39,0.46,0.51,0.75s0.18,0.6,0.18,0.94c0,0.25-0.04,0.5-0.13,0.75s-0.2,0.49-0.35,0.74
		c-0.15,0.24-0.32,0.48-0.51,0.72s-0.4,0.47-0.61,0.71l-2.29,2.48h4.28v0.88H140.58z"/>
	<path class="st6" d="M132.24,403.22c0.14-0.16,0.35-0.25,0.64-0.25c0.28,0,0.5,0.08,0.64,0.24s0.22,0.36,0.22,0.59
		c0,0.23-0.07,0.42-0.22,0.58s-0.36,0.23-0.64,0.23c-0.28,0-0.49-0.08-0.64-0.24s-0.21-0.35-0.21-0.58
		C132.03,403.58,132.1,403.38,132.24,403.22z"/>
	<path class="st6" d="M139.44,403.22c0.14-0.16,0.35-0.25,0.64-0.25c0.28,0,0.5,0.08,0.64,0.24s0.22,0.36,0.22,0.59
		c0,0.23-0.07,0.42-0.22,0.58s-0.36,0.23-0.64,0.23c-0.28,0-0.49-0.08-0.64-0.24s-0.21-0.35-0.21-0.58
		C139.23,403.58,139.3,403.38,139.44,403.22z"/>
	<path class="st6" d="M146.64,403.22c0.14-0.16,0.35-0.25,0.64-0.25c0.28,0,0.5,0.08,0.64,0.24s0.22,0.36,0.22,0.59
		c0,0.23-0.07,0.42-0.22,0.58s-0.36,0.23-0.64,0.23c-0.28,0-0.49-0.08-0.64-0.24s-0.21-0.35-0.21-0.58
		C146.43,403.58,146.5,403.38,146.64,403.22z"/>
</g>
<g>
	<path class="st6" d="M188.42,354.97h2.41v0.84h-2.41v3.45c0,0.25,0.03,0.45,0.09,0.61s0.15,0.29,0.26,0.38
		c0.11,0.1,0.24,0.17,0.38,0.21s0.29,0.06,0.45,0.06c0.12,0,0.24-0.01,0.36-0.02s0.25-0.03,0.37-0.05c0.12-0.02,0.23-0.04,0.33-0.06
		s0.19-0.04,0.25-0.06l0.15,0.77c-0.09,0.05-0.2,0.1-0.33,0.14s-0.27,0.08-0.42,0.1c-0.15,0.03-0.31,0.05-0.48,0.07
		s-0.34,0.02-0.51,0.02c-0.28,0-0.54-0.04-0.79-0.12s-0.46-0.21-0.64-0.38c-0.18-0.17-0.32-0.4-0.42-0.67s-0.16-0.61-0.16-1v-3.45
		h-1.66v-0.84h1.66v-1.54h1.09V354.97z"/>
	<path class="st6" d="M198.39,360.43v0.88h-5.42v-0.8l3.79-4.65h-3.73v-0.9h5.16v0.77l-3.83,4.69H198.39z"/>
	<path class="st6" d="M202.69,361.31v-7.15l-2.23,0.85v-0.99l3.23-1.24h0.09v8.53H202.69z"/>
	<path class="st6" d="M211.52,361c-0.03-0.12-0.04-0.25-0.06-0.38c-0.11,0.11-0.23,0.21-0.37,0.31s-0.28,0.18-0.44,0.26
		c-0.16,0.07-0.34,0.13-0.52,0.18s-0.38,0.06-0.59,0.06c-0.34,0-0.64-0.05-0.91-0.15s-0.5-0.23-0.69-0.4
		c-0.19-0.16-0.34-0.36-0.44-0.59s-0.16-0.48-0.16-0.74c0-0.35,0.07-0.65,0.21-0.91s0.33-0.48,0.59-0.66
		c0.25-0.17,0.56-0.3,0.92-0.39s0.76-0.13,1.2-0.13h1.18v-0.5c0-0.19-0.04-0.36-0.11-0.52s-0.17-0.28-0.3-0.39
		c-0.13-0.11-0.29-0.19-0.47-0.25s-0.39-0.09-0.62-0.09c-0.21,0-0.41,0.03-0.58,0.08s-0.31,0.13-0.43,0.22s-0.21,0.2-0.27,0.32
		s-0.1,0.25-0.1,0.38h-1.09c0-0.23,0.06-0.46,0.18-0.68s0.28-0.42,0.5-0.6c0.21-0.18,0.48-0.32,0.79-0.43s0.66-0.16,1.06-0.16
		c0.36,0,0.69,0.04,1,0.13s0.58,0.22,0.8,0.4c0.22,0.18,0.4,0.4,0.53,0.67s0.19,0.58,0.19,0.93v2.95c0,0.21,0.02,0.43,0.06,0.67
		s0.09,0.44,0.16,0.62v0.09h-1.13C211.58,361.23,211.55,361.13,211.52,361z M210.3,360.4c0.18-0.05,0.35-0.13,0.5-0.22
		c0.15-0.09,0.28-0.19,0.39-0.31s0.2-0.24,0.26-0.36v-1.28h-1.01c-0.38,0-0.7,0.03-0.98,0.1s-0.5,0.16-0.67,0.3
		c-0.12,0.09-0.21,0.21-0.27,0.33s-0.09,0.28-0.09,0.44c0,0.16,0.03,0.3,0.08,0.43s0.13,0.25,0.24,0.34c0.11,0.1,0.24,0.17,0.4,0.23
		s0.35,0.08,0.56,0.08S210.12,360.46,210.3,360.4z"/>
	<path class="st6" d="M219.97,359.01c-0.04,0.26-0.1,0.5-0.18,0.72c-0.11,0.29-0.24,0.56-0.41,0.79s-0.37,0.42-0.61,0.58
		c-0.17,0.11-0.36,0.19-0.57,0.25s-0.43,0.09-0.67,0.09c-0.27,0-0.52-0.03-0.75-0.1s-0.43-0.16-0.61-0.29
		c-0.09-0.06-0.17-0.13-0.25-0.21s-0.15-0.16-0.22-0.25l-0.05,0.72h-1v-9h1.08v3.34c0.09-0.11,0.19-0.22,0.3-0.31
		s0.23-0.17,0.35-0.24c0.16-0.08,0.33-0.14,0.52-0.19s0.39-0.06,0.61-0.06c0.27,0,0.53,0.04,0.76,0.11s0.44,0.18,0.63,0.31
		c0.17,0.13,0.32,0.28,0.45,0.45s0.25,0.38,0.35,0.59c0.11,0.25,0.19,0.52,0.24,0.82s0.08,0.61,0.08,0.95v0.12
		C220.03,358.49,220.01,358.75,219.97,359.01z M218.91,357.5c-0.03-0.19-0.06-0.37-0.11-0.54c-0.07-0.21-0.16-0.4-0.28-0.57
		s-0.25-0.31-0.42-0.4c-0.11-0.07-0.24-0.13-0.38-0.16s-0.3-0.06-0.47-0.06c-0.19,0-0.36,0.02-0.52,0.07s-0.29,0.12-0.42,0.2
		c-0.13,0.09-0.24,0.19-0.33,0.31s-0.18,0.25-0.24,0.39v2.77c0.07,0.14,0.15,0.27,0.25,0.39s0.21,0.22,0.33,0.31
		s0.27,0.16,0.42,0.21s0.33,0.07,0.52,0.07c0.18,0,0.34-0.02,0.49-0.07s0.28-0.11,0.4-0.2c0.16-0.11,0.29-0.25,0.39-0.42
		s0.19-0.36,0.25-0.56c0.05-0.16,0.09-0.32,0.11-0.5s0.04-0.36,0.04-0.55v-0.12C218.95,357.89,218.94,357.69,218.91,357.5z"/>
	<path class="st6" d="M225.13,360.46c0.19-0.06,0.35-0.15,0.5-0.26c0.14-0.11,0.26-0.24,0.35-0.39s0.13-0.31,0.14-0.49h1.03
		c0,0.28-0.08,0.55-0.22,0.81s-0.33,0.48-0.57,0.67c-0.24,0.2-0.51,0.35-0.82,0.47s-0.63,0.17-0.97,0.17c-0.48,0-0.9-0.09-1.26-0.26
		s-0.66-0.4-0.9-0.7c-0.24-0.29-0.42-0.62-0.54-1s-0.18-0.78-0.18-1.2v-0.25c0-0.42,0.06-0.82,0.18-1.2s0.3-0.72,0.54-1.01
		c0.24-0.29,0.54-0.52,0.9-0.69s0.78-0.26,1.26-0.26c0.38,0,0.72,0.06,1.03,0.18s0.59,0.28,0.82,0.48c0.23,0.21,0.4,0.45,0.53,0.73
		s0.19,0.58,0.19,0.9h-1.03c0-0.19-0.05-0.37-0.13-0.54s-0.19-0.32-0.33-0.45s-0.3-0.23-0.49-0.3s-0.39-0.11-0.61-0.11
		c-0.34,0-0.62,0.07-0.85,0.2s-0.41,0.31-0.55,0.52c-0.14,0.22-0.24,0.46-0.3,0.73s-0.09,0.54-0.09,0.81v0.25
		c0,0.28,0.03,0.55,0.09,0.82s0.16,0.51,0.3,0.73c0.14,0.22,0.32,0.4,0.55,0.53s0.51,0.2,0.85,0.2
		C224.76,360.55,224.95,360.52,225.13,360.46z"/>
	<path class="st6" d="M229.04,356.78c0.12-0.4,0.29-0.74,0.51-1.02c0.22-0.29,0.48-0.51,0.8-0.67s0.66-0.24,1.05-0.24
		c0.38,0,0.71,0.06,0.99,0.19s0.53,0.31,0.74,0.55v-3.29h1.08v9h-1l-0.05-0.67c-0.21,0.26-0.46,0.45-0.76,0.59s-0.63,0.2-1.03,0.2
		c-0.38,0-0.73-0.08-1.04-0.25s-0.58-0.39-0.79-0.68s-0.39-0.63-0.51-1.02s-0.18-0.82-0.18-1.27v-0.12
		C228.86,357.62,228.92,357.18,229.04,356.78z M230.04,359.09c0.07,0.28,0.17,0.52,0.31,0.73c0.14,0.21,0.31,0.38,0.53,0.5
		s0.47,0.18,0.77,0.18c0.36,0,0.66-0.08,0.9-0.25s0.43-0.38,0.57-0.66v-2.94c-0.14-0.26-0.33-0.47-0.57-0.64s-0.54-0.25-0.89-0.25
		c-0.3,0-0.57,0.06-0.78,0.19s-0.39,0.29-0.53,0.5c-0.14,0.21-0.24,0.46-0.31,0.74s-0.1,0.57-0.1,0.88v0.12
		C229.94,358.52,229.97,358.81,230.04,359.09z"/>
	<path class="st6" d="M237.84,361.2c-0.37-0.15-0.69-0.37-0.96-0.64s-0.47-0.6-0.62-0.97s-0.22-0.78-0.22-1.22v-0.25
		c0-0.51,0.08-0.97,0.25-1.37s0.38-0.75,0.66-1.03c0.27-0.28,0.58-0.49,0.92-0.64s0.7-0.22,1.06-0.22c0.46,0,0.86,0.08,1.2,0.24
		s0.63,0.38,0.85,0.65c0.23,0.28,0.4,0.61,0.51,0.99s0.17,0.79,0.17,1.23v0.49h-4.53v0.04c0.03,0.31,0.09,0.58,0.18,0.81
		s0.23,0.44,0.4,0.62c0.17,0.19,0.38,0.34,0.62,0.45s0.51,0.16,0.8,0.16c0.39,0,0.73-0.08,1.03-0.23s0.55-0.36,0.75-0.62l0.66,0.52
		c-0.21,0.32-0.53,0.6-0.95,0.85s-0.94,0.37-1.56,0.37C238.62,361.43,238.21,361.35,237.84,361.2z M238.3,355.86
		c-0.2,0.08-0.37,0.2-0.53,0.35c-0.16,0.16-0.29,0.35-0.4,0.57s-0.18,0.48-0.23,0.78h3.41v-0.05c0-0.2-0.04-0.41-0.11-0.63
		s-0.18-0.42-0.31-0.58s-0.3-0.3-0.5-0.4s-0.44-0.15-0.72-0.15C238.7,355.74,238.5,355.78,238.3,355.86z"/>
	<path class="st6" d="M245.08,355.81h-1.75v-0.84h1.75v-0.45c0-0.41,0.06-0.76,0.18-1.07s0.29-0.56,0.51-0.77
		c0.21-0.21,0.47-0.36,0.78-0.47s0.64-0.16,1.02-0.16c0.16,0,0.31,0.01,0.46,0.03s0.3,0.04,0.45,0.07c0.1,0.02,0.2,0.04,0.29,0.06
		s0.2,0.05,0.3,0.07l-0.13,0.9c-0.16-0.05-0.35-0.1-0.56-0.14s-0.44-0.06-0.68-0.06c-0.25,0-0.46,0.03-0.65,0.09
		s-0.35,0.15-0.47,0.27c-0.13,0.13-0.23,0.29-0.3,0.49s-0.1,0.43-0.1,0.7v0.45h2.44v0.84h-2.44v5.5h-1.09V355.81z"/>
	<path class="st6" d="M188.42,369.37h2.41v0.84h-2.41v3.45c0,0.25,0.03,0.45,0.09,0.61s0.15,0.29,0.26,0.38
		c0.11,0.1,0.24,0.17,0.38,0.21s0.29,0.06,0.45,0.06c0.12,0,0.24-0.01,0.36-0.02s0.25-0.03,0.37-0.05c0.12-0.02,0.23-0.04,0.33-0.06
		s0.19-0.04,0.25-0.06l0.15,0.77c-0.09,0.05-0.2,0.1-0.33,0.14s-0.27,0.08-0.42,0.1c-0.15,0.03-0.31,0.05-0.48,0.07
		s-0.34,0.02-0.51,0.02c-0.28,0-0.54-0.04-0.79-0.12s-0.46-0.21-0.64-0.38c-0.18-0.17-0.32-0.4-0.42-0.67s-0.16-0.61-0.16-1v-3.45
		h-1.66v-0.84h1.66v-1.54h1.09V369.37z"/>
	<path class="st6" d="M198.39,374.83v0.88h-5.42v-0.8l3.79-4.65h-3.73v-0.9h5.16v0.77l-3.83,4.69H198.39z"/>
	<path class="st6" d="M202.69,375.71v-7.15l-2.23,0.85v-0.99l3.23-1.24h0.09v8.53H202.69z"/>
	<path class="st6" d="M207.43,371.18c0.12-0.4,0.28-0.74,0.5-1.02s0.48-0.51,0.8-0.67s0.67-0.24,1.06-0.24
		c0.25,0,0.49,0.03,0.7,0.09s0.41,0.14,0.58,0.26c0.09,0.06,0.18,0.13,0.27,0.21s0.16,0.16,0.24,0.26l0.05-0.69h0.98v6.21
		c0,0.42-0.07,0.79-0.2,1.11s-0.31,0.6-0.55,0.83c-0.24,0.23-0.52,0.4-0.85,0.52s-0.69,0.18-1.09,0.18c-0.16,0-0.35-0.02-0.56-0.06
		s-0.42-0.1-0.64-0.18c-0.22-0.08-0.43-0.19-0.63-0.33s-0.37-0.31-0.52-0.52l0.56-0.65c0.13,0.16,0.27,0.3,0.41,0.41
		s0.28,0.2,0.43,0.27s0.29,0.11,0.43,0.14s0.29,0.04,0.43,0.04c0.26,0,0.49-0.04,0.7-0.11s0.38-0.18,0.53-0.33
		c0.14-0.14,0.26-0.32,0.33-0.53s0.12-0.45,0.12-0.73v-0.54c-0.08,0.09-0.17,0.18-0.26,0.26s-0.19,0.15-0.3,0.21
		c-0.16,0.09-0.35,0.16-0.54,0.21s-0.41,0.07-0.64,0.07c-0.39,0-0.74-0.08-1.05-0.25s-0.58-0.39-0.79-0.68
		c-0.22-0.29-0.39-0.63-0.5-1.02s-0.18-0.82-0.18-1.27v-0.12C207.26,372.02,207.32,371.58,207.43,371.18z M208.44,373.49
		c0.06,0.28,0.17,0.52,0.31,0.73c0.14,0.21,0.31,0.38,0.53,0.5s0.47,0.18,0.77,0.18c0.19,0,0.36-0.02,0.51-0.07s0.29-0.11,0.41-0.19
		c0.12-0.08,0.22-0.18,0.32-0.29s0.18-0.24,0.25-0.38v-2.91c-0.07-0.13-0.15-0.25-0.25-0.36s-0.2-0.21-0.32-0.29
		c-0.12-0.08-0.26-0.14-0.4-0.18s-0.31-0.07-0.49-0.07c-0.3,0-0.57,0.06-0.78,0.19s-0.39,0.29-0.53,0.5
		c-0.14,0.21-0.24,0.46-0.31,0.74s-0.1,0.57-0.1,0.88v0.12C208.34,372.92,208.38,373.21,208.44,373.49z"/>
	<path class="st6" d="M216.03,369.96c0.11-0.11,0.22-0.2,0.33-0.28c0.19-0.14,0.39-0.24,0.62-0.31s0.46-0.11,0.72-0.11
		c0.33,0,0.63,0.05,0.91,0.14s0.5,0.25,0.69,0.45s0.34,0.46,0.44,0.77s0.16,0.68,0.16,1.1v3.99h-1.08v-4c0-0.25-0.03-0.47-0.09-0.66
		s-0.14-0.35-0.26-0.47c-0.12-0.14-0.27-0.24-0.46-0.31s-0.39-0.1-0.63-0.1c-0.2,0-0.38,0.03-0.56,0.08s-0.34,0.13-0.49,0.23
		c-0.12,0.08-0.23,0.17-0.33,0.27s-0.19,0.22-0.27,0.34v4.61h-1.08v-9h1.08v3.6C215.83,370.19,215.92,370.07,216.03,369.96z"/>
	<path class="st6" d="M225.27,369.37v5.4h2.07v0.94h-5.31v-0.94h2.16v-4.46h-2.16v-0.94H225.27z M224.09,367.44
		c0.03-0.08,0.08-0.15,0.14-0.21c0.05-0.05,0.12-0.09,0.2-0.12s0.17-0.04,0.27-0.04s0.19,0.01,0.27,0.04s0.14,0.07,0.19,0.12
		c0.06,0.05,0.11,0.12,0.14,0.21s0.05,0.17,0.05,0.27c0,0.18-0.05,0.32-0.16,0.44s-0.27,0.18-0.49,0.18c-0.22,0-0.38-0.06-0.49-0.18
		s-0.16-0.26-0.16-0.44C224.05,367.61,224.06,367.53,224.09,367.44z"/>
	<path class="st6" d="M232.99,369.37v6.38c0,0.41-0.06,0.77-0.17,1.08s-0.27,0.57-0.48,0.79c-0.21,0.21-0.48,0.38-0.78,0.49
		s-0.66,0.17-1.05,0.17c-0.12,0-0.24,0-0.35-0.01s-0.22-0.01-0.33-0.02c-0.09-0.01-0.18-0.02-0.27-0.03s-0.18-0.03-0.28-0.04
		l0.08-0.89c0.07,0.01,0.15,0.02,0.25,0.03s0.21,0.02,0.31,0.02c0.1,0.01,0.2,0.01,0.3,0.01s0.17,0,0.23,0
		c0.2,0,0.39-0.03,0.57-0.08s0.34-0.14,0.47-0.27s0.24-0.29,0.31-0.5s0.11-0.46,0.11-0.76v-5.44h-2.12v-0.94H232.99z M231.92,367.25
		c0.11-0.12,0.27-0.18,0.49-0.18s0.38,0.06,0.49,0.18s0.16,0.27,0.16,0.45s-0.05,0.32-0.16,0.44s-0.27,0.18-0.49,0.18
		s-0.38-0.06-0.49-0.18s-0.16-0.27-0.16-0.44S231.81,367.38,231.92,367.25z"/>
	<path class="st6" d="M237.36,373.52v2.19h-1.09v-9h1.09v5.51l0.71-0.76l2.08-2.09h1.32l-2.57,2.64l2.96,3.7h-1.38l-2.33-2.96
		L237.36,373.52z"/>
	<path class="st6" d="M246.87,366.71v8.06h2.07v0.94h-5.31v-0.94h2.16v-7.12h-2.16v-0.94H246.87z"/>
	<path class="st6" d="M188.42,383.77h2.41v0.84h-2.41v3.45c0,0.25,0.03,0.45,0.09,0.61s0.15,0.29,0.26,0.38
		c0.11,0.1,0.24,0.17,0.38,0.21s0.29,0.06,0.45,0.06c0.12,0,0.24-0.01,0.36-0.02s0.25-0.03,0.37-0.05c0.12-0.02,0.23-0.04,0.33-0.06
		s0.19-0.04,0.25-0.06l0.15,0.77c-0.09,0.05-0.2,0.1-0.33,0.14s-0.27,0.08-0.42,0.1c-0.15,0.03-0.31,0.05-0.48,0.07
		s-0.34,0.02-0.51,0.02c-0.28,0-0.54-0.04-0.79-0.12s-0.46-0.21-0.64-0.38c-0.18-0.17-0.32-0.4-0.42-0.67s-0.16-0.61-0.16-1v-3.45
		h-1.66v-0.84h1.66v-1.54h1.09V383.77z"/>
	<path class="st6" d="M198.39,389.23v0.88h-5.42v-0.8l3.79-4.65h-3.73v-0.9h5.16v0.77l-3.83,4.69H198.39z"/>
	<path class="st6" d="M202.69,390.11v-7.15l-2.23,0.85v-0.99l3.23-1.24h0.09v8.53H202.69z"/>
	<path class="st6" d="M207.99,384.37c0.13-0.22,0.3-0.4,0.51-0.52s0.46-0.19,0.76-0.19c0.17,0,0.32,0.02,0.45,0.06
		s0.25,0.09,0.35,0.16c0.07,0.05,0.14,0.12,0.2,0.2s0.11,0.17,0.16,0.26c0.05-0.09,0.12-0.17,0.19-0.25s0.15-0.15,0.24-0.21
		c0.11-0.07,0.23-0.12,0.37-0.16s0.28-0.06,0.44-0.06c0.22,0,0.42,0.03,0.59,0.1s0.32,0.16,0.45,0.28c0.13,0.14,0.23,0.32,0.3,0.55
		s0.11,0.49,0.11,0.79v4.73h-1.03v-4.75c0-0.13-0.02-0.25-0.05-0.35s-0.08-0.19-0.13-0.25c-0.06-0.06-0.14-0.11-0.23-0.14
		s-0.2-0.05-0.32-0.05c-0.13,0-0.24,0.02-0.33,0.05s-0.17,0.08-0.23,0.14c-0.06,0.06-0.11,0.13-0.15,0.21s-0.06,0.17-0.07,0.27
		c0,0.02,0,0.04,0,0.06s0,0.04,0,0.06v4.75h-1.03v-4.75c0-0.13-0.01-0.25-0.04-0.35s-0.08-0.19-0.14-0.25
		c-0.06-0.06-0.13-0.11-0.22-0.14s-0.19-0.04-0.31-0.04c-0.13,0-0.24,0.01-0.34,0.04s-0.18,0.07-0.24,0.13
		c-0.05,0.04-0.09,0.09-0.13,0.15s-0.07,0.11-0.09,0.18v5.04h-1.03v-6.34h0.97L207.99,384.37z"/>
	<path class="st6" d="M214.66,383.77h0.97l0.08,0.94c0.09-0.13,0.2-0.25,0.31-0.37s0.23-0.21,0.35-0.29
		c0.19-0.13,0.39-0.22,0.61-0.29s0.45-0.1,0.7-0.11c0.33,0,0.63,0.05,0.91,0.14s0.5,0.24,0.69,0.44s0.34,0.45,0.44,0.76
		s0.16,0.67,0.16,1.09v4.03h-1.08v-4c0-0.28-0.03-0.52-0.09-0.71s-0.15-0.35-0.28-0.47c-0.13-0.12-0.28-0.21-0.45-0.26
		s-0.38-0.08-0.61-0.08c-0.2,0-0.38,0.03-0.56,0.08s-0.33,0.13-0.47,0.23c-0.12,0.09-0.23,0.19-0.33,0.3s-0.19,0.24-0.26,0.38v4.55
		h-1.08V383.77z"/>
	<path class="st6" d="M221.75,385.61c0.13-0.39,0.32-0.73,0.57-1.02c0.25-0.29,0.55-0.52,0.9-0.68s0.76-0.25,1.2-0.25
		c0.45,0,0.85,0.08,1.21,0.25s0.66,0.39,0.91,0.68c0.25,0.29,0.44,0.63,0.57,1.02s0.2,0.82,0.2,1.27v0.13c0,0.46-0.07,0.88-0.2,1.27
		s-0.32,0.73-0.57,1.02c-0.25,0.29-0.55,0.52-0.91,0.68s-0.76,0.25-1.2,0.25c-0.45,0-0.85-0.08-1.21-0.25s-0.66-0.39-0.91-0.68
		c-0.25-0.29-0.44-0.63-0.57-1.02s-0.2-0.81-0.2-1.27v-0.13C221.56,386.42,221.62,386,221.75,385.61z M222.75,387.9
		c0.07,0.28,0.19,0.53,0.34,0.75c0.15,0.21,0.34,0.38,0.56,0.51s0.49,0.19,0.79,0.19c0.3,0,0.56-0.06,0.78-0.19s0.41-0.29,0.57-0.51
		c0.15-0.21,0.26-0.46,0.33-0.75s0.11-0.58,0.11-0.89v-0.13c0-0.31-0.04-0.6-0.11-0.89s-0.19-0.53-0.34-0.75
		c-0.15-0.21-0.34-0.39-0.57-0.51s-0.49-0.19-0.79-0.19s-0.56,0.06-0.79,0.19s-0.41,0.3-0.56,0.51c-0.15,0.21-0.27,0.46-0.34,0.75
		s-0.11,0.58-0.11,0.89v0.13C222.64,387.32,222.68,387.62,222.75,387.9z"/>
	<path class="st6" d="M229.06,383.77h0.99l0.05,0.69c0.09-0.11,0.18-0.21,0.28-0.3s0.21-0.16,0.33-0.23
		c0.16-0.09,0.35-0.17,0.55-0.21s0.42-0.07,0.65-0.07c0.41,0,0.77,0.08,1.08,0.24s0.57,0.38,0.79,0.67s0.37,0.63,0.48,1.02
		s0.16,0.83,0.16,1.3v0.12c0,0.45-0.05,0.88-0.16,1.27s-0.27,0.73-0.48,1.02s-0.47,0.52-0.78,0.68s-0.67,0.25-1.06,0.25
		c-0.24,0-0.47-0.03-0.68-0.08s-0.4-0.12-0.57-0.22c-0.1-0.06-0.2-0.12-0.29-0.2s-0.17-0.15-0.25-0.24v3.05h-1.08V383.77z
		 M233.22,386.01c-0.07-0.28-0.17-0.53-0.31-0.74c-0.14-0.21-0.33-0.38-0.54-0.5s-0.48-0.19-0.79-0.19c-0.17,0-0.32,0.02-0.47,0.06
		s-0.27,0.1-0.38,0.17c-0.13,0.07-0.24,0.17-0.33,0.28s-0.18,0.23-0.26,0.36v3.05c0.07,0.12,0.14,0.23,0.23,0.33
		s0.18,0.19,0.29,0.26c0.13,0.08,0.26,0.15,0.42,0.19s0.33,0.07,0.51,0.07c0.3,0,0.56-0.06,0.78-0.19s0.4-0.3,0.54-0.51
		s0.25-0.46,0.31-0.74s0.1-0.58,0.1-0.88v-0.12C233.33,386.58,233.29,386.29,233.22,386.01z"/>
	<path class="st6" d="M236.23,385.58c0.11-0.4,0.28-0.74,0.5-1.02s0.49-0.51,0.81-0.67s0.68-0.24,1.09-0.24
		c0.23,0,0.44,0.02,0.64,0.07s0.38,0.12,0.54,0.21c0.11,0.06,0.21,0.13,0.3,0.21s0.18,0.16,0.26,0.26l0.05-0.63h1v8.78h-1.08v-3.01
		c-0.09,0.1-0.19,0.19-0.3,0.26s-0.22,0.14-0.34,0.2c-0.15,0.07-0.32,0.13-0.5,0.17s-0.37,0.06-0.58,0.06
		c-0.4,0-0.76-0.08-1.08-0.25s-0.58-0.39-0.8-0.68s-0.39-0.63-0.5-1.02s-0.17-0.82-0.17-1.27v-0.12
		C236.06,386.42,236.12,385.98,236.23,385.58z M237.25,387.9c0.07,0.28,0.17,0.53,0.31,0.74s0.32,0.39,0.54,0.51
		s0.48,0.19,0.78,0.19c0.17,0,0.32-0.02,0.46-0.06s0.27-0.09,0.39-0.16c0.13-0.07,0.24-0.17,0.33-0.27s0.19-0.23,0.26-0.35v-3.13
		c-0.07-0.12-0.16-0.23-0.25-0.33s-0.2-0.19-0.32-0.26c-0.12-0.07-0.25-0.13-0.4-0.17s-0.3-0.06-0.47-0.06
		c-0.3,0-0.56,0.06-0.78,0.19s-0.4,0.3-0.54,0.52c-0.14,0.22-0.25,0.47-0.32,0.75s-0.1,0.58-0.1,0.88v0.12
		C237.15,387.32,237.18,387.61,237.25,387.9z"/>
	<path class="st6" d="M248.24,383.69c0.22,0.03,0.38,0.06,0.49,0.11l-0.15,1.06c-0.21-0.05-0.41-0.08-0.6-0.1s-0.39-0.03-0.59-0.03
		c-0.27,0-0.51,0.03-0.72,0.1s-0.4,0.16-0.56,0.28c-0.14,0.11-0.27,0.24-0.38,0.4s-0.2,0.33-0.27,0.53v4.07h-1.09v-6.34h1.03
		l0.05,0.85l0.01,0.16c0.26-0.35,0.57-0.62,0.93-0.82s0.77-0.3,1.23-0.3C247.82,383.65,248.03,383.67,248.24,383.69z"/>
	<path class="st6" d="M187.95,403.22c0.14-0.16,0.35-0.25,0.64-0.25c0.28,0,0.5,0.08,0.64,0.24s0.22,0.36,0.22,0.59
		c0,0.23-0.07,0.42-0.22,0.58s-0.36,0.23-0.64,0.23c-0.28,0-0.49-0.08-0.64-0.24s-0.21-0.35-0.21-0.58
		C187.74,403.58,187.81,403.38,187.95,403.22z"/>
	<path class="st6" d="M195.15,403.22c0.14-0.16,0.35-0.25,0.64-0.25c0.28,0,0.5,0.08,0.64,0.24s0.22,0.36,0.22,0.59
		c0,0.23-0.07,0.42-0.22,0.58s-0.36,0.23-0.64,0.23c-0.28,0-0.49-0.08-0.64-0.24s-0.21-0.35-0.21-0.58
		C194.94,403.58,195.01,403.38,195.15,403.22z"/>
	<path class="st6" d="M202.35,403.22c0.14-0.16,0.35-0.25,0.64-0.25c0.28,0,0.5,0.08,0.64,0.24s0.22,0.36,0.22,0.59
		c0,0.23-0.07,0.42-0.22,0.58s-0.36,0.23-0.64,0.23c-0.28,0-0.49-0.08-0.64-0.24s-0.21-0.35-0.21-0.58
		C202.14,403.58,202.21,403.38,202.35,403.22z"/>
</g>
<g>
	<rect x="421.59" y="38.56" class="st1" width="17.85" height="17.85"/>
</g>
<g>
	<rect x="462.34" y="38.56" class="st1" width="17.85" height="17.85"/>
</g>
<g>
	<g>
		<line class="st2" x1="471.27" y1="56.41" x2="471.27" y2="57.41"/>
		<line class="st29" x1="471.27" y1="59.39" x2="471.27" y2="236.97"/>
		<line class="st2" x1="471.27" y1="237.96" x2="471.27" y2="238.96"/>
	</g>
</g>
<g>
	<g>
		<line class="st2" x1="430.51" y1="56.41" x2="430.52" y2="57.41"/>
		<line class="st30" x1="430.52" y1="59.39" x2="430.86" y2="241.01"/>
		<line class="st2" x1="430.87" y1="242" x2="430.87" y2="243"/>
	</g>
</g>
<g>
	<g>
		<line class="st2" x1="390.86" y1="56.35" x2="390.86" y2="57.35"/>
		<line class="st31" x1="390.86" y1="59.36" x2="390.86" y2="239.76"/>
		<line class="st2" x1="390.86" y1="240.77" x2="390.86" y2="241.77"/>
	</g>
</g>
<rect x="374.76" y="136.44" class="st24" width="111.5" height="59.11"/>
<g>
	<rect x="387.39" y="159.82" class="st21" width="86.26" height="14.35"/>
	<path class="st4" d="M404.04,171.93l-2.75-5.37h-2.91v5.37h-1.29v-12.1h4.64c2.11,0,3.59,1.27,3.59,3.37
		c0,1.77-1.07,2.92-2.63,3.25l2.87,5.49H404.04z M401.61,160.98h-3.23v4.44h3.23c1.41,0,2.41-0.73,2.41-2.21
		C404.03,161.73,403.03,160.98,401.61,160.98z"/>
	<path class="st4" d="M415.3,171.93l-0.97-2.74h-5.29l-0.97,2.74h-1.38l4.45-12.1h1.09l4.44,12.1H415.3z M411.71,161.68l-2.28,6.39
		h4.52L411.71,161.68z"/>
	<path class="st4" d="M426.35,171.93l-6.43-9.71v9.71h-1.29v-12.1h1.22l6.42,9.67v-9.67h1.29v12.1H426.35z"/>
	<path class="st4" d="M438.28,170.81c-0.73,0.73-1.8,1.12-3.06,1.12h-4.15v-12.1h4.15c1.26,0,2.33,0.39,3.06,1.12
		c1.26,1.26,1.19,3.11,1.19,4.79S439.54,169.55,438.28,170.81z M437.38,161.86c-0.63-0.65-1.45-0.88-2.38-0.88h-2.63v9.79H435
		c0.93,0,1.75-0.24,2.38-0.88c0.83-0.87,0.8-2.67,0.8-4.15S438.21,162.73,437.38,161.86z"/>
	<path class="st4" d="M449.38,170.77c-0.82,0.82-1.89,1.26-3.09,1.26s-2.28-0.44-3.09-1.26c-1.14-1.14-1.14-2.33-1.14-4.9
		c0-2.57,0-3.76,1.14-4.9c0.82-0.82,1.89-1.26,3.09-1.26s2.28,0.44,3.09,1.26c1.14,1.14,1.14,2.33,1.14,4.9
		C450.52,168.44,450.52,169.63,449.38,170.77z M448.38,161.75c-0.53-0.54-1.29-0.87-2.09-0.87s-1.56,0.32-2.09,0.87
		c-0.76,0.78-0.85,1.6-0.85,4.13c0,2.53,0.09,3.35,0.85,4.13c0.53,0.54,1.29,0.87,2.09,0.87s1.56-0.32,2.09-0.87
		c0.76-0.78,0.85-1.6,0.85-4.13C449.23,163.34,449.15,162.53,448.38,161.75z"/>
	<path class="st4" d="M462.64,171.93v-9.2l-3.32,7.29h-1.1l-3.37-7.29v9.2h-1.29v-12.1h1.29l3.94,8.58l3.84-8.58h1.29v12.1H462.64z"
		/>
</g>
<g>
	<g>
		<line class="st2" x1="344" y1="166" x2="345" y2="166"/>
		<line class="st32" x1="347.07" y1="166" x2="366.7" y2="166"/>
		<line class="st2" x1="367.73" y1="166" x2="368.73" y2="166"/>
		<g>
			<path class="st1" d="M374.76,166c-2.84,1.05-6.36,2.85-8.55,4.76l1.72-4.76l-1.72-4.75C368.4,163.15,371.92,164.95,374.76,166z"
				/>
		</g>
	</g>
</g>
<rect x="297.78" y="317.02" class="st2" width="175.86" height="79.48"/>
<rect x="297.78" y="297.58" class="st7" width="175.86" height="19.86"/>
<g>
	<path class="st4" d="M310.79,311.02h-3.32v-8.54h3.21c1.49,0,2.52,0.85,2.52,2.28c0,0.9-0.54,1.61-1.26,1.87
		c0.82,0.3,1.39,1.01,1.39,2.03C313.34,310.21,312.31,311.02,310.79,311.02z M310.61,303.3h-2.23v2.96h2.23
		c0.95,0,1.68-0.47,1.68-1.49C312.29,303.75,311.56,303.3,310.61,303.3z M310.71,307.07h-2.33v3.13h2.33c1.06,0,1.71-0.61,1.71-1.57
		C312.42,307.67,311.77,307.07,310.71,307.07z"/>
	<path class="st4" d="M320.46,311.02l-0.68-1.93h-3.73l-0.68,1.93h-0.97l3.14-8.54h0.77l3.13,8.54H320.46z M317.93,303.79
		l-1.61,4.51h3.19L317.93,303.79z"/>
	<path class="st4" d="M328.13,311.02l-2.6-4.55l-1.8,2.16v2.39h-0.91v-8.54h0.91v4.91l3.98-4.91h1.12l-2.69,3.3l3.07,5.24H328.13z"
		/>
	<path class="st4" d="M330.62,311.02v-8.54h0.91v8.54H330.62z"/>
	<path class="st4" d="M339.45,311.02l-4.53-6.85v6.85H334v-8.54h0.86l4.53,6.82v-6.82h0.91v8.54H339.45z"/>
	<path class="st4" d="M347.73,310.11c-0.6,0.65-1.4,0.98-2.28,0.98c-0.84,0-1.61-0.31-2.18-0.89c-0.8-0.8-0.8-1.64-0.8-3.45
		c0-1.81,0-2.65,0.8-3.45c0.58-0.58,1.33-0.89,2.18-0.89c1.63,0,2.73,1.06,2.99,2.55h-0.91c-0.24-1.08-1.01-1.74-2.08-1.74
		c-0.56,0-1.1,0.23-1.47,0.61c-0.54,0.55-0.6,1.13-0.6,2.91s0.06,2.38,0.6,2.93c0.37,0.38,0.91,0.6,1.47,0.6
		c0.62,0,1.22-0.25,1.62-0.73c0.35-0.42,0.48-0.89,0.48-1.55v-0.65h-2.1v-0.8h3.01v1.36C348.46,308.89,348.26,309.54,347.73,310.11z
		"/>
	<path class="st4" d="M358.48,311.02l-1.94-3.79h-2.05v3.79h-0.91v-8.54h3.27c1.49,0,2.53,0.9,2.53,2.37c0,1.25-0.75,2.06-1.86,2.29
		l2.03,3.87H358.48z M356.77,303.3h-2.28v3.13h2.28c1,0,1.7-0.52,1.7-1.56C358.47,303.82,357.76,303.3,356.77,303.3z"/>
	<path class="st4" d="M361.45,311.02v-8.54h0.91v8.54H361.45z"/>
	<path class="st4" d="M369.77,310.11c-0.6,0.65-1.4,0.98-2.28,0.98c-0.84,0-1.61-0.31-2.18-0.89c-0.8-0.8-0.8-1.64-0.8-3.45
		c0-1.81,0-2.65,0.8-3.45c0.58-0.58,1.33-0.89,2.18-0.89c1.63,0,2.73,1.06,2.99,2.55h-0.91c-0.24-1.08-1.01-1.74-2.07-1.74
		c-0.56,0-1.1,0.23-1.48,0.61c-0.54,0.55-0.6,1.13-0.6,2.91s0.06,2.38,0.6,2.93c0.37,0.38,0.91,0.6,1.48,0.6
		c0.62,0,1.22-0.25,1.62-0.73c0.35-0.42,0.48-0.89,0.48-1.55v-0.65h-2.1v-0.8h3.01v1.36C370.5,308.89,370.3,309.54,369.77,310.11z"
		/>
	<path class="st4" d="M377.6,311.02v-3.9h-4.05v3.9h-0.91v-8.54h0.91v3.83h4.05v-3.83h0.91v8.54H377.6z"/>
	<path class="st4" d="M383.49,303.3v7.72h-0.91v-7.72h-2.47v-0.82h5.85v0.82H383.49z"/>
	<path class="st4" d="M389.75,311.09c-1.28,0-2.12-0.32-2.93-1.13l0.62-0.62c0.71,0.71,1.37,0.94,2.33,0.94
		c1.25,0,2.01-0.59,2.01-1.58c0-0.44-0.13-0.83-0.41-1.07c-0.28-0.24-0.49-0.31-1.12-0.41l-1-0.16c-0.67-0.11-1.2-0.32-1.57-0.65
		c-0.43-0.38-0.65-0.91-0.65-1.59c0-1.45,1.04-2.41,2.73-2.41c1.09,0,1.81,0.28,2.54,0.94l-0.59,0.59
		c-0.53-0.48-1.09-0.73-1.99-0.73c-1.14,0-1.8,0.64-1.8,1.58c0,0.42,0.12,0.75,0.38,0.98c0.26,0.23,0.71,0.4,1.15,0.47l0.94,0.14
		c0.8,0.12,1.2,0.29,1.56,0.6c0.47,0.4,0.72,0.98,0.72,1.69C392.7,310.17,391.53,311.09,389.75,311.09z"/>
</g>
<rect x="305.95" y="342.9" class="st27" width="50.69" height="43.78"/>
<rect x="305.95" y="323.45" class="st28" width="102.73" height="19.86"/>
<g>
	<path class="st4" d="M317.83,336.97c-1.28,0-2.12-0.32-2.93-1.13l0.62-0.62c0.71,0.71,1.37,0.94,2.33,0.94
		c1.25,0,2.01-0.59,2.01-1.58c0-0.44-0.13-0.83-0.41-1.07c-0.28-0.24-0.49-0.31-1.12-0.41l-1-0.16c-0.67-0.11-1.2-0.32-1.57-0.65
		c-0.43-0.38-0.65-0.91-0.65-1.59c0-1.45,1.04-2.41,2.74-2.41c1.09,0,1.81,0.28,2.54,0.94l-0.59,0.59
		c-0.53-0.48-1.09-0.73-1.99-0.73c-1.14,0-1.8,0.64-1.8,1.58c0,0.42,0.12,0.75,0.38,0.98c0.26,0.23,0.71,0.4,1.15,0.47l0.94,0.14
		c0.8,0.12,1.2,0.29,1.56,0.6c0.47,0.4,0.72,0.98,0.72,1.69C320.78,336.05,319.61,336.97,317.83,336.97z"/>
	<path class="st4" d="M322.69,336.9v-8.54h0.91v7.72h4.37v0.82H322.69z"/>
	<path class="st4" d="M333.98,336.08c-0.58,0.58-1.33,0.89-2.18,0.89s-1.61-0.31-2.18-0.89c-0.8-0.8-0.8-1.64-0.8-3.45
		c0-1.81,0-2.65,0.8-3.45c0.58-0.58,1.33-0.89,2.18-0.89s1.61,0.31,2.18,0.89c0.8,0.8,0.8,1.64,0.8,3.45
		C334.79,334.44,334.79,335.28,333.98,336.08z M333.27,329.71c-0.37-0.38-0.91-0.61-1.47-0.61c-0.56,0-1.1,0.23-1.48,0.61
		c-0.54,0.55-0.6,1.13-0.6,2.91s0.06,2.36,0.6,2.91c0.37,0.38,0.91,0.61,1.48,0.61c0.56,0,1.1-0.23,1.47-0.61
		c0.54-0.55,0.6-1.13,0.6-2.91S333.81,330.26,333.27,329.71z"/>
	<path class="st4" d="M339.2,329.17v7.72h-0.91v-7.72h-2.47v-0.82h5.85v0.82H339.2z"/>
</g>
<rect x="356.74" y="323.45" class="st28" width="109.77" height="19.86"/>
<g>
	<path class="st4" d="M382.2,336.11c-0.52,0.52-1.27,0.79-2.16,0.79h-2.93v-8.54h2.93c0.89,0,1.64,0.28,2.16,0.79
		c0.89,0.89,0.84,2.2,0.84,3.38C383.04,333.72,383.08,335.22,382.2,336.11z M381.56,329.8c-0.44-0.46-1.02-0.62-1.68-0.62h-1.86
		v6.91h1.86c0.66,0,1.24-0.17,1.68-0.62c0.59-0.61,0.56-1.88,0.56-2.93C382.12,331.49,382.15,330.41,381.56,329.8z"/>
	<path class="st4" d="M385.19,336.9v-8.54h5.3v0.82h-4.39v3.01h3.74V333h-3.74v3.08h4.39v0.82H385.19z"/>
	<path class="st4" d="M392.39,336.9v-8.54h0.91v7.72h4.37v0.82H392.39z"/>
	<path class="st4" d="M399.26,336.9v-8.54h5.3v0.82h-4.39v3.01h3.74V333h-3.74v3.08h4.39v0.82H399.26z"/>
	<path class="st4" d="M411.4,335.99c-0.6,0.65-1.4,0.98-2.28,0.98c-0.84,0-1.61-0.31-2.18-0.89c-0.8-0.8-0.8-1.64-0.8-3.45
		c0-1.81,0-2.65,0.8-3.45c0.58-0.58,1.33-0.89,2.18-0.89c1.63,0,2.73,1.06,2.99,2.55h-0.91c-0.24-1.08-1.01-1.74-2.07-1.74
		c-0.56,0-1.1,0.23-1.48,0.61c-0.54,0.55-0.6,1.13-0.6,2.91s0.06,2.38,0.6,2.93c0.37,0.38,0.91,0.6,1.48,0.6
		c0.62,0,1.22-0.25,1.62-0.73c0.35-0.42,0.48-0.89,0.48-1.55v-0.65h-2.1v-0.8h3.01v1.36C412.13,334.76,411.93,335.42,411.4,335.99z"
		/>
	<path class="st4" d="M419.12,336.9l-0.68-1.93h-3.73l-0.68,1.93h-0.97l3.14-8.54h0.77l3.13,8.54H419.12z M416.59,329.67l-1.61,4.51
		h3.19L416.59,329.67z"/>
	<path class="st4" d="M423.26,329.17v7.72h-0.91v-7.72h-2.47v-0.82h5.85v0.82H423.26z"/>
	<path class="st4" d="M427.33,336.9v-8.54h5.3v0.82h-4.39v3.01h3.74V333h-3.74v3.08h4.39v0.82H427.33z"/>
</g>
<rect x="356.74" y="343.11" class="st27" width="109.77" height="43.57"/>
<g>
	<path class="st6" d="M325.82,358.91l-0.47,2.4h-0.84l0.47-2.4h-1.4v-0.8h1.55l0.4-2.07h-1.51v-0.81h1.67l0.48-2.44h0.84l-0.48,2.44
		h1.55l0.48-2.44h0.84l-0.48,2.44h1.2v0.81h-1.36l-0.4,2.07h1.32v0.8h-1.48l-0.47,2.4h-0.84l0.47-2.4H325.82z M327.52,358.11
		l0.4-2.07h-1.55l-0.4,2.07H327.52z"/>
	<path class="st6" d="M336.62,359.49c-0.13,0.42-0.3,0.77-0.54,1.06c-0.23,0.29-0.52,0.51-0.86,0.66s-0.73,0.22-1.17,0.22
		c-0.43,0-0.82-0.07-1.17-0.22s-0.63-0.37-0.87-0.66c-0.24-0.29-0.42-0.64-0.54-1.06s-0.19-0.9-0.19-1.44v-2
		c0-0.54,0.06-1.02,0.19-1.44s0.31-0.77,0.54-1.06c0.23-0.29,0.52-0.51,0.87-0.66s0.73-0.23,1.16-0.23c0.44,0,0.83,0.08,1.17,0.23
		s0.63,0.37,0.87,0.66c0.23,0.29,0.41,0.64,0.54,1.06s0.19,0.9,0.19,1.44v2C336.8,358.59,336.74,359.07,336.62,359.49z
		 M335.69,355.28c-0.03-0.28-0.09-0.53-0.17-0.75s-0.19-0.4-0.33-0.54c-0.13-0.15-0.29-0.26-0.49-0.33s-0.42-0.11-0.67-0.11
		c-0.26,0-0.48,0.04-0.68,0.12s-0.37,0.2-0.5,0.35c-0.16,0.19-0.29,0.44-0.37,0.74s-0.12,0.65-0.12,1.05v1.43c0,0.1,0,0.2,0,0.29
		s0,0.2,0,0.3L335.69,355.28z M335.71,357.07c0-0.06,0-0.17,0-0.34s0-0.3,0-0.41l-3.32,2.54c0.04,0.29,0.1,0.54,0.19,0.75
		s0.21,0.4,0.35,0.54c0.13,0.13,0.29,0.23,0.48,0.3s0.4,0.1,0.63,0.1c0.25,0,0.46-0.04,0.66-0.11s0.35-0.18,0.49-0.32
		c0.18-0.19,0.31-0.44,0.4-0.75s0.13-0.67,0.13-1.09V357.07z"/>
	<path class="st6" d="M322.74,374.42c0.14-0.16,0.35-0.25,0.64-0.25c0.28,0,0.49,0.08,0.64,0.24s0.22,0.36,0.22,0.59
		c0,0.23-0.07,0.42-0.22,0.58s-0.36,0.23-0.64,0.23c-0.28,0-0.49-0.08-0.64-0.24s-0.21-0.35-0.21-0.58
		C322.53,374.78,322.6,374.58,322.74,374.42z"/>
	<path class="st6" d="M329.95,374.42c0.14-0.16,0.35-0.25,0.64-0.25c0.28,0,0.49,0.08,0.64,0.24s0.22,0.36,0.22,0.59
		c0,0.23-0.07,0.42-0.22,0.58s-0.36,0.23-0.64,0.23c-0.28,0-0.49-0.08-0.64-0.24s-0.21-0.35-0.21-0.58
		C329.73,374.78,329.8,374.58,329.95,374.42z"/>
	<path class="st6" d="M337.15,374.42c0.14-0.16,0.35-0.25,0.64-0.25c0.28,0,0.49,0.08,0.64,0.24s0.22,0.36,0.22,0.59
		c0,0.23-0.07,0.42-0.22,0.58s-0.36,0.23-0.64,0.23c-0.28,0-0.49-0.08-0.64-0.24s-0.21-0.35-0.21-0.58
		C336.94,374.78,337.01,374.58,337.15,374.42z"/>
</g>
<g>
	<path class="st6" d="M378.93,354.97h2.41v0.84h-2.41v3.45c0,0.25,0.03,0.45,0.09,0.61s0.15,0.29,0.26,0.38
		c0.11,0.1,0.24,0.17,0.38,0.21s0.29,0.06,0.45,0.06c0.12,0,0.24-0.01,0.36-0.02s0.25-0.03,0.37-0.05c0.12-0.02,0.23-0.04,0.33-0.06
		s0.19-0.04,0.25-0.06l0.15,0.77c-0.09,0.05-0.2,0.1-0.33,0.14s-0.27,0.08-0.42,0.1c-0.15,0.03-0.31,0.05-0.48,0.07
		s-0.34,0.02-0.51,0.02c-0.28,0-0.54-0.04-0.79-0.12s-0.46-0.21-0.64-0.38c-0.18-0.17-0.32-0.4-0.42-0.67s-0.16-0.61-0.16-1v-3.45
		h-1.66v-0.84h1.66v-1.54h1.09V354.97z"/>
	<path class="st6" d="M388.9,360.43v0.88h-5.42v-0.8l3.79-4.65h-3.73v-0.9h5.16v0.77l-3.83,4.69H388.9z"/>
	<path class="st6" d="M393.2,361.31v-7.15l-2.23,0.85v-0.99l3.23-1.24h0.09v8.53H393.2z"/>
	<path class="st6" d="M402.1,359.28c-0.05-0.1-0.14-0.2-0.26-0.28s-0.28-0.17-0.48-0.24s-0.45-0.14-0.74-0.2
		c-0.36-0.07-0.69-0.16-0.99-0.27s-0.55-0.23-0.77-0.38c-0.21-0.14-0.38-0.32-0.5-0.51s-0.18-0.43-0.18-0.69
		c0-0.26,0.06-0.5,0.18-0.72s0.29-0.42,0.51-0.59s0.48-0.3,0.78-0.4s0.63-0.15,1-0.15c0.39,0,0.74,0.05,1.05,0.15
		s0.58,0.24,0.8,0.42s0.39,0.39,0.51,0.63s0.18,0.5,0.18,0.78h-1.08c0-0.14-0.04-0.27-0.11-0.4s-0.17-0.25-0.29-0.35
		s-0.28-0.18-0.45-0.25s-0.38-0.09-0.6-0.09c-0.23,0-0.43,0.03-0.61,0.08s-0.32,0.12-0.43,0.21c-0.12,0.09-0.21,0.19-0.26,0.3
		s-0.09,0.23-0.09,0.35c0,0.13,0.02,0.24,0.07,0.33s0.13,0.19,0.25,0.26c0.11,0.08,0.27,0.15,0.46,0.21s0.44,0.12,0.73,0.18
		c0.39,0.08,0.74,0.18,1.05,0.28s0.57,0.24,0.78,0.38c0.21,0.15,0.37,0.33,0.48,0.53s0.17,0.43,0.17,0.69
		c0,0.28-0.06,0.54-0.19,0.77s-0.3,0.43-0.53,0.59s-0.5,0.29-0.81,0.38s-0.66,0.13-1.04,0.13c-0.43,0-0.81-0.06-1.15-0.17
		s-0.62-0.27-0.85-0.46c-0.23-0.19-0.41-0.41-0.54-0.66s-0.19-0.51-0.19-0.78h1.08c0.02,0.22,0.08,0.41,0.18,0.56
		s0.23,0.28,0.39,0.37c0.15,0.09,0.32,0.16,0.51,0.2s0.37,0.06,0.56,0.06c0.29,0,0.54-0.03,0.76-0.1s0.38-0.16,0.5-0.28
		c0.07-0.07,0.13-0.16,0.17-0.25s0.06-0.19,0.06-0.29C402.18,359.5,402.15,359.38,402.1,359.28z"/>
	<path class="st6" d="M407.73,354.97h2.41v0.84h-2.41v3.45c0,0.25,0.03,0.45,0.09,0.61s0.15,0.29,0.26,0.38
		c0.11,0.1,0.24,0.17,0.38,0.21s0.29,0.06,0.45,0.06c0.12,0,0.24-0.01,0.36-0.02s0.25-0.03,0.37-0.05c0.12-0.02,0.23-0.04,0.33-0.06
		s0.19-0.04,0.25-0.06l0.15,0.77c-0.09,0.05-0.2,0.1-0.33,0.14s-0.27,0.08-0.42,0.1c-0.15,0.03-0.31,0.05-0.48,0.07
		s-0.34,0.02-0.51,0.02c-0.28,0-0.54-0.04-0.79-0.12s-0.46-0.21-0.64-0.38c-0.18-0.17-0.32-0.4-0.42-0.67s-0.16-0.61-0.16-1v-3.45
		h-1.66v-0.84h1.66v-1.54h1.09V354.97z"/>
	<path class="st6" d="M416.48,360.44c-0.21,0.31-0.47,0.56-0.79,0.73s-0.68,0.26-1.1,0.26c-0.33,0-0.63-0.05-0.9-0.16
		s-0.5-0.26-0.69-0.48s-0.34-0.5-0.44-0.83s-0.16-0.74-0.16-1.22v-3.77h1.08v3.78c0,0.34,0.03,0.63,0.08,0.86s0.14,0.41,0.25,0.54
		c0.11,0.14,0.24,0.23,0.4,0.29s0.34,0.08,0.55,0.08c0.24,0,0.46-0.03,0.65-0.08s0.36-0.14,0.5-0.24c0.12-0.08,0.22-0.18,0.31-0.3
		s0.16-0.24,0.22-0.38v-4.55h1.09v6.34h-0.98L416.48,360.44z"/>
	<path class="st6" d="M419.12,354.97h1.11l1.82,4.78l0.1,0.39l0.11-0.39l1.78-4.78h1.11l-2.58,6.34h-0.83L419.12,354.97z"/>
	<path class="st6" d="M426.03,354.97h0.96l0.74,4.04l0.13,0.91l0.16-0.91l1.01-4.04h0.7l1.01,4.04l0.17,1l0.16-1l0.7-4.04h0.96
		l-1.35,6.34h-0.86l-0.99-3.88l-0.16-0.98l-0.16,0.98l-0.98,3.88h-0.86L426.03,354.97z"/>
	<path class="st6" d="M438.28,354.97h1.27l-2.36,3.13l2.43,3.21h-1.25l-1.75-2.41l-1.75,2.41h-1.27l2.43-3.21l-2.36-3.13h1.25
		l1.68,2.35L438.28,354.97z"/>
	<path class="st6" d="M378.46,374.42c0.14-0.16,0.35-0.25,0.64-0.25c0.28,0,0.5,0.08,0.64,0.24s0.22,0.36,0.22,0.59
		c0,0.23-0.07,0.42-0.22,0.58s-0.36,0.23-0.64,0.23c-0.28,0-0.49-0.08-0.63-0.24s-0.21-0.35-0.21-0.58
		C378.25,374.78,378.32,374.58,378.46,374.42z"/>
	<path class="st6" d="M385.66,374.42c0.14-0.16,0.35-0.25,0.64-0.25c0.28,0,0.5,0.08,0.64,0.24s0.22,0.36,0.22,0.59
		c0,0.23-0.07,0.42-0.22,0.58s-0.36,0.23-0.64,0.23c-0.28,0-0.49-0.08-0.63-0.24s-0.21-0.35-0.21-0.58
		C385.45,374.78,385.52,374.58,385.66,374.42z"/>
	<path class="st6" d="M392.86,374.42c0.14-0.16,0.35-0.25,0.64-0.25c0.28,0,0.5,0.08,0.64,0.24s0.22,0.36,0.22,0.59
		c0,0.23-0.07,0.42-0.22,0.58s-0.36,0.23-0.64,0.23c-0.28,0-0.49-0.08-0.63-0.24s-0.21-0.35-0.21-0.58
		C392.65,374.78,392.72,374.58,392.86,374.42z"/>
</g>
<rect x="491.18" y="317.02" class="st2" width="175.86" height="79.48"/>
<rect x="491.18" y="297.58" class="st7" width="175.86" height="19.86"/>
<g>
	<path class="st4" d="M504.2,311.02h-3.32v-8.54h3.21c1.49,0,2.52,0.85,2.52,2.28c0,0.9-0.54,1.61-1.26,1.87
		c0.82,0.3,1.39,1.01,1.39,2.03C506.74,310.21,505.71,311.02,504.2,311.02z M504.02,303.3h-2.23v2.96h2.23
		c0.95,0,1.68-0.47,1.68-1.49C505.69,303.75,504.96,303.3,504.02,303.3z M504.11,307.07h-2.33v3.13h2.33c1.06,0,1.71-0.61,1.71-1.57
		C505.83,307.67,505.17,307.07,504.11,307.07z"/>
	<path class="st4" d="M513.87,311.02l-0.68-1.93h-3.73l-0.68,1.93h-0.97l3.14-8.54h0.77l3.13,8.54H513.87z M511.34,303.79
		l-1.61,4.51h3.19L511.34,303.79z"/>
	<path class="st4" d="M521.53,311.02l-2.6-4.55l-1.8,2.16v2.39h-0.91v-8.54h0.91v4.91l3.98-4.91h1.12l-2.69,3.3l3.07,5.24H521.53z"
		/>
	<path class="st4" d="M524.02,311.02v-8.54h0.91v8.54H524.02z"/>
	<path class="st4" d="M532.85,311.02l-4.53-6.85v6.85h-0.91v-8.54h0.86l4.53,6.82v-6.82h0.91v8.54H532.85z"/>
	<path class="st4" d="M541.13,310.11c-0.6,0.65-1.4,0.98-2.28,0.98c-0.84,0-1.61-0.31-2.18-0.89c-0.8-0.8-0.8-1.64-0.8-3.45
		c0-1.81,0-2.65,0.8-3.45c0.58-0.58,1.33-0.89,2.18-0.89c1.63,0,2.73,1.06,2.99,2.55h-0.91c-0.24-1.08-1.01-1.74-2.08-1.74
		c-0.56,0-1.1,0.23-1.47,0.61c-0.54,0.55-0.6,1.13-0.6,2.91s0.06,2.38,0.6,2.93c0.37,0.38,0.91,0.6,1.47,0.6
		c0.62,0,1.22-0.25,1.62-0.73c0.35-0.42,0.48-0.89,0.48-1.55v-0.65h-2.1v-0.8h3.01v1.36C541.86,308.89,541.66,309.54,541.13,310.11z
		"/>
	<path class="st4" d="M551.88,311.02l-1.94-3.79h-2.05v3.79h-0.91v-8.54h3.27c1.49,0,2.53,0.9,2.53,2.37c0,1.25-0.75,2.06-1.86,2.29
		l2.03,3.87H551.88z M550.17,303.3h-2.28v3.13h2.28c1,0,1.7-0.52,1.7-1.56C551.87,303.82,551.16,303.3,550.17,303.3z"/>
	<path class="st4" d="M554.85,311.02v-8.54h0.91v8.54H554.85z"/>
	<path class="st4" d="M563.17,310.11c-0.6,0.65-1.4,0.98-2.28,0.98c-0.84,0-1.61-0.31-2.18-0.89c-0.8-0.8-0.8-1.64-0.8-3.45
		c0-1.81,0-2.65,0.8-3.45c0.58-0.58,1.33-0.89,2.18-0.89c1.63,0,2.73,1.06,2.99,2.55h-0.91c-0.24-1.08-1.01-1.74-2.07-1.74
		c-0.56,0-1.1,0.23-1.48,0.61c-0.54,0.55-0.6,1.13-0.6,2.91s0.06,2.38,0.6,2.93c0.37,0.38,0.91,0.6,1.48,0.6
		c0.62,0,1.22-0.25,1.62-0.73c0.35-0.42,0.48-0.89,0.48-1.55v-0.65h-2.1v-0.8h3.01v1.36C563.91,308.89,563.7,309.54,563.17,310.11z"
		/>
	<path class="st4" d="M571,311.02v-3.9h-4.05v3.9h-0.91v-8.54h0.91v3.83H571v-3.83h0.91v8.54H571z"/>
	<path class="st4" d="M576.89,303.3v7.72h-0.91v-7.72h-2.47v-0.82h5.85v0.82H576.89z"/>
	<path class="st4" d="M583.16,311.09c-1.28,0-2.12-0.32-2.93-1.13l0.62-0.62c0.71,0.71,1.37,0.94,2.33,0.94
		c1.25,0,2.01-0.59,2.01-1.58c0-0.44-0.13-0.83-0.41-1.07c-0.28-0.24-0.49-0.31-1.12-0.41l-1-0.16c-0.67-0.11-1.2-0.32-1.57-0.65
		c-0.43-0.38-0.65-0.91-0.65-1.59c0-1.45,1.04-2.41,2.73-2.41c1.09,0,1.81,0.28,2.54,0.94l-0.59,0.59
		c-0.53-0.48-1.09-0.73-1.99-0.73c-1.14,0-1.8,0.64-1.8,1.58c0,0.42,0.12,0.75,0.38,0.98c0.26,0.23,0.71,0.4,1.15,0.47l0.94,0.14
		c0.8,0.12,1.2,0.29,1.56,0.6c0.47,0.4,0.72,0.98,0.72,1.69C586.11,310.17,584.93,311.09,583.16,311.09z"/>
</g>
<rect x="499.35" y="342.9" class="st27" width="50.69" height="43.78"/>
<rect x="499.35" y="323.45" class="st28" width="102.73" height="19.86"/>
<g>
	<path class="st4" d="M511.23,336.97c-1.28,0-2.12-0.32-2.93-1.13l0.62-0.62c0.71,0.71,1.37,0.94,2.33,0.94
		c1.25,0,2.01-0.59,2.01-1.58c0-0.44-0.13-0.83-0.41-1.07c-0.28-0.24-0.49-0.31-1.12-0.41l-1-0.16c-0.67-0.11-1.2-0.32-1.57-0.65
		c-0.43-0.38-0.65-0.91-0.65-1.59c0-1.45,1.04-2.41,2.74-2.41c1.09,0,1.81,0.28,2.54,0.94l-0.59,0.59
		c-0.53-0.48-1.09-0.73-1.99-0.73c-1.14,0-1.8,0.64-1.8,1.58c0,0.42,0.12,0.75,0.38,0.98c0.26,0.23,0.71,0.4,1.15,0.47l0.94,0.14
		c0.8,0.12,1.2,0.29,1.56,0.6c0.47,0.4,0.72,0.98,0.72,1.69C514.18,336.05,513.01,336.97,511.23,336.97z"/>
	<path class="st4" d="M516.09,336.9v-8.54H517v7.72h4.37v0.82H516.09z"/>
	<path class="st4" d="M527.38,336.08c-0.58,0.58-1.33,0.89-2.18,0.89s-1.61-0.31-2.18-0.89c-0.8-0.8-0.8-1.64-0.8-3.45
		c0-1.81,0-2.65,0.8-3.45c0.58-0.58,1.33-0.89,2.18-0.89s1.61,0.31,2.18,0.89c0.8,0.8,0.8,1.64,0.8,3.45
		C528.19,334.44,528.19,335.28,527.38,336.08z M526.67,329.71c-0.37-0.38-0.91-0.61-1.47-0.61c-0.56,0-1.1,0.23-1.48,0.61
		c-0.54,0.55-0.6,1.13-0.6,2.91s0.06,2.36,0.6,2.91c0.37,0.38,0.91,0.61,1.48,0.61c0.56,0,1.1-0.23,1.47-0.61
		c0.54-0.55,0.6-1.13,0.6-2.91S527.21,330.26,526.67,329.71z"/>
	<path class="st4" d="M532.6,329.17v7.72h-0.91v-7.72h-2.47v-0.82h5.85v0.82H532.6z"/>
</g>
<rect x="550.14" y="323.45" class="st28" width="109.77" height="19.86"/>
<g>
	<path class="st4" d="M575.6,336.11c-0.52,0.52-1.27,0.79-2.16,0.79h-2.93v-8.54h2.93c0.89,0,1.64,0.28,2.16,0.79
		c0.89,0.89,0.84,2.2,0.84,3.38C576.44,333.72,576.48,335.22,575.6,336.11z M574.96,329.8c-0.44-0.46-1.02-0.62-1.68-0.62h-1.86
		v6.91h1.86c0.66,0,1.24-0.17,1.68-0.62c0.59-0.61,0.56-1.88,0.56-2.93C575.53,331.49,575.55,330.41,574.96,329.8z"/>
	<path class="st4" d="M578.59,336.9v-8.54h5.3v0.82h-4.39v3.01h3.74V333h-3.74v3.08h4.39v0.82H578.59z"/>
	<path class="st4" d="M585.79,336.9v-8.54h0.91v7.72h4.37v0.82H585.79z"/>
	<path class="st4" d="M592.66,336.9v-8.54h5.3v0.82h-4.39v3.01h3.74V333h-3.74v3.08h4.39v0.82H592.66z"/>
	<path class="st4" d="M604.8,335.99c-0.6,0.65-1.4,0.98-2.28,0.98c-0.84,0-1.61-0.31-2.18-0.89c-0.8-0.8-0.8-1.64-0.8-3.45
		c0-1.81,0-2.65,0.8-3.45c0.58-0.58,1.33-0.89,2.18-0.89c1.63,0,2.73,1.06,2.99,2.55h-0.91c-0.24-1.08-1.01-1.74-2.07-1.74
		c-0.56,0-1.1,0.23-1.48,0.61c-0.54,0.55-0.6,1.13-0.6,2.91s0.06,2.38,0.6,2.93c0.37,0.38,0.91,0.6,1.48,0.6
		c0.62,0,1.22-0.25,1.62-0.73c0.35-0.42,0.48-0.89,0.48-1.55v-0.65h-2.1v-0.8h3.01v1.36C605.54,334.76,605.33,335.42,604.8,335.99z"
		/>
	<path class="st4" d="M612.52,336.9l-0.68-1.93h-3.73l-0.68,1.93h-0.97l3.14-8.54h0.77l3.13,8.54H612.52z M609.99,329.67l-1.61,4.51
		h3.19L609.99,329.67z"/>
	<path class="st4" d="M616.66,329.17v7.72h-0.91v-7.72h-2.47v-0.82h5.85v0.82H616.66z"/>
	<path class="st4" d="M620.73,336.9v-8.54h5.3v0.82h-4.39v3.01h3.74V333h-3.74v3.08h4.39v0.82H620.73z"/>
</g>
<rect x="550.14" y="343.11" class="st27" width="109.77" height="43.57"/>
<g>
	<path class="st6" d="M519.22,358.91l-0.47,2.4h-0.84l0.47-2.4h-1.4v-0.8h1.55l0.4-2.07h-1.51v-0.81h1.67l0.48-2.44h0.84l-0.48,2.44
		h1.55l0.48-2.44h0.84l-0.48,2.44h1.2v0.81h-1.36l-0.4,2.07h1.32v0.8h-1.48l-0.47,2.4h-0.84l0.47-2.4H519.22z M520.92,358.11
		l0.4-2.07h-1.55l-0.4,2.07H520.92z"/>
	<path class="st6" d="M530.02,359.49c-0.13,0.42-0.3,0.77-0.54,1.06c-0.23,0.29-0.52,0.51-0.86,0.66s-0.73,0.22-1.17,0.22
		c-0.43,0-0.82-0.07-1.17-0.22s-0.63-0.37-0.87-0.66c-0.24-0.29-0.42-0.64-0.54-1.06s-0.19-0.9-0.19-1.44v-2
		c0-0.54,0.06-1.02,0.19-1.44s0.31-0.77,0.54-1.06c0.23-0.29,0.52-0.51,0.86-0.66s0.73-0.23,1.16-0.23c0.44,0,0.83,0.08,1.17,0.23
		s0.63,0.37,0.87,0.66c0.23,0.29,0.41,0.64,0.54,1.06s0.19,0.9,0.19,1.44v2C530.21,358.59,530.14,359.07,530.02,359.49z
		 M529.09,355.28c-0.03-0.28-0.09-0.53-0.17-0.75s-0.19-0.4-0.32-0.54c-0.13-0.15-0.3-0.26-0.49-0.33s-0.42-0.11-0.67-0.11
		c-0.26,0-0.49,0.04-0.68,0.12s-0.36,0.2-0.5,0.35c-0.16,0.19-0.29,0.44-0.37,0.74s-0.12,0.65-0.12,1.05v1.43c0,0.1,0,0.2,0,0.29
		s0,0.2,0,0.3L529.09,355.28z M529.12,357.07c0-0.06,0-0.17,0-0.34s0-0.3,0-0.41l-3.32,2.54c0.04,0.29,0.1,0.54,0.19,0.75
		s0.21,0.4,0.35,0.54c0.13,0.13,0.29,0.23,0.48,0.3s0.4,0.1,0.63,0.1c0.25,0,0.46-0.04,0.66-0.11s0.35-0.18,0.49-0.32
		c0.18-0.19,0.31-0.44,0.39-0.75s0.13-0.67,0.13-1.09V357.07z"/>
	<path class="st6" d="M516.14,374.42c0.14-0.16,0.35-0.25,0.64-0.25c0.28,0,0.5,0.08,0.64,0.24s0.22,0.36,0.22,0.59
		c0,0.23-0.07,0.42-0.22,0.58s-0.36,0.23-0.64,0.23c-0.28,0-0.49-0.08-0.63-0.24s-0.21-0.35-0.21-0.58
		C515.93,374.78,516,374.58,516.14,374.42z"/>
	<path class="st6" d="M523.35,374.42c0.14-0.16,0.35-0.25,0.64-0.25c0.28,0,0.5,0.08,0.64,0.24s0.22,0.36,0.22,0.59
		c0,0.23-0.07,0.42-0.22,0.58s-0.36,0.23-0.64,0.23c-0.28,0-0.49-0.08-0.63-0.24s-0.21-0.35-0.21-0.58
		C523.13,374.78,523.21,374.58,523.35,374.42z"/>
	<path class="st6" d="M530.55,374.42c0.14-0.16,0.35-0.25,0.64-0.25c0.28,0,0.5,0.08,0.64,0.24s0.22,0.36,0.22,0.59
		c0,0.23-0.07,0.42-0.22,0.58s-0.36,0.23-0.64,0.23c-0.28,0-0.49-0.08-0.63-0.24s-0.21-0.35-0.21-0.58
		C530.34,374.78,530.41,374.58,530.55,374.42z"/>
</g>
<g>
	<path class="st6" d="M572.33,354.97h2.41v0.84h-2.41v3.45c0,0.25,0.03,0.45,0.09,0.61s0.15,0.29,0.26,0.38
		c0.11,0.1,0.23,0.17,0.38,0.21s0.29,0.06,0.46,0.06c0.12,0,0.24-0.01,0.36-0.02s0.25-0.03,0.37-0.05c0.12-0.02,0.23-0.04,0.33-0.06
		s0.19-0.04,0.26-0.06l0.15,0.77c-0.09,0.05-0.2,0.1-0.33,0.14s-0.27,0.08-0.42,0.1c-0.15,0.03-0.31,0.05-0.48,0.07
		s-0.34,0.02-0.51,0.02c-0.28,0-0.54-0.04-0.79-0.12s-0.46-0.21-0.63-0.38c-0.18-0.17-0.32-0.4-0.43-0.67s-0.15-0.61-0.15-1v-3.45
		h-1.66v-0.84h1.66v-1.54h1.09V354.97z"/>
	<path class="st6" d="M582.3,360.43v0.88h-5.42v-0.8l3.79-4.65h-3.73v-0.9h5.16v0.77l-3.83,4.69H582.3z"/>
	<path class="st6" d="M586.6,361.31v-7.15l-2.23,0.85v-0.99l3.23-1.24h0.09v8.53H586.6z"/>
	<path class="st6" d="M591.52,363.84c-0.14-0.02-0.24-0.04-0.31-0.06l0.18-0.88c0.1,0.01,0.19,0.01,0.29,0.02s0.17,0.01,0.23,0.01
		c0.15,0,0.28-0.04,0.41-0.12s0.23-0.18,0.33-0.29c0.09-0.11,0.17-0.23,0.24-0.35s0.12-0.22,0.16-0.3l0.43-0.84l-2.73-6.04h1.21
		l1.74,4.09l0.28,0.77l0.3-0.74l1.63-4.11h1.21l-3.22,7.32c-0.07,0.16-0.17,0.34-0.29,0.52s-0.25,0.35-0.42,0.51
		s-0.36,0.29-0.57,0.39s-0.47,0.16-0.76,0.16C591.78,363.87,591.66,363.86,591.52,363.84z"/>
	<path class="st6" d="M603.91,360.43v0.88h-5.42v-0.8l3.79-4.65h-3.73v-0.9h5.16v0.77l-3.83,4.69H603.91z"/>
	<path class="st6" d="M609.83,361c-0.03-0.12-0.04-0.25-0.05-0.38c-0.11,0.11-0.23,0.21-0.37,0.31s-0.28,0.18-0.44,0.26
		c-0.16,0.07-0.34,0.13-0.52,0.18s-0.38,0.06-0.59,0.06c-0.34,0-0.64-0.05-0.91-0.15s-0.5-0.23-0.69-0.4
		c-0.19-0.16-0.34-0.36-0.44-0.59s-0.15-0.48-0.15-0.74c0-0.35,0.07-0.65,0.21-0.91s0.34-0.48,0.59-0.66
		c0.25-0.17,0.56-0.3,0.92-0.39s0.76-0.13,1.2-0.13h1.18v-0.5c0-0.19-0.04-0.36-0.11-0.52s-0.17-0.28-0.3-0.39
		c-0.13-0.11-0.29-0.19-0.47-0.25s-0.39-0.09-0.62-0.09c-0.21,0-0.41,0.03-0.58,0.08s-0.31,0.13-0.43,0.22s-0.21,0.2-0.27,0.32
		s-0.1,0.25-0.1,0.38h-1.09c0-0.23,0.06-0.46,0.18-0.68s0.28-0.42,0.5-0.6c0.21-0.18,0.48-0.32,0.79-0.43s0.66-0.16,1.06-0.16
		c0.36,0,0.69,0.04,1,0.13s0.58,0.22,0.8,0.4c0.22,0.18,0.4,0.4,0.53,0.67s0.19,0.58,0.19,0.93v2.95c0,0.21,0.02,0.43,0.06,0.67
		s0.09,0.44,0.16,0.62v0.09h-1.13C609.89,361.23,609.86,361.13,609.83,361z M608.61,360.4c0.18-0.05,0.35-0.13,0.5-0.22
		c0.15-0.09,0.28-0.19,0.39-0.31s0.2-0.24,0.26-0.36v-1.28h-1.01c-0.38,0-0.7,0.03-0.98,0.1s-0.5,0.16-0.66,0.3
		c-0.12,0.09-0.21,0.21-0.27,0.33s-0.09,0.28-0.09,0.44c0,0.16,0.03,0.3,0.08,0.43s0.13,0.25,0.24,0.34c0.11,0.1,0.24,0.17,0.4,0.23
		s0.35,0.08,0.56,0.08S608.43,360.46,608.61,360.4z"/>
	<path class="st6" d="M618.28,359.01c-0.04,0.26-0.1,0.5-0.18,0.72c-0.11,0.29-0.24,0.56-0.41,0.79s-0.37,0.42-0.61,0.58
		c-0.17,0.11-0.36,0.19-0.57,0.25s-0.43,0.09-0.66,0.09c-0.27,0-0.52-0.03-0.75-0.1s-0.43-0.16-0.61-0.29
		c-0.09-0.06-0.17-0.13-0.25-0.21s-0.15-0.16-0.22-0.25l-0.05,0.72h-1v-9h1.08v3.34c0.09-0.11,0.19-0.22,0.3-0.31
		s0.23-0.17,0.35-0.24c0.16-0.08,0.33-0.14,0.52-0.19s0.39-0.06,0.61-0.06c0.27,0,0.53,0.04,0.76,0.11s0.44,0.18,0.63,0.31
		c0.17,0.13,0.32,0.28,0.45,0.45s0.25,0.38,0.35,0.59c0.11,0.25,0.19,0.52,0.24,0.82s0.08,0.61,0.08,0.95v0.12
		C618.34,358.49,618.32,358.75,618.28,359.01z M617.22,357.5c-0.03-0.19-0.06-0.37-0.11-0.54c-0.07-0.21-0.16-0.4-0.28-0.57
		s-0.25-0.31-0.42-0.4c-0.11-0.07-0.24-0.13-0.38-0.16s-0.3-0.06-0.47-0.06c-0.19,0-0.36,0.02-0.52,0.07s-0.29,0.12-0.42,0.2
		c-0.13,0.09-0.24,0.19-0.33,0.31s-0.18,0.25-0.24,0.39v2.77c0.07,0.14,0.15,0.27,0.25,0.39s0.21,0.22,0.33,0.31
		s0.27,0.16,0.42,0.21s0.33,0.07,0.52,0.07c0.18,0,0.34-0.02,0.49-0.07s0.28-0.11,0.4-0.2c0.16-0.11,0.29-0.25,0.39-0.42
		s0.19-0.36,0.25-0.56c0.05-0.16,0.09-0.32,0.11-0.5s0.04-0.36,0.04-0.55v-0.12C617.26,357.89,617.25,357.69,617.22,357.5z"/>
	<path class="st6" d="M623.44,360.46c0.19-0.06,0.35-0.15,0.5-0.26c0.14-0.11,0.26-0.24,0.35-0.39s0.13-0.31,0.14-0.49h1.03
		c0,0.28-0.08,0.55-0.22,0.81s-0.33,0.48-0.57,0.67c-0.24,0.2-0.51,0.35-0.82,0.47s-0.63,0.17-0.97,0.17c-0.48,0-0.9-0.09-1.26-0.26
		s-0.66-0.4-0.9-0.7c-0.24-0.29-0.42-0.62-0.54-1s-0.18-0.78-0.18-1.2v-0.25c0-0.42,0.06-0.82,0.18-1.2s0.3-0.72,0.54-1.01
		c0.24-0.29,0.54-0.52,0.9-0.69s0.78-0.26,1.26-0.26c0.38,0,0.72,0.06,1.03,0.18s0.59,0.28,0.82,0.48c0.23,0.21,0.4,0.45,0.53,0.73
		s0.19,0.58,0.19,0.9h-1.03c0-0.19-0.05-0.37-0.13-0.54s-0.19-0.32-0.32-0.45s-0.3-0.23-0.49-0.3s-0.39-0.11-0.61-0.11
		c-0.34,0-0.62,0.07-0.85,0.2s-0.41,0.31-0.55,0.52c-0.14,0.22-0.24,0.46-0.3,0.73s-0.09,0.54-0.09,0.81v0.25
		c0,0.28,0.03,0.55,0.09,0.82s0.16,0.51,0.3,0.73c0.14,0.22,0.32,0.4,0.55,0.53s0.51,0.2,0.85,0.2
		C623.07,360.55,623.26,360.52,623.44,360.46z"/>
	<path class="st6" d="M627.35,356.78c0.12-0.4,0.29-0.74,0.51-1.02c0.22-0.29,0.48-0.51,0.8-0.67s0.66-0.24,1.05-0.24
		c0.38,0,0.71,0.06,0.99,0.19s0.53,0.31,0.74,0.55v-3.29h1.08v9h-1l-0.05-0.67c-0.21,0.26-0.46,0.45-0.76,0.59s-0.63,0.2-1.03,0.2
		c-0.38,0-0.73-0.08-1.04-0.25s-0.57-0.39-0.79-0.68s-0.39-0.63-0.51-1.02s-0.18-0.82-0.18-1.27v-0.12
		C627.17,357.62,627.23,357.18,627.35,356.78z M628.35,359.09c0.07,0.28,0.17,0.52,0.31,0.73c0.14,0.21,0.31,0.38,0.53,0.5
		s0.47,0.18,0.77,0.18c0.36,0,0.66-0.08,0.9-0.25s0.43-0.38,0.57-0.66v-2.94c-0.14-0.26-0.33-0.47-0.57-0.64s-0.54-0.25-0.89-0.25
		c-0.3,0-0.57,0.06-0.78,0.19s-0.39,0.29-0.53,0.5c-0.14,0.21-0.24,0.46-0.31,0.74s-0.1,0.57-0.1,0.88v0.12
		C628.25,358.52,628.29,358.81,628.35,359.09z"/>
	<path class="st6" d="M571.86,374.42c0.14-0.16,0.35-0.25,0.64-0.25c0.28,0,0.49,0.08,0.64,0.24s0.22,0.36,0.22,0.59
		c0,0.23-0.07,0.42-0.22,0.58s-0.36,0.23-0.64,0.23c-0.28,0-0.49-0.08-0.64-0.24s-0.21-0.35-0.21-0.58
		C571.65,374.78,571.72,374.58,571.86,374.42z"/>
	<path class="st6" d="M579.06,374.42c0.14-0.16,0.35-0.25,0.64-0.25c0.28,0,0.49,0.08,0.64,0.24s0.22,0.36,0.22,0.59
		c0,0.23-0.07,0.42-0.22,0.58s-0.36,0.23-0.64,0.23c-0.28,0-0.49-0.08-0.64-0.24s-0.21-0.35-0.21-0.58
		C578.85,374.78,578.92,374.58,579.06,374.42z"/>
	<path class="st6" d="M586.26,374.42c0.14-0.16,0.35-0.25,0.64-0.25c0.28,0,0.49,0.08,0.64,0.24s0.22,0.36,0.22,0.59
		c0,0.23-0.07,0.42-0.22,0.58s-0.36,0.23-0.64,0.23c-0.28,0-0.49-0.08-0.64-0.24s-0.21-0.35-0.21-0.58
		C586.05,374.78,586.12,374.58,586.26,374.42z"/>
</g>
<rect x="306.04" y="199.5" class="st24" width="6.55" height="10.38"/>
<g>
	<g>
		<line class="st2" x1="195.21" y1="273.66" x2="195.21" y2="274.66"/>
		<line class="st33" x1="195.21" y1="276.49" x2="195.21" y2="290.22"/>
		<line class="st2" x1="195.21" y1="291.14" x2="195.21" y2="292.14"/>
		<g>
			<path class="st1" d="M195.21,298.17c-1.05-2.84-2.85-6.36-4.76-8.55l4.76,1.72l4.75-1.72
				C198.06,291.81,196.26,295.33,195.21,298.17z"/>
		</g>
	</g>
</g>
<g>
	<g>
		<line class="st2" x1="385.71" y1="273.48" x2="385.71" y2="274.48"/>
		<line class="st33" x1="385.71" y1="276.31" x2="385.71" y2="290.04"/>
		<line class="st2" x1="385.71" y1="290.96" x2="385.71" y2="291.96"/>
		<g>
			<path class="st1" d="M385.71,297.99c-1.05-2.84-2.85-6.36-4.76-8.55l4.76,1.72l4.75-1.72
				C388.56,291.63,386.77,295.15,385.71,297.99z"/>
		</g>
	</g>
</g>
<g>
	<g>
		<line class="st2" x1="579.11" y1="273.48" x2="579.11" y2="274.48"/>
		<line class="st33" x1="579.11" y1="276.31" x2="579.11" y2="290.04"/>
		<line class="st2" x1="579.11" y1="290.96" x2="579.11" y2="291.96"/>
		<g>
			<path class="st1" d="M579.11,297.99c-1.05-2.84-2.85-6.36-4.76-8.55l4.76,1.72l4.75-1.72
				C581.97,291.63,580.17,295.15,579.11,297.99z"/>
		</g>
	</g>
</g>
<line class="st34" x1="390.86" y1="241.77" x2="195.21" y2="273.66"/>
<line class="st34" x1="430.87" y1="243" x2="385.71" y2="273.48"/>
<line class="st34" x1="471.27" y1="238.96" x2="579.11" y2="273.48"/>
<rect x="59.93" y="157.59" class="st35" width="53.27" height="13.13"/>
<g>
	<rect x="62.15" y="160.59" class="st21" width="47.51" height="7.64"/>
	<path class="st4" d="M68.72,167.04c-0.76,0-1.14-0.53-1.14-1.19v-2.73h-0.56v-0.5h0.56v-1.39h0.65v1.39h0.95v0.5h-0.95v2.71
		c0,0.41,0.19,0.65,0.61,0.65h0.34v0.56H68.72z"/>
	<path class="st4" d="M70.12,167.04v-0.56l2.48-3.31h-2.34v-0.58h3.09v0.55l-2.49,3.32h2.49v0.58H70.12z"/>
	<path class="st4" d="M76.15,167.04v-5.72l-1.2,1.06v-0.74l1.2-1.04h0.65v6.44H76.15z"/>
	<path class="st4" d="M81.88,167.04v-0.42c-0.36,0.36-0.69,0.48-1.28,0.48c-0.62,0-0.98-0.12-1.26-0.41
		c-0.22-0.22-0.33-0.55-0.33-0.91c0-0.78,0.54-1.29,1.54-1.29h1.34v-0.42c0-0.65-0.33-0.98-1.14-0.98c-0.57,0-0.86,0.14-1.12,0.51
		l-0.44-0.41c0.4-0.52,0.85-0.66,1.57-0.66c1.19,0,1.78,0.52,1.78,1.48v3.02H81.88z M81.88,164.98h-1.25c-0.67,0-1,0.27-1,0.79
		s0.32,0.76,1.02,0.76c0.38,0,0.71-0.03,1-0.3c0.15-0.14,0.23-0.4,0.23-0.77V164.98z"/>
	<path class="st4" d="M87.11,166.7c-0.24,0.24-0.63,0.39-1.09,0.39c-0.49,0-0.9-0.12-1.26-0.59v0.53h-0.65v-6.44h0.65v2.51
		c0.36-0.46,0.77-0.57,1.26-0.57c0.45,0,0.85,0.15,1.09,0.39c0.45,0.45,0.54,1.19,0.54,1.89C87.65,165.51,87.56,166.25,87.11,166.7z
		 M85.89,163.11c-0.97,0-1.12,0.83-1.12,1.7c0,0.87,0.15,1.7,1.12,1.7s1.11-0.83,1.11-1.7C87,163.94,86.86,163.11,85.89,163.11z"/>
	<path class="st4" d="M90.77,167.09c-1.12,0-1.97-0.76-1.97-2.28c0-1.52,0.85-2.28,1.97-2.28c0.62,0,1,0.16,1.47,0.66l-0.44,0.42
		c-0.33-0.37-0.6-0.5-1.02-0.5c-0.43,0-0.8,0.17-1.03,0.51c-0.21,0.29-0.29,0.63-0.29,1.19c0,0.56,0.08,0.9,0.29,1.19
		c0.24,0.33,0.6,0.51,1.03,0.51c0.43,0,0.69-0.14,1.02-0.51l0.44,0.42C91.78,166.93,91.39,167.09,90.77,167.09z"/>
	<path class="st4" d="M96.05,167.04v-0.53c-0.36,0.47-0.78,0.59-1.27,0.59c-0.45,0-0.85-0.15-1.09-0.39
		c-0.45-0.45-0.54-1.19-0.54-1.89c0-0.7,0.09-1.44,0.54-1.89c0.24-0.24,0.63-0.39,1.09-0.39c0.49,0,0.9,0.11,1.26,0.57v-2.51h0.65
		v6.44H96.05z M94.93,163.11c-0.97,0-1.12,0.83-1.12,1.7c0,0.87,0.15,1.7,1.12,1.7s1.11-0.83,1.11-1.7
		C96.04,163.94,95.9,163.11,94.93,163.11z"/>
	<path class="st4" d="M98.73,164.98c0,0.98,0.46,1.54,1.31,1.54c0.52,0,0.81-0.15,1.17-0.51l0.44,0.39
		c-0.45,0.45-0.87,0.69-1.63,0.69c-1.18,0-1.95-0.71-1.95-2.28c0-1.44,0.7-2.28,1.83-2.28c1.15,0,1.83,0.83,1.83,2.15v0.3H98.73z
		 M100.94,163.75c-0.17-0.41-0.57-0.67-1.04-0.67c-0.47,0-0.87,0.26-1.04,0.67c-0.1,0.24-0.12,0.38-0.14,0.74h2.35
		C101.06,164.13,101.04,164,100.94,163.75z"/>
	<path class="st4" d="M103.91,163.11v3.93h-0.65v-3.93h-0.57v-0.5h0.57v-0.84c0-0.66,0.37-1.19,1.13-1.19h0.47v0.56h-0.35
		c-0.42,0-0.6,0.24-0.6,0.65v0.82h0.95v0.5H103.91z"/>
</g>
<rect x="59.93" y="205.52" class="st20" width="53.27" height="13.13"/>
<g>
	<rect x="62.15" y="208.53" class="st21" width="47.51" height="7.64"/>
	<path class="st4" d="M70.53,214.97v-5.72l-1.2,1.06v-0.74l1.2-1.04h0.65v6.44H70.53z"/>
	<path class="st4" d="M73.53,214.97v-0.58l2.54-3.23c0.24-0.32,0.36-0.6,0.36-0.95c0-0.7-0.42-1.16-1.12-1.16
		c-0.6,0-1.12,0.33-1.12,1.17h-0.65c0-1.01,0.7-1.75,1.77-1.75c1.06,0,1.77,0.68,1.77,1.74c0,0.52-0.16,0.85-0.52,1.3l-2.25,2.88
		h2.77v0.58H73.53z"/>
	<path class="st4" d="M78.44,216.27v-2.1h0.8v1.38L78.44,216.27z"/>
	<path class="st4" d="M82.39,215.03c-1,0-1.76-0.71-1.76-1.77v-3c0-1.07,0.76-1.77,1.76-1.77s1.76,0.71,1.76,1.77v3
		C84.15,214.32,83.4,215.03,82.39,215.03z M83.5,210.28c0-0.71-0.4-1.23-1.11-1.23s-1.11,0.53-1.11,1.23v2.93
		c0,0.71,0.4,1.23,1.11,1.23s1.11-0.53,1.11-1.23V210.28z"/>
	<path class="st4" d="M87.11,215.03c-1,0-1.76-0.71-1.76-1.77v-3c0-1.07,0.76-1.77,1.76-1.77s1.76,0.71,1.76,1.77v3
		C88.88,214.32,88.12,215.03,87.11,215.03z M88.23,210.28c0-0.71-0.4-1.23-1.11-1.23S86,209.58,86,210.28v2.93
		c0,0.71,0.4,1.23,1.11,1.23s1.11-0.53,1.11-1.23V210.28z"/>
	<path class="st4" d="M91.84,215.03c-1,0-1.76-0.71-1.76-1.77v-3c0-1.07,0.76-1.77,1.76-1.77s1.76,0.71,1.76,1.77v3
		C93.6,214.32,92.84,215.03,91.84,215.03z M92.95,210.28c0-0.71-0.4-1.23-1.11-1.23s-1.11,0.53-1.11,1.23v2.93
		c0,0.71,0.4,1.23,1.11,1.23s1.11-0.53,1.11-1.23V210.28z"/>
	<path class="st4" d="M98.51,214.97c-0.76,0-1.14-0.53-1.14-1.19v-2.73h-0.56v-0.5h0.56v-1.39h0.65v1.39h0.95v0.5h-0.95v2.71
		c0,0.41,0.19,0.65,0.61,0.65h0.34v0.56H98.51z"/>
	<path class="st4" d="M99.91,214.97v-0.56l2.48-3.31h-2.34v-0.58h3.09v0.55l-2.49,3.32h2.49v0.58H99.91z"/>
</g>
<rect x="59.93" y="192.39" class="st35" width="53.27" height="13.13"/>
<g>
	<rect x="62.15" y="195.4" class="st21" width="47.51" height="7.64"/>
	<path class="st4" d="M70.97,201.84c-0.76,0-1.14-0.53-1.14-1.19v-2.73h-0.56v-0.5h0.56v-1.39h0.65v1.39h0.95v0.5h-0.95v2.71
		c0,0.41,0.19,0.65,0.61,0.65h0.34v0.56H70.97z"/>
	<path class="st4" d="M72.36,201.84v-0.56l2.48-3.31H72.5v-0.58h3.09v0.55l-2.49,3.32h2.49v0.58H72.36z"/>
	<path class="st4" d="M78.4,201.84v-5.72l-1.2,1.06v-0.74l1.2-1.04h0.65v6.44H78.4z"/>
	<path class="st4" d="M83.03,203.89c-0.67,0-1.04-0.17-1.51-0.6l0.43-0.42c0.33,0.29,0.55,0.44,1.07,0.44
		c0.86,0,1.22-0.61,1.22-1.37v-0.7c-0.36,0.46-0.77,0.58-1.25,0.58c-0.45,0-0.84-0.16-1.08-0.4c-0.44-0.44-0.54-1.13-0.54-1.85
		c0-0.72,0.1-1.41,0.54-1.86c0.24-0.24,0.63-0.39,1.09-0.39c0.49,0,0.89,0.11,1.25,0.58v-0.53h0.64v4.59
		C84.88,203.08,84.2,203.89,83.03,203.89z M83.13,197.92c-0.97,0-1.11,0.83-1.11,1.67c0,0.83,0.15,1.66,1.11,1.66
		c0.97,0,1.1-0.83,1.1-1.66C84.23,198.75,84.1,197.92,83.13,197.92z"/>
	<path class="st4" d="M89.36,201.84v-2.75c0-0.78-0.42-1.18-1.09-1.18c-0.67,0-1.11,0.41-1.11,1.18v2.75h-0.65v-6.44h0.65v2.48
		c0.33-0.37,0.75-0.54,1.25-0.54c1,0,1.6,0.64,1.6,1.65v2.86H89.36z"/>
	<path class="st4" d="M91.56,196.12v-0.73h0.73v0.73H91.56z M91.6,201.84v-4.45h0.65v4.45H91.6z"/>
	<path class="st4" d="M93.41,203.84h-0.47v-0.57h0.35c0.45,0,0.6-0.22,0.6-0.65v-5.2h0.65v5.23
		C94.54,203.33,94.18,203.84,93.41,203.84z M93.85,196.12v-0.73h0.73v0.73H93.85z"/>
	<path class="st4" d="M99.11,201.84l-1.41-2.28l-0.87,1v1.29h-0.65v-6.44h0.65v4.31l2.01-2.32h0.81l-1.51,1.7l1.77,2.75H99.11z"/>
	<path class="st4" d="M102.14,201.84c-0.78,0-1.13-0.51-1.13-1.19v-5.26h0.65v5.23c0,0.43,0.14,0.65,0.6,0.65h0.35v0.56H102.14z"/>
</g>
<g>
</g>
</svg>
