<?xml version="1.0" encoding="utf-8"?>
<!-- Generator: Adobe Illustrator 24.0.2, SVG Export Plug-In . SVG Version: 6.00 Build 0)  -->
<svg version="1.1" id="Layer_1" xmlns="http://www.w3.org/2000/svg" xmlns:xlink="http://www.w3.org/1999/xlink" x="0px" y="0px"
	 viewBox="0 0 766 371.5" style="enable-background:new 0 0 766 371.5;" xml:space="preserve">
<style type="text/css">
	.st0{fill:#507291;}
	.st1{fill:none;stroke:#507291;stroke-miterlimit:10;}
	.st2{fill:#676766;stroke:#686867;stroke-miterlimit:10;}
	.st3{fill:#FFFFFF;}
	.st4{fill:none;stroke:#686867;stroke-miterlimit:10;}
	.st5{fill:#686867;}
	.st6{fill:none;stroke:#C4C4C4;stroke-miterlimit:10;}
	.st7{fill:#507291;stroke:#507291;stroke-miterlimit:10;}
	.st8{fill:none;stroke:#507291;stroke-miterlimit:10;stroke-dasharray:1.9762,1.9762;}
	.st9{fill:#676766;}
	.st10{fill:none;stroke:#507291;stroke-miterlimit:10;stroke-dasharray:2.1929,2.1929;}
	.st11{fill:none;stroke:#507291;stroke-miterlimit:10;stroke-dasharray:1.9767,1.9767;}
	.st12{fill:#AB688B;}
	.st13{fill:#F6B5B5;}
	.st14{fill:#3E3E3F;}
	.st15{fill:#F9C8C9;}
	.st16{fill:#EB5858;}
	.st17{fill:#FAD7D7;}
	.st18{fill:#F29292;}
	.st19{fill:#EFB156;}
	.st20{fill:#EF7A18;}
	.st21{fill:#F3903A;}
	.st22{fill:#9E9FA0;}
	.st23{fill:#010202;}
	.st24{fill:none;}
	.st25{fill:#5B4A76;}
	.st26{fill:none;stroke:#5B4A76;stroke-miterlimit:10;}
	.st27{fill:none;stroke:#5B4A76;stroke-miterlimit:10;stroke-dasharray:2.0168,2.0168;}
	.st28{fill:none;stroke:#5B4A76;stroke-miterlimit:10;stroke-dasharray:1.9891,1.9891;}
	.st29{fill:none;stroke:#5B4A76;stroke-miterlimit:10;stroke-dasharray:1.9283,1.9283;}
	.st30{fill:none;stroke:#5B4A76;stroke-miterlimit:10;stroke-dasharray:1.9584,1.9584;}
	.st31{fill:none;stroke:#5B4A76;stroke-miterlimit:10;stroke-dasharray:1.9883,1.9883;}
	.st32{fill:none;stroke:#5B4A76;stroke-miterlimit:10;stroke-dasharray:2.0045,2.0045;}
	.st33{fill:none;stroke:#507291;stroke-miterlimit:10;stroke-dasharray:2.0202,2.0202;}
	.st34{fill:none;stroke:#507291;stroke-miterlimit:10;stroke-dasharray:1.9959,1.9959;}
</style>
<g>
	<rect x="530.76" y="38.56" class="st0" width="17.85" height="17.85"/>
</g>
<g>
	<line class="st0" x1="549.53" y1="47.49" x2="571.13" y2="47.49"/>
	<g>
		<line class="st1" x1="553.15" y1="47.49" x2="571.13" y2="47.49"/>
		<g>
			<path class="st0" d="M549.53,47.49c1.7,0.63,3.82,1.71,5.13,2.85l-1.03-2.85l1.03-2.85C553.35,45.78,551.23,46.86,549.53,47.49z"
				/>
		</g>
	</g>
</g>
<rect x="4.74" y="72.86" class="st2" width="46.13" height="17.77"/>
<g>
	<path class="st3" d="M13.64,86.31c-0.84,0-1.61-0.31-2.18-0.89c-0.8-0.8-0.8-1.64-0.8-3.45c0-1.81,0-2.65,0.8-3.45
		c0.58-0.58,1.34-0.89,2.18-0.89c1.54,0,2.67,0.94,2.96,2.54h-0.94c-0.23-1.04-0.96-1.73-2.03-1.73c-0.56,0-1.1,0.22-1.48,0.6
		c-0.54,0.55-0.6,1.14-0.6,2.93s0.06,2.38,0.6,2.93c0.37,0.38,0.91,0.6,1.48,0.6c1.07,0,1.82-0.68,2.05-1.73h0.91
		C16.33,85.38,15.16,86.31,13.64,86.31z"/>
	<path class="st3" d="M20.82,82.71v3.53h-0.91v-3.53l-2.54-5.01h0.98l2.01,4.09l1.99-4.09h0.98L20.82,82.71z"/>
	<path class="st3" d="M27.21,86.31c-0.84,0-1.61-0.31-2.18-0.89c-0.8-0.8-0.8-1.64-0.8-3.45c0-1.81,0-2.65,0.8-3.45
		c0.58-0.58,1.34-0.89,2.18-0.89c1.54,0,2.67,0.94,2.96,2.54h-0.94c-0.23-1.04-0.96-1.73-2.03-1.73c-0.56,0-1.1,0.22-1.48,0.6
		c-0.54,0.55-0.6,1.14-0.6,2.93s0.06,2.38,0.6,2.93c0.37,0.38,0.91,0.6,1.48,0.6c1.07,0,1.82-0.68,2.05-1.73h0.91
		C29.9,85.38,28.74,86.31,27.21,86.31z"/>
	<path class="st3" d="M32.19,86.24V77.7h0.91v7.72h4.37v0.82H32.19z"/>
	<path class="st3" d="M39.07,86.24V77.7h5.3v0.82h-4.39v3.01h3.74v0.82h-3.74v3.08h4.39v0.82H39.07z"/>
</g>
<g>
	<g>
		<line class="st4" x1="4.74" y1="90.48" x2="752.42" y2="91.18"/>
		<g>
			<path class="st5" d="M758.45,91.19c-2.84,1.05-6.37,2.85-8.55,4.75l1.72-4.75l-1.72-4.76C752.09,88.33,755.62,90.13,758.45,91.19
				z"/>
		</g>
	</g>
</g>
<line class="st6" x1="523.18" y1="8" x2="523.18" y2="91.16"/>
<line class="st6" x1="729.81" y1="8" x2="729.81" y2="91.16"/>
<g>
	<path class="st5" d="M622.6,101.77h0.97l0.08,0.94c0.09-0.13,0.2-0.25,0.31-0.37s0.23-0.21,0.35-0.29
		c0.19-0.13,0.39-0.22,0.61-0.29s0.45-0.1,0.7-0.11c0.33,0,0.63,0.05,0.91,0.14s0.5,0.24,0.69,0.44s0.34,0.45,0.44,0.76
		s0.16,0.67,0.16,1.09v4.03h-1.08v-4c0-0.28-0.03-0.52-0.09-0.71s-0.15-0.35-0.28-0.47c-0.13-0.12-0.28-0.21-0.45-0.26
		s-0.38-0.08-0.61-0.08c-0.2,0-0.38,0.03-0.56,0.08s-0.33,0.13-0.47,0.23c-0.12,0.09-0.23,0.19-0.33,0.3s-0.19,0.24-0.26,0.38v4.55
		h-1.08V101.77z"/>
</g>
<g>
	<line class="st0" x1="589.9" y1="47.49" x2="611.5" y2="47.49"/>
	<g>
		<line class="st1" x1="593.52" y1="47.49" x2="611.5" y2="47.49"/>
		<g>
			<path class="st0" d="M589.9,47.49c1.7,0.63,3.82,1.71,5.13,2.85L594,47.49l1.03-2.85C593.72,45.78,591.6,46.86,589.9,47.49z"/>
		</g>
	</g>
</g>
<g>
	<line class="st0" x1="638.27" y1="47.49" x2="659.87" y2="47.49"/>
	<g>
		<line class="st1" x1="641.89" y1="47.49" x2="659.87" y2="47.49"/>
		<g>
			<path class="st0" d="M638.27,47.49c1.7,0.63,3.82,1.71,5.13,2.85l-1.03-2.85l1.03-2.85C642.09,45.78,639.97,46.86,638.27,47.49z"
				/>
		</g>
	</g>
</g>
<g>
	<line class="st0" x1="678.64" y1="47.49" x2="700.24" y2="47.49"/>
	<g>
		<line class="st1" x1="682.26" y1="47.49" x2="700.24" y2="47.49"/>
		<g>
			<path class="st0" d="M678.64,47.49c1.7,0.63,3.82,1.71,5.13,2.85l-1.03-2.85l1.03-2.85C682.46,45.78,680.34,46.86,678.64,47.49z"
				/>
		</g>
	</g>
</g>
<g>
	<path class="st0" d="M620.75,47.82V46.5h1.32v1.32H620.75z"/>
	<path class="st0" d="M624.53,47.82V46.5h1.32v1.32H624.53z"/>
	<path class="st0" d="M628.31,47.82V46.5h1.32v1.32H628.31z"/>
</g>
<g>
	<line class="st0" x1="468.79" y1="47.49" x2="490.39" y2="47.49"/>
	<g>
		<line class="st1" x1="472.41" y1="47.49" x2="490.39" y2="47.49"/>
		<g>
			<path class="st0" d="M468.79,47.49c1.7,0.63,3.82,1.71,5.13,2.85l-1.03-2.85l1.03-2.85C472.61,45.78,470.49,46.86,468.79,47.49z"
				/>
		</g>
	</g>
</g>
<g>
	<rect x="490.39" y="38.56" class="st0" width="17.85" height="17.85"/>
</g>
<g>
	<line class="st0" x1="509.16" y1="47.49" x2="530.76" y2="47.49"/>
	<g>
		<line class="st1" x1="512.78" y1="47.49" x2="530.76" y2="47.49"/>
		<g>
			<path class="st0" d="M509.16,47.49c1.7,0.63,3.82,1.71,5.13,2.85l-1.03-2.85l1.03-2.85C512.98,45.78,510.86,46.86,509.16,47.49z"
				/>
		</g>
	</g>
</g>
<g>
	<rect x="700.24" y="38.56" class="st0" width="17.85" height="17.85"/>
</g>
<g>
	<line class="st0" x1="719.01" y1="47.49" x2="740.61" y2="47.49"/>
	<g>
		<line class="st1" x1="722.63" y1="47.49" x2="740.61" y2="47.49"/>
		<g>
			<path class="st0" d="M719.01,47.49c1.7,0.63,3.82,1.71,5.13,2.85l-1.03-2.85l1.03-2.85C722.83,45.78,720.71,46.86,719.01,47.49z"
				/>
		</g>
	</g>
</g>
<g>
	<line class="st0" x1="339.5" y1="47.49" x2="361.1" y2="47.49"/>
	<g>
		<line class="st1" x1="343.12" y1="47.49" x2="361.1" y2="47.49"/>
		<g>
			<path class="st0" d="M339.5,47.49c1.7,0.63,3.82,1.71,5.13,2.85l-1.03-2.85l1.03-2.85C343.31,45.78,341.2,46.86,339.5,47.49z"/>
		</g>
	</g>
</g>
<g>
	<rect x="361.1" y="38.56" class="st0" width="17.85" height="17.85"/>
</g>
<g>
	<line class="st0" x1="379.87" y1="47.49" x2="401.47" y2="47.49"/>
	<g>
		<line class="st1" x1="383.49" y1="47.49" x2="401.47" y2="47.49"/>
		<g>
			<path class="st0" d="M379.87,47.49c1.7,0.63,3.82,1.71,5.13,2.85l-1.03-2.85l1.03-2.85C383.68,45.78,381.57,46.86,379.87,47.49z"
				/>
		</g>
	</g>
</g>
<g>
	<line class="st0" x1="428.24" y1="47.49" x2="449.83" y2="47.49"/>
	<g>
		<line class="st1" x1="431.86" y1="47.49" x2="449.83" y2="47.49"/>
		<g>
			<path class="st0" d="M428.24,47.49c1.7,0.63,3.82,1.71,5.13,2.85l-1.03-2.85l1.03-2.85C432.05,45.78,429.94,46.86,428.24,47.49z"
				/>
		</g>
	</g>
</g>
<g>
	<path class="st0" d="M410.71,47.82V46.5h1.32v1.32H410.71z"/>
	<path class="st0" d="M414.49,47.82V46.5h1.32v1.32H414.49z"/>
	<path class="st0" d="M418.27,47.82V46.5h1.32v1.32H418.27z"/>
</g>
<g>
	<line class="st0" x1="299.13" y1="47.49" x2="320.73" y2="47.49"/>
	<g>
		<line class="st1" x1="302.75" y1="47.49" x2="320.73" y2="47.49"/>
		<g>
			<path class="st0" d="M299.13,47.49c1.7,0.63,3.82,1.71,5.13,2.85l-1.03-2.85l1.03-2.85C302.94,45.78,300.83,46.86,299.13,47.49z"
				/>
		</g>
	</g>
</g>
<g>
	<rect x="111.06" y="38.56" class="st0" width="17.85" height="17.85"/>
</g>
<g>
	<line class="st0" x1="129.83" y1="47.49" x2="151.43" y2="47.49"/>
	<g>
		<line class="st1" x1="133.46" y1="47.49" x2="151.43" y2="47.49"/>
		<g>
			<path class="st0" d="M129.83,47.49c1.7,0.63,3.82,1.71,5.13,2.85l-1.03-2.85l1.03-2.85C133.65,45.78,131.54,46.86,129.83,47.49z"
				/>
		</g>
	</g>
</g>
<g>
	<line class="st0" x1="170.2" y1="47.49" x2="191.8" y2="47.49"/>
	<g>
		<line class="st1" x1="173.82" y1="47.49" x2="191.8" y2="47.49"/>
		<g>
			<path class="st0" d="M170.2,47.49c1.7,0.63,3.82,1.71,5.13,2.85l-1.03-2.85l1.03-2.85C174.02,45.78,171.91,46.86,170.2,47.49z"/>
		</g>
	</g>
</g>
<g>
	<line class="st0" x1="218.57" y1="47.49" x2="240.17" y2="47.49"/>
	<g>
		<line class="st1" x1="222.19" y1="47.49" x2="240.17" y2="47.49"/>
		<g>
			<path class="st0" d="M218.57,47.49c1.7,0.63,3.82,1.71,5.13,2.85l-1.03-2.85l1.03-2.85C222.39,45.78,220.28,46.86,218.57,47.49z"
				/>
		</g>
	</g>
</g>
<g>
	<rect x="240.17" y="38.56" class="st0" width="17.85" height="17.85"/>
</g>
<g>
	<line class="st0" x1="258.94" y1="47.49" x2="280.54" y2="47.49"/>
	<g>
		<line class="st1" x1="262.56" y1="47.49" x2="280.54" y2="47.49"/>
		<g>
			<path class="st0" d="M258.94,47.49c1.7,0.63,3.82,1.71,5.13,2.85l-1.03-2.85l1.03-2.85C262.76,45.78,260.65,46.86,258.94,47.49z"
				/>
		</g>
	</g>
</g>
<g>
	<path class="st0" d="M200.57,47.49v-1.32h1.32v1.32H200.57z"/>
	<path class="st0" d="M204.35,47.49v-1.32h1.32v1.32H204.35z"/>
	<path class="st0" d="M208.13,47.49v-1.32h1.32v1.32H208.13z"/>
</g>
<g>
	<rect x="740.61" y="38.56" class="st0" width="17.85" height="17.85"/>
</g>
<line class="st6" x1="100.98" y1="7" x2="100.98" y2="90.16"/>
<g>
	<line class="st0" x1="90.18" y1="47.49" x2="111.78" y2="47.49"/>
	<g>
		<line class="st1" x1="93.8" y1="47.49" x2="111.78" y2="47.49"/>
		<g>
			<path class="st0" d="M90.18,47.49c1.7,0.63,3.82,1.71,5.13,2.85l-1.03-2.85l1.03-2.85C94,45.78,91.89,46.86,90.18,47.49z"/>
		</g>
	</g>
</g>
<g>
	<path class="st5" d="M292.94,101.77h0.97l0.08,0.94c0.09-0.13,0.2-0.25,0.31-0.37s0.23-0.21,0.35-0.29
		c0.19-0.13,0.39-0.22,0.61-0.29s0.45-0.1,0.7-0.11c0.33,0,0.63,0.05,0.91,0.14s0.5,0.24,0.69,0.44s0.34,0.45,0.44,0.76
		s0.16,0.67,0.16,1.09v4.03h-1.08v-4c0-0.28-0.03-0.52-0.09-0.71s-0.15-0.35-0.28-0.47c-0.13-0.12-0.28-0.21-0.45-0.26
		s-0.38-0.08-0.61-0.08c-0.2,0-0.38,0.03-0.56,0.08s-0.33,0.13-0.47,0.23c-0.12,0.09-0.23,0.19-0.33,0.3s-0.19,0.24-0.26,0.38v4.55
		h-1.08V101.77z"/>
	<path class="st5" d="M306.76,104.29v-0.88h6.36v0.88H306.76z"/>
	<path class="st5" d="M324.18,108.11v-7.15l-2.23,0.85v-0.99l3.23-1.24h0.09v8.53H324.18z"/>
</g>
<rect x="523.18" y="174.93" class="st1" width="201.32" height="87.57"/>
<rect x="523.18" y="155.49" class="st7" width="201.32" height="19.86"/>
<g>
	<g>
		<line class="st1" x1="499.24" y1="56.41" x2="499.24" y2="57.41"/>
		<line class="st8" x1="499.24" y1="59.39" x2="499.24" y2="208.59"/>
		<line class="st1" x1="499.24" y1="209.58" x2="499.24" y2="210.58"/>
	</g>
</g>
<g>
	<path class="st3" d="M535.06,169c-1.28,0-2.12-0.32-2.93-1.13l0.62-0.62c0.71,0.71,1.37,0.94,2.33,0.94c1.25,0,2.01-0.59,2.01-1.58
		c0-0.44-0.13-0.83-0.41-1.07c-0.28-0.24-0.49-0.31-1.12-0.41l-1-0.16c-0.67-0.11-1.2-0.32-1.57-0.65
		c-0.43-0.38-0.65-0.91-0.65-1.59c0-1.45,1.04-2.41,2.74-2.41c1.09,0,1.81,0.28,2.54,0.94l-0.59,0.59
		c-0.53-0.48-1.09-0.73-1.99-0.73c-1.14,0-1.8,0.64-1.8,1.58c0,0.42,0.12,0.75,0.38,0.98c0.26,0.23,0.71,0.4,1.15,0.47l0.94,0.14
		c0.8,0.12,1.2,0.29,1.56,0.6c0.47,0.4,0.72,0.98,0.72,1.69C538.01,168.08,536.83,169,535.06,169z"/>
	<path class="st3" d="M545.37,168.93l-4.53-6.85v6.85h-0.91v-8.54h0.86l4.53,6.82v-6.82h0.91v8.54H545.37z"/>
	<path class="st3" d="M553.68,168.93L553,167h-3.73l-0.68,1.93h-0.97l3.14-8.54h0.77l3.13,8.54H553.68z M551.15,161.7l-1.61,4.51
		h3.19L551.15,161.7z"/>
	<path class="st3" d="M559.21,165.42h-2.27v3.51h-0.91v-8.54h3.18c1.56,0,2.64,0.97,2.64,2.51S560.77,165.42,559.21,165.42z
		 M559.13,161.21h-2.18v3.39h2.18c1.07,0,1.81-0.58,1.81-1.7C560.94,161.77,560.2,161.21,559.13,161.21z"/>
	<path class="st3" d="M565.79,169c-1.28,0-2.12-0.32-2.93-1.13l0.62-0.62c0.71,0.71,1.37,0.94,2.33,0.94c1.25,0,2.01-0.59,2.01-1.58
		c0-0.44-0.13-0.83-0.41-1.07c-0.28-0.24-0.49-0.31-1.12-0.41l-1-0.16c-0.67-0.11-1.2-0.32-1.57-0.65
		c-0.43-0.38-0.65-0.91-0.65-1.59c0-1.45,1.04-2.41,2.73-2.41c1.09,0,1.81,0.28,2.54,0.94l-0.59,0.59
		c-0.53-0.48-1.09-0.73-1.99-0.73c-1.14,0-1.8,0.64-1.8,1.58c0,0.42,0.12,0.75,0.38,0.98c0.26,0.23,0.71,0.4,1.15,0.47l0.94,0.14
		c0.8,0.12,1.2,0.29,1.56,0.6c0.47,0.4,0.72,0.98,0.72,1.69C568.74,168.08,567.57,169,565.79,169z"/>
	<path class="st3" d="M575.62,168.93v-3.9h-4.05v3.9h-0.91v-8.54h0.91v3.83h4.05v-3.83h0.91v8.54H575.62z"/>
	<path class="st3" d="M583.85,168.12c-0.58,0.58-1.33,0.89-2.18,0.89s-1.61-0.31-2.18-0.89c-0.8-0.8-0.8-1.64-0.8-3.45
		c0-1.81,0-2.65,0.8-3.45c0.58-0.58,1.33-0.89,2.18-0.89s1.61,0.31,2.18,0.89c0.8,0.8,0.8,1.64,0.8,3.45
		C584.65,166.47,584.65,167.31,583.85,168.12z M583.14,161.75c-0.37-0.38-0.91-0.61-1.48-0.61s-1.1,0.23-1.47,0.61
		c-0.54,0.55-0.6,1.13-0.6,2.91s0.06,2.36,0.6,2.91c0.37,0.38,0.91,0.61,1.47,0.61s1.1-0.23,1.48-0.61c0.54-0.55,0.6-1.13,0.6-2.91
		S583.68,162.3,583.14,161.75z"/>
	<path class="st3" d="M589.07,161.21v7.72h-0.91v-7.72h-2.47v-0.82h5.85v0.82H589.07z"/>
	<path class="st3" d="M598.32,169c-1.28,0-2.12-0.32-2.93-1.13l0.62-0.62c0.71,0.71,1.37,0.94,2.33,0.94c1.25,0,2.01-0.59,2.01-1.58
		c0-0.44-0.13-0.83-0.41-1.07c-0.28-0.24-0.49-0.31-1.12-0.41l-1-0.16c-0.67-0.11-1.2-0.32-1.57-0.65
		c-0.43-0.38-0.65-0.91-0.65-1.59c0-1.45,1.04-2.41,2.74-2.41c1.09,0,1.81,0.28,2.54,0.94l-0.59,0.59
		c-0.53-0.48-1.09-0.73-1.99-0.73c-1.14,0-1.8,0.64-1.8,1.58c0,0.42,0.12,0.75,0.38,0.98c0.26,0.23,0.71,0.4,1.15,0.47l0.94,0.14
		c0.8,0.12,1.2,0.29,1.56,0.6c0.47,0.4,0.72,0.98,0.72,1.69C601.27,168.08,600.1,169,598.32,169z"/>
	<path class="st3" d="M603.18,168.93v-8.54h5.3v0.82h-4.39v3.01h3.74v0.82h-3.74v3.08h4.39v0.82H603.18z"/>
	<path class="st3" d="M610.38,168.93v-8.54h0.91v7.72h4.37v0.82H610.38z"/>
	<path class="st3" d="M617.26,168.93v-8.54h5.3v0.82h-4.39v3.01h3.74v0.82h-3.74v3.08h4.39v0.82H617.26z"/>
	<path class="st3" d="M627.12,169c-0.84,0-1.61-0.31-2.18-0.89c-0.8-0.8-0.8-1.64-0.8-3.45c0-1.81,0-2.65,0.8-3.45
		c0.58-0.58,1.34-0.89,2.18-0.89c1.54,0,2.67,0.94,2.96,2.54h-0.94c-0.23-1.04-0.96-1.73-2.03-1.73c-0.56,0-1.1,0.22-1.47,0.6
		c-0.54,0.55-0.6,1.14-0.6,2.93s0.06,2.38,0.6,2.93c0.37,0.38,0.91,0.6,1.47,0.6c1.07,0,1.82-0.68,2.05-1.73h0.91
		C629.81,168.07,628.64,169,627.12,169z"/>
	<path class="st3" d="M634.37,161.21v7.72h-0.91v-7.72h-2.47v-0.82h5.85v0.82H634.37z"/>
	<path class="st3" d="M638.44,168.93v-8.54h0.91v8.54H638.44z"/>
	<path class="st3" d="M646.67,168.12c-0.58,0.58-1.33,0.89-2.18,0.89s-1.61-0.31-2.18-0.89c-0.8-0.8-0.8-1.64-0.8-3.45
		c0-1.81,0-2.65,0.8-3.45c0.58-0.58,1.33-0.89,2.18-0.89s1.61,0.31,2.18,0.89c0.8,0.8,0.8,1.64,0.8,3.45
		C647.47,166.47,647.47,167.31,646.67,168.12z M645.96,161.75c-0.37-0.38-0.91-0.61-1.48-0.61c-0.56,0-1.1,0.23-1.47,0.61
		c-0.54,0.55-0.6,1.13-0.6,2.91s0.06,2.36,0.6,2.91c0.37,0.38,0.91,0.61,1.47,0.61c0.56,0,1.1-0.23,1.48-0.61
		c0.54-0.55,0.6-1.13,0.6-2.91S646.5,162.3,645.96,161.75z"/>
	<path class="st3" d="M655.07,168.93l-4.53-6.85v6.85h-0.91v-8.54h0.86l4.53,6.82v-6.82h0.91v8.54H655.07z"/>
</g>
<g>
	<path class="st9" d="M537.61,193.35l-0.68-1.93h-3.73l-0.68,1.93h-0.97l3.14-8.54h0.77l3.13,8.54H537.61z M535.08,186.12
		l-1.61,4.51h3.19L535.08,186.12z"/>
	<path class="st9" d="M544.66,193.42c-1,0-1.78-0.23-2.42-0.85l0.58-0.58c0.47,0.49,1.1,0.68,1.83,0.68c0.97,0,1.57-0.35,1.57-1.04
		c0-0.52-0.3-0.8-0.98-0.86l-0.97-0.08c-1.15-0.1-1.76-0.61-1.76-1.58c0-1.08,0.91-1.73,2.17-1.73c0.84,0,1.59,0.2,2.12,0.64
		l-0.56,0.56c-0.42-0.32-0.96-0.47-1.57-0.47c-0.86,0-1.32,0.37-1.32,0.97c0,0.5,0.29,0.8,1.03,0.86l0.95,0.08
		c1.03,0.1,1.74,0.49,1.74,1.6C547.05,192.76,546.08,193.42,544.66,193.42z"/>
	<path class="st9" d="M550.28,193.35c-1.01,0-1.51-0.71-1.51-1.58v-3.62h-0.74v-0.66h0.74v-1.85h0.86v1.85h1.26v0.66h-1.26v3.6
		c0,0.54,0.25,0.86,0.8,0.86h0.46v0.74H550.28z"/>
	<path class="st9" d="M555.86,193.35v-0.56c-0.48,0.48-0.91,0.64-1.7,0.64c-0.82,0-1.3-0.16-1.67-0.54
		c-0.29-0.29-0.44-0.73-0.44-1.2c0-1.03,0.72-1.7,2.04-1.7h1.78v-0.56c0-0.86-0.43-1.3-1.51-1.3c-0.76,0-1.14,0.18-1.49,0.67
		l-0.59-0.54c0.53-0.68,1.13-0.88,2.09-0.88c1.58,0,2.36,0.68,2.36,1.97v4.01H555.86z M555.86,190.63h-1.66
		c-0.89,0-1.32,0.36-1.32,1.04s0.42,1.01,1.36,1.01c0.5,0,0.95-0.04,1.32-0.4c0.2-0.19,0.3-0.53,0.3-1.02V190.63z"/>
	<path class="st9" d="M562.71,193.35l-1.87-3.02l-1.15,1.32v1.7h-0.86v-8.54h0.86v5.71l2.66-3.07h1.08l-2,2.25l2.35,3.65H562.71z"/>
	<path class="st9" d="M565.56,190.63c0,1.3,0.61,2.04,1.74,2.04c0.68,0,1.08-0.2,1.55-0.67l0.59,0.52c-0.6,0.6-1.15,0.91-2.16,0.91
		c-1.56,0-2.58-0.94-2.58-3.02c0-1.91,0.92-3.02,2.42-3.02c1.52,0,2.42,1.1,2.42,2.85v0.4H565.56z M568.5,188.99
		c-0.23-0.54-0.76-0.89-1.38-0.89c-0.62,0-1.15,0.35-1.38,0.89c-0.13,0.32-0.16,0.5-0.18,0.98h3.12
		C568.66,189.5,568.63,189.32,568.5,188.99z"/>
	<path class="st9" d="M576.23,193.42c-1,0-1.77-0.23-2.42-0.85l0.58-0.58c0.47,0.49,1.1,0.68,1.83,0.68c0.97,0,1.57-0.35,1.57-1.04
		c0-0.52-0.3-0.8-0.98-0.86l-0.97-0.08c-1.15-0.1-1.76-0.61-1.76-1.58c0-1.08,0.91-1.73,2.17-1.73c0.84,0,1.6,0.2,2.12,0.64
		l-0.56,0.56c-0.42-0.32-0.96-0.47-1.57-0.47c-0.86,0-1.32,0.37-1.32,0.97c0,0.5,0.29,0.8,1.03,0.86l0.95,0.08
		c1.03,0.1,1.74,0.49,1.74,1.6C578.63,192.76,577.66,193.42,576.23,193.42z"/>
	<path class="st9" d="M584.1,193.35v-3.63c0-1.04-0.56-1.57-1.45-1.57c-0.89,0-1.46,0.54-1.46,1.57v3.63h-0.86v-5.9h0.86v0.65
		c0.42-0.48,1-0.72,1.66-0.72c0.64,0,1.15,0.19,1.51,0.55c0.42,0.41,0.61,0.96,0.61,1.64v3.78H584.1z"/>
	<path class="st9" d="M590.41,193.35v-0.56c-0.48,0.48-0.91,0.64-1.7,0.64c-0.82,0-1.3-0.16-1.67-0.54
		c-0.29-0.29-0.44-0.73-0.44-1.2c0-1.03,0.72-1.7,2.04-1.7h1.78v-0.56c0-0.86-0.43-1.3-1.51-1.3c-0.76,0-1.14,0.18-1.49,0.67
		l-0.59-0.54c0.53-0.68,1.13-0.88,2.09-0.88c1.58,0,2.36,0.68,2.36,1.97v4.01H590.41z M590.41,190.63h-1.66
		c-0.89,0-1.32,0.36-1.32,1.04s0.42,1.01,1.36,1.01c0.5,0,0.95-0.04,1.32-0.4c0.2-0.19,0.3-0.53,0.3-1.02V190.63z"/>
	<path class="st9" d="M597.35,192.9c-0.31,0.31-0.84,0.52-1.44,0.52c-0.65,0-1.19-0.16-1.67-0.77v3.33h-0.86v-8.54h0.86v0.7
		c0.48-0.62,1.02-0.77,1.67-0.77c0.6,0,1.13,0.2,1.44,0.52c0.6,0.6,0.72,1.58,0.72,2.51C598.07,191.32,597.95,192.3,597.35,192.9z
		 M595.73,188.14c-1.28,0-1.49,1.1-1.49,2.25s0.2,2.25,1.49,2.25s1.47-1.1,1.47-2.25S597.01,188.14,595.73,188.14z"/>
	<path class="st9" d="M601.78,193.42c-1,0-1.77-0.23-2.42-0.85l0.58-0.58c0.47,0.49,1.1,0.68,1.83,0.68c0.97,0,1.57-0.35,1.57-1.04
		c0-0.52-0.3-0.8-0.98-0.86l-0.97-0.08c-1.15-0.1-1.76-0.61-1.76-1.58c0-1.08,0.91-1.73,2.17-1.73c0.84,0,1.6,0.2,2.12,0.64
		l-0.56,0.56c-0.42-0.32-0.96-0.47-1.57-0.47c-0.86,0-1.32,0.37-1.32,0.97c0,0.5,0.29,0.8,1.03,0.86l0.95,0.08
		c1.03,0.1,1.74,0.49,1.74,1.6C604.17,192.76,603.2,193.42,601.78,193.42z"/>
	<path class="st9" d="M609.65,193.35v-3.65c0-1.03-0.55-1.56-1.44-1.56s-1.48,0.54-1.48,1.56v3.65h-0.86v-8.54h0.86v3.29
		c0.43-0.49,1-0.72,1.66-0.72c1.33,0,2.12,0.85,2.12,2.18v3.79H609.65z"/>
	<path class="st9" d="M616.4,192.75c-0.41,0.41-0.97,0.67-1.69,0.67s-1.28-0.26-1.69-0.67c-0.6-0.61-0.72-1.44-0.72-2.35
		c0-0.91,0.12-1.74,0.72-2.35c0.41-0.41,0.97-0.67,1.69-0.67s1.28,0.26,1.69,0.67c0.6,0.61,0.72,1.44,0.72,2.35
		C617.12,191.31,617,192.14,616.4,192.75z M615.79,188.57c-0.28-0.28-0.66-0.43-1.08-0.43s-0.79,0.16-1.07,0.43
		c-0.43,0.43-0.48,1.16-0.48,1.82c0,0.66,0.05,1.39,0.48,1.82c0.28,0.28,0.65,0.43,1.07,0.43s0.8-0.16,1.08-0.43
		c0.43-0.43,0.47-1.16,0.47-1.82C616.26,189.74,616.22,189.01,615.79,188.57z"/>
	<path class="st9" d="M620.63,193.35c-1.01,0-1.51-0.71-1.51-1.58v-3.62h-0.74v-0.66h0.74v-1.85h0.86v1.85h1.26v0.66h-1.26v3.6
		c0,0.54,0.25,0.86,0.8,0.86h0.46v0.74H620.63z"/>
	<path class="st9" d="M625.9,185.77v-0.97h0.97v0.97H625.9z M625.94,193.35v-5.9h0.86v5.9H625.94z"/>
	<path class="st9" d="M630.84,193.42c-1,0-1.77-0.23-2.42-0.85l0.58-0.58c0.47,0.49,1.1,0.68,1.83,0.68c0.97,0,1.57-0.35,1.57-1.04
		c0-0.52-0.3-0.8-0.98-0.86l-0.97-0.08c-1.15-0.1-1.76-0.61-1.76-1.58c0-1.08,0.91-1.73,2.17-1.73c0.84,0,1.6,0.2,2.12,0.64
		l-0.56,0.56c-0.42-0.32-0.96-0.47-1.57-0.47c-0.86,0-1.32,0.37-1.32,0.97c0,0.5,0.29,0.8,1.03,0.86l0.95,0.08
		c1.03,0.1,1.74,0.49,1.74,1.6C633.24,192.76,632.27,193.42,630.84,193.42z"/>
	<path class="st9" d="M641.22,188.57c-0.32-0.32-0.56-0.43-1.02-0.43c-0.86,0-1.42,0.68-1.42,1.58v3.62h-0.86v-5.9h0.86v0.72
		c0.32-0.49,0.97-0.79,1.66-0.79c0.56,0,1,0.13,1.42,0.55L641.22,188.57z"/>
	<path class="st9" d="M646.2,193.35v-0.56c-0.48,0.48-0.91,0.64-1.7,0.64c-0.82,0-1.29-0.16-1.67-0.54
		c-0.29-0.29-0.44-0.73-0.44-1.2c0-1.03,0.72-1.7,2.04-1.7h1.78v-0.56c0-0.86-0.43-1.3-1.51-1.3c-0.76,0-1.14,0.18-1.49,0.67
		l-0.59-0.54c0.53-0.68,1.13-0.88,2.09-0.88c1.58,0,2.36,0.68,2.36,1.97v4.01H646.2z M646.2,190.63h-1.66
		c-0.89,0-1.32,0.36-1.32,1.04s0.42,1.01,1.36,1.01c0.5,0,0.95-0.04,1.32-0.4c0.2-0.19,0.3-0.53,0.3-1.02V190.63z"/>
	<path class="st9" d="M652.94,193.35v-3.63c0-1.04-0.56-1.57-1.45-1.57c-0.89,0-1.46,0.54-1.46,1.57v3.63h-0.86v-5.9h0.86v0.65
		c0.42-0.48,1-0.72,1.66-0.72c0.64,0,1.15,0.19,1.51,0.55c0.42,0.41,0.61,0.96,0.61,1.64v3.78H652.94z"/>
	<path class="st9" d="M659.43,193.35v-0.71c-0.48,0.62-1.03,0.78-1.68,0.78c-0.6,0-1.13-0.2-1.44-0.52c-0.6-0.6-0.72-1.58-0.72-2.51
		c0-0.92,0.12-1.91,0.72-2.51c0.31-0.31,0.84-0.52,1.44-0.52c0.65,0,1.19,0.14,1.67,0.76v-3.32h0.86v8.54H659.43z M657.95,188.14
		c-1.28,0-1.49,1.1-1.49,2.25s0.2,2.25,1.49,2.25s1.47-1.1,1.47-2.25S659.23,188.14,657.95,188.14z"/>
	<path class="st9" d="M666.24,192.75c-0.41,0.41-0.97,0.67-1.69,0.67s-1.28-0.26-1.69-0.67c-0.6-0.61-0.72-1.44-0.72-2.35
		c0-0.91,0.12-1.74,0.72-2.35c0.41-0.41,0.97-0.67,1.69-0.67s1.28,0.26,1.69,0.67c0.6,0.61,0.72,1.44,0.72,2.35
		C666.96,191.31,666.84,192.14,666.24,192.75z M665.63,188.57c-0.28-0.28-0.66-0.43-1.08-0.43s-0.79,0.16-1.07,0.43
		c-0.43,0.43-0.48,1.16-0.48,1.82c0,0.66,0.05,1.39,0.48,1.82c0.28,0.28,0.65,0.43,1.07,0.43s0.8-0.16,1.08-0.43
		c0.43-0.43,0.47-1.16,0.47-1.82C666.09,189.74,666.06,189.01,665.63,188.57z"/>
	<path class="st9" d="M676.39,193.35v-3.63c0-1.04-0.56-1.57-1.45-1.57c-0.86,0-1.47,0.54-1.47,1.48v3.73h-0.86v-3.63
		c0-1.04-0.56-1.57-1.45-1.57c-0.89,0-1.47,0.54-1.47,1.57v3.63h-0.86v-5.9h0.86v0.65c0.42-0.48,1.01-0.72,1.67-0.72
		c0.82,0,1.45,0.34,1.81,0.98c0.46-0.65,1.12-0.98,1.94-0.98c0.64,0,1.16,0.2,1.52,0.55c0.42,0.41,0.64,0.96,0.64,1.64v3.78H676.39z
		"/>
	<path class="st9" d="M680.83,193.35c-1.03,0-1.5-0.67-1.5-1.57v-6.97h0.86v6.93c0,0.58,0.19,0.86,0.79,0.86h0.47v0.74H680.83z"/>
	<path class="st9" d="M684.11,194.77c-0.12,0.32-0.25,0.54-0.42,0.7c-0.31,0.3-0.73,0.41-1.15,0.41h-0.37v-0.77h0.26
		c0.6,0,0.78-0.19,0.97-0.73l0.42-1.15l-2.12-5.78h0.94l1.62,4.74l1.61-4.74h0.94L684.11,194.77z"/>
	<path class="st9" d="M534.34,207.82c-1,0-1.77-0.23-2.42-0.85l0.58-0.58c0.47,0.49,1.1,0.68,1.83,0.68c0.97,0,1.57-0.35,1.57-1.04
		c0-0.52-0.3-0.8-0.98-0.86l-0.97-0.08c-1.15-0.1-1.76-0.61-1.76-1.58c0-1.08,0.91-1.73,2.17-1.73c0.84,0,1.6,0.2,2.12,0.64
		l-0.56,0.56c-0.42-0.32-0.96-0.47-1.57-0.47c-0.86,0-1.32,0.37-1.32,0.97c0,0.5,0.29,0.8,1.03,0.86l0.95,0.08
		c1.03,0.1,1.74,0.49,1.74,1.6C536.73,207.16,535.76,207.82,534.34,207.82z"/>
	<path class="st9" d="M538.97,205.03c0,1.3,0.61,2.04,1.74,2.04c0.68,0,1.08-0.2,1.55-0.67l0.59,0.52c-0.6,0.6-1.15,0.91-2.16,0.91
		c-1.56,0-2.58-0.94-2.58-3.02c0-1.91,0.92-3.02,2.42-3.02c1.52,0,2.42,1.1,2.42,2.85v0.4H538.97z M541.91,203.39
		c-0.23-0.54-0.76-0.89-1.38-0.89c-0.62,0-1.15,0.35-1.38,0.89c-0.13,0.32-0.16,0.5-0.18,0.98h3.12
		C542.06,203.9,542.04,203.72,541.91,203.39z"/>
	<path class="st9" d="M546.26,207.75c-1.03,0-1.5-0.67-1.5-1.57v-6.97h0.86v6.93c0,0.58,0.19,0.86,0.79,0.86h0.47v0.74H546.26z"/>
	<path class="st9" d="M548.59,205.03c0,1.3,0.61,2.04,1.74,2.04c0.68,0,1.08-0.2,1.55-0.67l0.59,0.52c-0.6,0.6-1.15,0.91-2.16,0.91
		c-1.56,0-2.58-0.94-2.58-3.02c0-1.91,0.92-3.02,2.42-3.02c1.52,0,2.42,1.1,2.42,2.85v0.4H548.59z M551.53,203.39
		c-0.23-0.54-0.76-0.89-1.38-0.89c-0.62,0-1.15,0.35-1.38,0.89c-0.13,0.32-0.16,0.5-0.18,0.98h3.12
		C551.69,203.9,551.66,203.72,551.53,203.39z"/>
	<path class="st9" d="M556.7,207.82c-1.49,0-2.61-1.01-2.61-3.02s1.13-3.02,2.61-3.02c0.82,0,1.33,0.22,1.94,0.88l-0.59,0.55
		c-0.44-0.49-0.79-0.66-1.36-0.66c-0.58,0-1.05,0.23-1.37,0.67c-0.28,0.38-0.38,0.84-0.38,1.58c0,0.74,0.11,1.2,0.38,1.58
		c0.31,0.44,0.79,0.67,1.37,0.67c0.56,0,0.91-0.18,1.36-0.67l0.59,0.56C558.04,207.6,557.52,207.82,556.7,207.82z"/>
	<path class="st9" d="M561.95,207.75c-1.01,0-1.51-0.71-1.51-1.58v-3.62h-0.74v-0.66h0.74v-1.85h0.86v1.85h1.26v0.66h-1.26v3.6
		c0,0.54,0.25,0.86,0.8,0.86h0.46v0.74H561.95z"/>
	<path class="st9" d="M564.72,205.03c0,1.3,0.61,2.04,1.74,2.04c0.68,0,1.08-0.2,1.55-0.67l0.59,0.52c-0.6,0.6-1.15,0.91-2.16,0.91
		c-1.56,0-2.58-0.94-2.58-3.02c0-1.91,0.92-3.02,2.42-3.02c1.52,0,2.42,1.1,2.42,2.85v0.4H564.72z M567.66,203.39
		c-0.23-0.54-0.76-0.89-1.38-0.89c-0.62,0-1.15,0.35-1.38,0.89c-0.13,0.32-0.16,0.5-0.18,0.98h3.12
		C567.81,203.9,567.79,203.72,567.66,203.39z"/>
	<path class="st9" d="M574.07,207.75v-0.71c-0.48,0.62-1.03,0.78-1.68,0.78c-0.6,0-1.13-0.2-1.44-0.52c-0.6-0.6-0.72-1.58-0.72-2.51
		c0-0.92,0.12-1.91,0.72-2.51c0.31-0.31,0.84-0.52,1.44-0.52c0.65,0,1.19,0.14,1.67,0.76v-3.32h0.86v8.54H574.07z M572.58,202.54
		c-1.28,0-1.49,1.1-1.49,2.25s0.2,2.25,1.49,2.25s1.47-1.1,1.47-2.25S573.86,202.54,572.58,202.54z"/>
	<path class="st9" d="M581.72,207.75c-1.01,0-1.51-0.71-1.51-1.58v-3.62h-0.74v-0.66h0.74v-1.85h0.86v1.85h1.26v0.66h-1.26v3.6
		c0,0.54,0.25,0.86,0.8,0.86h0.46v0.74H581.72z"/>
	<path class="st9" d="M587.75,207.15c-0.41,0.41-0.97,0.67-1.69,0.67s-1.28-0.26-1.69-0.67c-0.6-0.61-0.72-1.44-0.72-2.35
		c0-0.91,0.12-1.74,0.72-2.35c0.41-0.41,0.97-0.67,1.69-0.67s1.28,0.26,1.69,0.67c0.6,0.61,0.72,1.44,0.72,2.35
		C588.47,205.71,588.35,206.54,587.75,207.15z M587.13,202.97c-0.28-0.28-0.66-0.43-1.08-0.43s-0.79,0.16-1.07,0.43
		c-0.43,0.43-0.48,1.16-0.48,1.82c0,0.66,0.05,1.39,0.48,1.82c0.28,0.28,0.65,0.43,1.07,0.43s0.8-0.16,1.08-0.43
		c0.43-0.43,0.47-1.16,0.47-1.82C587.6,204.14,587.57,203.41,587.13,202.97z"/>
	<path class="st9" d="M595.16,207.82c-1,0-1.78-0.23-2.42-0.85l0.58-0.58c0.47,0.49,1.1,0.68,1.83,0.68c0.97,0,1.57-0.35,1.57-1.04
		c0-0.52-0.3-0.8-0.98-0.86l-0.97-0.08c-1.15-0.1-1.76-0.61-1.76-1.58c0-1.08,0.91-1.73,2.17-1.73c0.84,0,1.59,0.2,2.12,0.64
		l-0.56,0.56c-0.42-0.32-0.96-0.47-1.57-0.47c-0.86,0-1.32,0.37-1.32,0.97c0,0.5,0.29,0.8,1.03,0.86l0.95,0.08
		c1.03,0.1,1.74,0.49,1.74,1.6C597.56,207.16,596.59,207.82,595.16,207.82z"/>
	<path class="st9" d="M599.79,205.03c0,1.3,0.61,2.04,1.74,2.04c0.68,0,1.08-0.2,1.55-0.67l0.59,0.52c-0.6,0.6-1.15,0.91-2.16,0.91
		c-1.56,0-2.58-0.94-2.58-3.02c0-1.91,0.92-3.02,2.42-3.02c1.52,0,2.42,1.1,2.42,2.85v0.4H599.79z M602.73,203.39
		c-0.23-0.54-0.76-0.89-1.38-0.89c-0.62,0-1.15,0.35-1.38,0.89c-0.13,0.32-0.16,0.5-0.18,0.98h3.12
		C602.89,203.9,602.87,203.72,602.73,203.39z"/>
	<path class="st9" d="M608.91,202.97c-0.32-0.32-0.56-0.43-1.02-0.43c-0.86,0-1.42,0.68-1.42,1.58v3.62h-0.86v-5.9h0.86v0.72
		c0.32-0.49,0.97-0.79,1.66-0.79c0.56,0,1,0.13,1.42,0.55L608.91,202.97z"/>
	<path class="st9" d="M612.65,207.75h-0.77l-2.16-5.9h0.94l1.61,4.74l1.62-4.74h0.94L612.65,207.75z"/>
	<path class="st9" d="M616.45,205.03c0,1.3,0.61,2.04,1.74,2.04c0.68,0,1.08-0.2,1.55-0.67l0.59,0.52c-0.6,0.6-1.15,0.91-2.16,0.91
		c-1.56,0-2.58-0.94-2.58-3.02c0-1.91,0.92-3.02,2.42-3.02c1.52,0,2.42,1.1,2.42,2.85v0.4H616.45z M619.39,203.39
		c-0.23-0.54-0.76-0.89-1.38-0.89c-0.62,0-1.15,0.35-1.38,0.89c-0.13,0.32-0.16,0.5-0.18,0.98h3.12
		C619.54,203.9,619.52,203.72,619.39,203.39z"/>
	<path class="st9" d="M628.6,207.75v-0.56c-0.48,0.48-0.91,0.64-1.7,0.64c-0.82,0-1.29-0.16-1.67-0.54
		c-0.29-0.29-0.44-0.73-0.44-1.2c0-1.03,0.72-1.7,2.04-1.7h1.78v-0.56c0-0.86-0.43-1.3-1.51-1.3c-0.76,0-1.14,0.18-1.49,0.67
		l-0.59-0.54c0.53-0.68,1.13-0.88,2.09-0.88c1.58,0,2.36,0.68,2.36,1.97v4.01H628.6z M628.6,205.03h-1.66
		c-0.89,0-1.32,0.36-1.32,1.04s0.42,1.01,1.36,1.01c0.5,0,0.95-0.04,1.32-0.4c0.2-0.19,0.3-0.53,0.3-1.02V205.03z"/>
	<path class="st9" d="M633.43,207.82c-1,0-1.78-0.23-2.42-0.85l0.58-0.58c0.47,0.49,1.1,0.68,1.83,0.68c0.97,0,1.57-0.35,1.57-1.04
		c0-0.52-0.3-0.8-0.98-0.86l-0.97-0.08c-1.15-0.1-1.76-0.61-1.76-1.58c0-1.08,0.91-1.73,2.17-1.73c0.84,0,1.59,0.2,2.12,0.64
		l-0.56,0.56c-0.42-0.32-0.96-0.47-1.57-0.47c-0.86,0-1.32,0.37-1.32,0.97c0,0.5,0.29,0.8,1.03,0.86l0.95,0.08
		c1.03,0.1,1.74,0.49,1.74,1.6C635.83,207.16,634.86,207.82,633.43,207.82z"/>
	<path class="st9" d="M644.48,207.3c-0.31,0.31-0.84,0.52-1.44,0.52c-0.65,0-1.19-0.16-1.67-0.77v3.33h-0.86v-8.54h0.86v0.7
		c0.48-0.62,1.02-0.77,1.67-0.77c0.6,0,1.13,0.2,1.44,0.52c0.6,0.6,0.72,1.58,0.72,2.51C645.2,205.72,645.08,206.71,644.48,207.3z
		 M642.86,202.54c-1.28,0-1.49,1.1-1.49,2.25s0.2,2.25,1.49,2.25s1.48-1.1,1.48-2.25S644.14,202.54,642.86,202.54z"/>
	<path class="st9" d="M650.35,202.97c-0.32-0.32-0.56-0.43-1.02-0.43c-0.86,0-1.42,0.68-1.42,1.58v3.62h-0.86v-5.9h0.86v0.72
		c0.32-0.49,0.97-0.79,1.66-0.79c0.56,0,1,0.13,1.42,0.55L650.35,202.97z"/>
	<path class="st9" d="M655.48,207.15c-0.41,0.41-0.97,0.67-1.69,0.67s-1.28-0.26-1.69-0.67c-0.6-0.61-0.72-1.44-0.72-2.35
		c0-0.91,0.12-1.74,0.72-2.35c0.41-0.41,0.97-0.67,1.69-0.67s1.28,0.26,1.69,0.67c0.6,0.61,0.72,1.44,0.72,2.35
		C656.2,205.71,656.08,206.54,655.48,207.15z M654.87,202.97c-0.28-0.28-0.66-0.43-1.08-0.43s-0.79,0.16-1.07,0.43
		c-0.43,0.43-0.48,1.16-0.48,1.82c0,0.66,0.05,1.39,0.48,1.82c0.28,0.28,0.65,0.43,1.07,0.43s0.8-0.16,1.08-0.43
		c0.43-0.43,0.47-1.16,0.47-1.82C655.34,204.14,655.3,203.41,654.87,202.97z"/>
	<path class="st9" d="M662.02,207.3c-0.31,0.31-0.84,0.52-1.44,0.52c-0.65,0-1.19-0.16-1.67-0.78v0.71h-0.86v-8.54h0.86v3.32
		c0.48-0.61,1.02-0.76,1.67-0.76c0.6,0,1.13,0.2,1.44,0.52c0.6,0.6,0.72,1.58,0.72,2.51C662.74,205.72,662.62,206.71,662.02,207.3z
		 M660.4,202.54c-1.28,0-1.49,1.1-1.49,2.25s0.2,2.25,1.49,2.25s1.48-1.1,1.48-2.25S661.69,202.54,660.4,202.54z"/>
	<path class="st9" d="M667.94,207.75v-0.56c-0.48,0.48-0.91,0.64-1.7,0.64c-0.82,0-1.3-0.16-1.67-0.54
		c-0.29-0.29-0.44-0.73-0.44-1.2c0-1.03,0.72-1.7,2.04-1.7h1.78v-0.56c0-0.86-0.43-1.3-1.51-1.3c-0.76,0-1.14,0.18-1.49,0.67
		l-0.59-0.54c0.53-0.68,1.13-0.88,2.09-0.88c1.58,0,2.36,0.68,2.36,1.97v4.01H667.94z M667.94,205.03h-1.66
		c-0.89,0-1.32,0.36-1.32,1.04s0.42,1.01,1.36,1.01c0.5,0,0.95-0.04,1.32-0.4c0.2-0.19,0.3-0.53,0.3-1.02V205.03z"/>
	<path class="st9" d="M674.88,207.3c-0.31,0.31-0.84,0.52-1.44,0.52c-0.65,0-1.19-0.16-1.67-0.78v0.71h-0.86v-8.54h0.86v3.32
		c0.48-0.61,1.02-0.76,1.67-0.76c0.6,0,1.13,0.2,1.44,0.52c0.6,0.6,0.72,1.58,0.72,2.51C675.6,205.72,675.48,206.71,674.88,207.3z
		 M673.26,202.54c-1.28,0-1.49,1.1-1.49,2.25s0.2,2.25,1.49,2.25s1.47-1.1,1.47-2.25S674.54,202.54,673.26,202.54z"/>
	<path class="st9" d="M677.4,200.17v-0.97h0.97v0.97H677.4z M677.45,207.75v-5.9h0.86v5.9H677.45z"/>
	<path class="st9" d="M681.96,207.75c-1.03,0-1.5-0.67-1.5-1.57v-6.97h0.86v6.93c0,0.58,0.19,0.86,0.79,0.86h0.47v0.74H681.96z"/>
	<path class="st9" d="M684,200.17v-0.97h0.97v0.97H684z M684.05,207.75v-5.9h0.86v5.9H684.05z"/>
	<path class="st9" d="M688.94,207.82c-1,0-1.78-0.23-2.42-0.85l0.58-0.58c0.47,0.49,1.1,0.68,1.83,0.68c0.97,0,1.57-0.35,1.57-1.04
		c0-0.52-0.3-0.8-0.98-0.86l-0.97-0.08c-1.15-0.1-1.76-0.61-1.76-1.58c0-1.08,0.91-1.73,2.17-1.73c0.84,0,1.59,0.2,2.12,0.64
		l-0.56,0.56c-0.42-0.32-0.96-0.47-1.57-0.47c-0.86,0-1.32,0.37-1.32,0.97c0,0.5,0.29,0.8,1.03,0.86l0.95,0.08
		c1.03,0.1,1.74,0.49,1.74,1.6C691.34,207.16,690.37,207.82,688.94,207.82z"/>
	<path class="st9" d="M694.57,207.75c-1.01,0-1.51-0.71-1.51-1.58v-3.62h-0.74v-0.66h0.74v-1.85h0.86v1.85h1.26v0.66h-1.26v3.6
		c0,0.54,0.25,0.86,0.8,0.86h0.46v0.74H694.57z"/>
	<path class="st9" d="M696.85,200.17v-0.97h0.97v0.97H696.85z M696.9,207.75v-5.9h0.86v5.9H696.9z"/>
	<path class="st9" d="M702.22,207.82c-1.49,0-2.62-1.01-2.62-3.02s1.13-3.02,2.62-3.02c0.82,0,1.33,0.22,1.94,0.88l-0.59,0.55
		c-0.44-0.49-0.79-0.66-1.36-0.66c-0.58,0-1.06,0.23-1.37,0.67c-0.28,0.38-0.38,0.84-0.38,1.58c0,0.74,0.11,1.2,0.38,1.58
		c0.31,0.44,0.79,0.67,1.37,0.67c0.56,0,0.91-0.18,1.36-0.67l0.59,0.56C703.55,207.6,703.04,207.82,702.22,207.82z"/>
	<path class="st9" d="M536,222.15v-0.71c-0.48,0.62-1.03,0.78-1.68,0.78c-0.6,0-1.13-0.2-1.44-0.52c-0.6-0.6-0.72-1.58-0.72-2.51
		c0-0.92,0.12-1.91,0.72-2.51c0.31-0.31,0.84-0.52,1.44-0.52c0.65,0,1.19,0.14,1.67,0.76v-3.32h0.86v8.54H536z M534.52,216.94
		c-1.28,0-1.49,1.1-1.49,2.25s0.2,2.25,1.49,2.25s1.48-1.1,1.48-2.25S535.8,216.94,534.52,216.94z"/>
	<path class="st9" d="M538.97,214.57v-0.97h0.97v0.97H538.97z M539.02,222.15v-5.9h0.86v5.9H539.02z"/>
	<path class="st9" d="M543.91,222.22c-1,0-1.78-0.23-2.42-0.85l0.58-0.58c0.47,0.49,1.1,0.68,1.83,0.68c0.97,0,1.57-0.35,1.57-1.04
		c0-0.52-0.3-0.8-0.98-0.86l-0.97-0.08c-1.15-0.1-1.76-0.61-1.76-1.58c0-1.08,0.91-1.73,2.17-1.73c0.84,0,1.59,0.2,2.12,0.64
		l-0.56,0.56c-0.42-0.32-0.96-0.47-1.57-0.47c-0.86,0-1.32,0.37-1.32,0.97c0,0.5,0.29,0.8,1.03,0.86l0.95,0.08
		c1.03,0.1,1.74,0.49,1.74,1.59C546.31,221.56,545.34,222.22,543.91,222.22z"/>
	<path class="st9" d="M549.54,222.15c-1.01,0-1.51-0.71-1.51-1.58v-3.62h-0.74v-0.66h0.74v-1.85h0.86v1.85h1.26v0.66h-1.26v3.6
		c0,0.54,0.25,0.86,0.8,0.86h0.46v0.74H549.54z"/>
	<path class="st9" d="M555.17,217.37c-0.32-0.32-0.56-0.43-1.02-0.43c-0.86,0-1.42,0.68-1.42,1.58v3.62h-0.86v-5.9h0.86v0.72
		c0.32-0.49,0.97-0.79,1.66-0.79c0.56,0,1,0.13,1.42,0.55L555.17,217.37z"/>
	<path class="st9" d="M556.87,214.57v-0.97h0.97v0.97H556.87z M556.92,222.15v-5.9h0.86v5.9H556.92z"/>
	<path class="st9" d="M563.93,221.7c-0.31,0.31-0.84,0.52-1.44,0.52c-0.65,0-1.19-0.16-1.67-0.78v0.71h-0.86v-8.54h0.86v3.32
		c0.48-0.61,1.02-0.76,1.67-0.76c0.6,0,1.13,0.2,1.44,0.52c0.6,0.6,0.72,1.58,0.72,2.51C564.65,220.12,564.53,221.1,563.93,221.7z
		 M562.31,216.94c-1.28,0-1.49,1.1-1.49,2.25s0.2,2.25,1.49,2.25s1.48-1.1,1.48-2.25S563.59,216.94,562.31,216.94z"/>
	<path class="st9" d="M570.23,222.15v-0.66c-0.42,0.48-1.01,0.73-1.67,0.73c-0.63,0-1.16-0.19-1.52-0.55
		c-0.42-0.41-0.6-0.97-0.6-1.66v-3.77h0.86v3.63c0,1.04,0.55,1.57,1.44,1.57c0.89,0,1.47-0.54,1.47-1.57v-3.63h0.86v5.9H570.23z"/>
	<path class="st9" d="M574.9,222.15c-1.01,0-1.51-0.71-1.51-1.58v-3.62h-0.74v-0.66h0.74v-1.85h0.86v1.85h1.26v0.66h-1.26v3.6
		c0,0.54,0.25,0.86,0.8,0.86h0.46v0.74H574.9z"/>
	<path class="st9" d="M577.18,214.57v-0.97h0.97v0.97H577.18z M577.22,222.15v-5.9h0.86v5.9H577.22z"/>
	<path class="st9" d="M584.05,221.55c-0.41,0.41-0.97,0.67-1.69,0.67s-1.28-0.26-1.69-0.67c-0.6-0.61-0.72-1.44-0.72-2.35
		c0-0.91,0.12-1.74,0.72-2.35c0.41-0.41,0.97-0.67,1.69-0.67s1.28,0.26,1.69,0.67c0.6,0.61,0.72,1.44,0.72,2.35
		C584.77,220.11,584.65,220.94,584.05,221.55z M583.44,217.37c-0.28-0.28-0.66-0.43-1.08-0.43s-0.79,0.16-1.07,0.43
		c-0.43,0.43-0.48,1.16-0.48,1.82c0,0.66,0.05,1.39,0.48,1.82c0.28,0.28,0.65,0.43,1.07,0.43s0.8-0.16,1.08-0.43
		c0.43-0.43,0.47-1.16,0.47-1.82C583.91,218.54,583.87,217.81,583.44,217.37z"/>
	<path class="st9" d="M590.4,222.15v-3.63c0-1.04-0.56-1.57-1.45-1.57s-1.46,0.54-1.46,1.57v3.63h-0.86v-5.9h0.86v0.65
		c0.42-0.48,1-0.72,1.66-0.72c0.64,0,1.15,0.19,1.51,0.55c0.42,0.41,0.61,0.96,0.61,1.64v3.78H590.4z"/>
	<path class="st9" d="M597.41,216.94v5.21h-0.86v-5.21h-0.76v-0.66h0.76v-1.12c0-0.88,0.49-1.58,1.5-1.58h0.62v0.74h-0.47
		c-0.55,0-0.79,0.32-0.79,0.86v1.09h1.26v0.66H597.41z"/>
	<path class="st9" d="M603.68,221.55c-0.41,0.41-0.97,0.67-1.69,0.67s-1.28-0.26-1.69-0.67c-0.6-0.61-0.72-1.44-0.72-2.35
		c0-0.91,0.12-1.74,0.72-2.35c0.41-0.41,0.97-0.67,1.69-0.67s1.28,0.26,1.69,0.67c0.6,0.61,0.72,1.44,0.72,2.35
		C604.4,220.11,604.28,220.94,603.68,221.55z M603.07,217.37c-0.28-0.28-0.66-0.43-1.08-0.43s-0.79,0.16-1.07,0.43
		c-0.43,0.43-0.48,1.16-0.48,1.82c0,0.66,0.05,1.39,0.48,1.82c0.28,0.28,0.65,0.43,1.07,0.43s0.8-0.16,1.08-0.43
		c0.43-0.43,0.47-1.16,0.47-1.82C603.54,218.54,603.5,217.81,603.07,217.37z"/>
	<path class="st9" d="M609.55,217.37c-0.32-0.32-0.56-0.43-1.02-0.43c-0.86,0-1.42,0.68-1.42,1.58v3.62h-0.86v-5.9h0.86v0.72
		c0.32-0.49,0.97-0.79,1.66-0.79c0.56,0,1,0.13,1.42,0.55L609.55,217.37z"/>
	<path class="st9" d="M617.82,222.15v-0.71c-0.48,0.62-1.03,0.78-1.68,0.78c-0.6,0-1.13-0.2-1.44-0.52c-0.6-0.6-0.72-1.58-0.72-2.51
		c0-0.92,0.12-1.91,0.72-2.51c0.31-0.31,0.84-0.52,1.44-0.52c0.65,0,1.19,0.14,1.67,0.76v-3.32h0.86v8.54H617.82z M616.33,216.94
		c-1.28,0-1.49,1.1-1.49,2.25s0.2,2.25,1.49,2.25s1.47-1.1,1.47-2.25S617.61,216.94,616.33,216.94z"/>
	<path class="st9" d="M621.37,219.42c0,1.3,0.61,2.04,1.74,2.04c0.68,0,1.08-0.2,1.55-0.67l0.59,0.52c-0.6,0.6-1.15,0.91-2.16,0.91
		c-1.56,0-2.58-0.94-2.58-3.02c0-1.91,0.92-3.02,2.42-3.02c1.52,0,2.42,1.1,2.42,2.85v0.4H621.37z M624.31,217.79
		c-0.23-0.54-0.76-0.89-1.38-0.89c-0.62,0-1.15,0.35-1.38,0.89c-0.13,0.32-0.16,0.5-0.18,0.98h3.12
		C624.46,218.3,624.44,218.12,624.31,217.79z"/>
	<path class="st9" d="M628.67,222.15c-1.03,0-1.5-0.67-1.5-1.57v-6.97h0.86v6.93c0,0.58,0.19,0.86,0.79,0.86h0.47v0.74H628.67z"/>
	<path class="st9" d="M631,219.42c0,1.3,0.61,2.04,1.74,2.04c0.68,0,1.08-0.2,1.55-0.67l0.59,0.52c-0.6,0.6-1.15,0.91-2.16,0.91
		c-1.56,0-2.58-0.94-2.58-3.02c0-1.91,0.92-3.02,2.42-3.02c1.52,0,2.42,1.1,2.42,2.85v0.4H631z M633.93,217.79
		c-0.23-0.54-0.76-0.89-1.38-0.89c-0.62,0-1.15,0.35-1.38,0.89c-0.13,0.32-0.16,0.5-0.18,0.98h3.12
		C634.09,218.3,634.07,218.12,633.93,217.79z"/>
	<path class="st9" d="M638.71,224.86c-0.89,0-1.38-0.23-2-0.79l0.56-0.55c0.43,0.38,0.73,0.59,1.42,0.59c1.14,0,1.62-0.8,1.62-1.81
		v-0.92c-0.48,0.61-1.02,0.77-1.65,0.77c-0.6,0-1.12-0.22-1.43-0.53c-0.59-0.59-0.72-1.5-0.72-2.46c0-0.96,0.13-1.87,0.72-2.46
		c0.31-0.31,0.84-0.52,1.44-0.52c0.65,0,1.17,0.14,1.66,0.77v-0.7h0.85v6.08C641.17,223.79,640.26,224.86,638.71,224.86z
		 M638.84,216.94c-1.28,0-1.47,1.1-1.47,2.21s0.19,2.21,1.47,2.21s1.46-1.1,1.46-2.21S640.13,216.94,638.84,216.94z"/>
	<path class="st9" d="M646.68,222.15v-0.56c-0.48,0.48-0.91,0.64-1.7,0.64c-0.82,0-1.3-0.16-1.67-0.54
		c-0.29-0.29-0.44-0.73-0.44-1.2c0-1.03,0.72-1.7,2.04-1.7h1.78v-0.56c0-0.86-0.43-1.3-1.51-1.3c-0.76,0-1.14,0.18-1.49,0.67
		l-0.59-0.54c0.53-0.68,1.13-0.88,2.09-0.88c1.58,0,2.36,0.68,2.36,1.97v4.01H646.68z M646.68,219.42h-1.66
		c-0.89,0-1.32,0.36-1.32,1.04s0.42,1.01,1.36,1.01c0.5,0,0.95-0.04,1.32-0.4c0.2-0.19,0.3-0.53,0.3-1.02V219.42z"/>
	<path class="st9" d="M651.3,222.15c-1.01,0-1.51-0.71-1.51-1.58v-3.62h-0.74v-0.66h0.74v-1.85h0.86v1.85h1.26v0.66h-1.26v3.6
		c0,0.54,0.25,0.86,0.8,0.86h0.46v0.74H651.3z"/>
	<path class="st9" d="M654.07,219.42c0,1.3,0.61,2.04,1.74,2.04c0.68,0,1.08-0.2,1.55-0.67l0.59,0.52c-0.6,0.6-1.15,0.91-2.16,0.91
		c-1.56,0-2.58-0.94-2.58-3.02c0-1.91,0.92-3.02,2.42-3.02c1.52,0,2.42,1.1,2.42,2.85v0.4H654.07z M657.01,217.79
		c-0.23-0.54-0.76-0.89-1.38-0.89c-0.62,0-1.15,0.35-1.38,0.89c-0.13,0.32-0.16,0.5-0.18,0.98h3.12
		C657.17,218.3,657.14,218.12,657.01,217.79z"/>
	<path class="st9" d="M664.74,222.22c-1,0-1.78-0.23-2.42-0.85l0.58-0.58c0.47,0.49,1.1,0.68,1.83,0.68c0.97,0,1.57-0.35,1.57-1.04
		c0-0.52-0.3-0.8-0.98-0.86l-0.97-0.08c-1.15-0.1-1.76-0.61-1.76-1.58c0-1.08,0.91-1.73,2.17-1.73c0.84,0,1.59,0.2,2.12,0.64
		l-0.56,0.56c-0.42-0.32-0.96-0.47-1.57-0.47c-0.86,0-1.32,0.37-1.32,0.97c0,0.5,0.29,0.8,1.03,0.86l0.95,0.08
		c1.03,0.1,1.74,0.49,1.74,1.59C667.14,221.56,666.17,222.22,664.74,222.22z"/>
	<path class="st9" d="M669.37,219.42c0,1.3,0.61,2.04,1.74,2.04c0.68,0,1.08-0.2,1.55-0.67l0.59,0.52c-0.6,0.6-1.15,0.91-2.16,0.91
		c-1.56,0-2.58-0.94-2.58-3.02c0-1.91,0.92-3.02,2.42-3.02c1.52,0,2.42,1.1,2.42,2.85v0.4H669.37z M672.31,217.79
		c-0.23-0.54-0.76-0.89-1.38-0.89c-0.62,0-1.15,0.35-1.38,0.89c-0.13,0.32-0.16,0.5-0.18,0.98h3.12
		C672.46,218.3,672.44,218.12,672.31,217.79z"/>
	<path class="st9" d="M676.67,222.15c-1.03,0-1.5-0.67-1.5-1.57v-6.97h0.86v6.93c0,0.58,0.19,0.86,0.79,0.86h0.47v0.74H676.67z"/>
	<path class="st9" d="M678.99,219.42c0,1.3,0.61,2.04,1.74,2.04c0.68,0,1.08-0.2,1.55-0.67l0.59,0.52c-0.6,0.6-1.15,0.91-2.16,0.91
		c-1.56,0-2.58-0.94-2.58-3.02c0-1.91,0.92-3.02,2.42-3.02c1.52,0,2.42,1.1,2.42,2.85v0.4H678.99z M681.93,217.79
		c-0.23-0.54-0.76-0.89-1.38-0.89c-0.62,0-1.15,0.35-1.38,0.89c-0.13,0.32-0.16,0.5-0.18,0.98h3.12
		C682.09,218.3,682.06,218.12,681.93,217.79z"/>
	<path class="st9" d="M687.11,222.22c-1.49,0-2.62-1.01-2.62-3.02s1.13-3.02,2.62-3.02c0.82,0,1.33,0.22,1.94,0.88l-0.59,0.55
		c-0.44-0.49-0.79-0.66-1.36-0.66c-0.58,0-1.06,0.23-1.37,0.67c-0.28,0.38-0.38,0.84-0.38,1.58c0,0.74,0.11,1.2,0.38,1.58
		c0.31,0.44,0.79,0.67,1.37,0.67c0.56,0,0.91-0.18,1.36-0.67l0.59,0.56C688.44,222,687.92,222.22,687.11,222.22z"/>
	<path class="st9" d="M692.35,222.15c-1.01,0-1.51-0.71-1.51-1.58v-3.62h-0.74v-0.66h0.74v-1.85h0.86v1.85h1.26v0.66h-1.26v3.6
		c0,0.54,0.25,0.86,0.8,0.86h0.46v0.74H692.35z"/>
	<path class="st9" d="M694.63,214.57v-0.97h0.97v0.97H694.63z M694.68,222.15v-5.9h0.86v5.9H694.68z"/>
	<path class="st9" d="M701.5,221.55c-0.41,0.41-0.97,0.67-1.69,0.67s-1.28-0.26-1.69-0.67c-0.6-0.61-0.72-1.44-0.72-2.35
		c0-0.91,0.12-1.74,0.72-2.35c0.41-0.41,0.97-0.67,1.69-0.67s1.28,0.26,1.69,0.67c0.6,0.61,0.72,1.44,0.72,2.35
		C702.22,220.11,702.1,220.94,701.5,221.55z M700.89,217.37c-0.28-0.28-0.66-0.43-1.08-0.43s-0.79,0.16-1.07,0.43
		c-0.43,0.43-0.48,1.16-0.48,1.82c0,0.66,0.05,1.39,0.48,1.82c0.28,0.28,0.65,0.43,1.07,0.43s0.8-0.16,1.08-0.43
		c0.43-0.43,0.47-1.16,0.47-1.82C701.36,218.54,701.32,217.81,700.89,217.37z"/>
	<path class="st9" d="M707.85,222.15v-3.63c0-1.04-0.56-1.57-1.45-1.57c-0.89,0-1.46,0.54-1.46,1.57v3.63h-0.86v-5.9h0.86v0.65
		c0.42-0.48,1-0.72,1.66-0.72c0.64,0,1.15,0.19,1.51,0.55c0.42,0.41,0.61,0.96,0.61,1.64v3.78H707.85z"/>
	<path class="st9" d="M535.82,236.55v-0.56c-0.48,0.48-0.91,0.64-1.7,0.64c-0.82,0-1.29-0.16-1.67-0.54
		c-0.29-0.29-0.44-0.73-0.44-1.2c0-1.03,0.72-1.7,2.04-1.7h1.78v-0.56c0-0.86-0.43-1.3-1.51-1.3c-0.76,0-1.14,0.18-1.49,0.67
		l-0.59-0.54c0.53-0.68,1.13-0.88,2.09-0.88c1.58,0,2.36,0.68,2.36,1.97v4.01H535.82z M535.82,233.83h-1.66
		c-0.89,0-1.32,0.36-1.32,1.04s0.42,1.01,1.36,1.01c0.5,0,0.95-0.04,1.32-0.4c0.2-0.19,0.3-0.53,0.3-1.02V233.83z"/>
	<path class="st9" d="M540.44,236.55c-1.01,0-1.51-0.71-1.51-1.58v-3.62h-0.74v-0.66h0.74v-1.85h0.86v1.85h1.26v0.66h-1.26v3.6
		c0,0.54,0.25,0.86,0.8,0.86h0.46v0.74H540.44z"/>
	<path class="st9" d="M548.05,236.62c-1.49,0-2.62-1.01-2.62-3.02s1.13-3.02,2.62-3.02c0.82,0,1.33,0.22,1.94,0.88l-0.59,0.55
		c-0.44-0.49-0.79-0.66-1.36-0.66c-0.58,0-1.06,0.23-1.37,0.67c-0.28,0.38-0.38,0.84-0.38,1.58c0,0.74,0.11,1.2,0.38,1.58
		c0.31,0.44,0.79,0.67,1.37,0.67c0.56,0,0.91-0.18,1.36-0.67l0.59,0.56C549.38,236.4,548.87,236.62,548.05,236.62z"/>
	<path class="st9" d="M553.1,237.97c-0.12,0.32-0.25,0.54-0.42,0.7c-0.31,0.3-0.73,0.41-1.15,0.41h-0.37v-0.77h0.26
		c0.6,0,0.78-0.19,0.97-0.73l0.42-1.15l-2.12-5.78h0.94l1.62,4.74l1.61-4.74h0.94L553.1,237.97z"/>
	<path class="st9" d="M559.17,236.62c-1.49,0-2.61-1.01-2.61-3.02s1.13-3.02,2.61-3.02c0.82,0,1.33,0.22,1.94,0.88l-0.59,0.55
		c-0.44-0.49-0.79-0.66-1.36-0.66c-0.58,0-1.05,0.23-1.37,0.67c-0.28,0.38-0.38,0.84-0.38,1.58c0,0.74,0.11,1.2,0.38,1.58
		c0.31,0.44,0.79,0.67,1.37,0.67c0.56,0,0.91-0.18,1.36-0.67l0.59,0.56C560.51,236.4,559.99,236.62,559.17,236.62z"/>
	<path class="st9" d="M564.24,236.55c-1.03,0-1.5-0.67-1.5-1.57v-6.97h0.86v6.93c0,0.58,0.19,0.86,0.79,0.86h0.47v0.74H564.24z"/>
	<path class="st9" d="M566.57,233.83c0,1.3,0.61,2.04,1.74,2.04c0.68,0,1.08-0.2,1.55-0.67l0.59,0.52c-0.6,0.6-1.15,0.91-2.16,0.91
		c-1.56,0-2.58-0.94-2.58-3.02c0-1.91,0.92-3.02,2.42-3.02c1.52,0,2.42,1.1,2.42,2.85v0.4H566.57z M569.51,232.19
		c-0.23-0.54-0.76-0.89-1.38-0.89c-0.62,0-1.15,0.35-1.38,0.89c-0.13,0.32-0.16,0.5-0.18,0.98h3.12
		C569.66,232.7,569.64,232.52,569.51,232.19z"/>
	<path class="st9" d="M575.29,233.09c0-0.02,0.02-0.09,0.05-0.21s0.08-0.29,0.14-0.49c0.06-0.2,0.13-0.37,0.19-0.52
		c0.22-0.42,0.51-0.64,0.86-0.64c0.26,0,0.49,0.09,0.67,0.26c0.18,0.17,0.3,0.41,0.34,0.7c0.08-0.12,0.18-0.24,0.29-0.36
		c0.12-0.12,0.31-0.25,0.58-0.39c0.27-0.14,0.55-0.21,0.85-0.21c0.35,0,0.65,0.1,0.89,0.29c0.24,0.19,0.36,0.52,0.36,0.97
		c0,0.49-0.24,1.37-0.73,2.66c-0.14,0.43-0.22,0.73-0.22,0.9c0,0.23,0.09,0.35,0.26,0.35c0.45,0,0.82-0.5,1.12-1.49
		c0.02-0.09,0.05-0.15,0.07-0.17c0.02-0.02,0.07-0.03,0.14-0.03c0.12,0,0.18,0.04,0.18,0.12c0,0.02-0.02,0.1-0.05,0.22
		s-0.09,0.27-0.17,0.46c-0.08,0.19-0.18,0.37-0.29,0.54s-0.26,0.32-0.44,0.44c-0.18,0.12-0.37,0.19-0.58,0.19
		c-0.28,0-0.5-0.09-0.67-0.28s-0.25-0.42-0.25-0.69c0-0.17,0.06-0.43,0.19-0.76c0.46-1.32,0.7-2.2,0.7-2.64
		c0-0.53-0.18-0.79-0.55-0.79c-0.62,0-1.16,0.37-1.62,1.12c-0.14,0.21-0.26,0.52-0.36,0.92c-0.02,0.09-0.05,0.22-0.1,0.4
		c-0.04,0.18-0.08,0.31-0.1,0.39l-0.48,1.95c-0.08,0.26-0.22,0.39-0.43,0.39c-0.11,0-0.2-0.03-0.25-0.1
		c-0.06-0.07-0.08-0.14-0.08-0.22c0-0.04,0.01-0.09,0.04-0.16l0.9-3.6c0.06-0.22,0.08-0.42,0.08-0.61c0-0.32-0.1-0.47-0.31-0.47
		c-0.18,0-0.33,0.12-0.45,0.36c-0.12,0.24-0.25,0.59-0.37,1.06c-0.03,0.13-0.06,0.21-0.08,0.23c-0.02,0.03-0.07,0.04-0.15,0.04
		C575.35,233.21,575.29,233.17,575.29,233.09z"/>
	<path class="st9" d="M585.72,233.55c0-0.1,0.1-0.14,0.29-0.14c0.02,0,0.06,0,0.1,0.01s0.06,0.01,0.07,0.01h3.38v-3.4
		c0-0.01,0-0.03-0.01-0.07s-0.01-0.07-0.01-0.09c0-0.19,0.05-0.29,0.16-0.29c0.1,0,0.16,0.1,0.16,0.29v3.55h3.38
		c0.01,0,0.03,0,0.07-0.01s0.07-0.01,0.1-0.01c0.18,0,0.28,0.05,0.28,0.14s-0.1,0.14-0.29,0.14c-0.02,0-0.05,0-0.09-0.01
		c-0.04,0-0.06-0.01-0.07-0.01h-3.38v3.56c0,0.18-0.05,0.28-0.16,0.28c-0.1,0-0.16-0.1-0.16-0.29c0-0.02,0-0.05,0.01-0.09
		s0.01-0.06,0.01-0.07v-3.4h-3.38c-0.01,0-0.03,0-0.08,0.01c-0.04,0-0.08,0.01-0.1,0.01C585.81,233.69,585.72,233.64,585.72,233.55z
		"/>
	<path class="st9" d="M598.72,238.5c0.42,0,0.68-0.03,0.78-0.08s0.15-0.21,0.15-0.46v-5.62c0-0.26-0.05-0.43-0.15-0.5
		c-0.1-0.07-0.36-0.1-0.78-0.1v-0.37l1.73-0.13v0.79c0.48-0.53,1.04-0.79,1.67-0.79c0.68,0,1.27,0.26,1.77,0.79
		c0.5,0.53,0.75,1.17,0.75,1.92c0,0.76-0.26,1.4-0.79,1.93c-0.53,0.53-1.16,0.79-1.89,0.79c-0.4,0-0.73-0.1-1-0.31
		c-0.27-0.2-0.42-0.38-0.47-0.53v0.11v2.02c0,0.26,0.05,0.41,0.15,0.46s0.36,0.08,0.78,0.08v0.37c-0.84-0.02-1.29-0.04-1.35-0.04
		c-0.08,0-0.53,0.01-1.34,0.04V238.5z M600.48,235.18c0,0.12,0.01,0.2,0.02,0.25s0.06,0.13,0.14,0.26c0.32,0.49,0.74,0.73,1.25,0.73
		c0.45,0,0.85-0.23,1.2-0.7s0.52-1.05,0.52-1.76c0-0.67-0.16-1.24-0.47-1.7c-0.31-0.47-0.69-0.7-1.13-0.7
		c-0.31,0-0.6,0.08-0.87,0.25c-0.27,0.17-0.49,0.4-0.67,0.7V235.18z"/>
	<path class="st9" d="M605.41,236.55v-0.37c0.4,0,0.65-0.03,0.75-0.08c0.09-0.05,0.14-0.21,0.14-0.46v-3.22
		c0-0.3-0.05-0.48-0.15-0.56c-0.1-0.08-0.35-0.11-0.74-0.11v-0.37l1.66-0.13l0,1.32c0.11-0.34,0.29-0.65,0.52-0.92
		c0.24-0.27,0.55-0.4,0.94-0.4c0.25,0,0.46,0.07,0.62,0.22c0.16,0.14,0.25,0.32,0.25,0.52c0,0.18-0.05,0.31-0.16,0.4
		s-0.22,0.13-0.35,0.13c-0.14,0-0.26-0.05-0.36-0.14s-0.15-0.22-0.15-0.38c0-0.1,0.02-0.18,0.06-0.26c0.04-0.08,0.08-0.13,0.12-0.16
		c0.04-0.03,0.06-0.05,0.09-0.05c-0.02-0.01-0.06-0.01-0.13-0.01c-0.44,0-0.78,0.22-1.03,0.66s-0.37,0.97-0.37,1.6v1.85
		c0,0.23,0.05,0.38,0.14,0.46c0.09,0.07,0.34,0.11,0.74,0.11h0.24v0.37c-0.31-0.02-0.81-0.04-1.5-0.04c-0.09,0-0.22,0-0.37,0.01
		c-0.15,0-0.32,0.01-0.52,0.02C605.68,236.54,605.52,236.55,605.41,236.55z"/>
	<path class="st9" d="M610.06,233.91c0-0.75,0.24-1.4,0.73-1.93c0.49-0.54,1.08-0.8,1.77-0.8c0.72,0,1.26,0.23,1.63,0.68
		s0.56,1.01,0.56,1.66c0,0.13-0.02,0.2-0.05,0.23s-0.12,0.04-0.25,0.04h-3.38c0,0.81,0.12,1.41,0.36,1.79
		c0.33,0.53,0.78,0.8,1.35,0.8c0.08,0,0.17-0.01,0.26-0.02c0.09-0.02,0.24-0.06,0.43-0.13c0.2-0.07,0.38-0.19,0.55-0.37
		c0.17-0.18,0.3-0.42,0.4-0.7c0.03-0.11,0.08-0.17,0.17-0.17c0.11,0,0.17,0.05,0.17,0.14c0,0.07-0.04,0.19-0.12,0.34
		c-0.08,0.16-0.19,0.33-0.34,0.52c-0.15,0.19-0.36,0.35-0.65,0.49s-0.6,0.21-0.94,0.21c-0.71,0-1.32-0.27-1.85-0.8
		C610.32,235.35,610.06,234.69,610.06,233.91z M611.08,233.51h2.83c0-0.17-0.01-0.34-0.04-0.53c-0.03-0.19-0.08-0.41-0.17-0.67
		c-0.08-0.26-0.22-0.47-0.42-0.63s-0.44-0.25-0.72-0.25c-0.13,0-0.26,0.03-0.4,0.08s-0.29,0.15-0.46,0.28s-0.31,0.35-0.42,0.64
		C611.16,232.74,611.09,233.1,611.08,233.51z"/>
	<path class="st9" d="M615.44,236.39v-1.58c0-0.09,0-0.15,0.01-0.18s0.02-0.06,0.04-0.08c0.02-0.02,0.06-0.04,0.1-0.04
		c0.05,0,0.09,0.01,0.11,0.04c0.02,0.02,0.04,0.08,0.05,0.17c0.13,0.55,0.33,0.97,0.59,1.27c0.26,0.29,0.63,0.44,1.1,0.44
		c0.45,0,0.79-0.1,1.01-0.3c0.23-0.2,0.34-0.46,0.34-0.79c0-0.58-0.42-0.95-1.25-1.1c-0.48-0.1-0.82-0.18-1.02-0.24
		c-0.2-0.06-0.39-0.17-0.56-0.31c-0.34-0.28-0.52-0.62-0.52-1.02c0-0.4,0.15-0.75,0.46-1.04c0.3-0.29,0.79-0.44,1.46-0.44
		c0.45,0,0.82,0.11,1.13,0.34c0.09-0.07,0.16-0.14,0.2-0.19c0.11-0.1,0.2-0.14,0.26-0.14c0.07,0,0.12,0.02,0.13,0.06
		c0.01,0.04,0.02,0.12,0.02,0.23v1.21c0,0.09,0,0.15-0.01,0.18c0,0.03-0.02,0.06-0.05,0.08c-0.03,0.02-0.07,0.03-0.12,0.03
		c-0.1,0-0.15-0.04-0.16-0.11c-0.06-0.97-0.53-1.45-1.4-1.45c-0.47,0-0.81,0.09-1.03,0.27s-0.32,0.39-0.32,0.64
		c0,0.14,0.03,0.26,0.1,0.36c0.06,0.1,0.14,0.19,0.22,0.25c0.08,0.06,0.2,0.12,0.36,0.17c0.16,0.06,0.28,0.09,0.38,0.11
		c0.1,0.02,0.24,0.05,0.42,0.09c0.64,0.12,1.1,0.31,1.37,0.58c0.34,0.34,0.5,0.72,0.5,1.14c0,0.47-0.16,0.87-0.48,1.19
		c-0.32,0.32-0.8,0.48-1.45,0.48c-0.52,0-0.96-0.17-1.32-0.52c-0.05,0.05-0.09,0.09-0.13,0.13s-0.06,0.07-0.08,0.08
		s-0.02,0.03-0.02,0.04c0,0.01-0.01,0.02-0.02,0.02c-0.16,0.16-0.26,0.24-0.3,0.24c-0.06,0-0.09-0.02-0.11-0.06
		C615.45,236.58,615.44,236.5,615.44,236.39z"/>
	<path class="st9" d="M620.11,233.91c0-0.75,0.24-1.4,0.73-1.93c0.49-0.54,1.08-0.8,1.77-0.8c0.72,0,1.26,0.23,1.63,0.68
		s0.56,1.01,0.56,1.66c0,0.13-0.02,0.2-0.05,0.23s-0.12,0.04-0.25,0.04h-3.38c0,0.81,0.12,1.41,0.36,1.79
		c0.33,0.53,0.78,0.8,1.35,0.8c0.08,0,0.17-0.01,0.26-0.02c0.09-0.02,0.24-0.06,0.43-0.13c0.2-0.07,0.38-0.19,0.55-0.37
		c0.17-0.18,0.3-0.42,0.4-0.7c0.03-0.11,0.08-0.17,0.17-0.17c0.11,0,0.17,0.05,0.17,0.14c0,0.07-0.04,0.19-0.12,0.34
		c-0.08,0.16-0.19,0.33-0.34,0.52c-0.15,0.19-0.36,0.35-0.65,0.49s-0.6,0.21-0.94,0.21c-0.71,0-1.32-0.27-1.85-0.8
		C620.38,235.35,620.11,234.69,620.11,233.91z M621.13,233.51h2.83c0-0.17-0.01-0.34-0.04-0.53c-0.03-0.19-0.08-0.41-0.17-0.67
		c-0.08-0.26-0.22-0.47-0.42-0.63s-0.44-0.25-0.72-0.25c-0.13,0-0.26,0.03-0.4,0.08s-0.29,0.15-0.46,0.28s-0.31,0.35-0.42,0.64
		C621.21,232.74,621.15,233.1,621.13,233.51z"/>
	<path class="st9" d="M625.49,236.55v-0.37c0.4,0,0.65-0.03,0.75-0.08c0.09-0.05,0.14-0.21,0.14-0.46v-3.22
		c0-0.3-0.05-0.48-0.15-0.56c-0.1-0.08-0.35-0.11-0.74-0.11v-0.37l1.66-0.13l0,1.32c0.11-0.34,0.29-0.65,0.52-0.92
		c0.24-0.27,0.55-0.4,0.94-0.4c0.25,0,0.46,0.07,0.62,0.22c0.16,0.14,0.25,0.32,0.25,0.52c0,0.18-0.05,0.31-0.16,0.4
		s-0.22,0.13-0.35,0.13c-0.14,0-0.26-0.05-0.36-0.14s-0.15-0.22-0.15-0.38c0-0.1,0.02-0.18,0.06-0.26c0.04-0.08,0.08-0.13,0.12-0.16
		c0.04-0.03,0.06-0.05,0.09-0.05c-0.02-0.01-0.06-0.01-0.13-0.01c-0.44,0-0.78,0.22-1.03,0.66s-0.37,0.97-0.37,1.6v1.85
		c0,0.23,0.05,0.38,0.14,0.46c0.09,0.07,0.34,0.11,0.74,0.11h0.24v0.37c-0.31-0.02-0.81-0.04-1.5-0.04c-0.09,0-0.22,0-0.37,0.01
		c-0.15,0-0.32,0.01-0.52,0.02C625.75,236.54,625.6,236.55,625.49,236.55z"/>
	<path class="st9" d="M630.02,231.75v-0.37c0.36,0.02,0.75,0.04,1.16,0.04c0.15,0,0.59-0.01,1.31-0.04v0.37
		c-0.46,0-0.68,0.1-0.68,0.31c0,0.03,0.02,0.1,0.07,0.2l1.35,3.35l1.23-3.06c0.05-0.14,0.07-0.23,0.07-0.29
		c0-0.14-0.05-0.25-0.14-0.35c-0.09-0.1-0.24-0.15-0.44-0.16v-0.37c0.41,0.02,0.76,0.04,1.04,0.04c0.33,0,0.63-0.01,0.9-0.04v0.37
		c-0.24,0-0.44,0.06-0.61,0.17s-0.28,0.22-0.33,0.31s-0.11,0.21-0.16,0.36l-1.57,3.89c-0.06,0.14-0.15,0.2-0.25,0.2
		c-0.07,0-0.12-0.01-0.15-0.04c-0.03-0.03-0.06-0.09-0.1-0.19l-1.73-4.26c-0.08-0.2-0.17-0.32-0.27-0.37
		C630.61,231.77,630.38,231.75,630.02,231.75z"/>
	<path class="st9" d="M636.12,233.91c0-0.75,0.24-1.4,0.73-1.93c0.48-0.54,1.08-0.8,1.77-0.8c0.72,0,1.26,0.23,1.63,0.68
		s0.56,1.01,0.56,1.66c0,0.13-0.02,0.2-0.05,0.23s-0.12,0.04-0.25,0.04h-3.38c0,0.81,0.12,1.41,0.36,1.79
		c0.33,0.53,0.79,0.8,1.35,0.8c0.08,0,0.17-0.01,0.26-0.02c0.09-0.02,0.24-0.06,0.43-0.13c0.19-0.07,0.38-0.19,0.55-0.37
		c0.17-0.18,0.3-0.42,0.4-0.7c0.03-0.11,0.08-0.17,0.17-0.17c0.11,0,0.17,0.05,0.17,0.14c0,0.07-0.04,0.19-0.12,0.34
		c-0.08,0.16-0.19,0.33-0.34,0.52c-0.15,0.19-0.36,0.35-0.65,0.49s-0.6,0.21-0.94,0.21c-0.71,0-1.32-0.27-1.85-0.8
		C636.38,235.35,636.12,234.69,636.12,233.91z M637.14,233.51h2.83c0-0.17-0.01-0.34-0.04-0.53c-0.03-0.19-0.08-0.41-0.17-0.67
		c-0.08-0.26-0.22-0.47-0.42-0.63s-0.44-0.25-0.72-0.25c-0.13,0-0.26,0.03-0.4,0.08c-0.14,0.06-0.29,0.15-0.46,0.28
		c-0.17,0.13-0.31,0.35-0.42,0.64C637.22,232.74,637.16,233.1,637.14,233.51z"/>
	<path class="st9" d="M641.52,233.97c0-0.76,0.27-1.4,0.8-1.93c0.53-0.53,1.16-0.79,1.88-0.79c0.61,0,1.11,0.25,1.51,0.74v-2.59
		c0-0.3-0.05-0.48-0.15-0.56s-0.36-0.11-0.77-0.11v-0.37l1.73-0.13v7.28c0,0.3,0.05,0.48,0.15,0.56c0.1,0.08,0.36,0.11,0.77,0.11
		v0.37l-1.76,0.13v-0.79c-0.42,0.53-0.95,0.79-1.6,0.79c-0.69,0-1.29-0.26-1.79-0.79S641.52,234.72,641.52,233.97z M642.53,233.98
		c0,0.74,0.12,1.3,0.35,1.67c0.32,0.51,0.74,0.77,1.25,0.77c0.59,0,1.06-0.28,1.41-0.84c0.09-0.14,0.13-0.28,0.13-0.44v-2.46
		c0-0.16-0.04-0.31-0.13-0.44c-0.33-0.48-0.76-0.72-1.29-0.72c-0.56,0-1.01,0.26-1.35,0.77
		C642.65,232.66,642.53,233.23,642.53,233.98z"/>
	<path class="st9" d="M648.78,239.1c0-0.16,0.12-0.24,0.36-0.24h6.58c0.24,0,0.36,0.08,0.36,0.24s-0.11,0.24-0.34,0.24h-6.61
		C648.9,239.34,648.78,239.26,648.78,239.1z"/>
	<path class="st9" d="M658.28,235.88c-0.51-0.53-0.76-1.17-0.76-1.93s0.25-1.41,0.75-1.96c0.5-0.55,1.12-0.82,1.86-0.82
		c0.48,0,0.9,0.12,1.26,0.35c0.36,0.23,0.54,0.55,0.54,0.94c0,0.17-0.05,0.31-0.15,0.41c-0.1,0.1-0.23,0.15-0.38,0.15
		c-0.16,0-0.29-0.05-0.39-0.15s-0.15-0.23-0.15-0.39c0-0.07,0.01-0.14,0.04-0.21c0.02-0.07,0.08-0.14,0.16-0.21s0.2-0.12,0.35-0.13
		c-0.28-0.29-0.71-0.44-1.27-0.44c-0.41,0-0.78,0.19-1.11,0.57s-0.5,1.01-0.5,1.87c0,0.45,0.06,0.85,0.17,1.18s0.26,0.59,0.44,0.76
		c0.18,0.17,0.36,0.3,0.54,0.38c0.18,0.08,0.36,0.12,0.53,0.12c0.77,0,1.28-0.42,1.54-1.25c0.02-0.08,0.07-0.12,0.15-0.12
		c0.1,0,0.15,0.04,0.15,0.12c0,0.04-0.02,0.11-0.05,0.21c-0.03,0.1-0.09,0.23-0.19,0.39c-0.09,0.16-0.21,0.31-0.35,0.45
		c-0.14,0.14-0.33,0.26-0.56,0.36c-0.24,0.1-0.51,0.15-0.81,0.15C659.39,236.68,658.79,236.42,658.28,235.88z"/>
	<path class="st9" d="M662.66,238.04c0-0.17,0.05-0.3,0.15-0.38c0.1-0.09,0.22-0.13,0.35-0.13c0.14,0,0.26,0.05,0.36,0.14
		c0.1,0.09,0.14,0.21,0.14,0.37c0,0.3-0.16,0.46-0.47,0.5c0.15,0.14,0.34,0.22,0.56,0.22c0.24,0,0.46-0.09,0.65-0.26
		c0.19-0.18,0.32-0.35,0.4-0.52c0.07-0.17,0.17-0.41,0.3-0.71c0.11-0.25,0.22-0.49,0.31-0.73l-1.78-4.34
		c-0.08-0.19-0.18-0.31-0.3-0.35c-0.12-0.04-0.34-0.07-0.67-0.07v-0.37c0.36,0.02,0.75,0.04,1.16,0.04c0.25,0,0.68-0.01,1.31-0.04
		v0.37c-0.46,0-0.68,0.1-0.68,0.31c0,0.02,0.02,0.1,0.07,0.22l1.33,3.2l1.23-2.92c0.05-0.11,0.07-0.21,0.07-0.29
		c0-0.33-0.19-0.5-0.56-0.52v-0.37c0.53,0.02,0.88,0.04,1.04,0.04c0.33,0,0.63-0.01,0.9-0.04v0.37c-0.54,0-0.91,0.24-1.12,0.72
		l-2.11,5.13c-0.38,0.94-0.9,1.42-1.54,1.42c-0.3,0-0.56-0.09-0.78-0.28C662.77,238.54,662.66,238.31,662.66,238.04z"/>
	<path class="st9" d="M669.93,235.88c-0.51-0.53-0.76-1.17-0.76-1.93s0.25-1.41,0.75-1.96c0.5-0.55,1.12-0.82,1.86-0.82
		c0.48,0,0.9,0.12,1.26,0.35c0.36,0.23,0.54,0.55,0.54,0.94c0,0.17-0.05,0.31-0.15,0.41c-0.1,0.1-0.23,0.15-0.38,0.15
		c-0.16,0-0.29-0.05-0.39-0.15s-0.15-0.23-0.15-0.39c0-0.07,0.01-0.14,0.04-0.21c0.02-0.07,0.08-0.14,0.16-0.21s0.2-0.12,0.35-0.13
		c-0.28-0.29-0.71-0.44-1.27-0.44c-0.41,0-0.78,0.19-1.11,0.57s-0.5,1.01-0.5,1.87c0,0.45,0.06,0.85,0.17,1.18s0.26,0.59,0.44,0.76
		c0.18,0.17,0.36,0.3,0.54,0.38c0.18,0.08,0.36,0.12,0.53,0.12c0.77,0,1.28-0.42,1.54-1.25c0.02-0.08,0.07-0.12,0.15-0.12
		c0.1,0,0.15,0.04,0.15,0.12c0,0.04-0.02,0.11-0.05,0.21c-0.03,0.1-0.09,0.23-0.19,0.39c-0.09,0.16-0.21,0.31-0.35,0.45
		c-0.14,0.14-0.33,0.26-0.56,0.36c-0.24,0.1-0.51,0.15-0.81,0.15C671.04,236.68,670.44,236.42,669.93,235.88z"/>
	<path class="st9" d="M674.53,236.55v-0.37c0.4,0,0.65-0.03,0.75-0.08c0.1-0.05,0.14-0.21,0.14-0.46v-6.24
		c0-0.3-0.05-0.48-0.15-0.56s-0.35-0.11-0.74-0.11v-0.37l1.73-0.13v7.42c0,0.26,0.05,0.41,0.14,0.46c0.09,0.05,0.34,0.08,0.75,0.08
		v0.37c-0.09,0-0.24,0-0.44-0.01s-0.37-0.01-0.52-0.02c-0.15,0-0.26-0.01-0.35-0.01C675.74,236.51,675.31,236.52,674.53,236.55z"/>
	<path class="st9" d="M677.75,233.91c0-0.75,0.24-1.4,0.73-1.93c0.48-0.54,1.08-0.8,1.77-0.8c0.72,0,1.26,0.23,1.63,0.68
		s0.56,1.01,0.56,1.66c0,0.13-0.02,0.2-0.05,0.23s-0.12,0.04-0.25,0.04h-3.38c0,0.81,0.12,1.41,0.36,1.79
		c0.33,0.53,0.79,0.8,1.35,0.8c0.08,0,0.17-0.01,0.26-0.02c0.09-0.02,0.24-0.06,0.43-0.13c0.19-0.07,0.38-0.19,0.55-0.37
		c0.17-0.18,0.3-0.42,0.4-0.7c0.03-0.11,0.08-0.17,0.17-0.17c0.11,0,0.17,0.05,0.17,0.14c0,0.07-0.04,0.19-0.12,0.34
		c-0.08,0.16-0.19,0.33-0.34,0.52c-0.15,0.19-0.36,0.35-0.65,0.49s-0.6,0.21-0.94,0.21c-0.71,0-1.32-0.27-1.85-0.8
		C678.01,235.35,677.75,234.69,677.75,233.91z M678.77,233.51h2.83c0-0.17-0.01-0.34-0.04-0.53c-0.03-0.19-0.08-0.41-0.17-0.67
		c-0.08-0.26-0.22-0.47-0.42-0.63s-0.44-0.25-0.72-0.25c-0.13,0-0.26,0.03-0.4,0.08c-0.14,0.06-0.29,0.15-0.46,0.28
		c-0.17,0.13-0.31,0.35-0.42,0.64C678.85,232.74,678.78,233.1,678.77,233.51z"/>
	<path class="st9" d="M683.13,236.39v-1.58c0-0.09,0-0.15,0-0.18s0.02-0.06,0.04-0.08c0.02-0.02,0.06-0.04,0.1-0.04
		c0.05,0,0.09,0.01,0.11,0.04c0.02,0.02,0.04,0.08,0.05,0.17c0.13,0.55,0.33,0.97,0.59,1.27c0.26,0.29,0.63,0.44,1.1,0.44
		c0.45,0,0.79-0.1,1.01-0.3c0.23-0.2,0.34-0.46,0.34-0.79c0-0.58-0.42-0.95-1.25-1.1c-0.48-0.1-0.82-0.18-1.02-0.24
		c-0.2-0.06-0.39-0.17-0.56-0.31c-0.34-0.28-0.52-0.62-0.52-1.02c0-0.4,0.15-0.75,0.46-1.04c0.3-0.29,0.79-0.44,1.46-0.44
		c0.45,0,0.82,0.11,1.13,0.34c0.09-0.07,0.16-0.14,0.2-0.19c0.11-0.1,0.2-0.14,0.26-0.14c0.07,0,0.12,0.02,0.13,0.06
		c0.01,0.04,0.02,0.12,0.02,0.23v1.21c0,0.09,0,0.15-0.01,0.18c0,0.03-0.02,0.06-0.05,0.08c-0.03,0.02-0.07,0.03-0.12,0.03
		c-0.1,0-0.15-0.04-0.16-0.11c-0.06-0.97-0.53-1.45-1.4-1.45c-0.47,0-0.81,0.09-1.03,0.27s-0.32,0.39-0.32,0.64
		c0,0.14,0.03,0.26,0.1,0.36c0.06,0.1,0.14,0.19,0.22,0.25c0.08,0.06,0.2,0.12,0.36,0.17s0.28,0.09,0.38,0.11
		c0.1,0.02,0.24,0.05,0.42,0.09c0.64,0.12,1.1,0.31,1.37,0.58c0.34,0.34,0.5,0.72,0.5,1.14c0,0.47-0.16,0.87-0.48,1.19
		c-0.32,0.32-0.8,0.48-1.45,0.48c-0.52,0-0.96-0.17-1.32-0.52c-0.05,0.05-0.09,0.09-0.13,0.13s-0.06,0.07-0.08,0.08
		s-0.02,0.03-0.03,0.04s-0.01,0.02-0.02,0.02c-0.16,0.16-0.26,0.24-0.3,0.24c-0.06,0-0.09-0.02-0.11-0.06
		C683.14,236.58,683.13,236.5,683.13,236.39z"/>
	<path class="st9" d="M688.52,236.55v-1.13h1.13v1.13H688.52z"/>
</g>
<g>
	<g>
		<line class="st1" x1="501.44" y1="210.58" x2="502.44" y2="210.58"/>
		<line class="st10" x1="504.63" y1="210.58" x2="521.08" y2="210.58"/>
		<line class="st1" x1="522.18" y1="210.58" x2="523.18" y2="210.58"/>
	</g>
</g>
<rect x="42.98" y="172.24" class="st1" width="119" height="74.26"/>
<rect x="42.98" y="154.84" class="st7" width="119" height="17.77"/>
<g>
	<path class="st3" d="M54.87,168.36c-1.28,0-2.12-0.32-2.93-1.13l0.62-0.62c0.71,0.71,1.37,0.94,2.33,0.94
		c1.25,0,2.01-0.59,2.01-1.58c0-0.44-0.13-0.83-0.41-1.07c-0.28-0.24-0.49-0.31-1.12-0.41l-1-0.16c-0.67-0.11-1.2-0.32-1.57-0.65
		c-0.43-0.38-0.65-0.91-0.65-1.59c0-1.45,1.04-2.41,2.73-2.41c1.09,0,1.81,0.28,2.54,0.94l-0.59,0.59
		c-0.53-0.48-1.09-0.73-1.99-0.73c-1.14,0-1.8,0.64-1.8,1.58c0,0.42,0.12,0.75,0.38,0.98c0.26,0.23,0.71,0.4,1.15,0.47l0.94,0.14
		c0.8,0.12,1.2,0.29,1.56,0.6c0.47,0.4,0.72,0.98,0.72,1.69C57.82,167.43,56.64,168.36,54.87,168.36z"/>
	<path class="st3" d="M62.23,160.56v7.72h-0.91v-7.72h-2.47v-0.82h5.85v0.82H62.23z"/>
	<path class="st3" d="M70.56,168.29l-0.68-1.93h-3.73l-0.68,1.93h-0.97l3.14-8.54h0.77l3.13,8.54H70.56z M68.03,161.05l-1.61,4.51
		h3.19L68.03,161.05z"/>
	<path class="st3" d="M78.23,168.29l-2.6-4.55l-1.8,2.16v2.39h-0.91v-8.54h0.91v4.91l3.98-4.91h1.12l-2.69,3.3l3.07,5.24H78.23z"/>
	<path class="st3" d="M80.72,168.29v-8.54h5.3v0.82h-4.39v3.01h3.74v0.82h-3.74v3.08h4.39v0.82H80.72z"/>
	<path class="st3" d="M93.1,168.36c-1.28,0-2.12-0.32-2.93-1.13l0.62-0.62c0.71,0.71,1.37,0.94,2.33,0.94
		c1.25,0,2.01-0.59,2.01-1.58c0-0.44-0.13-0.83-0.41-1.07c-0.28-0.24-0.49-0.31-1.12-0.41l-1-0.16c-0.67-0.11-1.2-0.32-1.57-0.65
		c-0.43-0.38-0.65-0.91-0.65-1.59c0-1.45,1.04-2.41,2.73-2.41c1.09,0,1.81,0.28,2.54,0.94l-0.59,0.59
		c-0.53-0.48-1.09-0.73-1.99-0.73c-1.14,0-1.8,0.64-1.8,1.58c0,0.42,0.12,0.75,0.38,0.98c0.26,0.23,0.71,0.4,1.15,0.47l0.94,0.14
		c0.8,0.12,1.2,0.29,1.56,0.6c0.47,0.4,0.72,0.98,0.72,1.69C96.05,167.43,94.87,168.36,93.1,168.36z"/>
	<path class="st3" d="M103.4,168.29l-4.53-6.85v6.85h-0.91v-8.54h0.86l4.53,6.82v-6.82h0.91v8.54H103.4z"/>
	<path class="st3" d="M111.72,168.29l-0.68-1.93h-3.73l-0.68,1.93h-0.97l3.14-8.54h0.77l3.13,8.54H111.72z M109.19,161.05
		l-1.61,4.51h3.19L109.19,161.05z"/>
	<path class="st3" d="M117.25,164.77h-2.27v3.51h-0.91v-8.54h3.18c1.56,0,2.64,0.97,2.64,2.51S118.81,164.77,117.25,164.77z
		 M117.17,160.56h-2.18v3.39h2.18c1.07,0,1.81-0.58,1.81-1.7C118.98,161.13,118.24,160.56,117.17,160.56z"/>
	<path class="st3" d="M123.83,168.36c-1.28,0-2.12-0.32-2.93-1.13l0.62-0.62c0.71,0.71,1.37,0.94,2.33,0.94
		c1.25,0,2.01-0.59,2.01-1.58c0-0.44-0.13-0.83-0.41-1.07c-0.28-0.24-0.49-0.31-1.12-0.41l-1-0.16c-0.67-0.11-1.2-0.32-1.57-0.65
		c-0.43-0.38-0.65-0.91-0.65-1.59c0-1.45,1.04-2.41,2.73-2.41c1.09,0,1.81,0.28,2.54,0.94l-0.59,0.59
		c-0.53-0.48-1.09-0.73-1.99-0.73c-1.14,0-1.8,0.64-1.8,1.58c0,0.42,0.12,0.75,0.38,0.98c0.26,0.23,0.71,0.4,1.15,0.47l0.94,0.14
		c0.8,0.12,1.2,0.29,1.56,0.6c0.47,0.4,0.72,0.98,0.72,1.69C126.78,167.43,125.6,168.36,123.83,168.36z"/>
	<path class="st3" d="M133.66,168.29v-3.9h-4.05v3.9h-0.91v-8.54h0.91v3.83h4.05v-3.83h0.91v8.54H133.66z"/>
	<path class="st3" d="M141.89,167.47c-0.58,0.58-1.33,0.89-2.18,0.89c-0.85,0-1.61-0.31-2.18-0.89c-0.8-0.8-0.8-1.64-0.8-3.45
		c0-1.81,0-2.65,0.8-3.45c0.58-0.58,1.33-0.89,2.18-0.89c0.85,0,1.61,0.31,2.18,0.89c0.8,0.8,0.8,1.64,0.8,3.45
		C142.69,165.83,142.69,166.67,141.89,167.47z M141.18,161.1c-0.37-0.38-0.91-0.61-1.48-0.61c-0.56,0-1.1,0.23-1.47,0.61
		c-0.54,0.55-0.6,1.13-0.6,2.91s0.06,2.36,0.6,2.91c0.37,0.38,0.91,0.61,1.47,0.61c0.56,0,1.1-0.23,1.48-0.61
		c0.54-0.55,0.6-1.13,0.6-2.91S141.72,161.65,141.18,161.1z"/>
	<path class="st3" d="M147.11,160.56v7.72h-0.91v-7.72h-2.47v-0.82h5.85v0.82H147.11z"/>
</g>
<g>
	<g>
		<line class="st1" x1="119.99" y1="58.5" x2="119.99" y2="59.5"/>
		<line class="st11" x1="119.99" y1="61.48" x2="119.99" y2="147.46"/>
		<line class="st1" x1="119.99" y1="148.45" x2="119.99" y2="149.45"/>
		<g>
			<path class="st0" d="M119.99,155.49c-1.05-2.84-2.85-6.36-4.76-8.55l4.76,1.72l4.75-1.72
				C122.84,149.12,121.04,152.65,119.99,155.49z"/>
		</g>
	</g>
</g>
<circle id="XMLID_44_" class="st12" cx="65.69" cy="193.56" r="12.57"/>
<path id="XMLID_43_" class="st13" d="M73.01,200.88l-0.82-2.13c-0.2-0.53-0.64-0.93-1.18-1.1l-3.03-0.72v-1.89
	c-0.65,1-1.53,1.48-2.29,1.73c-0.75-0.25-1.64-0.72-2.29-1.72v2.41c0,0,0.46,0.91,2.29,0.91v2.51H73.01z"/>
<path id="XMLID_42_" class="st14" d="M67.98,196.93l1.14,0.27v-3.91c-0.13,0.13-0.29,0.23-0.5,0.26c-0.16,0.6-0.38,1.08-0.64,1.49
	V196.93z"/>
<path id="XMLID_41_" class="st15" d="M63.41,195.04v1.89l-3.03,0.72c-0.54,0.16-0.98,0.57-1.18,1.1l-0.82,2.13h7.31v-4.11
	C64.94,196.51,64.06,196.04,63.41,195.04z"/>
<path id="XMLID_40_" class="st15" d="M69.13,191.28L69.13,191.28c-0.35,0.1-2-0.33-2.06-3.71c-0.38-0.11-0.83-0.18-1.37-0.18
	c-2.97,0-3.2,1.82-3.2,3.88c0,3.84,1.83,5.03,3.2,5.49c1.05-0.35,2.37-1.14,2.93-3.22c0.76-0.13,0.95-1.05,0.95-1.76
	C69.58,191.53,69.35,191.28,69.13,191.28z"/>
<path id="XMLID_39_" class="st16" d="M72.19,198.74c-0.13-0.35-0.37-0.64-0.67-0.85c-0.56,1.05-3.06,1.84-6.05,1.84
	c-2.76,0-5.09-0.67-5.88-1.59c-0.16,0.17-0.3,0.37-0.38,0.6l-0.82,2.13h7.31h7.31L72.19,198.74z"/>
<path id="XMLID_38_" class="st17" d="M65.69,187.39c-2.97,0-3.2,1.82-3.2,3.88c0,3.84,1.83,5.03,3.2,5.49V187.39z"/>
<path id="XMLID_37_" class="st14" d="M65.01,191.73c0-0.25-0.2-0.46-0.46-0.46h0l0,0.01c0,0.25-0.2,0.46-0.46,0.46
	c0.01,0.25,0.21,0.44,0.46,0.44C64.8,192.19,65.01,191.99,65.01,191.73z"/>
<path id="XMLID_36_" class="st14" d="M67.29,191.73c0-0.25-0.2-0.46-0.46-0.46h0l0,0.01c0,0.25-0.2,0.46-0.46,0.46
	c0.01,0.25,0.21,0.44,0.46,0.44C67.09,192.19,67.29,191.99,67.29,191.73z"/>
<path id="XMLID_35_" class="st18" d="M64.55,194.25h2.29c0,0,0,0.69-1.14,0.69C64.55,194.93,64.55,194.25,64.55,194.25z"/>
<path id="XMLID_34_" class="st14" d="M61.58,189.91v10.51c0,0,2.51-1.37,2.51-5.55v-3.59c0-3.65,3.2-1.83,2.97-3.89
	C67.07,185.56,61.58,186.48,61.58,189.91z"/>
<path id="XMLID_33_" class="st14" d="M67.07,187.41c0.01,3.53,1.71,3.97,2.06,3.87c0-0.74,0.49-3.88-2.05-3.89L67.07,187.41z"/>
<path id="XMLID_32_" class="st3" d="M68.97,193.79l0.35,0.84c0.06,0.14,0.03,0.3-0.08,0.41c-0.15,0.15-0.39,0.15-0.53,0
	c-0.11-0.11-0.14-0.27-0.08-0.41L68.97,193.79z"/>
<circle id="XMLID_30_" class="st19" cx="65.69" cy="227.08" r="12.57"/>
<path id="XMLID_29_" class="st14" d="M72.11,231.88c-0.15-0.31-0.39-0.54-0.7-0.7l-3.4-0.93v-1.35l-1.16,0.93
	c-0.12,0.15-0.31,0.23-0.5,0.23h-0.66h-0.62c-0.19,0-0.39-0.08-0.5-0.23l-1.16-0.93v1.35l-3.4,0.93c-0.31,0.12-0.54,0.39-0.7,0.7
	l-0.93,2.51h7.31H73L72.11,231.88z"/>
<path id="XMLID_28_" class="st15" d="M69.6,225.3c0-0.27-0.23-0.5-0.46-0.5s-0.23,0.27-0.23,0.27v-0.27c0-2.05-0.23-3.44-3.21-3.44
	c-2.98,0-3.21,1.35-3.21,3.44v1.82l0.93,2.28l1.16,0.93c0.12,0.15,0.31,0.23,0.5,0.23h0.62h0.62c0.19,0,0.39-0.08,0.5-0.23
	l1.16-0.93l0.73-1.82C69.37,227.04,69.6,226.04,69.6,225.3z"/>
<path id="XMLID_27_" class="st17" d="M62.48,224.8v0.27c0,0,0-0.27-0.23-0.27s-0.43,0.23-0.43,0.5c0,0.73,0.23,1.74,0.85,1.78
	l0.73,1.82l1.16,0.93c0.12,0.15,0.31,0.23,0.5,0.23h0.62v-8.7C62.72,221.36,62.52,222.75,62.48,224.8z"/>
<path id="XMLID_26_" class="st20" d="M68.94,222.83c0.62-0.89,0.62-1.93,0.62-1.93h-3.87h-1.55c-0.58,0-1.16,0.23-1.55,0.7
	c-0.39,0.43-0.58,1.04-0.5,1.62l0.66,3.98l0.7,1.7l1.16,0.93c0.12,0.15,0.31,0.23,0.5,0.23h0.58h0.62c0.19,0,0.39-0.08,0.5-0.23
	l1.16-0.93l0.7-1.7l0.54-3.79c0.04-0.15,0-0.35-0.12-0.46C69.06,222.9,69.02,222.86,68.94,222.83z M68.67,224.8l-0.46,2.28l0,0
	l-0.7,1.35h-0.23l-0.31-0.89c-0.08-0.27-0.35-0.46-0.66-0.46h-0.62h-0.66c-0.31,0-0.54,0.19-0.66,0.46l-0.31,0.89h-0.23l-0.66-1.35
	l0,0l-0.46-2.28v-2.05c0,0,0,1.24,2.98,1.35c0.15,0,0.31,0,0.46,0c1.24,0,2.01-0.43,2.51-0.93V224.8z"/>
<path id="XMLID_25_" class="st21" d="M62.72,227.2l0.7,1.7l1.16,0.93c0.12,0.15,0.31,0.23,0.5,0.23h0.62v-2.98h-0.66
	c-0.31,0-0.54,0.19-0.66,0.46l-0.31,0.89h-0.23l-0.66-1.35l0,0l-0.46-2.28v-2.05c0,0,0,1.24,2.98,1.35v-3.21h-1.55
	c-0.58,0-1.16,0.23-1.55,0.7c-0.39,0.43-0.58,1.04-0.5,1.62"/>
<path id="XMLID_24_" class="st17" d="M64.8,227.78h1.82c0,0,0,0.7-0.93,0.7C64.77,228.47,64.8,227.78,64.8,227.78z"/>
<path id="XMLID_23_" class="st14" d="M67.2,224.26c-0.54,0-1.12,0.39-1.12,0.39h-0.39h-0.39c0,0-0.54-0.39-1.12-0.39
	c-0.93,0-1.47,0.39-1.47,0.39v0.19h0.19c0,1.12,0.39,1.66,1.35,1.66c0.97,0,1.16-0.93,1.16-1.2c0-0.27,0.27-0.31,0.27-0.31
	s0.27,0.04,0.27,0.31c0,0.27,0.19,1.2,1.16,1.2s1.35-0.54,1.35-1.66h0.19v-0.19C68.67,224.6,68.13,224.26,67.2,224.26z"/>
<path id="XMLID_22_" class="st22" d="M64.22,224.6c-0.5,0-0.93,0.23-0.93,0.73c0,0.19,0.08,0.39,0.19,0.54l1.2-1.2
	C64.53,224.64,64.38,224.6,64.22,224.6z"/>
<path id="XMLID_3_" class="st22" d="M67.2,224.6c-0.5,0-0.93,0.23-0.93,0.73c0,0.19,0.08,0.39,0.19,0.54l1.2-1.2
	C67.55,224.64,67.36,224.6,67.2,224.6z"/>
<rect x="89.71" y="185.63" class="st23" width="53.27" height="13.13"/>
<g>
	<rect x="91.93" y="188.63" class="st24" width="47.51" height="7.64"/>
	<path class="st3" d="M100.31,195.08v-5.72l-1.2,1.06v-0.74l1.2-1.04h0.65v6.44H100.31z"/>
	<path class="st3" d="M103.31,195.08v-0.58l2.54-3.23c0.24-0.32,0.36-0.6,0.36-0.95c0-0.7-0.42-1.16-1.12-1.16
		c-0.6,0-1.12,0.33-1.12,1.17h-0.65c0-1.01,0.7-1.75,1.77-1.75c1.06,0,1.77,0.68,1.77,1.74c0,0.52-0.16,0.85-0.52,1.3l-2.25,2.88
		h2.77v0.58H103.31z"/>
	<path class="st3" d="M108.22,196.38v-2.1h0.8v1.38L108.22,196.38z"/>
	<path class="st3" d="M112.17,195.13c-1,0-1.76-0.71-1.76-1.77v-3c0-1.07,0.76-1.77,1.76-1.77s1.76,0.71,1.76,1.77v3
		C113.94,194.42,113.18,195.13,112.17,195.13z M113.28,190.39c0-0.71-0.4-1.23-1.11-1.23s-1.11,0.53-1.11,1.23v2.93
		c0,0.71,0.4,1.23,1.11,1.23s1.11-0.53,1.11-1.23V190.39z"/>
	<path class="st3" d="M116.89,195.13c-1,0-1.76-0.71-1.76-1.77v-3c0-1.07,0.76-1.77,1.76-1.77s1.76,0.71,1.76,1.77v3
		C118.66,194.42,117.9,195.13,116.89,195.13z M118.01,190.39c0-0.71-0.4-1.23-1.11-1.23s-1.11,0.53-1.11,1.23v2.93
		c0,0.71,0.4,1.23,1.11,1.23s1.11-0.53,1.11-1.23V190.39z"/>
	<path class="st3" d="M121.62,195.13c-1,0-1.76-0.71-1.76-1.77v-3c0-1.07,0.76-1.77,1.76-1.77s1.76,0.71,1.76,1.77v3
		C123.38,194.42,122.62,195.13,121.62,195.13z M122.73,190.39c0-0.71-0.4-1.23-1.11-1.23s-1.11,0.53-1.11,1.23v2.93
		c0,0.71,0.4,1.23,1.11,1.23s1.11-0.53,1.11-1.23V190.39z"/>
	<path class="st3" d="M128.29,195.08c-0.76,0-1.14-0.53-1.14-1.19v-2.73h-0.56v-0.5h0.56v-1.39h0.65v1.39h0.95v0.5h-0.95v2.71
		c0,0.41,0.19,0.65,0.61,0.65h0.34v0.56H128.29z"/>
	<path class="st3" d="M129.69,195.08v-0.56l2.48-3.31h-2.34v-0.58h3.09v0.55l-2.49,3.32h2.49v0.58H129.69z"/>
</g>
<rect x="89.71" y="220.52" class="st23" width="53.27" height="13.13"/>
<g>
	<rect x="91.93" y="223.52" class="st24" width="47.51" height="7.64"/>
	<path class="st3" d="M100.25,230.03c-1.01,0-1.84-0.53-1.89-1.7h0.65c0.05,0.81,0.62,1.12,1.24,1.12c0.7,0,1.24-0.46,1.24-1.25
		c0-0.78-0.39-1.25-1.27-1.25h-0.14v-0.57h0.14c0.79,0,1.15-0.44,1.15-1.17c0-0.77-0.5-1.18-1.12-1.18c-0.68,0-1.09,0.42-1.16,1.08
		h-0.65c0.07-1.04,0.83-1.66,1.81-1.66c1.05,0,1.77,0.7,1.77,1.75c0,0.68-0.29,1.17-0.87,1.43c0.65,0.24,0.99,0.77,0.99,1.57
		C102.14,229.39,101.29,230.03,100.25,230.03z"/>
	<path class="st3" d="M105.06,230.02c-1,0-1.76-0.71-1.76-1.77v-3c0-1.07,0.76-1.77,1.76-1.77s1.76,0.71,1.76,1.77v3
		C106.82,229.31,106.06,230.02,105.06,230.02z M106.17,225.28c0-0.71-0.4-1.23-1.11-1.23s-1.11,0.53-1.11,1.23v2.93
		c0,0.71,0.4,1.23,1.11,1.23s1.11-0.53,1.11-1.23V225.28z"/>
	<path class="st3" d="M108.22,231.27v-2.1h0.8v1.38L108.22,231.27z"/>
	<path class="st3" d="M112.17,230.02c-1,0-1.76-0.71-1.76-1.77v-3c0-1.07,0.76-1.77,1.76-1.77s1.76,0.71,1.76,1.77v3
		C113.94,229.31,113.18,230.02,112.17,230.02z M113.28,225.28c0-0.71-0.4-1.23-1.11-1.23s-1.11,0.53-1.11,1.23v2.93
		c0,0.71,0.4,1.23,1.11,1.23s1.11-0.53,1.11-1.23V225.28z"/>
	<path class="st3" d="M116.89,230.02c-1,0-1.76-0.71-1.76-1.77v-3c0-1.07,0.76-1.77,1.76-1.77s1.76,0.71,1.76,1.77v3
		C118.66,229.31,117.9,230.02,116.89,230.02z M118.01,225.28c0-0.71-0.4-1.23-1.11-1.23s-1.11,0.53-1.11,1.23v2.93
		c0,0.71,0.4,1.23,1.11,1.23s1.11-0.53,1.11-1.23V225.28z"/>
	<path class="st3" d="M121.62,230.02c-1,0-1.76-0.71-1.76-1.77v-3c0-1.07,0.76-1.77,1.76-1.77s1.76,0.71,1.76,1.77v3
		C123.38,229.31,122.62,230.02,121.62,230.02z M122.73,225.28c0-0.71-0.4-1.23-1.11-1.23s-1.11,0.53-1.11,1.23v2.93
		c0,0.71,0.4,1.23,1.11,1.23s1.11-0.53,1.11-1.23V225.28z"/>
	<path class="st3" d="M128.29,229.96c-0.76,0-1.14-0.53-1.14-1.19v-2.73h-0.56v-0.5h0.56v-1.39h0.65v1.39h0.95v0.5h-0.95v2.71
		c0,0.41,0.19,0.65,0.61,0.65h0.34v0.56H128.29z"/>
	<path class="st3" d="M129.69,229.96v-0.56l2.48-3.31h-2.34v-0.58h3.09v0.55l-2.49,3.32h2.49v0.58H129.69z"/>
</g>
<rect x="182.3" y="190.19" class="st1" width="119" height="74.26"/>
<rect x="182.3" y="172.79" class="st7" width="119" height="17.77"/>
<g>
	<path class="st3" d="M194.18,186.3c-1.28,0-2.12-0.32-2.93-1.13l0.62-0.62c0.71,0.71,1.37,0.94,2.33,0.94
		c1.25,0,2.01-0.59,2.01-1.58c0-0.44-0.13-0.83-0.41-1.07c-0.28-0.24-0.49-0.31-1.12-0.41l-1-0.16c-0.67-0.11-1.2-0.32-1.57-0.65
		c-0.43-0.38-0.65-0.91-0.65-1.59c0-1.45,1.04-2.41,2.73-2.41c1.09,0,1.81,0.28,2.54,0.94l-0.59,0.59
		c-0.53-0.48-1.09-0.73-1.99-0.73c-1.14,0-1.8,0.64-1.8,1.58c0,0.42,0.12,0.75,0.38,0.98c0.26,0.23,0.71,0.4,1.15,0.47l0.94,0.14
		c0.8,0.12,1.2,0.29,1.56,0.6c0.47,0.4,0.72,0.98,0.72,1.69C197.13,185.38,195.96,186.3,194.18,186.3z"/>
	<path class="st3" d="M201.55,178.51v7.72h-0.91v-7.72h-2.47v-0.82h5.85v0.82H201.55z"/>
	<path class="st3" d="M209.88,186.23l-0.68-1.93h-3.73l-0.68,1.93h-0.97l3.14-8.54h0.77l3.13,8.54H209.88z M207.35,179l-1.61,4.51
		h3.19L207.35,179z"/>
	<path class="st3" d="M217.55,186.23l-2.6-4.55l-1.8,2.16v2.39h-0.91v-8.54h0.91v4.91l3.98-4.91h1.12l-2.69,3.3l3.07,5.24H217.55z"
		/>
	<path class="st3" d="M220.03,186.23v-8.54h5.3v0.82h-4.39v3.01h3.74v0.82h-3.74v3.08h4.39v0.82H220.03z"/>
	<path class="st3" d="M232.42,186.3c-1.28,0-2.12-0.32-2.93-1.13l0.62-0.62c0.71,0.71,1.37,0.94,2.33,0.94
		c1.25,0,2.01-0.59,2.01-1.58c0-0.44-0.13-0.83-0.41-1.07c-0.28-0.24-0.49-0.31-1.12-0.41l-1-0.16c-0.67-0.11-1.2-0.32-1.57-0.65
		c-0.43-0.38-0.65-0.91-0.65-1.59c0-1.45,1.04-2.41,2.73-2.41c1.09,0,1.81,0.28,2.54,0.94l-0.59,0.59
		c-0.53-0.48-1.09-0.73-1.99-0.73c-1.14,0-1.8,0.64-1.8,1.58c0,0.42,0.12,0.75,0.38,0.98c0.26,0.23,0.71,0.4,1.15,0.47l0.94,0.14
		c0.8,0.12,1.2,0.29,1.56,0.6c0.47,0.4,0.72,0.98,0.72,1.69C235.37,185.38,234.19,186.3,232.42,186.3z"/>
	<path class="st3" d="M242.72,186.23l-4.53-6.85v6.85h-0.91v-8.54h0.86l4.53,6.82v-6.82h0.91v8.54H242.72z"/>
	<path class="st3" d="M251.04,186.23l-0.68-1.93h-3.73l-0.68,1.93h-0.97l3.14-8.54h0.77l3.13,8.54H251.04z M248.51,179l-1.61,4.51
		h3.19L248.51,179z"/>
	<path class="st3" d="M256.57,182.72h-2.27v3.51h-0.91v-8.54h3.18c1.56,0,2.64,0.97,2.64,2.51S258.13,182.72,256.57,182.72z
		 M256.49,178.51h-2.18v3.39h2.18c1.07,0,1.81-0.58,1.81-1.7C258.3,179.07,257.55,178.51,256.49,178.51z"/>
	<path class="st3" d="M263.15,186.3c-1.28,0-2.12-0.32-2.93-1.13l0.62-0.62c0.71,0.71,1.37,0.94,2.33,0.94
		c1.25,0,2.01-0.59,2.01-1.58c0-0.44-0.13-0.83-0.41-1.07c-0.28-0.24-0.49-0.31-1.12-0.41l-1-0.16c-0.67-0.11-1.2-0.32-1.57-0.65
		c-0.43-0.38-0.65-0.91-0.65-1.59c0-1.45,1.04-2.41,2.73-2.41c1.09,0,1.81,0.28,2.54,0.94l-0.59,0.59
		c-0.53-0.48-1.09-0.73-1.99-0.73c-1.14,0-1.8,0.64-1.8,1.58c0,0.42,0.12,0.75,0.38,0.98c0.26,0.23,0.71,0.4,1.15,0.47l0.94,0.14
		c0.8,0.12,1.2,0.29,1.56,0.6c0.47,0.4,0.72,0.98,0.72,1.69C266.1,185.38,264.92,186.3,263.15,186.3z"/>
	<path class="st3" d="M272.97,186.23v-3.9h-4.05v3.9h-0.91v-8.54h0.91v3.83h4.05v-3.83h0.91v8.54H272.97z"/>
	<path class="st3" d="M281.21,185.41c-0.58,0.58-1.33,0.89-2.18,0.89c-0.85,0-1.61-0.31-2.18-0.89c-0.8-0.8-0.8-1.64-0.8-3.45
		c0-1.81,0-2.65,0.8-3.45c0.58-0.58,1.33-0.89,2.18-0.89c0.85,0,1.61,0.31,2.18,0.89c0.8,0.8,0.8,1.64,0.8,3.45
		C282.01,183.77,282.01,184.61,281.21,185.41z M280.5,179.05c-0.37-0.38-0.91-0.61-1.48-0.61c-0.56,0-1.1,0.23-1.47,0.61
		c-0.54,0.55-0.6,1.13-0.6,2.91s0.06,2.36,0.6,2.91c0.37,0.38,0.91,0.61,1.47,0.61c0.56,0,1.1-0.23,1.48-0.61
		c0.54-0.55,0.6-1.13,0.6-2.91S281.04,179.6,280.5,179.05z"/>
	<path class="st3" d="M286.43,178.51v7.72h-0.91v-7.72h-2.47v-0.82h5.85v0.82H286.43z"/>
</g>
<circle id="XMLID_46_" class="st12" cx="205.01" cy="211.51" r="12.57"/>
<path id="XMLID_45_" class="st13" d="M212.33,218.82l-0.82-2.13c-0.2-0.53-0.64-0.93-1.18-1.1l-3.03-0.72v-1.89
	c-0.65,1-1.53,1.48-2.29,1.73c-0.75-0.25-1.64-0.72-2.29-1.72v2.41c0,0,0.46,0.91,2.29,0.91v2.51H212.33z"/>
<path id="XMLID_31_" class="st14" d="M207.3,214.87l1.14,0.27v-3.91c-0.13,0.13-0.29,0.23-0.5,0.26c-0.16,0.6-0.38,1.08-0.64,1.49
	V214.87z"/>
<path id="XMLID_21_" class="st15" d="M202.73,212.98v1.89l-3.03,0.72c-0.54,0.16-0.98,0.57-1.18,1.1l-0.82,2.13h7.31v-4.11
	C204.26,214.46,203.38,213.98,202.73,212.98z"/>
<path id="XMLID_20_" class="st15" d="M208.45,209.22L208.45,209.22c-0.35,0.1-2-0.33-2.06-3.71c-0.38-0.11-0.83-0.18-1.37-0.18
	c-2.97,0-3.2,1.82-3.2,3.88c0,3.84,1.83,5.03,3.2,5.49c1.05-0.35,2.37-1.14,2.93-3.22c0.76-0.13,0.95-1.05,0.95-1.76
	C208.9,209.48,208.67,209.23,208.45,209.22z"/>
<path id="XMLID_19_" class="st16" d="M211.5,216.69c-0.13-0.35-0.37-0.64-0.67-0.85c-0.56,1.05-3.06,1.84-6.05,1.84
	c-2.76,0-5.09-0.67-5.88-1.59c-0.16,0.17-0.3,0.37-0.38,0.6l-0.82,2.13h7.31h7.31L211.5,216.69z"/>
<path id="XMLID_18_" class="st17" d="M205.01,205.34c-2.97,0-3.2,1.82-3.2,3.88c0,3.84,1.83,5.03,3.2,5.49V205.34z"/>
<path id="XMLID_17_" class="st14" d="M204.33,209.68c0-0.25-0.2-0.46-0.46-0.46h0l0,0.01c0,0.25-0.2,0.46-0.46,0.46
	c0.01,0.25,0.21,0.44,0.46,0.44C204.12,210.14,204.33,209.93,204.33,209.68z"/>
<path id="XMLID_16_" class="st14" d="M206.61,209.68c0-0.25-0.2-0.46-0.46-0.46h0l0,0.01c0,0.25-0.2,0.46-0.46,0.46
	c0.01,0.25,0.21,0.44,0.46,0.44C206.41,210.14,206.61,209.93,206.61,209.68z"/>
<path id="XMLID_15_" class="st18" d="M203.87,212.19h2.29c0,0,0,0.69-1.14,0.69C203.87,212.88,203.87,212.19,203.87,212.19z"/>
<path id="XMLID_14_" class="st14" d="M200.9,207.85v10.51c0,0,2.51-1.37,2.51-5.55v-3.59c0-3.65,3.2-1.83,2.97-3.89
	C206.38,203.51,200.9,204.42,200.9,207.85z"/>
<path id="XMLID_13_" class="st14" d="M206.38,205.35c0.01,3.53,1.71,3.97,2.06,3.87c0-0.74,0.49-3.88-2.05-3.89L206.38,205.35z"/>
<path id="XMLID_12_" class="st3" d="M208.29,211.74l0.35,0.84c0.06,0.14,0.03,0.3-0.08,0.41c-0.15,0.15-0.39,0.15-0.53,0
	c-0.11-0.11-0.14-0.27-0.08-0.41L208.29,211.74z"/>
<circle id="XMLID_11_" class="st19" cx="205.01" cy="245.02" r="12.57"/>
<path id="XMLID_10_" class="st14" d="M211.43,249.82c-0.15-0.31-0.39-0.54-0.7-0.7l-3.4-0.93v-1.35l-1.16,0.93
	c-0.12,0.15-0.31,0.23-0.5,0.23h-0.66h-0.62c-0.19,0-0.39-0.08-0.5-0.23l-1.16-0.93v1.35l-3.4,0.93c-0.31,0.12-0.54,0.39-0.7,0.7
	l-0.93,2.51h7.31h7.31L211.43,249.82z"/>
<path id="XMLID_9_" class="st15" d="M208.92,243.24c0-0.27-0.23-0.5-0.46-0.5c-0.23,0-0.23,0.27-0.23,0.27v-0.27
	c0-2.05-0.23-3.44-3.21-3.44c-2.98,0-3.21,1.35-3.21,3.44v1.82l0.93,2.28l1.16,0.93c0.12,0.15,0.31,0.23,0.5,0.23h0.62h0.62
	c0.19,0,0.39-0.08,0.5-0.23l1.16-0.93l0.73-1.82C208.69,244.99,208.92,243.98,208.92,243.24z"/>
<path id="XMLID_8_" class="st17" d="M201.8,242.74v0.27c0,0,0-0.27-0.23-0.27c-0.23,0-0.43,0.23-0.43,0.5
	c0,0.73,0.23,1.74,0.85,1.78l0.73,1.82l1.16,0.93c0.12,0.15,0.31,0.23,0.5,0.23h0.62v-8.7C202.03,239.3,201.84,240.69,201.8,242.74z
	"/>
<path id="XMLID_7_" class="st20" d="M208.26,240.77c0.62-0.89,0.62-1.93,0.62-1.93h-3.87h-1.55c-0.58,0-1.16,0.23-1.55,0.7
	c-0.39,0.43-0.58,1.04-0.5,1.62l0.66,3.98l0.7,1.7l1.16,0.93c0.12,0.15,0.31,0.23,0.5,0.23h0.58h0.62c0.19,0,0.39-0.08,0.5-0.23
	l1.16-0.93l0.7-1.7l0.54-3.79c0.04-0.15,0-0.35-0.12-0.46C208.38,240.85,208.34,240.81,208.26,240.77z M207.99,242.74l-0.46,2.28
	l0,0l-0.7,1.35h-0.23l-0.31-0.89c-0.08-0.27-0.35-0.46-0.66-0.46h-0.62h-0.66c-0.31,0-0.54,0.19-0.66,0.46l-0.31,0.89h-0.23
	l-0.66-1.35l0,0l-0.46-2.28v-2.05c0,0,0,1.24,2.98,1.35c0.15,0,0.31,0,0.46,0c1.24,0,2.01-0.43,2.51-0.93V242.74z"/>
<path id="XMLID_6_" class="st21" d="M202.03,245.14l0.7,1.7l1.16,0.93c0.12,0.15,0.31,0.23,0.5,0.23h0.62v-2.98h-0.66
	c-0.31,0-0.54,0.19-0.66,0.46l-0.31,0.89h-0.23l-0.66-1.35l0,0l-0.46-2.28v-2.05c0,0,0,1.24,2.98,1.35v-3.21h-1.55
	c-0.58,0-1.16,0.23-1.55,0.7c-0.39,0.43-0.58,1.04-0.5,1.62"/>
<path id="XMLID_5_" class="st17" d="M204.12,245.72h1.82c0,0,0,0.7-0.93,0.7C204.08,246.42,204.12,245.72,204.12,245.72z"/>
<path id="XMLID_4_" class="st14" d="M206.52,242.2c-0.54,0-1.12,0.39-1.12,0.39h-0.39h-0.39c0,0-0.54-0.39-1.12-0.39
	c-0.93,0-1.47,0.39-1.47,0.39v0.19h0.19c0,1.12,0.39,1.66,1.35,1.66c0.97,0,1.16-0.93,1.16-1.2c0-0.27,0.27-0.31,0.27-0.31
	s0.27,0.04,0.27,0.31c0,0.27,0.19,1.2,1.16,1.2c0.97,0,1.35-0.54,1.35-1.66h0.19v-0.19C207.99,242.55,207.45,242.2,206.52,242.2z"/>
<path id="XMLID_2_" class="st22" d="M203.54,242.55c-0.5,0-0.93,0.23-0.93,0.73c0,0.19,0.08,0.39,0.19,0.54l1.2-1.2
	C203.85,242.59,203.7,242.55,203.54,242.55z"/>
<path id="XMLID_1_" class="st22" d="M206.52,242.55c-0.5,0-0.93,0.23-0.93,0.73c0,0.19,0.08,0.39,0.19,0.54l1.2-1.2
	C206.87,242.59,206.68,242.55,206.52,242.55z"/>
<rect x="229.03" y="203.57" class="st23" width="53.27" height="13.13"/>
<g>
	<rect x="231.25" y="206.58" class="st24" width="47.51" height="7.64"/>
	<path class="st3" d="M239.63,213.02v-5.72l-1.2,1.06v-0.74l1.2-1.04h0.65v6.44H239.63z"/>
	<path class="st3" d="M245.68,212.6c-0.3,0.3-0.71,0.48-1.28,0.48c-0.56,0-1.01-0.18-1.29-0.46c-0.28-0.29-0.42-0.66-0.45-1.12h0.65
		c0.08,0.64,0.42,1,1.1,1c0.32,0,0.61-0.11,0.8-0.3c0.33-0.33,0.35-0.85,0.35-1.31c0-0.79-0.15-1.57-1.09-1.57
		c-0.56,0-0.94,0.25-1.07,0.63h-0.59v-3.38h3.26v0.58h-2.67v2.04c0.25-0.28,0.65-0.44,1.16-0.44c0.48,0,0.86,0.15,1.11,0.41
		c0.47,0.47,0.53,1.12,0.53,1.73C246.2,211.54,246.14,212.14,245.68,212.6z"/>
	<path class="st3" d="M247.53,214.32v-2.1h0.8v1.38L247.53,214.32z"/>
	<path class="st3" d="M251.49,213.07c-1,0-1.76-0.71-1.76-1.77v-3c0-1.07,0.76-1.77,1.76-1.77s1.76,0.71,1.76,1.77v3
		C253.25,212.37,252.49,213.07,251.49,213.07z M252.6,208.33c0-0.71-0.4-1.23-1.11-1.23s-1.11,0.53-1.11,1.23v2.93
		c0,0.71,0.4,1.23,1.11,1.23s1.11-0.53,1.11-1.23V208.33z"/>
	<path class="st3" d="M256.21,213.07c-1,0-1.76-0.71-1.76-1.77v-3c0-1.07,0.76-1.77,1.76-1.77s1.76,0.71,1.76,1.77v3
		C257.98,212.37,257.22,213.07,256.21,213.07z M257.32,208.33c0-0.71-0.4-1.23-1.11-1.23s-1.11,0.53-1.11,1.23v2.93
		c0,0.71,0.4,1.23,1.11,1.23s1.11-0.53,1.11-1.23V208.33z"/>
	<path class="st3" d="M260.94,213.07c-1,0-1.76-0.71-1.76-1.77v-3c0-1.07,0.76-1.77,1.76-1.77s1.76,0.71,1.76,1.77v3
		C262.7,212.37,261.94,213.07,260.94,213.07z M262.05,208.33c0-0.71-0.4-1.23-1.11-1.23s-1.11,0.53-1.11,1.23v2.93
		c0,0.71,0.4,1.23,1.11,1.23s1.11-0.53,1.11-1.23V208.33z"/>
	<path class="st3" d="M267.61,213.02c-0.76,0-1.14-0.53-1.14-1.19v-2.73h-0.56v-0.5h0.56v-1.39h0.65v1.39h0.95v0.5h-0.95v2.71
		c0,0.41,0.19,0.65,0.61,0.65h0.34v0.56H267.61z"/>
	<path class="st3" d="M269.01,213.02v-0.56l2.48-3.31h-2.34v-0.58h3.09v0.55l-2.49,3.32h2.49v0.58H269.01z"/>
</g>
<rect x="229.03" y="238.46" class="st23" width="53.27" height="13.13"/>
<g>
	<rect x="231.25" y="241.47" class="st24" width="47.51" height="7.64"/>
	<path class="st3" d="M239.63,247.91v-5.72l-1.2,1.06v-0.74l1.2-1.04h0.65v6.44H239.63z"/>
	<path class="st3" d="M244.38,247.96c-1,0-1.76-0.71-1.76-1.77v-3c0-1.07,0.76-1.77,1.76-1.77s1.76,0.71,1.76,1.77v3
		C246.14,247.26,245.38,247.96,244.38,247.96z M245.49,243.22c0-0.71-0.4-1.23-1.11-1.23s-1.11,0.53-1.11,1.23v2.93
		c0,0.71,0.4,1.23,1.11,1.23s1.11-0.53,1.11-1.23V243.22z"/>
	<path class="st3" d="M247.53,249.21v-2.1h0.8v1.38L247.53,249.21z"/>
	<path class="st3" d="M251.49,247.96c-1,0-1.76-0.71-1.76-1.77v-3c0-1.07,0.76-1.77,1.76-1.77s1.76,0.71,1.76,1.77v3
		C253.25,247.26,252.49,247.96,251.49,247.96z M252.6,243.22c0-0.71-0.4-1.23-1.11-1.23s-1.11,0.53-1.11,1.23v2.93
		c0,0.71,0.4,1.23,1.11,1.23s1.11-0.53,1.11-1.23V243.22z"/>
	<path class="st3" d="M256.21,247.96c-1,0-1.76-0.71-1.76-1.77v-3c0-1.07,0.76-1.77,1.76-1.77s1.76,0.71,1.76,1.77v3
		C257.98,247.26,257.22,247.96,256.21,247.96z M257.32,243.22c0-0.71-0.4-1.23-1.11-1.23s-1.11,0.53-1.11,1.23v2.93
		c0,0.71,0.4,1.23,1.11,1.23s1.11-0.53,1.11-1.23V243.22z"/>
	<path class="st3" d="M260.94,247.96c-1,0-1.76-0.71-1.76-1.77v-3c0-1.07,0.76-1.77,1.76-1.77s1.76,0.71,1.76,1.77v3
		C262.7,247.26,261.94,247.96,260.94,247.96z M262.05,243.22c0-0.71-0.4-1.23-1.11-1.23s-1.11,0.53-1.11,1.23v2.93
		c0,0.71,0.4,1.23,1.11,1.23s1.11-0.53,1.11-1.23V243.22z"/>
	<path class="st3" d="M267.61,247.91c-0.76,0-1.14-0.53-1.14-1.19v-2.73h-0.56v-0.5h0.56v-1.39h0.65v1.39h0.95v0.5h-0.95v2.71
		c0,0.41,0.19,0.65,0.61,0.65h0.34v0.56H267.61z"/>
	<path class="st3" d="M269.01,247.91v-0.56l2.48-3.31h-2.34v-0.58h3.09v0.55l-2.49,3.32h2.49v0.58H269.01z"/>
</g>
<rect x="322.54" y="207.96" class="st1" width="119" height="74.26"/>
<rect x="322.54" y="190.56" class="st7" width="119" height="17.77"/>
<g>
	<path class="st3" d="M334.42,204.08c-1.28,0-2.12-0.32-2.93-1.13l0.62-0.62c0.71,0.71,1.37,0.94,2.33,0.94
		c1.25,0,2.01-0.59,2.01-1.58c0-0.44-0.13-0.83-0.41-1.07c-0.28-0.24-0.49-0.31-1.12-0.41l-1-0.16c-0.67-0.11-1.2-0.32-1.57-0.65
		c-0.43-0.38-0.65-0.91-0.65-1.59c0-1.45,1.04-2.41,2.74-2.41c1.09,0,1.81,0.28,2.54,0.94l-0.59,0.59
		c-0.53-0.48-1.09-0.73-1.99-0.73c-1.14,0-1.8,0.64-1.8,1.58c0,0.42,0.12,0.75,0.38,0.98c0.26,0.23,0.71,0.4,1.15,0.47l0.94,0.14
		c0.8,0.12,1.2,0.29,1.56,0.6c0.47,0.4,0.72,0.98,0.72,1.69C337.37,203.15,336.19,204.08,334.42,204.08z"/>
	<path class="st3" d="M341.79,196.28V204h-0.91v-7.72h-2.47v-0.82h5.85v0.82H341.79z"/>
	<path class="st3" d="M350.11,204l-0.68-1.93h-3.73l-0.68,1.93h-0.97l3.14-8.54h0.77l3.13,8.54H350.11z M347.58,196.77l-1.61,4.51
		h3.19L347.58,196.77z"/>
	<path class="st3" d="M357.78,204l-2.6-4.55l-1.8,2.16V204h-0.91v-8.54h0.91v4.91l3.98-4.91h1.12l-2.69,3.3l3.07,5.24H357.78z"/>
	<path class="st3" d="M360.27,204v-8.54h5.3v0.82h-4.39v3.01h3.74v0.82h-3.74v3.08h4.39V204H360.27z"/>
	<path class="st3" d="M372.65,204.08c-1.28,0-2.12-0.32-2.93-1.13l0.62-0.62c0.71,0.71,1.37,0.94,2.33,0.94
		c1.25,0,2.01-0.59,2.01-1.58c0-0.44-0.13-0.83-0.41-1.07c-0.28-0.24-0.49-0.31-1.12-0.41l-1-0.16c-0.67-0.11-1.2-0.32-1.57-0.65
		c-0.43-0.38-0.65-0.91-0.65-1.59c0-1.45,1.04-2.41,2.74-2.41c1.09,0,1.81,0.28,2.54,0.94l-0.59,0.59
		c-0.53-0.48-1.09-0.73-1.99-0.73c-1.14,0-1.8,0.64-1.8,1.58c0,0.42,0.12,0.75,0.38,0.98c0.26,0.23,0.71,0.4,1.15,0.47l0.94,0.14
		c0.8,0.12,1.2,0.29,1.56,0.6c0.47,0.4,0.72,0.98,0.72,1.69C375.6,203.15,374.42,204.08,372.65,204.08z"/>
	<path class="st3" d="M382.96,204l-4.53-6.85V204h-0.91v-8.54h0.86l4.53,6.82v-6.82h0.91V204H382.96z"/>
	<path class="st3" d="M391.27,204l-0.68-1.93h-3.73l-0.68,1.93h-0.97l3.14-8.54h0.77l3.13,8.54H391.27z M388.74,196.77l-1.61,4.51
		h3.19L388.74,196.77z"/>
	<path class="st3" d="M396.81,200.49h-2.27V204h-0.91v-8.54h3.18c1.56,0,2.64,0.97,2.64,2.51S398.36,200.49,396.81,200.49z
		 M396.72,196.28h-2.18v3.39h2.18c1.07,0,1.81-0.58,1.81-1.7C398.53,196.84,397.79,196.28,396.72,196.28z"/>
	<path class="st3" d="M403.38,204.08c-1.28,0-2.12-0.32-2.93-1.13l0.62-0.62c0.71,0.71,1.37,0.94,2.33,0.94
		c1.25,0,2.01-0.59,2.01-1.58c0-0.44-0.13-0.83-0.41-1.07c-0.28-0.24-0.49-0.31-1.12-0.41l-1-0.16c-0.67-0.11-1.2-0.32-1.57-0.65
		c-0.43-0.38-0.65-0.91-0.65-1.59c0-1.45,1.04-2.41,2.74-2.41c1.09,0,1.81,0.28,2.54,0.94l-0.59,0.59
		c-0.53-0.48-1.09-0.73-1.99-0.73c-1.14,0-1.8,0.64-1.8,1.58c0,0.42,0.12,0.75,0.38,0.98c0.26,0.23,0.71,0.4,1.15,0.47l0.94,0.14
		c0.8,0.12,1.2,0.29,1.56,0.6c0.47,0.4,0.72,0.98,0.72,1.69C406.33,203.15,405.16,204.08,403.38,204.08z"/>
	<path class="st3" d="M413.21,204v-3.9h-4.05v3.9h-0.91v-8.54h0.91v3.83h4.05v-3.83h0.91V204H413.21z"/>
	<path class="st3" d="M421.44,203.19c-0.58,0.58-1.33,0.89-2.18,0.89c-0.85,0-1.61-0.31-2.18-0.89c-0.8-0.8-0.8-1.64-0.8-3.45
		c0-1.81,0-2.65,0.8-3.45c0.58-0.58,1.33-0.89,2.18-0.89c0.85,0,1.61,0.31,2.18,0.89c0.8,0.8,0.8,1.64,0.8,3.45
		C422.24,201.54,422.24,202.38,421.44,203.19z M420.73,196.82c-0.37-0.38-0.91-0.61-1.48-0.61c-0.56,0-1.1,0.23-1.47,0.61
		c-0.54,0.55-0.6,1.13-0.6,2.91s0.06,2.36,0.6,2.91c0.37,0.38,0.91,0.61,1.47,0.61c0.56,0,1.1-0.23,1.48-0.61
		c0.54-0.55,0.6-1.13,0.6-2.91S421.27,197.37,420.73,196.82z"/>
	<path class="st3" d="M426.66,196.28V204h-0.91v-7.72h-2.47v-0.82h5.85v0.82H426.66z"/>
</g>
<circle id="XMLID_69_" class="st12" cx="345.25" cy="229.28" r="12.57"/>
<path id="XMLID_68_" class="st13" d="M352.56,236.6l-0.82-2.13c-0.2-0.53-0.64-0.93-1.18-1.1l-3.03-0.72v-1.89
	c-0.65,1-1.53,1.48-2.29,1.73c-0.75-0.25-1.64-0.72-2.29-1.72v2.41c0,0,0.46,0.91,2.29,0.91v2.51H352.56z"/>
<path id="XMLID_67_" class="st14" d="M347.53,232.64l1.14,0.27V229c-0.13,0.13-0.29,0.23-0.5,0.26c-0.16,0.6-0.38,1.08-0.64,1.49
	V232.64z"/>
<path id="XMLID_66_" class="st15" d="M342.96,230.76v1.89l-3.03,0.72c-0.54,0.16-0.98,0.57-1.18,1.1l-0.82,2.13h7.31v-4.11
	C344.5,232.23,343.61,231.76,342.96,230.76z"/>
<path id="XMLID_65_" class="st15" d="M348.68,227L348.68,227c-0.35,0.1-2-0.33-2.06-3.71c-0.38-0.11-0.83-0.18-1.37-0.18
	c-2.97,0-3.2,1.82-3.2,3.88c0,3.84,1.83,5.03,3.2,5.49c1.05-0.35,2.37-1.14,2.93-3.22c0.76-0.13,0.95-1.05,0.95-1.76
	C349.13,227.25,348.91,227,348.68,227z"/>
<path id="XMLID_64_" class="st16" d="M351.74,234.46c-0.13-0.35-0.37-0.64-0.67-0.85c-0.56,1.05-3.06,1.84-6.05,1.84
	c-2.76,0-5.09-0.67-5.88-1.59c-0.16,0.17-0.3,0.37-0.38,0.6l-0.82,2.13h7.31h7.31L351.74,234.46z"/>
<path id="XMLID_63_" class="st17" d="M345.25,223.11c-2.97,0-3.2,1.82-3.2,3.88c0,3.84,1.83,5.03,3.2,5.49V223.11z"/>
<path id="XMLID_62_" class="st14" d="M344.56,227.45c0-0.25-0.2-0.46-0.46-0.46h0l0,0.01c0,0.25-0.2,0.46-0.46,0.46
	c0.01,0.25,0.21,0.44,0.46,0.44C344.36,227.91,344.56,227.71,344.56,227.45z"/>
<path id="XMLID_61_" class="st14" d="M346.85,227.45c0-0.25-0.2-0.46-0.46-0.46h0l0,0.01c0,0.25-0.2,0.46-0.46,0.46
	c0.01,0.25,0.21,0.44,0.46,0.44C346.64,227.91,346.85,227.71,346.85,227.45z"/>
<path id="XMLID_60_" class="st18" d="M344.1,229.97h2.29c0,0,0,0.69-1.14,0.69S344.1,229.97,344.1,229.97z"/>
<path id="XMLID_59_" class="st14" d="M341.13,225.62v10.51c0,0,2.51-1.37,2.51-5.55V227c0-3.65,3.2-1.83,2.97-3.89
	C346.62,221.28,341.13,222.2,341.13,225.62z"/>
<path id="XMLID_58_" class="st14" d="M346.62,223.13c0.01,3.53,1.71,3.97,2.06,3.87c0-0.74,0.49-3.88-2.05-3.89L346.62,223.13z"/>
<path id="XMLID_57_" class="st3" d="M348.53,229.51l0.35,0.84c0.06,0.14,0.03,0.3-0.08,0.41c-0.15,0.15-0.39,0.15-0.53,0
	c-0.11-0.11-0.14-0.27-0.08-0.41L348.53,229.51z"/>
<circle id="XMLID_56_" class="st19" cx="345.25" cy="262.8" r="12.57"/>
<path id="XMLID_55_" class="st14" d="M351.67,267.59c-0.15-0.31-0.39-0.54-0.7-0.7l-3.4-0.93v-1.35l-1.16,0.93
	c-0.12,0.15-0.31,0.23-0.5,0.23h-0.66h-0.62c-0.19,0-0.39-0.08-0.5-0.23l-1.16-0.93v1.35l-3.4,0.93c-0.31,0.12-0.54,0.39-0.7,0.7
	l-0.93,2.51h7.31h7.31L351.67,267.59z"/>
<path id="XMLID_54_" class="st15" d="M349.15,261.02c0-0.27-0.23-0.5-0.46-0.5c-0.23,0-0.23,0.27-0.23,0.27v-0.27
	c0-2.05-0.23-3.44-3.21-3.44c-2.98,0-3.21,1.35-3.21,3.44v1.82l0.93,2.28l1.16,0.93c0.12,0.15,0.31,0.23,0.5,0.23h0.62h0.62
	c0.19,0,0.39-0.08,0.5-0.23l1.16-0.93l0.73-1.82C348.92,262.76,349.15,261.75,349.15,261.02z"/>
<path id="XMLID_53_" class="st17" d="M342.04,260.52v0.27c0,0,0-0.27-0.23-0.27s-0.43,0.23-0.43,0.5c0,0.73,0.23,1.74,0.85,1.78
	l0.73,1.82l1.16,0.93c0.12,0.15,0.31,0.23,0.5,0.23h0.62v-8.7C342.27,257.07,342.08,258.47,342.04,260.52z"/>
<path id="XMLID_52_" class="st20" d="M348.5,258.54c0.62-0.89,0.62-1.93,0.62-1.93h-3.87h-1.55c-0.58,0-1.16,0.23-1.55,0.7
	c-0.39,0.43-0.58,1.04-0.5,1.62l0.66,3.98l0.7,1.7l1.16,0.93c0.12,0.15,0.31,0.23,0.5,0.23h0.58h0.62c0.19,0,0.39-0.08,0.5-0.23
	l1.16-0.93l0.7-1.7l0.54-3.79c0.04-0.15,0-0.35-0.12-0.46C348.61,258.62,348.57,258.58,348.5,258.54z M348.22,260.52l-0.46,2.28l0,0
	l-0.7,1.35h-0.23l-0.31-0.89c-0.08-0.27-0.35-0.46-0.66-0.46h-0.62h-0.66c-0.31,0-0.54,0.19-0.66,0.46l-0.31,0.89h-0.23l-0.66-1.35
	l0,0l-0.46-2.28v-2.05c0,0,0,1.24,2.98,1.35c0.15,0,0.31,0,0.46,0c1.24,0,2.01-0.43,2.51-0.93V260.52z"/>
<path id="XMLID_51_" class="st21" d="M342.27,262.91l0.7,1.7l1.16,0.93c0.12,0.15,0.31,0.23,0.5,0.23h0.62v-2.98h-0.66
	c-0.31,0-0.54,0.19-0.66,0.46l-0.31,0.89h-0.23l-0.66-1.35l0,0l-0.46-2.28v-2.05c0,0,0,1.24,2.98,1.35v-3.21h-1.55
	c-0.58,0-1.16,0.23-1.55,0.7c-0.39,0.43-0.58,1.04-0.5,1.62"/>
<path id="XMLID_50_" class="st17" d="M344.36,263.49h1.82c0,0,0,0.7-0.93,0.7C344.32,264.19,344.36,263.49,344.36,263.49z"/>
<path id="XMLID_49_" class="st14" d="M346.76,259.97c-0.54,0-1.12,0.39-1.12,0.39h-0.39h-0.39c0,0-0.54-0.39-1.12-0.39
	c-0.93,0-1.47,0.39-1.47,0.39v0.19h0.19c0,1.12,0.39,1.66,1.35,1.66s1.16-0.93,1.16-1.2c0-0.27,0.27-0.31,0.27-0.31
	s0.27,0.04,0.27,0.31c0,0.27,0.19,1.2,1.16,1.2s1.35-0.54,1.35-1.66h0.19v-0.19C348.22,260.32,347.68,259.97,346.76,259.97z"/>
<path id="XMLID_48_" class="st22" d="M343.78,260.32c-0.5,0-0.93,0.23-0.93,0.73c0,0.19,0.08,0.39,0.19,0.54l1.2-1.2
	C344.09,260.36,343.93,260.32,343.78,260.32z"/>
<path id="XMLID_47_" class="st22" d="M346.76,260.32c-0.5,0-0.93,0.23-0.93,0.73c0,0.19,0.08,0.39,0.19,0.54l1.2-1.2
	C347.1,260.36,346.91,260.32,346.76,260.32z"/>
<rect x="369.26" y="221.35" class="st23" width="53.27" height="13.13"/>
<g>
	<rect x="371.48" y="224.35" class="st24" width="47.51" height="7.64"/>
	<path class="st3" d="M392.37,230.79v-0.85h0.85v0.85H392.37z"/>
	<path class="st3" d="M394.81,230.79v-0.85h0.85v0.85H394.81z"/>
	<path class="st3" d="M397.25,230.79v-0.85h0.85v0.85H397.25z"/>
</g>
<rect x="369.26" y="256.23" class="st23" width="53.27" height="13.13"/>
<g>
	<rect x="371.48" y="259.24" class="st24" width="47.51" height="7.64"/>
	<path class="st3" d="M392.37,265.68v-0.85h0.85v0.85H392.37z"/>
	<path class="st3" d="M394.81,265.68v-0.85h0.85v0.85H394.81z"/>
	<path class="st3" d="M397.25,265.68v-0.85h0.85v0.85H397.25z"/>
</g>
<rect x="470.24" y="301.16" class="st25" width="111.5" height="59.11"/>
<g>
	<rect x="482.86" y="324.54" class="st24" width="86.26" height="14.35"/>
	<path class="st3" d="M499.52,336.64l-2.75-5.37h-2.91v5.37h-1.29v-12.1h4.64c2.11,0,3.59,1.27,3.59,3.37
		c0,1.77-1.07,2.92-2.63,3.25l2.87,5.49H499.52z M497.08,325.69h-3.23v4.44h3.23c1.41,0,2.41-0.73,2.41-2.21
		C499.5,326.44,498.5,325.69,497.08,325.69z"/>
	<path class="st3" d="M510.77,336.64l-0.97-2.74h-5.29l-0.97,2.74h-1.38l4.45-12.1h1.09l4.44,12.1H510.77z M507.18,326.39
		l-2.28,6.39h4.52L507.18,326.39z"/>
	<path class="st3" d="M521.82,336.64l-6.43-9.71v9.71h-1.29v-12.1h1.22l6.43,9.67v-9.67h1.29v12.1H521.82z"/>
	<path class="st3" d="M533.75,335.52c-0.73,0.73-1.8,1.12-3.06,1.12h-4.15v-12.1h4.15c1.26,0,2.33,0.39,3.06,1.12
		c1.26,1.26,1.19,3.11,1.19,4.79S535.01,334.26,533.75,335.52z M532.85,326.58c-0.63-0.65-1.44-0.88-2.38-0.88h-2.63v9.79h2.63
		c0.94,0,1.75-0.24,2.38-0.88c0.83-0.87,0.8-2.67,0.8-4.15S533.68,327.44,532.85,326.58z"/>
	<path class="st3" d="M544.85,335.48c-0.82,0.82-1.89,1.26-3.09,1.26s-2.28-0.44-3.09-1.26c-1.14-1.14-1.14-2.33-1.14-4.9
		c0-2.57,0-3.76,1.14-4.9c0.82-0.82,1.89-1.26,3.09-1.26s2.28,0.44,3.09,1.26c1.14,1.14,1.14,2.33,1.14,4.9
		C545.99,333.16,545.99,334.34,544.85,335.48z M543.85,326.46c-0.53-0.54-1.29-0.87-2.09-0.87s-1.56,0.32-2.09,0.87
		c-0.76,0.78-0.85,1.6-0.85,4.13c0,2.53,0.08,3.35,0.85,4.13c0.53,0.54,1.29,0.87,2.09,0.87s1.56-0.32,2.09-0.87
		c0.77-0.78,0.85-1.6,0.85-4.13C544.7,328.06,544.62,327.24,543.85,326.46z"/>
	<path class="st3" d="M558.11,336.64v-9.2l-3.31,7.29h-1.11l-3.37-7.29v9.2h-1.29v-12.1h1.29l3.94,8.58l3.84-8.58h1.29v12.1H558.11z
		"/>
</g>
<g>
	<g>
		<line class="st26" x1="102.49" y1="246.13" x2="102.49" y2="247.13"/>
		<line class="st27" x1="102.49" y1="249.14" x2="102.49" y2="344.94"/>
		<line class="st26" x1="102.49" y1="345.95" x2="102.49" y2="346.95"/>
	</g>
</g>
<g>
	<g>
		<line class="st26" x1="241.8" y1="264.07" x2="241.8" y2="265.07"/>
		<line class="st28" x1="241.8" y1="267.06" x2="241.8" y2="329.72"/>
		<line class="st26" x1="241.8" y1="330.71" x2="241.8" y2="331.71"/>
	</g>
</g>
<g>
	<g>
		<line class="st26" x1="382.04" y1="282.22" x2="382.04" y2="283.22"/>
		<line class="st29" x1="382.04" y1="285.15" x2="382.04" y2="315.04"/>
		<line class="st26" x1="382.04" y1="316" x2="382.04" y2="317"/>
	</g>
</g>
<g>
	<g>
		<line class="st26" x1="382.03" y1="316.47" x2="383.03" y2="316.47"/>
		<line class="st30" x1="384.99" y1="316.47" x2="462.35" y2="316.47"/>
		<line class="st26" x1="463.33" y1="316.47" x2="464.33" y2="316.47"/>
		<g>
			<path class="st25" d="M470.36,316.47c-2.84,1.05-6.36,2.85-8.55,4.76l1.72-4.76l-1.72-4.75
				C464,313.62,467.52,315.42,470.36,316.47z"/>
		</g>
	</g>
</g>
<g>
	<g>
		<line class="st26" x1="241.8" y1="331.71" x2="242.8" y2="331.71"/>
		<line class="st31" x1="244.79" y1="331.71" x2="462.52" y2="331.71"/>
		<line class="st26" x1="463.51" y1="331.71" x2="464.51" y2="331.71"/>
		<g>
			<path class="st25" d="M470.54,331.71c-2.84,1.05-6.36,2.85-8.55,4.76l1.72-4.76l-1.72-4.75
				C464.18,328.86,467.7,330.66,470.54,331.71z"/>
		</g>
	</g>
</g>
<g>
	<g>
		<line class="st26" x1="102.49" y1="346.95" x2="103.49" y2="346.95"/>
		<line class="st32" x1="105.49" y1="346.95" x2="461.29" y2="346.95"/>
		<line class="st26" x1="462.3" y1="346.95" x2="463.3" y2="346.95"/>
		<g>
			<path class="st25" d="M469.33,346.95c-2.84,1.05-6.36,2.85-8.55,4.76l1.72-4.76l-1.72-4.75
				C462.97,344.1,466.49,345.9,469.33,346.95z"/>
		</g>
	</g>
</g>
<g>
	<g>
		<line class="st1" x1="249.1" y1="57.14" x2="249.1" y2="58.14"/>
		<line class="st33" x1="249.1" y1="60.16" x2="249.1" y2="164.2"/>
		<line class="st1" x1="249.1" y1="165.21" x2="249.1" y2="166.21"/>
		<g>
			<path class="st0" d="M249.1,172.24c-1.05-2.84-2.85-6.36-4.76-8.55l4.76,1.72l4.75-1.72C251.95,165.88,250.15,169.4,249.1,172.24
				z"/>
		</g>
	</g>
</g>
<g>
	<g>
		<line class="st1" x1="370.14" y1="56.41" x2="370.14" y2="57.41"/>
		<line class="st34" x1="370.14" y1="59.41" x2="370.14" y2="182.15"/>
		<line class="st1" x1="370.14" y1="183.15" x2="370.14" y2="184.15"/>
		<g>
			<path class="st0" d="M370.14,190.19c-1.05-2.84-2.85-6.36-4.76-8.55l4.76,1.72l4.75-1.72
				C372.99,183.82,371.19,187.35,370.14,190.19z"/>
		</g>
	</g>
</g>
<g>
	<path class="st0" d="M156.07,47.49v-1.32h1.32v1.32H156.07z"/>
	<path class="st0" d="M159.85,47.49v-1.32h1.32v1.32H159.85z"/>
	<path class="st0" d="M163.63,47.49v-1.32h1.32v1.32H163.63z"/>
</g>
<g>
	<path class="st0" d="M325.74,47.49v-1.32h1.32v1.32H325.74z"/>
	<path class="st0" d="M329.52,47.49v-1.32h1.32v1.32H329.52z"/>
	<path class="st0" d="M333.3,47.49v-1.32h1.32v1.32H333.3z"/>
</g>
<g>
	<path class="st0" d="M284.24,47.49v-1.32h1.32v1.32H284.24z"/>
	<path class="st0" d="M288.02,47.49v-1.32h1.32v1.32H288.02z"/>
	<path class="st0" d="M291.8,47.49v-1.32h1.32v1.32H291.8z"/>
</g>
<g>
	<path class="st0" d="M456.06,48.49v-1.32h1.32v1.32H456.06z"/>
	<path class="st0" d="M459.84,48.49v-1.32h1.32v1.32H459.84z"/>
	<path class="st0" d="M463.62,48.49v-1.32h1.32v1.32H463.62z"/>
</g>
<g>
	<path class="st0" d="M576.06,48.58v-1.32h1.32v1.32H576.06z"/>
	<path class="st0" d="M579.84,48.58v-1.32h1.32v1.32H579.84z"/>
	<path class="st0" d="M583.62,48.58v-1.32h1.32v1.32H583.62z"/>
</g>
<g>
	<path class="st0" d="M665.56,48.49v-1.32h1.32v1.32H665.56z"/>
	<path class="st0" d="M669.34,48.49v-1.32h1.32v1.32H669.34z"/>
	<path class="st0" d="M673.12,48.49v-1.32h1.32v1.32H673.12z"/>
</g>
<g>
	<g>
		<line class="st26" x1="582.33" y1="330.71" x2="583.33" y2="330.71"/>
		<line class="st30" x1="585.29" y1="330.71" x2="662.64" y2="330.71"/>
		<line class="st26" x1="663.62" y1="330.71" x2="664.62" y2="330.71"/>
		<g>
			<path class="st25" d="M670.66,330.71c-2.84,1.05-6.36,2.85-8.55,4.76l1.72-4.76l-1.72-4.75
				C664.29,327.86,667.82,329.66,670.66,330.71z"/>
		</g>
	</g>
</g>
<g>
</g>
</svg>
